<svg width="31" height="28" viewBox="0 0 31 28" fill="none" xmlns="http://www.w3.org/2000/svg">
<path d="M12.4531 3.64062C10.0929 3.64281 7.83014 4.48205 6.16125 5.97418C4.49237 7.46631 3.55371 9.48945 3.55127 11.5996C3.55127 17.1181 11.5866 24.361 11.9281 24.6718C12.0677 24.7957 12.2564 24.8652 12.4531 24.8652C12.6498 24.8652 12.8385 24.7957 12.9781 24.6718C12.9781 24.6718 13.6313 24.0896 14.5553 23.1398C14.6202 23.0742 14.67 22.9978 14.7018 22.915C14.7336 22.8321 14.7467 22.7445 14.7404 22.6571C14.7342 22.5696 14.7086 22.4842 14.6652 22.4057C14.6218 22.3271 14.5615 22.2571 14.4877 22.1995C14.4139 22.1419 14.328 22.0979 14.2351 22.0701C14.1422 22.0423 14.0441 22.0313 13.9464 22.0375C13.8487 22.0438 13.7533 22.0673 13.6658 22.1067C13.5783 22.1461 13.5004 22.2005 13.4365 22.267C13.0479 22.6649 12.7095 23.0004 12.4531 23.2416C10.6811 21.5491 5.03508 15.8152 5.03508 11.5978C5.03508 9.83867 5.81667 8.15159 7.20792 6.9077C8.59916 5.6638 10.4861 4.96499 12.4536 4.96499C14.4211 4.96499 16.3081 5.6638 17.6993 6.9077C19.0906 8.15159 19.8722 9.83867 19.8722 11.5978C19.8737 11.7964 19.8573 11.9948 19.8229 12.191C19.7903 12.3645 19.8361 12.5425 19.9502 12.6858C20.0644 12.8291 20.2375 12.926 20.4315 12.9552C20.6256 12.9844 20.8246 12.9434 20.9849 12.8414C21.1452 12.7393 21.2536 12.5845 21.2862 12.411C21.3346 12.1422 21.358 11.8701 21.356 11.5978C21.353 9.48777 20.4139 7.46497 18.7449 5.97321C17.0758 4.48144 14.8131 3.64257 12.4531 3.64062Z" fill="#474747"/>
<path d="M12.4539 7.62061C11.5735 7.62061 10.7128 7.85403 9.98079 8.29135C9.24876 8.72867 8.6782 9.35026 8.34129 10.0775C8.00437 10.8047 7.91622 11.605 8.08798 12.377C8.25974 13.1491 8.68369 13.8582 9.30623 14.4148C9.92878 14.9714 10.7219 15.3505 11.5854 15.5041C12.4489 15.6576 13.344 15.5788 14.1574 15.2776C14.9708 14.9763 15.666 14.4662 16.1551 13.8117C16.6442 13.1572 16.9053 12.3877 16.9053 11.6006C16.9039 10.5454 16.4345 9.53378 15.6 8.78765C14.7655 8.04153 13.6341 7.62182 12.4539 7.62061ZM12.4539 14.253C11.8669 14.253 11.2932 14.0974 10.8051 13.8058C10.3171 13.5143 9.93676 13.0999 9.71215 12.615C9.48753 12.1302 9.42877 11.5967 9.54328 11.082C9.65778 10.5673 9.94042 10.0946 10.3554 9.72348C10.7705 9.35241 11.2993 9.09971 11.8749 8.99733C12.4506 8.89495 13.0473 8.94749 13.5895 9.14831C14.1318 9.34914 14.5953 9.68922 14.9214 10.1256C15.2474 10.5619 15.4215 11.0749 15.4215 11.5997C15.4199 12.3029 15.1067 12.9769 14.5505 13.4742C13.9943 13.9715 13.2404 14.2515 12.4539 14.253Z" fill="#474747"/>
<path d="M21.3561 14.2529C20.1823 14.2529 19.0347 14.5642 18.0587 15.1473C17.0827 15.7304 16.3219 16.5591 15.8727 17.5288C15.4235 18.4985 15.3059 19.5654 15.5349 20.5948C15.764 21.6242 16.3292 22.5698 17.1593 23.3119C17.9893 24.054 19.0469 24.5594 20.1982 24.7642C21.3496 24.969 22.5429 24.8639 23.6275 24.4622C24.712 24.0606 25.639 23.3804 26.2911 22.5077C26.9433 21.6351 27.2914 20.6091 27.2914 19.5595C27.29 18.1525 26.6643 16.8035 25.5515 15.8085C24.4387 14.8136 22.9298 14.2541 21.3561 14.2529ZM21.3561 23.5386C20.4757 23.5386 19.6151 23.3052 18.8831 22.8679C18.151 22.4305 17.5805 21.809 17.2436 21.0817C16.9066 20.3545 16.8185 19.5542 16.9903 18.7822C17.162 18.0102 17.586 17.301 18.2085 16.7444C18.8311 16.1878 19.6242 15.8087 20.4877 15.6551C21.3512 15.5016 22.2462 15.5804 23.0596 15.8816C23.873 16.1828 24.5682 16.693 25.0574 17.3475C25.5465 18.002 25.8076 18.7715 25.8076 19.5586C25.8062 20.6138 25.3368 21.6254 24.5023 22.3716C23.6678 23.1177 22.5363 23.5374 21.3561 23.5386Z" fill="#474747"/>
<path d="M23.581 18.8957H22.0972V17.5691C22.0972 17.3931 22.019 17.2244 21.8799 17.1C21.7408 16.9756 21.5521 16.9058 21.3553 16.9058C21.1585 16.9058 20.9698 16.9756 20.8307 17.1C20.6916 17.2244 20.6134 17.3931 20.6134 17.5691V18.8957H19.1296C18.9328 18.8957 18.7441 18.9656 18.605 19.09C18.4658 19.2144 18.3877 19.3831 18.3877 19.5591C18.3877 19.735 18.4658 19.9037 18.605 20.0281C18.7441 20.1525 18.9328 20.2224 19.1296 20.2224H20.6134V21.549C20.6134 21.725 20.6916 21.8937 20.8307 22.0181C20.9698 22.1425 21.1585 22.2124 21.3553 22.2124C21.5521 22.2124 21.7408 22.1425 21.8799 22.0181C22.019 21.8937 22.0972 21.725 22.0972 21.549V20.2224H23.581C23.7778 20.2224 23.9665 20.1525 24.1056 20.0281C24.2448 19.9037 24.3229 19.735 24.3229 19.5591C24.3229 19.3831 24.2448 19.2144 24.1056 19.09C23.9665 18.9656 23.7778 18.8957 23.581 18.8957Z" fill="#474747"/>
</svg>
