<svg width="40" height="40" viewBox="0 0 40 40" fill="none" xmlns="http://www.w3.org/2000/svg">
<rect width="40" height="40" rx="20" fill="black"/>
<path d="M31.4983 27.5593C31.0817 28.5418 30.5663 29.478 29.9603 30.3528C29.397 31.2509 28.7386 32.0836 27.997 32.836C27.313 33.5109 26.408 33.9056 25.4555 33.9446C24.6459 33.9068 23.8504 33.7151 23.1104 33.3792C22.3131 33.0339 21.4573 32.8494 20.5908 32.836C19.6979 32.8545 18.8167 33.0464 17.9948 33.4014C17.2868 33.7241 16.5313 33.9264 15.7587 34C15.2715 33.9917 14.7909 33.8845 14.3451 33.6846C13.8992 33.4847 13.4972 33.1961 13.1628 32.836C12.3902 32.0734 11.6992 31.2299 11.1012 30.3196C10.1675 28.9561 9.43275 27.4626 8.91975 25.8853C8.33058 24.2012 8.02095 22.4292 8.00352 20.6418C7.95621 18.8871 8.38651 17.1532 9.24697 15.6311C9.85518 14.4992 10.747 13.5507 11.832 12.8819C12.8949 12.237 14.1065 11.889 15.3443 11.8731C16.2785 11.9321 17.1965 12.1494 18.0602 12.5161C18.7553 12.8302 19.4892 13.0465 20.2417 13.159C21.0598 12.9858 21.8597 12.7334 22.6305 12.4052C23.6678 11.9754 24.7833 11.7751 25.9027 11.8177C26.9605 11.8479 27.9973 12.1245 28.9334 12.6262C29.8695 13.1278 30.6798 13.841 31.3019 14.711C30.3148 15.2405 29.4932 16.0404 28.9303 17.02C28.3674 17.9996 28.0857 19.1198 28.1169 20.2538C28.1058 21.1208 28.276 21.9803 28.6164 22.7753C28.9567 23.5703 29.4594 24.2828 30.0912 24.8654C30.6481 25.4134 31.2938 25.8597 32 26.1846C31.8364 26.6502 31.6728 27.0937 31.4983 27.526V27.5593ZM26.0009 5.56537C25.9812 7.06509 25.427 8.50667 24.4411 9.62271C23.9423 10.321 23.2854 10.887 22.5261 11.2729C21.7667 11.6588 20.927 11.8532 20.0781 11.8398C20.0666 11.659 20.0666 11.4775 20.0781 11.2966C20.1247 9.77605 20.7095 8.32361 21.7251 7.20604C22.2901 6.56098 22.9762 6.0371 23.743 5.66514C24.4601 5.29274 25.242 5.06677 26.0445 5C26.055 5.192 26.055 5.38445 26.0445 5.57645L26.0009 5.56537Z" fill="white"/>
</svg>
