<svg width="52" height="52" viewBox="0 0 52 52" fill="none" xmlns="http://www.w3.org/2000/svg">
<rect width="52" height="52" rx="26" fill="url(#paint0_linear_3_4028)"/>
<path fill-rule="evenodd" clip-rule="evenodd" d="M35.7747 23.7019L35.8715 24.5722L37.611 24.3762L37.513 23.5071C36.9799 18.7506 33.285 15.0592 28.5274 14.5307L27.657 14.4339L27.4645 16.1734L28.3337 16.2702C32.2735 16.7077 35.3325 19.7644 35.7747 23.7019Z" fill="white"/>
<path fill-rule="evenodd" clip-rule="evenodd" d="M31.6548 23.7839L31.8228 24.6426L33.5401 24.3089L33.3733 23.4503C32.8996 21.0213 31.026 19.1464 28.5981 18.6751L27.7395 18.5083L27.4046 20.2256L28.2633 20.3924C29.9876 20.7273 31.3188 22.0584 31.6548 23.7839Z" fill="white"/>
<path fill-rule="evenodd" clip-rule="evenodd" d="M27.8689 30.2348C27.2622 30.0248 25.518 29.3201 23.9232 27.7264C22.4264 26.2296 21.8022 24.5753 21.619 23.9989L23.6012 20.5561L19.2869 14.6294L18.8307 14.8978C16.985 15.9804 15.6317 17.3338 14.5712 19.1573L14.5024 19.3439C13.9027 22.5453 15.7355 27.2633 19.0594 31.0853C22.6644 35.2304 27.345 37.5661 31.9907 37.5661C32.2007 37.5661 32.4119 37.5614 32.6207 37.5521L32.7595 37.5463L32.8797 37.4774C34.7487 36.4309 36.1079 35.0729 37.1532 33.2039L37.404 32.7548L31.3047 28.2573L27.8689 30.2348Z" fill="white"/>
<defs>
<linearGradient id="paint0_linear_3_4028" x1="-1.98907" y1="26" x2="50.5111" y2="55.86" gradientUnits="userSpaceOnUse">
<stop stop-color="#161716"/>
<stop offset="1" stop-color="#161716"/>
</linearGradient>
</defs>
</svg>
