<svg width="53" height="24" viewBox="0 0 53 24" fill="none" xmlns="http://www.w3.org/2000/svg">
<path d="M51.7204 10.821C51.6467 9.95289 51.564 8.97055 51.4025 8.12287C51.2904 7.53001 51.0439 6.74055 50.2103 6.74055C50.1269 6.74055 50.0432 6.74858 49.9606 6.75692C49.9091 6.76171 49.8575 6.7685 49.7731 6.77005C49.7714 6.77005 49.7443 6.74441 49.71 6.64697C49.4652 5.96237 48.4384 5.11083 47.1218 4.06934C46.7974 3.81376 46.4092 3.50597 46.2438 3.34722C46.3045 2.93705 46.2955 2.43329 46.0031 2.08613C45.8673 1.92413 45.6117 1.73062 45.1712 1.73062C45.1065 1.73062 45.0377 1.73448 44.8846 1.74776C44.5668 1.74776 43.9298 1.6202 43.0479 1.44214C40.7738 0.986415 36.5412 0.137194 30.1943 0.00360985C20.9531 -0.175068 13.6913 6.33748 13.392 6.61176L13.1779 6.80603C12.7983 6.98517 11.5998 7.41341 7.93641 8.1167C2.74035 9.11587 1.74915 10.7325 1.56192 11.3576C1.14712 11.66 0.475359 12.3812 0.368933 13.2296C0.283381 13.9062 0.0896636 14.1829 0.0896636 14.1822L0 14.2951V19.0707L0.0101208 19.1578C0.291763 20.426 1.63767 21.097 3.90218 21.097C4.6244 21.097 5.16617 21.025 5.14514 21.025C5.17661 21.0233 5.45588 21.0187 5.93978 21.009C5.89028 20.8754 5.84521 20.7403 5.80631 20.6019C5.76867 20.4685 5.7342 20.3341 5.70763 20.1965C5.64375 19.8725 5.60785 19.5391 5.60785 19.1969C5.60785 16.2621 8.0528 13.8742 11.058 13.8742C14.0633 13.8742 16.5084 16.2621 16.5084 19.1969C16.5084 19.4624 16.4818 19.7198 16.4437 19.9749C16.4228 20.1133 16.3986 20.2507 16.3667 20.3851C16.334 20.5242 16.2996 20.6618 16.2562 20.797C23.062 20.6546 31.7223 20.4666 38.4295 20.302C38.3999 20.1676 38.3811 20.0316 38.3623 19.894C38.3434 19.7581 38.3327 19.6222 38.3254 19.4847C38.3205 19.3887 38.3107 19.2945 38.3107 19.1969C38.3107 16.2621 40.7558 13.8742 43.7609 13.8742C46.7236 13.8742 49.1375 16.1964 49.2048 19.0753C49.2048 19.1153 49.2112 19.156 49.2112 19.1969C49.2112 19.3 49.2014 19.4007 49.1948 19.5031C49.1866 19.6486 49.1719 19.7933 49.1523 19.9357C50.4328 19.7294 51.3959 19.0704 51.9535 18.0045C52.9074 16.1821 52.4211 13.7144 52.0787 13.1904C51.8939 12.9069 51.8022 11.7985 51.7204 10.821Z" fill="white"/>
<path d="M6.82812 20.9898C7.53847 22.5843 9.16348 23.6998 11.0575 23.6998C13.0195 23.6998 14.6907 22.5011 15.3572 20.8155C15.41 20.6811 15.4572 20.5435 15.4973 20.4028C15.5358 20.2685 15.5677 20.1309 15.594 19.9917C15.6406 19.7335 15.67 19.4679 15.67 19.1962C15.67 16.7085 13.6057 14.6924 11.0583 14.6924C8.51085 14.6924 6.44653 16.7085 6.44653 19.1962C6.44653 19.5337 6.48749 19.8621 6.55992 20.1789C6.5906 20.3165 6.62744 20.4516 6.67204 20.5835C6.71758 20.7228 6.76961 20.857 6.82812 20.9898Z" fill="white"/>
<path d="M39.2869 20.2798C39.7847 22.2421 41.5961 23.6998 43.7595 23.6998C46.0211 23.6998 47.8988 22.1078 48.2918 20.0101C48.3171 19.8742 48.3367 19.7374 48.3506 19.5975C48.363 19.4648 48.3712 19.332 48.3712 19.1961C48.3712 19.1929 48.3712 19.1896 48.3712 19.1856C48.3663 16.7036 46.3028 14.6923 43.7595 14.6923C41.2128 14.6923 39.1477 16.7084 39.1477 19.1961C39.1477 19.2865 39.1567 19.3743 39.1616 19.4639C39.1698 19.6023 39.1838 19.738 39.205 19.8725C39.2263 20.0103 39.2541 20.1462 39.2869 20.2798Z" fill="white"/>
</svg>
