<svg width="52" height="23" viewBox="0 0 52 23" fill="none" xmlns="http://www.w3.org/2000/svg">
<path d="M41.5088 18.239C41.5088 18.4236 41.5241 18.6041 41.5478 18.7836C41.8221 20.9172 43.6836 22.569 45.9433 22.569C48.264 22.569 50.166 20.8262 50.3582 18.6092C50.3688 18.4868 50.3777 18.3634 50.3777 18.239C50.3777 15.8477 48.3919 13.9084 45.9433 13.9084C43.4941 13.9089 41.5088 15.8477 41.5088 18.239Z" fill="white"/>
<path d="M4.84424 18.239C4.84424 18.4236 4.86004 18.6041 4.88321 18.7836C5.15756 20.9172 7.01908 22.569 9.2787 22.569C11.5999 22.569 13.502 20.8262 13.6942 18.6092C13.7053 18.4868 13.7137 18.3634 13.7137 18.239C13.7137 15.8477 11.7284 13.9084 9.27923 13.9084C6.83003 13.9084 4.84424 15.8477 4.84424 18.239Z" fill="white"/>
<path fill-rule="evenodd" clip-rule="evenodd" d="M0.320797 19.2356L3.87532 19.1816C3.86983 19.1498 3.8638 19.1182 3.85777 19.0865L3.85776 19.0865C3.847 19.03 3.83621 18.9734 3.82845 18.9157C3.79633 18.6704 3.78106 18.4503 3.78106 18.24C3.78106 15.2794 6.24711 12.8717 9.27819 12.8717C12.3103 12.8717 14.7764 15.2804 14.7764 18.24C14.7764 18.3943 14.7664 18.5455 14.7537 18.6982C14.7464 18.781 14.7338 18.8622 14.7212 18.9435L14.7212 18.9436L14.71 19.0165L40.4621 18.6216C40.4511 18.4899 40.4448 18.3624 40.4448 18.2405C40.4448 15.2799 42.9108 12.8722 45.9424 12.8722C48.7039 12.8722 50.9909 14.8732 51.3764 17.4676C51.6834 16.8099 51.9798 15.9089 51.8645 15.0279C51.7363 14.0521 51.1755 13.0929 50.7121 12.3003C50.3798 11.732 50.0976 11.2494 50.0609 10.9077C50.0239 10.5633 50.0679 10.2449 50.1148 9.90508C50.1793 9.43764 50.2495 8.92977 50.122 8.25825C49.9019 7.09859 47.8397 3.27097 45.7507 1.97195C44.2331 1.02828 43.1399 0.385976 38.5306 0.127818C32.0371 -0.235763 27.5806 0.178729 23.6674 1.34044C21.3409 2.0316 13.3772 6.07779 10.9628 7.38349C8.67755 8.61939 7.48119 9.02005 6.08419 9.48791L6.08418 9.48791L6.08415 9.48792C5.73378 9.60526 5.3708 9.72682 4.97485 9.86685C2.69311 10.6737 1.24339 12.4443 0.67151 13.7824C0.0996267 15.1205 -0.316911 16.7872 0.320797 19.2356ZM36.8482 7.35109L36.1658 1.69528C39.9462 1.76007 43.8693 2.05063 44.2137 3.3445C44.4181 4.11126 43.3843 5.94151 42.1463 6.47994C41.19 6.89597 39.7066 7.05334 36.8482 7.35109ZM18.8305 5.28172L18.3987 6.51543C18.3987 6.51543 19.1965 7.48944 18.5651 8.75605C18.5651 8.75605 26.4124 8.28397 33.0607 7.70748L33.789 1.67626H32.8927C26.5525 1.67626 23.9443 2.59986 18.8305 5.28172Z" fill="white"/>
</svg>
