<svg width="23" height="73" viewBox="0 0 23 73" fill="none" xmlns="http://www.w3.org/2000/svg">
<path d="M11.6882 1.5C17.3149 1.5 21.8763 6.0614 21.8763 11.6882V20.8495C21.8763 26.4762 17.3149 31.0376 11.6882 31.0376C6.0614 31.0376 1.5 26.4762 1.5 20.8495V11.6882C1.5 6.0614 6.0614 1.5 11.6882 1.5Z" fill="#161716" stroke="#161716"/>
<path d="M21.9943 11.6883C21.9943 5.99619 17.3799 1.38184 11.6878 1.38184C5.9957 1.38184 1.38135 5.99619 1.38135 11.6883V20.8496C1.38135 26.5417 5.9957 31.156 11.6878 31.156C17.3799 31.156 21.9943 26.5417 21.9943 20.8496V11.6883Z" fill="#161716" stroke="#161716"/>
<path d="M22.3763 52.1506C22.3763 46.2477 17.5911 41.4624 11.6882 41.4624C5.78526 41.4624 1 46.2477 1 52.1506V61.3119C1 67.2148 5.78526 72 11.6882 72C17.5911 72 22.3763 67.2148 22.3763 61.3119V52.1506Z" fill="white"/>
<path d="M21.9943 52.1507C21.9943 46.4586 17.3799 41.8442 11.6878 41.8442C5.9957 41.8442 1.38135 46.4586 1.38135 52.1507V61.312C1.38135 67.0041 5.9957 71.6184 11.6878 71.6184C17.3799 71.6184 21.9943 67.0041 21.9943 61.312V52.1507Z" stroke="#DCDAE3"/>
<path d="M12.0698 33.0645V39.6415" stroke="#C8C7CC" stroke-width="2" stroke-miterlimit="10" stroke-linecap="round" stroke-linejoin="round" stroke-dasharray="1 3"/>
<path d="M11.8789 26.0029C13.6709 26.0029 15.1235 24.5503 15.1235 22.7583C15.1235 20.9663 13.6709 19.5137 11.8789 19.5137C10.0869 19.5137 8.63428 20.9663 8.63428 22.7583C8.63428 24.5503 10.0869 26.0029 11.8789 26.0029Z" fill="white"/>
<path d="M11.8789 53.4863C13.6709 53.4863 15.1235 52.0336 15.1235 50.2417C15.1235 48.4497 13.6709 46.9971 11.8789 46.9971C10.0869 46.9971 8.63428 48.4497 8.63428 50.2417C8.63428 52.0336 10.0869 53.4863 11.8789 53.4863Z" fill="black"/>
</svg>
