<svg width="36" height="36" viewBox="0 0 36 36" fill="none" xmlns="http://www.w3.org/2000/svg">
<path d="M18 33C26.2843 33 33 26.2843 33 18C33 9.71573 26.2843 3 18 3C9.71573 3 3 9.71573 3 18C3 26.2843 9.71573 33 18 33Z" fill="#161716"/>
<path d="M18 9V27V9ZM22.5 14.25C22.5 12.18 20.4855 10.5 18 10.5C15.5145 10.5 13.5 12.18 13.5 14.25C13.5 16.32 15.5145 18 18 18C20.4855 18 22.5 19.68 22.5 21.75C22.5 23.82 20.4855 25.5 18 25.5C15.5145 25.5 13.5 23.82 13.5 21.75" fill="#161716"/>
<path d="M18 9V27M22.5 14.25C22.5 12.18 20.4855 10.5 18 10.5C15.5145 10.5 13.5 12.18 13.5 14.25C13.5 16.32 15.5145 18 18 18C20.4855 18 22.5 19.68 22.5 21.75C22.5 23.82 20.4855 25.5 18 25.5C15.5145 25.5 13.5 23.82 13.5 21.75" stroke="white" stroke-width="2" stroke-linecap="round"/>
</svg>
