<svg width="33" height="30" viewBox="0 0 33 30" fill="none" xmlns="http://www.w3.org/2000/svg">
<path d="M16.5 29.3622C25.0604 29.3622 32 22.9998 32 15.1513C32 7.30286 25.0604 0.94043 16.5 0.94043C7.93959 0.94043 1 7.30286 1 15.1513C1 22.9998 7.93959 29.3622 16.5 29.3622Z" stroke="black"/>
<path d="M23.9991 11.4241C24.0026 11.133 23.9432 10.8442 23.8242 10.5743C23.7052 10.3044 23.529 10.0587 23.3057 9.85144C22.8475 9.43674 22.2316 9.2004 21.5872 9.19191C21.2735 9.19069 20.9627 9.24611 20.6725 9.35498C20.3823 9.46385 20.1184 9.62404 19.896 9.82638L23.3057 12.9716C23.532 12.7716 23.7105 12.5308 23.8298 12.2644C23.9492 11.998 24.0068 11.7119 23.9991 11.4241Z" fill="black"/>
<path d="M22.5308 13.6826L19.1206 10.562L11.2198 17.7919L14.63 20.9125L22.5308 13.6826Z" fill="black"/>
<path d="M10.7766 18.8062L10 22.0276L13.5204 21.317L10.7766 18.8062Z" fill="black"/>
</svg>
