<svg width="105" height="105" viewBox="0 0 105 105" fill="none" xmlns="http://www.w3.org/2000/svg">
<rect width="105" height="105" rx="12" fill="#FFF3F4"/>
<path d="M34.3125 36.0312V66.9688C34.3125 67.6525 34.0409 68.3083 33.5574 68.7918C33.0739 69.2752 32.4181 69.5469 31.7344 69.5469C31.0506 69.5469 30.3949 69.2752 29.9114 68.7918C29.4279 68.3083 29.1562 67.6525 29.1562 66.9688V36.0312C29.1562 35.3475 29.4279 34.6917 29.9114 34.2082C30.3949 33.7247 31.0506 33.4531 31.7344 33.4531C32.4181 33.4531 33.0739 33.7247 33.5574 34.2082C34.0409 34.6917 34.3125 35.3475 34.3125 36.0312ZM52.9459 46.9238L49.7812 47.9508V44.625C49.7812 43.9412 49.5096 43.2855 49.0261 42.802C48.5426 42.3185 47.8869 42.0469 47.2031 42.0469C46.5194 42.0469 45.8636 42.3185 45.3801 42.802C44.8966 43.2855 44.625 43.9412 44.625 44.625V47.9508L41.4604 46.9238C41.136 46.8097 40.7921 46.7617 40.4489 46.7825C40.1057 46.8033 39.7701 46.8925 39.4619 47.0449C39.1537 47.1973 38.8791 47.4099 38.6543 47.67C38.4295 47.9301 38.2589 48.2326 38.1527 48.5596C38.0465 48.8867 38.0068 49.2316 38.036 49.5742C38.0651 49.9168 38.1624 50.2501 38.3223 50.5545C38.4822 50.8589 38.7013 51.1283 38.9668 51.3468C39.2323 51.5652 39.5389 51.7283 39.8684 51.8266L43.0309 52.8557L41.0758 55.5455C40.6738 56.0988 40.508 56.7891 40.615 57.4646C40.722 58.1401 41.0929 58.7454 41.6462 59.1474C42.1995 59.5494 42.8898 59.7151 43.5653 59.6081C44.2407 59.5012 44.8461 59.1302 45.248 58.577L47.2031 55.8871L49.1582 58.577C49.5602 59.1302 50.1655 59.5012 50.841 59.6081C51.5165 59.7151 52.2068 59.5494 52.7601 59.1474C53.3133 58.7454 53.6843 58.1401 53.7912 57.4646C53.8982 56.7891 53.7325 56.0988 53.3305 55.5455L51.3754 52.8557L54.5379 51.8266C54.8674 51.7283 55.1739 51.5652 55.4394 51.3468C55.705 51.1283 55.9241 50.8589 56.084 50.5545C56.2438 50.2501 56.3412 49.9168 56.3703 49.5742C56.3994 49.2316 56.3597 48.8867 56.2535 48.5596C56.1473 48.2326 55.9768 47.9301 55.752 47.67C55.5271 47.4099 55.2525 47.1973 54.9443 47.0449C54.6361 46.8925 54.3005 46.8033 53.9573 46.7825C53.6141 46.7617 53.2702 46.8097 52.9459 46.9238ZM77.6787 48.5781C77.4672 47.9281 77.0062 47.3886 76.397 47.0784C75.7879 46.7681 75.0804 46.7126 74.4303 46.9238L71.2656 47.9508V44.625C71.2656 43.9412 70.994 43.2855 70.5105 42.802C70.027 42.3185 69.3713 42.0469 68.6875 42.0469C68.0037 42.0469 67.348 42.3185 66.8645 42.802C66.381 43.2855 66.1094 43.9412 66.1094 44.625V47.9508L62.9447 46.9238C62.6204 46.8097 62.2765 46.7617 61.9333 46.7825C61.5901 46.8033 61.2545 46.8925 60.9463 47.0449C60.6381 47.1973 60.3635 47.4099 60.1387 47.67C59.9138 47.9301 59.7433 48.2326 59.6371 48.5596C59.5309 48.8867 59.4912 49.2316 59.5203 49.5742C59.5495 49.9168 59.6468 50.2501 59.8067 50.5545C59.9665 50.8589 60.1857 51.1283 60.4512 51.3468C60.7167 51.5652 61.0232 51.7283 61.3527 51.8266L64.5152 52.8557L62.5602 55.5455C62.3611 55.8195 62.218 56.1299 62.1389 56.4592C62.0599 56.7885 62.0464 57.1301 62.0994 57.4646C62.1524 57.799 62.2707 58.1198 62.4476 58.4085C62.6245 58.6973 62.8566 58.9483 63.1306 59.1474C63.4045 59.3464 63.715 59.4895 64.0443 59.5686C64.3735 59.6477 64.7152 59.6611 65.0496 59.6081C65.3841 59.5552 65.7048 59.4368 65.9936 59.2599C66.2823 59.083 66.5334 58.8509 66.7324 58.577L68.6875 55.8871L70.6426 58.577C71.0446 59.1302 71.6499 59.5012 72.3254 59.6081C73.0009 59.7151 73.6912 59.5494 74.2444 59.1474C74.7977 58.7454 75.1686 58.1401 75.2756 57.4646C75.3826 56.7891 75.2168 56.0988 74.8148 55.5455L72.8598 52.8557L76.0223 51.8266C76.3443 51.7221 76.6427 51.5551 76.9002 51.3353C77.1578 51.1155 77.3695 50.8471 77.5234 50.5455C77.6772 50.2438 77.7701 49.9148 77.7967 49.5772C77.8234 49.2397 77.7833 48.9002 77.6787 48.5781Z" fill="#F3969A"/>
</svg>
