<svg width="40" height="40" viewBox="0 0 40 40" fill="none" xmlns="http://www.w3.org/2000/svg">
<path d="M13.4623 1.09657C9.41791 2.49962 5.93 5.16265 3.51093 8.69452C1.09185 12.2264 -0.130871 16.4409 0.0223492 20.719C0.17557 24.9972 1.69666 29.1134 4.3622 32.4632C7.02773 35.813 10.6972 38.2197 14.8317 39.3298C18.1835 40.1947 21.6953 40.2327 25.0651 39.4405C28.1178 38.7548 30.9401 37.288 33.2557 35.1839C35.6657 32.9271 37.415 30.056 38.3155 26.8795C39.294 23.4251 39.4682 19.7924 38.8247 16.2602H20.0021V24.0681H30.9029C30.685 25.3134 30.2182 26.502 29.5303 27.5627C28.8423 28.6233 27.9475 29.5343 26.8993 30.2411C25.5684 31.1219 24.0678 31.7144 22.4941 31.9804C20.9159 32.2739 19.2971 32.2739 17.7189 31.9804C16.1192 31.65 14.606 30.9898 13.2758 30.0419C11.1385 28.5289 9.53364 26.3796 8.69031 23.9005C7.83295 21.375 7.83295 18.6371 8.69031 16.1116C9.29061 14.3413 10.283 12.7295 11.5934 11.3965C13.0929 9.84292 14.9915 8.73245 17.0806 8.18687C19.1697 7.6413 21.3688 7.6817 23.4365 8.30364C25.0518 8.79926 26.529 9.66561 27.75 10.8335C28.9791 9.61076 30.2061 8.38481 31.431 7.1557C32.0635 6.49476 32.7529 5.86544 33.3759 5.18869C31.5117 3.45418 29.3238 2.10443 26.9373 1.21674C22.5912 -0.361321 17.8358 -0.40373 13.4623 1.09657Z" fill="white"/>
<path d="M13.4625 1.09664C17.8356 -0.404677 22.591 -0.363385 26.9374 1.21365C29.3244 2.10737 31.5113 3.46362 33.3729 5.20458C32.7404 5.88133 32.0731 6.5138 31.428 7.17158C30.201 8.39647 28.975 9.61715 27.7501 10.8336C26.5291 9.66568 25.052 8.79933 23.4367 8.30371C21.3696 7.67959 19.1707 7.63685 17.081 8.1802C14.9913 8.72354 13.0916 9.83197 11.5904 11.3839C10.28 12.7169 9.28761 14.3287 8.6873 16.099L2.13168 11.0234C4.4782 6.37011 8.54104 2.81073 13.4625 1.09664Z" fill="#E33629"/>
<path d="M0.392126 16.0516C0.744225 14.3052 1.32922 12.614 2.13144 11.0234L8.68706 16.1116C7.8297 18.6372 7.8297 21.3751 8.68706 23.9006C6.5029 25.5872 4.3177 27.2822 2.13144 28.9857C0.1238 24.9895 -0.488494 20.4362 0.392126 16.0516Z" fill="#F8BD00"/>
<path d="M20.0021 16.2571H38.8246C39.4681 19.7893 39.294 23.4219 38.3155 26.8764C37.4149 30.0529 35.6656 32.9239 33.2557 35.1808C31.14 33.53 29.0149 31.8919 26.8993 30.2411C27.9482 29.5336 28.8434 28.6217 29.5313 27.5599C30.2193 26.498 30.6858 25.3083 30.9028 24.0618H20.0021C19.9989 21.4624 20.0021 18.8597 20.0021 16.2571Z" fill="#587DBD"/>
<path d="M2.12823 28.9857C4.3145 27.2991 6.4997 25.6041 8.68385 23.9006C9.52887 26.3806 11.136 28.53 13.2756 30.042C14.61 30.9855 16.1265 31.6404 17.7283 31.9647C19.3065 32.2582 20.9253 32.2582 22.5035 31.9647C24.0772 31.6987 25.5777 31.1062 26.9087 30.2254C29.0243 31.8762 31.1494 33.5143 33.2651 35.165C30.9498 37.2703 28.1275 38.7382 25.0745 39.4248C21.7047 40.217 18.1929 40.179 14.841 39.3141C12.19 38.6063 9.71376 37.3585 7.56753 35.6489C5.29608 33.8451 3.44073 31.5723 2.12823 28.9857Z" fill="#319F43"/>
</svg>
