<svg width="32" height="32" viewBox="0 0 32 32" fill="none" xmlns="http://www.w3.org/2000/svg">
<path d="M16 0C12.8355 0 9.74207 0.938383 7.11088 2.69649C4.4797 4.45459 2.42894 6.95345 1.21793 9.87706C0.00693257 12.8007 -0.309921 16.0177 0.307443 19.1214C0.924806 22.2251 2.44866 25.0761 4.6863 27.3137C6.92394 29.5513 9.77486 31.0752 12.8786 31.6926C15.9823 32.3099 19.1993 31.9931 22.1229 30.7821C25.0466 29.5711 27.5454 27.5203 29.3035 24.8891C31.0616 22.2579 32 19.1645 32 16C31.9944 11.7583 30.3068 7.69188 27.3075 4.69253C24.3081 1.69317 20.2417 0.00564436 16 0ZM24.94 11.6067L14.94 21.6067C14.8172 21.7312 14.6709 21.8301 14.5095 21.8977C14.3481 21.9652 14.1749 21.9999 14 21.9999C13.8251 21.9999 13.6519 21.9652 13.4905 21.8977C13.3292 21.8301 13.1828 21.7312 13.06 21.6067L8.39334 16.94C8.14404 16.6907 8.00398 16.3526 8.00398 16C8.00398 15.6474 8.14404 15.3093 8.39334 15.06C8.64264 14.8107 8.98077 14.6706 9.33334 14.6706C9.68591 14.6706 10.024 14.8107 10.2733 15.06L14 18.78L23.06 9.72667C23.3093 9.47736 23.6474 9.3373 24 9.3373C24.3526 9.3373 24.6907 9.47736 24.94 9.72667C25.1893 9.97597 25.3294 10.3141 25.3294 10.6667C25.3294 11.0192 25.1893 11.3574 24.94 11.6067Z" fill="#88C941"/>
<path d="M24.9399 11.6063L14.9399 21.6063C14.8171 21.7308 14.6708 21.8298 14.5094 21.8973C14.348 21.9648 14.1749 21.9996 13.9999 21.9996C13.825 21.9996 13.6518 21.9648 13.4905 21.8973C13.3291 21.8298 13.1827 21.7308 13.0599 21.6063L8.39327 16.9396C8.14396 16.6903 8.00391 16.3522 8.00391 15.9996C8.00391 15.647 8.14396 15.3089 8.39327 15.0596C8.64257 14.8103 8.9807 14.6702 9.33327 14.6702C9.68584 14.6702 10.024 14.8103 10.2733 15.0596L13.9999 18.7796L23.0599 9.72628C23.3092 9.47697 23.6474 9.33691 23.9999 9.33691C24.3525 9.33691 24.6906 9.47697 24.9399 9.72628C25.1892 9.97558 25.3293 10.3137 25.3293 10.6663C25.3293 11.0188 25.1892 11.357 24.9399 11.6063Z" fill="white"/>
</svg>
