<svg width="10" height="14" viewBox="0 0 10 14" fill="none" xmlns="http://www.w3.org/2000/svg">
<path d="M0.600098 2.19999C0.600098 1.75817 0.95827 1.39999 1.4001 1.39999H8.6001C9.04192 1.39999 9.4001 1.75817 9.4001 2.19999V11.8C9.4001 12.2418 9.04192 12.6 8.6001 12.6H1.4001C0.95827 12.6 0.600098 12.2418 0.600098 11.8V2.19999Z" fill="#C2CCDE" fill-opacity="0.25"/>
<path d="M2.6001 3.79999H7.4001M2.6001 5.39999H5.8001M2.6001 6.99999H7.4001M2.6001 8.59999H5.8001M2.6001 10.2H7.4001M1.4001 12.6H8.6001C9.04192 12.6 9.4001 12.2418 9.4001 11.8V2.19999C9.4001 1.75817 9.04192 1.39999 8.6001 1.39999H1.4001C0.95827 1.39999 0.600098 1.75817 0.600098 2.19999V11.8C0.600098 12.2418 0.95827 12.6 1.4001 12.6Z" stroke="#414141" stroke-linecap="round" stroke-linejoin="round"/>
</svg>
