<svg width="16" height="16" viewBox="0 0 16 16" fill="none" xmlns="http://www.w3.org/2000/svg">
<path d="M3.33341 8L6.00008 5.33333M3.33341 8L6.00008 10.6667M3.33341 8H10.0001M6.66675 14C7.45468 14 8.2349 13.8448 8.96285 13.5433C9.6908 13.2417 10.3522 12.7998 10.9094 12.2426C11.4665 11.6855 11.9085 11.0241 12.21 10.2961C12.5116 9.56815 12.6667 8.78793 12.6667 8C12.6667 7.21207 12.5116 6.43185 12.21 5.7039C11.9085 4.97595 11.4665 4.31451 10.9094 3.75736C10.3522 3.20021 9.6908 2.75825 8.96285 2.45672C8.2349 2.15519 7.45468 2 6.66675 2" stroke="#414141" stroke-linecap="round" stroke-linejoin="round"/>
</svg>
