<svg width="53" height="22" viewBox="0 0 53 22" fill="none" xmlns="http://www.w3.org/2000/svg">
<path d="M0.448593 16.9191C0.460604 17.8846 1.94708 17.8531 2.01369 17.8513C1.94129 17.5029 1.90279 17.1416 1.90279 16.7714C1.90279 13.7687 4.40503 11.3241 7.48063 11.3241C10.556 11.3241 13.0585 13.7687 13.0585 16.7714C13.0585 17.4009 12.9429 18.0024 12.7411 18.5653C18.9481 18.1669 38.4906 18.3092 39.3167 18.399C39.4212 18.4103 39.6361 18.4079 39.9325 18.3953C39.8432 18.0041 39.7903 17.5994 39.7903 17.1827C39.7903 14.1506 42.3163 11.6839 45.422 11.6839C48.4992 11.6839 51.0063 14.1107 51.0484 17.1063L52.0151 16.7079C52.2292 16.6206 52.1977 16.6127 51.9914 16.5082C51.752 16.3869 51.6068 16.0141 52.2282 14.9384C53.0118 13.5797 52.2823 12.5955 51.8156 12.1514C51.6484 11.9941 51.4955 11.7048 51.4916 11.4786C51.4387 8.17748 50.1528 7.03983 49.4909 6.67189C49.2889 6.56024 49.292 6.4797 49.5214 6.44105C52.5407 5.93129 50.4966 5.96167 50.2284 5.17331C49.9483 4.35102 48.1237 5.2415 47.1765 5.48155C46.827 5.57037 45.7271 5.7611 44.4791 5.96743C44.5362 5.90595 44.572 5.84174 44.5538 5.77345C44.5035 5.58357 44.4443 5.43306 44.3875 5.31617C44.2882 5.11057 44.0622 4.80998 43.8834 4.66408C43.6624 4.48257 43.3023 4.30253 42.7865 4.38621C42.615 4.41439 42.4685 4.50802 42.3433 4.64366C42.3171 4.60333 42.291 4.56207 42.2668 4.52991C42.0549 4.2466 41.6742 3.91772 41.103 4.04896C40.4423 4.20114 40.1556 5.73879 40.0396 6.67032C39.8175 6.69671 39.5407 6.71567 39.3524 6.71567H35.7739C36.5081 5.80299 35.6549 5.23971 34.9758 5.1952C34.7941 5.18274 34.5293 5.29072 34.2396 5.45097C34.0686 5.16912 33.7622 4.99892 33.4858 4.974C33.0336 4.93451 31.9879 6.03802 31.4903 6.59554C31.4576 6.63251 31.437 6.67388 31.422 6.71473H22.1627V5.55916C22.1627 5.16211 21.8326 4.83972 21.426 4.83972C21.0194 4.83972 20.6893 5.16211 20.6893 5.55916V6.71473H19.0407C18.8084 6.71473 18.7586 6.58862 18.9277 6.43372C19.9954 5.45401 23.4642 2.23188 23.2858 1.88415C23.1644 1.64807 23.3101 1.27636 23.456 1.00258C23.5628 0.80159 23.5434 0.513668 23.3498 0.38746C23.0214 0.173273 22.4438 -0.0786194 21.6285 0.0233944C21.3979 0.0523019 21.0345 0.153478 20.8256 0.252978C19.0582 1.0981 14.7087 4.76044 13.4989 5.79147C13.3238 5.94114 12.9943 6.07688 12.7622 6.09573C2.45942 6.9419 1.00693 10.2183 0.81914 11.378C0.782997 11.6022 0.640784 11.8951 0.495032 12.0718C-0.385166 13.1437 0.123519 15.2533 0.388211 16.1239C0.454384 16.342 0.446233 16.6921 0.448593 16.9191Z" fill="white"/>
<path d="M36.1067 4.59515C36.1067 3.67179 35.6 2.92261 34.9755 2.92261C34.5956 2.92261 34.2616 3.20173 34.0562 3.62602C33.8942 3.35465 33.6599 3.17963 33.397 3.17963C32.91 3.17963 32.5154 3.76323 32.5154 4.48266C32.5154 5.20231 32.91 4.9521 33.397 4.9521C33.5862 4.9521 33.7593 4.98823 33.9033 4.99221C34.0502 5.3945 34.4724 5.19708 34.9756 5.19708C35.6008 5.19708 36.1067 5.51862 36.1067 4.59515Z" fill="white"/>
<path d="M41.2077 3.78785C41.3968 3.78785 41.5704 3.82399 41.7145 3.82797C41.8605 4.23026 42.2827 4.03189 42.7863 4.03189C43.4104 4.03189 43.918 4.35343 43.918 3.42996C43.918 2.5065 43.4105 1.75763 42.7863 1.75763C42.4069 1.75763 42.072 2.03654 41.8666 2.46083C41.7055 2.18946 41.4711 2.01444 41.2077 2.01444C40.7212 2.01444 40.3257 2.59825 40.3257 3.31769C40.3257 4.03891 40.7203 3.78785 41.2077 3.78785Z" fill="white"/>
<path d="M7.48077 21.3973C9.4147 21.3973 11.0749 20.2636 11.811 18.6416C12.0703 18.0691 12.2167 17.4388 12.2167 16.7722C12.2167 14.2181 10.0967 12.1472 7.48077 12.1472C4.86485 12.1472 2.74463 14.2181 2.74463 16.7722C2.74463 17.1159 2.78592 17.4492 2.8581 17.7712C3.32667 19.8447 5.21695 21.3973 7.48077 21.3973Z" fill="white"/>
<path d="M45.4222 12.507C42.7772 12.507 40.6326 14.6002 40.6326 17.1835C40.6326 17.5849 40.6902 17.9718 40.7882 18.3437C41.3168 20.3639 43.1881 21.8597 45.4222 21.8597C47.9825 21.8597 50.0674 19.895 50.1985 17.4257C50.2023 17.3447 50.2105 17.2654 50.2105 17.1827C50.2096 14.6003 48.0663 12.507 45.4222 12.507Z" fill="white"/>
</svg>
