<svg width="81" height="80" viewBox="0 0 81 80" fill="none" xmlns="http://www.w3.org/2000/svg">
<g clip-path="url(#clip0_425_2243)">
<path d="M55.7271 34.4964C61.218 34.4964 66.1948 36.7255 69.8005 40.3093C73.4062 43.9062 75.6277 48.8577 75.6277 54.3484C75.6277 58.353 74.428 62.0946 72.3845 65.2115L81 74.5753L75.0542 79.9937L66.7485 70.8732C63.5911 72.9708 59.8008 74.1939 55.7271 74.1939C50.2361 74.1939 45.2593 71.9647 41.6536 68.381C38.0479 64.7841 35.8264 59.8326 35.8264 54.3419C35.8264 48.8643 38.061 43.8996 41.6536 40.3027C45.2593 36.7058 50.2229 34.4964 55.7271 34.4964ZM49.9197 10.9028L73.2283 0.164634C74.1511 -0.256211 75.2256 0.144907 75.6409 1.06551C75.7463 1.30881 75.8188 1.56526 75.8188 1.83486V37.3963C74.7246 36.0943 72.7998 34.9041 71.4749 33.8388V5.36602L52.4773 14.7693V28.3349C51.2249 28.5256 48.5881 28.8018 47.4016 29.1635V14.7758L28.3975 6.4247V59.7734L30.7969 61.6409C31.489 63.7451 32.4382 66.4411 33.6116 68.2692L25.9124 63.6333L2.78174 77.5738C1.9248 78.0999 0.791016 77.8171 0.283447 76.9623C0.0922852 76.6664 0 76.3376 0 76.0088V12.9083C0 12.1258 0.481201 11.4617 1.17993 11.2052L25.1477 0.184362H25.1938L25.24 0.164634H25.2598C25.4377 0.0988774 25.6091 0.0594232 25.8069 0.0594232H26.031C26.209 0.0791503 26.4067 0.105453 26.5781 0.164634H26.5979L26.644 0.184362H26.6902L49.9988 10.9225L49.9197 10.9028ZM23.3218 59.7734V6.4247L4.14624 14.5983V71.5373L23.3218 59.7734ZM66.7156 43.3867C63.9009 40.5855 60.0117 38.8429 55.7271 38.8429C51.4424 38.8429 47.5532 40.5855 44.7385 43.3867C41.9304 46.188 40.1836 50.0742 40.1836 54.3484C40.1836 58.6226 41.9304 62.5023 44.7385 65.3101C47.5466 68.1114 51.4358 69.8539 55.7271 69.8539C60.0117 69.8539 63.9009 68.1114 66.7156 65.3101C69.5237 62.5089 71.2705 58.6292 71.2705 54.3484C71.2705 50.0742 69.5237 46.1946 66.7156 43.3867Z" fill="black"/>
</g>
<defs>
<clipPath id="clip0_425_2243">
<rect width="81" height="80" fill="white"/>
</clipPath>
</defs>
</svg>
