<svg width="53" height="25" viewBox="0 0 53 25" fill="none" xmlns="http://www.w3.org/2000/svg">
<path d="M10.0563 16.4928C7.85776 16.4928 6.07471 18.2325 6.07471 20.3806C6.07471 20.5472 6.0884 20.7102 6.10946 20.8697C6.35644 22.7873 8.02732 24.2694 10.0558 24.2694C12.1406 24.2694 13.8483 22.705 14.021 20.7128C14.0305 20.6028 14.0384 20.4927 14.0384 20.3806C14.0389 18.2325 12.2564 16.4928 10.0563 16.4928Z" fill="white"/>
<path d="M44.2152 16.4928C42.0162 16.4928 40.2336 18.2325 40.2336 20.3806C40.2336 20.5472 40.2468 20.7102 40.2679 20.8697C40.5143 22.7873 42.1863 24.2694 44.2142 24.2694C46.2984 24.2694 48.0062 22.705 48.1794 20.7128C48.1889 20.6028 48.1958 20.4927 48.1958 20.3806C48.1968 18.2325 46.4148 16.4928 44.2152 16.4928Z" fill="white"/>
<path fill-rule="evenodd" clip-rule="evenodd" d="M37.0474 0.298991C36.8594 0.107728 36.6058 0 36.3376 0H29.511L24.2361 4.62451C23.4507 4.72052 22.7712 4.83788 22.2297 4.98007C19.1007 5.80237 11.2049 10.8714 11.2049 10.8714C11.2049 10.8714 2.51769 12.1854 0.860494 16.0546C0.860494 16.0546 0.145377 16.4624 0.0153079 17.5079C-0.0515697 18.0458 0.111675 18.8625 0.291771 19.547C0.489244 20.2957 1.12485 20.8594 1.90684 20.9781L5.67727 21.5551C5.62092 21.3541 5.57405 21.1499 5.54667 20.9391C5.52297 20.757 5.50717 20.5709 5.50717 20.3801C5.50717 17.9306 7.54773 15.9384 10.0564 15.9384C12.5657 15.9384 14.6062 17.9306 14.6062 20.3801C14.6062 20.5081 14.5978 20.6336 14.5873 20.758C14.5493 21.1921 14.4461 21.6071 14.2887 21.9964L14.7321 22.0195L39.7812 21.3577C39.7491 21.2198 39.7238 21.081 39.7048 20.9391C39.6806 20.757 39.6659 20.5709 39.6659 20.3801C39.6659 17.9306 41.7064 15.9384 44.2146 15.9384C46.7238 15.9384 48.7644 17.9306 48.7644 20.3801C48.7644 20.5081 48.756 20.6336 48.7449 20.758C48.7402 20.8139 48.732 20.8686 48.7237 20.9234L48.7236 20.9234L48.7236 20.9235C48.7197 20.9494 48.7158 20.9752 48.7122 21.0013L50.8739 20.5703C51.7654 20.3924 52.3963 19.6138 52.3647 18.7247L52.1809 13.3393C52.1514 12.4805 51.9092 11.6418 51.4758 10.8946L48.6164 5.96745C48.1477 5.16058 47.2889 4.64426 46.3405 4.59747C45.1162 4.53755 43.2456 4.45394 41.0617 4.38291L37.0474 0.298991ZM37.8698 4.29615C36.1904 4.21983 34.2282 4.14935 32.9179 4.16203C32.0637 4.1703 30.8865 4.21973 29.6743 4.28358C32.2949 4.21719 35.1822 4.23832 37.8698 4.29615ZM38.3404 11.1188L37.7649 5.50771C35.0376 5.44754 32.0897 5.42131 29.5073 5.47942V11.4716L38.3404 11.1188ZM15.4748 11.8727L14.6012 11.9205C14.3637 11.9334 14.1462 11.7925 14.0662 11.5734C13.9861 11.3554 14.0636 11.1121 14.2547 10.9748C14.7681 10.6087 15.3969 10.171 16.0973 9.70871V11.1404C15.6707 11.4927 15.4748 11.8727 15.4748 11.8727ZM17.5503 10.5704C17.5789 10.5654 17.6076 10.5604 17.6396 10.5593C19.1899 10.5027 19.4532 11.8727 19.4532 11.8727L27.0425 11.5698V5.5694C25.252 5.66454 23.8113 5.82396 23.0214 6.07338C21.2857 6.62209 19.2673 7.71695 17.4863 8.81952V10.5798C17.5085 10.5777 17.5294 10.574 17.5503 10.5704L17.5503 10.5704ZM48.3248 10.0152C48.0599 10.4646 47.5776 10.75 47.0473 10.7716L40.8061 11.0205L40.2468 5.57248C42.8261 5.6491 44.9809 5.74373 46.0726 5.80132C46.5776 5.82755 47.0331 6.11194 47.2685 6.54906L48.3517 8.55621C48.5997 9.01544 48.5892 9.56672 48.3248 10.0152Z" fill="white"/>
</svg>
