<svg width="321" height="223" viewBox="0 0 321 223" fill="none" xmlns="http://www.w3.org/2000/svg">
<g clip-path="url(#clip0_215_588)">
<path d="M63.9571 223C99.2797 223 127.914 220.828 127.914 218.15C127.914 215.471 99.2797 213.3 63.9571 213.3C28.6346 213.3 0 215.471 0 218.15C0 220.828 28.6346 223 63.9571 223Z" fill="#E6E6E6"/>
<path d="M48.8877 49.4798C60.0182 44.7527 73.8813 47.7477 87.4202 49.8264C87.5462 47.3092 89.0733 44.2455 87.4736 42.4893C85.5302 40.3557 85.7091 38.1139 86.8786 35.8592C89.8691 30.0936 85.5845 23.9586 81.2583 18.8574C80.2832 17.7103 79.0509 16.8089 77.6614 16.2266C76.2719 15.6443 74.7645 15.3974 73.2615 15.506L65.2476 16.0776C63.2975 16.2167 61.4365 16.9471 59.9135 18.1711C58.3906 19.3952 57.2783 21.0545 56.7256 22.9269C54.812 25.5255 53.7878 28.1169 54.4327 30.6947C51.5665 32.6505 51.0849 35.0113 52.3729 37.6727C53.465 39.3484 53.4534 40.9795 52.3232 42.5655C50.8389 44.5876 49.7021 46.8422 48.9593 49.237L48.8877 49.4798Z" fill="#2F2E41"/>
<path d="M313.394 192.78H86.5409C84.5236 192.78 82.5888 191.98 81.1623 190.555C79.7358 189.131 78.9344 187.199 78.9344 185.185C161.168 175.642 241.857 175.642 321 185.185C321 187.199 320.199 189.131 318.772 190.555C317.346 191.98 315.411 192.78 313.394 192.78Z" fill="#2F2E41"/>
<path d="M321 185.632L78.9344 185.185L106.989 138.051L107.123 137.828V33.9498C107.123 32.689 107.372 31.4404 107.855 30.2755C108.338 29.1106 109.046 28.0522 109.939 27.1606C110.832 26.2691 111.892 25.5619 113.059 25.0794C114.226 24.597 115.476 24.3487 116.739 24.3488H281.853C283.116 24.3487 284.367 24.597 285.533 25.0794C286.7 25.5619 287.76 26.2691 288.653 27.1606C289.546 28.0522 290.254 29.1106 290.737 30.2755C291.22 31.4404 291.469 32.689 291.469 33.9498V138.542L321 185.632Z" fill="#3F3D56"/>
<path d="M116.519 31.0503C115.689 31.0512 114.893 31.381 114.306 31.9673C113.719 32.5536 113.388 33.3485 113.387 34.1777V128.892C113.388 129.721 113.719 130.516 114.306 131.103C114.893 131.689 115.689 132.019 116.519 132.02H283.415C284.245 132.019 285.041 131.689 285.629 131.103C286.216 130.516 286.546 129.721 286.547 128.892V34.1777C286.546 33.3485 286.216 32.5536 285.629 31.9674C285.041 31.3811 284.245 31.0513 283.415 31.0503H116.519Z" fill="white"/>
<path d="M117.219 144.529C116.962 144.53 116.711 144.603 116.495 144.741C116.279 144.88 116.107 145.077 115.999 145.309L107.355 164.073C107.261 164.278 107.22 164.502 107.235 164.726C107.251 164.951 107.323 165.167 107.444 165.357C107.565 165.546 107.733 165.702 107.93 165.81C108.128 165.917 108.349 165.974 108.574 165.974H290.363C290.592 165.974 290.817 165.916 291.017 165.804C291.216 165.693 291.385 165.533 291.505 165.338C291.625 165.144 291.694 164.922 291.704 164.694C291.714 164.466 291.666 164.238 291.563 164.034L282.167 145.27C282.056 145.047 281.885 144.859 281.673 144.728C281.461 144.597 281.216 144.528 280.967 144.529H117.219Z" fill="#2F2E41"/>
<path d="M199.296 29.4866C200.408 29.4866 201.31 28.5865 201.31 27.4762C201.31 26.3658 200.408 25.4657 199.296 25.4657C198.184 25.4657 197.283 26.3658 197.283 27.4762C197.283 28.5865 198.184 29.4866 199.296 29.4866Z" fill="white"/>
<path d="M181.428 169.548C181.133 169.548 180.846 169.646 180.612 169.825C180.377 170.004 180.209 170.255 180.132 170.54L177.963 178.582C177.91 178.78 177.903 178.988 177.943 179.19C177.983 179.392 178.069 179.582 178.194 179.745C178.319 179.909 178.481 180.041 178.665 180.132C178.85 180.223 179.053 180.27 179.259 180.27H220.497C220.711 180.27 220.922 180.219 221.112 180.121C221.302 180.024 221.466 179.882 221.59 179.708C221.715 179.533 221.795 179.332 221.826 179.121C221.856 178.909 221.835 178.694 221.765 178.492L218.977 170.45C218.886 170.187 218.715 169.958 218.487 169.797C218.26 169.635 217.988 169.548 217.709 169.548H181.428Z" fill="#2F2E41"/>
<path d="M291.469 136.264V138.051H106.989L107.128 137.828V136.264H291.469Z" fill="#2F2E41"/>
<path d="M286.323 62.5474C303.621 62.5474 317.644 48.5457 317.644 31.2737C317.644 14.0017 303.621 0 286.323 0C269.025 0 255.002 14.0017 255.002 31.2737C255.002 48.5457 269.025 62.5474 286.323 62.5474Z" fill="#161716"/>
<path d="M299.299 44.9001H273.348C272.873 44.8996 272.418 44.7112 272.082 44.3761C271.747 44.0411 271.558 43.5868 271.558 43.113V27.4762C271.558 27.0024 271.747 26.5481 272.083 26.2131C272.418 25.878 272.873 25.6896 273.348 25.6891H299.299C299.774 25.6896 300.229 25.878 300.564 26.2131C300.9 26.5481 301.088 27.0024 301.089 27.4762V43.113C301.088 43.5868 300.9 44.0411 300.564 44.3761C300.229 44.7112 299.774 44.8996 299.299 44.9001ZM273.348 27.4762V43.113H299.3L299.299 27.4762L273.348 27.4762Z" fill="white"/>
<path d="M294.377 27.4762H278.269V20.3279C278.269 15.1504 281.657 11.3926 286.323 11.3926C290.99 11.3926 294.377 15.1504 294.377 20.3279L294.377 27.4762ZM280.059 25.6891H292.588V20.3279C292.588 16.1192 290.012 13.1796 286.323 13.1796C282.635 13.1796 280.059 16.1192 280.059 20.3279L280.059 25.6891Z" fill="white"/>
<path d="M286.323 36.6349C287.312 36.6349 288.113 35.8348 288.113 34.8478C288.113 33.8608 287.312 33.0607 286.323 33.0607C285.335 33.0607 284.534 33.8608 284.534 34.8478C284.534 35.8348 285.335 36.6349 286.323 36.6349Z" fill="white"/>
<path d="M264.459 99.8934H135.476C134.842 99.8927 134.235 99.6411 133.788 99.194C133.34 98.7469 133.088 98.1407 133.087 97.5084V65.5615C133.088 64.9292 133.34 64.323 133.788 63.8759C134.235 63.4288 134.842 63.1773 135.476 63.1765H264.459C265.092 63.1773 265.699 63.4288 266.147 63.8759C266.595 64.323 266.846 64.9292 266.847 65.5615V97.5084C266.846 98.1407 266.595 98.7469 266.147 99.194C265.699 99.6411 265.092 99.8927 264.459 99.8934ZM135.476 64.1305C135.096 64.1309 134.731 64.2818 134.463 64.5501C134.194 64.8184 134.043 65.1821 134.043 65.5615V97.5084C134.043 97.8878 134.194 98.2516 134.463 98.5198C134.731 98.7881 135.096 98.939 135.476 98.9394H264.459C264.839 98.939 265.203 98.7881 265.472 98.5198C265.74 98.2516 265.891 97.8878 265.892 97.5084V65.5615C265.891 65.1821 265.74 64.8183 265.472 64.5501C265.203 64.2818 264.839 64.1309 264.459 64.1305L135.476 64.1305Z" fill="#E6E6E6"/>
<path d="M155.517 90.0242C160.891 90.0242 165.247 85.6746 165.247 80.3091C165.247 74.9436 160.891 70.594 155.517 70.594C150.144 70.594 145.787 74.9436 145.787 80.3091C145.787 85.6746 150.144 90.0242 155.517 90.0242Z" fill="#E6E6E6"/>
<path d="M177.988 73.8324C177.775 73.8321 177.564 73.8737 177.367 73.9549C177.17 74.0362 176.991 74.1554 176.84 74.3058C176.689 74.4562 176.569 74.6348 176.488 74.8314C176.406 75.028 176.364 75.2388 176.364 75.4516C176.364 75.6645 176.406 75.8752 176.488 76.0718C176.569 76.2684 176.689 76.4471 176.84 76.5974C176.991 76.7478 177.17 76.867 177.367 76.9483C177.564 77.0295 177.775 77.0711 177.988 77.0708H254.436C254.866 77.0708 255.279 76.9002 255.583 76.5965C255.887 76.2929 256.058 75.881 256.058 75.4516C256.058 75.0222 255.887 74.6103 255.583 74.3067C255.279 74.003 254.866 73.8324 254.436 73.8324H177.988Z" fill="#E6E6E6"/>
<path d="M177.988 83.5475C177.558 83.5475 177.146 83.7181 176.842 84.0218C176.537 84.3254 176.367 84.7373 176.367 85.1667C176.367 85.5961 176.537 86.008 176.842 86.3116C177.146 86.6153 177.558 86.7859 177.988 86.7859H210.884C211.314 86.7859 211.727 86.6153 212.031 86.3116C212.335 86.008 212.506 85.5961 212.506 85.1667C212.506 84.7373 212.335 84.3254 212.031 84.0218C211.727 83.7181 211.314 83.5475 210.884 83.5475H177.988Z" fill="#E6E6E6"/>
<path d="M106.672 84.2025L82.8281 96.8597L82.5262 86.3121C90.3086 85.0148 97.7127 82.7563 104.559 79.0794L107.053 72.9277C107.324 72.2574 107.766 71.6691 108.334 71.2207C108.902 70.7723 109.578 70.4791 110.293 70.3699C111.009 70.2608 111.741 70.3394 112.418 70.5981C113.094 70.8567 113.691 71.2866 114.151 71.8454C114.824 72.6629 115.16 73.7052 115.092 74.761C115.023 75.8169 114.556 76.8073 113.783 77.5317L106.672 84.2025Z" fill="#FFB8B8"/>
<path d="M48.4123 157.281C48.2384 156.644 48.2014 155.977 48.304 155.325C48.4065 154.672 48.6461 154.049 49.0071 153.496L54.2448 145.47C55.4837 143.572 57.3846 142.2 59.5787 141.622C61.7729 141.044 64.1039 141.301 66.1194 142.342C63.9181 146.083 64.225 149.365 66.8796 152.218C62.7586 154.226 58.9498 156.819 55.5713 159.915C54.9545 160.335 54.2462 160.602 53.5053 160.693C52.7645 160.784 52.0125 160.697 51.3121 160.439C50.6117 160.181 49.9831 159.76 49.4787 159.211C48.9743 158.661 48.6087 158 48.4123 157.281Z" fill="#2F2E41"/>
<path d="M107.758 146.786C106.965 148.105 105.846 149.199 104.509 149.962C103.171 150.724 101.659 151.131 100.119 151.143L65.3228 151.406L63.8137 142.667L79.2063 138.146L66.2282 128.201L80.4136 111.626L106.179 135.604C107.684 137.006 108.663 138.881 108.95 140.916C109.238 142.951 108.817 145.024 107.758 146.786Z" fill="#2F2E41"/>
<path d="M59.8901 206.555H51.741C44.4244 156.478 36.9767 106.261 58.9846 87.5175L84.9408 91.7366L81.6208 113.736L67.1336 130.311L59.8901 206.555Z" fill="#2F2E41"/>
<path d="M67.0534 217.899C66.4155 218.073 65.7479 218.11 65.0947 218.008C64.4414 217.905 63.8173 217.666 63.2633 217.306L54.4151 216.118C52.5138 214.881 51.1404 212.983 50.5614 210.792C49.9824 208.602 50.2391 206.274 51.2816 204.262C55.0287 206.459 58.3157 206.153 61.1721 203.502C63.1904 207.571 66.5157 207.323 69.6916 210.751C70.1121 211.367 70.3791 212.074 70.4705 212.814C70.5618 213.554 70.4748 214.304 70.2167 215.004C69.9586 215.703 69.5368 216.331 68.9866 216.834C68.4364 217.338 67.7736 217.703 67.0534 217.899Z" fill="#2F2E41"/>
<path d="M79.2063 54.0664L64.1155 50.45C66.6218 45.3275 66.8282 39.6276 65.6245 33.5738L75.8863 33.2724C76.2078 40.8005 77.1806 47.8336 79.2063 54.0664Z" fill="#FFB8B8"/>
<path d="M83.3538 100.81C72.3683 108.285 64.6062 101.066 58.6828 89.9284C59.5059 83.1131 58.1732 74.9572 55.7049 66.0952C54.6072 62.1865 55.017 58.0088 56.8535 54.387C58.69 50.7653 61.8196 47.9626 65.6246 46.5323L78.6027 51.9569C89.6226 60.9258 91.7916 70.641 87.6572 80.8876L83.3538 100.81Z" fill="#161716"/>
<path d="M51.741 61.6004L39.6683 67.929L61.0973 80.5862L64.079 87.93C64.278 88.4201 64.3749 88.9456 64.3639 89.4744C64.3529 90.0032 64.2341 90.5242 64.0148 91.0057C63.7956 91.4871 63.4804 91.919 63.0885 92.2748C62.6966 92.6307 62.2363 92.9031 61.7355 93.0756C61.1663 93.2716 60.5593 93.3333 59.9622 93.256C59.3651 93.1787 58.794 92.9644 58.2936 92.6299C57.7933 92.2954 57.3773 91.8498 57.0782 91.3279C56.7791 90.8061 56.6051 90.2223 56.5697 89.6221L56.2682 84.5039L29.0323 75.5296C28.1146 75.2272 27.2779 74.7203 26.5855 74.0472C25.8931 73.3742 25.3632 72.5526 25.0359 71.6448C24.5588 70.3215 24.5345 68.8776 24.9668 67.539C25.3992 66.2005 26.2637 65.0428 27.4252 64.2472L49.3264 49.2446L51.741 61.6004Z" fill="#FFB8B8"/>
<path d="M63.8137 62.8059C58.7786 60.6026 54.2001 62.996 48.4211 64.9154L47.5156 48.9432C53.254 45.8893 58.7252 45.066 63.8137 47.4364L63.8137 62.8059Z" fill="#161716"/>
<path d="M69.8367 41.184C75.1579 41.184 79.4716 36.8768 79.4716 31.5636C79.4716 26.2504 75.1579 21.9432 69.8367 21.9432C64.5155 21.9432 60.2018 26.2504 60.2018 31.5636C60.2018 36.8768 64.5155 41.184 69.8367 41.184Z" fill="#FFB8B8"/>
<path d="M81.3631 30.3497C71.8238 31.2826 64.5548 29.7249 59.9092 25.2894V21.7173H80.5536L81.3631 30.3497Z" fill="#2F2E41"/>
</g>
<defs>
<clipPath id="clip0_215_588">
<rect width="321" height="223" fill="white"/>
</clipPath>
</defs>
</svg>
