<svg width="286" height="288" viewBox="0 0 286 288" fill="none" xmlns="http://www.w3.org/2000/svg">
<g clip-path="url(#clip0_215_618)">
<path d="M143 288C221.977 288 286 284.245 286 279.612C286 274.979 221.977 271.224 143 271.224C64.0233 271.224 0 274.979 0 279.612C0 284.245 64.0233 288 143 288Z" fill="#E6E6E6"/>
<path d="M162.109 66.4466H160.57V24.359C160.57 17.8986 158 11.7028 153.426 7.13458C148.852 2.56638 142.648 0 136.178 0H46.8902C40.421 0 34.2169 2.56638 29.6425 7.13458C25.0681 11.7028 22.4983 17.8986 22.4983 24.359V255.253C22.4983 261.714 25.0681 267.91 29.6425 272.478C34.2169 277.046 40.421 279.612 46.8902 279.612H136.178C142.648 279.612 148.852 277.046 153.426 272.478C158 267.91 160.57 261.714 160.57 255.253V96.405H162.109V66.4466Z" fill="#2F2E41"/>
<path d="M155.379 24.5293V255.083C155.379 259.908 153.459 264.535 150.043 267.947C146.627 271.358 141.994 273.275 137.162 273.275H47.4458C42.6147 273.275 37.9816 271.358 34.5655 267.947C31.1494 264.535 29.2302 259.908 29.23 255.084V24.5293C29.2301 19.7046 31.1493 15.0775 34.5655 11.6659C37.9817 8.25437 42.615 6.33772 47.4462 6.33761H58.3302C57.7953 7.65001 57.5916 9.07356 57.7369 10.483C57.8823 11.8925 58.3723 13.2447 59.1637 14.4207C59.9552 15.5967 61.024 16.5604 62.2759 17.2271C63.5279 17.8938 64.9248 18.243 66.3436 18.2441H117.496C118.915 18.2431 120.312 17.8939 121.564 17.2273C122.816 16.5606 123.885 15.5969 124.676 14.4209C125.468 13.2449 125.958 11.8927 126.103 10.4831C126.249 9.07363 126.045 7.65004 125.51 6.33761H137.162C141.994 6.33772 146.627 8.25437 150.043 11.6659C153.459 15.0775 155.379 19.7046 155.379 24.5293Z" fill="white"/>
<path d="M70.6751 199.088H68.7882L69.4182 162.283H70.0481L70.6751 199.088Z" fill="#E6E6E6"/>
<path d="M72.2472 139.111L75.2928 134.411C74.3896 131.919 73.3464 129.48 72.1682 127.106L70.199 128.695L71.7583 126.288C70.2721 123.367 69.1029 121.526 69.1029 121.526C69.1029 121.526 62.9957 131.138 60.9542 141.316L64.8624 147.348L60.5367 143.858C60.3827 145.044 60.3034 146.238 60.2994 147.433C60.2994 159.486 64.2413 169.257 69.1037 169.257C73.9661 169.257 77.908 159.485 77.908 147.433C77.908 143.697 77.0613 139.787 75.8921 136.171L72.2472 139.111Z" fill="#CCCCCC"/>
<path d="M119.795 199.088H117.908L118.538 162.283H119.168L119.795 199.088Z" fill="#E6E6E6"/>
<path d="M121.366 139.111L124.412 134.411C123.509 131.919 122.466 129.48 121.287 127.106L119.318 128.695L120.878 126.288C119.391 123.367 118.222 121.526 118.222 121.526C118.222 121.526 112.114 131.139 110.075 141.316L113.98 147.347L109.654 143.857C109.5 145.043 109.421 146.237 109.417 147.432C109.417 159.485 113.359 169.256 118.221 169.256C123.084 169.256 127.026 159.484 127.026 147.432C127.026 143.696 126.179 139.786 125.01 136.17L121.366 139.111Z" fill="#CCCCCC"/>
<path d="M69.2393 77.0856C78.814 77.0856 86.5757 69.3343 86.5757 59.7726C86.5757 50.2109 78.814 42.4596 69.2393 42.4596C59.6647 42.4596 51.903 50.2109 51.903 59.7726C51.903 69.3343 59.6647 77.0856 69.2393 77.0856Z" fill="#E6E6E6"/>
<path d="M93.2515 193.729H89.3613L90.6582 117.84H91.9547L93.2515 193.729Z" fill="#E6E6E6"/>
<path d="M96.4933 70.0618L102.773 60.3711C100.911 55.2337 98.7597 50.2053 96.3303 45.3099L92.2696 48.585L95.4849 43.6226C92.4191 37.5991 90.0098 33.804 90.0098 33.804C90.0098 33.804 77.4157 53.6233 73.208 74.6078L81.2643 87.0452L72.3433 79.8495C72.0256 82.2939 71.8622 84.7559 71.854 87.2209C71.854 112.074 79.9817 132.22 90.0077 132.22C100.034 132.22 108.161 112.074 108.161 87.2209C108.161 79.5164 106.416 71.4559 104.008 63.9994L96.4933 70.0618Z" fill="#CCCCCC"/>
<path d="M155.379 204.668V256.258C155.379 266.722 147.223 275.204 137.162 275.205H47.4458C37.3854 275.205 29.2295 266.722 29.2291 256.258V209.698C44.784 190.706 67.2739 179.356 91.2428 178.4C115.212 177.444 138.471 186.971 155.379 204.668Z" fill="#E6E6E6"/>
<path opacity="0.2" d="M92.4019 255.559C107.063 255.559 118.947 243.69 118.947 229.049C118.947 214.408 107.063 202.539 92.4019 202.539C77.7413 202.539 65.8564 214.408 65.8564 229.049C65.8564 243.69 77.7413 255.559 92.4019 255.559Z" fill="#2F2E41"/>
<path d="M92.402 250.395C104.207 250.395 113.776 240.838 113.776 229.049C113.776 217.26 104.207 207.703 92.402 207.703C80.5972 207.703 71.0276 217.26 71.0276 229.049C71.0276 240.838 80.5972 250.395 92.402 250.395Z" fill="#2F2E41"/>
<path d="M89.909 238.175L82.376 228.503L86.7567 225.101L90.3231 229.68L102.372 216.979L106.401 220.791L89.909 238.175Z" fill="white"/>
<path d="M205.99 195.849C213.644 195.849 219.849 189.652 219.849 182.008C219.849 174.364 213.644 168.168 205.99 168.168C198.336 168.168 192.131 174.364 192.131 182.008C192.131 189.652 198.336 195.849 205.99 195.849Z" fill="#2F2E41"/>
<path d="M211.606 259.706L212.674 264.736L232.61 263.016L231.034 255.593L211.606 259.706Z" fill="#FFB8B8"/>
<path d="M210.054 275.425L206.699 259.616L212.815 258.322L214.874 268.023C215.044 268.825 215.054 269.653 214.904 270.459C214.754 271.265 214.447 272.034 213.999 272.721C213.551 273.408 212.973 274.001 212.296 274.465C211.619 274.929 210.857 275.255 210.054 275.425Z" fill="#2F2E41"/>
<path d="M199.116 259.437L196.873 264.065L177.932 257.625L181.244 250.795L199.116 259.437Z" fill="#FFB8B8"/>
<path d="M193.948 266.735L198.275 257.809L203.902 260.53L196.85 275.075C195.358 274.353 194.214 273.069 193.67 271.505C193.125 269.941 193.225 268.225 193.948 266.735Z" fill="#2F2E41"/>
<path d="M161.797 250.297C162.446 250.418 163.113 250.395 163.751 250.23C164.39 250.065 164.985 249.763 165.494 249.344C166.002 248.925 166.413 248.399 166.697 247.805C166.98 247.21 167.13 246.561 167.135 245.902L198.37 217.143L190.613 211.143L162.333 241.316C161.224 241.381 160.178 241.849 159.392 242.633C158.606 243.417 158.135 244.461 158.069 245.569C158.003 246.676 158.346 247.769 159.033 248.641C159.721 249.512 160.704 250.101 161.798 250.297L161.797 250.297Z" fill="#FFB8B8"/>
<path d="M204.25 196.473C209.947 196.473 214.565 191.862 214.565 186.173C214.565 180.483 209.947 175.872 204.25 175.872C198.553 175.872 193.935 180.483 193.935 186.173C193.935 191.862 198.553 196.473 204.25 196.473Z" fill="#FFB8B8"/>
<path d="M213.507 246.724C206.271 246.724 197.557 245.202 192.181 238.974L192.06 238.834L192.186 238.697C192.228 238.652 196.182 234.138 192.233 226.089L186.803 227.757L181.398 220.632L184.392 211.661L196.646 201.805C198.401 200.4 200.539 199.554 202.781 199.376C206.84 198.984 210.793 197.859 214.45 196.057C216.123 195.245 217.966 194.843 219.826 194.883L220.067 194.889C220.632 194.905 221.189 195.036 221.702 195.273C222.216 195.51 222.676 195.849 223.055 196.269C223.433 196.689 223.722 197.181 223.905 197.716C224.087 198.251 224.159 198.817 224.116 199.38C223.284 210.13 221.817 236.096 226.128 245.037L226.239 245.268L225.991 245.331C221.894 246.252 217.707 246.718 213.508 246.723L213.507 246.724Z" fill="#2F2E41"/>
<path d="M193.601 238.838C193.601 238.838 166.302 236.321 163.363 244.29C160.423 252.258 163.783 256.033 168.822 257.711C173.862 259.388 186.041 261.485 186.041 261.485L191.501 254.775L205.78 255.614C205.78 255.614 221.69 264.829 226.089 274.686C227.033 276.818 228.538 278.656 230.445 280.003C232.351 281.349 234.587 282.155 236.915 282.334C240.443 282.579 243.577 281.249 243.577 275.744C243.577 263.162 225.938 245.128 225.938 245.128L193.601 238.838Z" fill="#2F2E41"/>
<path d="M172.812 251.21C172.812 251.21 179.952 249.113 191.291 254.565L172.812 251.21Z" fill="#2F2E41"/>
<path d="M193.96 179.603C197.989 182.059 202.53 183.553 207.232 183.97L205.833 182.296C206.851 182.672 207.923 182.884 209.008 182.925C209.551 182.941 210.091 182.829 210.583 182.599C211.075 182.369 211.507 182.027 211.843 181.6C212.117 181.157 212.28 180.654 212.318 180.135C212.356 179.615 212.267 179.094 212.06 178.616C211.633 177.663 210.97 176.834 210.132 176.209C208.648 175.036 206.895 174.248 205.032 173.916C203.168 173.583 201.252 173.716 199.452 174.303C198.217 174.671 197.111 175.379 196.26 176.346C195.842 176.833 195.552 177.416 195.416 178.043C195.279 178.67 195.3 179.32 195.478 179.937" fill="#2F2E41"/>
<path d="M205.915 171.37C207.748 167.12 210.491 163.322 213.952 160.245C216.175 158.274 218.771 156.579 221.699 156.067C224.627 155.555 227.928 156.432 229.725 158.798C231.195 160.732 231.469 163.324 231.307 165.747C231.145 168.169 230.603 170.57 230.655 172.996C230.708 175.472 231.379 177.897 232.609 180.049C233.838 182.201 235.586 184.012 237.694 185.318C239.802 186.624 242.203 187.384 244.679 187.528C247.156 187.672 249.629 187.197 251.875 186.144C249.346 187.541 247.375 189.751 245.029 191.432C242.683 193.113 239.585 194.267 236.919 193.156C234.097 191.982 232.803 188.786 231.793 185.905L227.285 173.054C226.519 170.869 225.715 168.62 224.152 166.912C222.588 165.204 220.051 164.162 217.899 165.021C216.268 165.672 215.205 167.226 214.274 168.711C213.343 170.197 212.361 171.782 210.789 172.561C209.217 173.341 206.883 172.861 206.369 171.183" fill="#2F2E41"/>
<path d="M209.454 246.76C209.276 246.76 209.099 246.75 208.922 246.73C207.748 246.598 206.669 246.022 205.908 245.121C205.146 244.219 204.759 243.061 204.826 241.883C204.893 240.705 205.41 239.598 206.269 238.789C207.129 237.98 208.266 237.53 209.447 237.532C209.653 237.533 209.859 237.549 210.063 237.578L224.165 222.586L222.693 217.686L230.084 214.376L232.156 219.434C232.851 221.147 232.974 223.039 232.507 224.827C232.04 226.616 231.008 228.207 229.564 229.363L214.042 241.694C214.058 241.844 214.067 241.995 214.067 242.146C214.067 242.795 213.929 243.437 213.664 244.029C213.399 244.622 213.012 245.152 212.528 245.585C211.685 246.345 210.59 246.763 209.454 246.76Z" fill="#FFB8B8"/>
<path d="M220.479 196.897C220.968 196.68 221.495 196.564 222.03 196.556C222.565 196.548 223.097 196.647 223.592 196.849C224.087 197.051 224.537 197.351 224.913 197.731C225.289 198.111 225.585 198.563 225.782 199.06L233.078 217.448L221.739 224.997L220.479 196.897Z" fill="#2F2E41"/>
</g>
<defs>
<clipPath id="clip0_215_618">
<rect width="286" height="288" fill="white"/>
</clipPath>
</defs>
</svg>
