<svg width="30" height="25" viewBox="0 0 30 25" fill="none" xmlns="http://www.w3.org/2000/svg">
<g clip-path="url(#clip0_224_2082)">
<path d="M6.19746 21.2648L9.76113 17.8409C9.88301 18.4592 10.057 19.0681 10.2826 19.6618L5.98652 23.7904C5.90769 23.8793 5.81095 23.9504 5.70268 23.9991C5.59441 24.0478 5.47707 24.0729 5.3584 24.0728C4.89492 24.0728 4.51934 23.6964 4.51934 23.2319V19.1668H2.03555C1.50762 19.1668 1.02539 18.9589 0.663281 18.6254L0.598828 18.5672C0.230273 18.1973 0 17.6847 0 17.1268V2.03993C0 1.48268 0.233203 0.97064 0.600586 0.601879C0.968555 0.233705 1.47949 0 2.03555 0H21.1125C21.668 0 22.1801 0.231356 22.5486 0.601292C22.9148 0.968291 23.1469 1.47915 23.1469 2.03993V4.78097C22.5938 4.65649 22.0324 4.57311 21.4688 4.53435V2.03993C21.4688 1.94363 21.4271 1.85437 21.3627 1.78978C21.2977 1.72402 21.2068 1.68174 21.1125 1.68174H2.03555C1.9418 1.68174 1.85215 1.72519 1.78652 1.79037C1.72148 1.85614 1.67812 1.94598 1.67812 2.03993V17.1268C1.67812 17.222 1.71973 17.313 1.78477 17.3787L1.8082 17.4022C1.86973 17.4527 1.95 17.4844 2.03555 17.4844H5.3584C5.82188 17.4844 6.19746 17.8614 6.19746 18.3253V21.2648ZM23.56 17.9695C23.8424 18.1662 24.0275 18.2913 24.1148 18.3417C24.2426 18.4151 24.4189 18.5009 24.6387 18.5989L24.01 19.8732C23.6941 19.7193 23.3789 19.5367 23.0684 19.3241C22.7566 19.1116 22.5398 18.9518 22.4162 18.8456C21.9152 19.064 21.2859 19.1738 20.5301 19.1738C19.4121 19.1738 18.5297 18.882 17.8846 18.2983C17.1217 17.6083 16.7396 16.6395 16.7396 15.3899C16.7396 14.1767 17.073 13.2349 17.741 12.5631C18.409 11.892 19.3395 11.5561 20.5377 11.5561C21.7588 11.5561 22.7004 11.8831 23.3648 12.5402C24.0293 13.1961 24.3609 14.1362 24.3609 15.357C24.3609 16.4457 24.0943 17.3147 23.56 17.9695ZM21.8191 16.8004C22.0008 16.4768 22.091 15.9906 22.091 15.3441C22.091 14.6013 21.9521 14.0705 21.6768 13.7516C21.399 13.4339 21.0199 13.2748 20.5336 13.2748C20.0789 13.2748 19.7127 13.4375 19.432 13.7622C19.1502 14.0869 19.0096 14.5942 19.0096 15.2836C19.0096 16.0887 19.1467 16.6524 19.4197 16.9771C19.6963 17.3018 20.073 17.4645 20.55 17.4645C20.7047 17.4645 20.85 17.4492 20.9871 17.4204C20.7955 17.2343 20.4937 17.0611 20.0807 16.8967L20.4375 16.0781C20.6396 16.1139 20.7967 16.1603 20.9086 16.2143C21.0217 16.2672 21.2402 16.4075 21.5678 16.6359C21.6445 16.6888 21.7283 16.744 21.8191 16.8004ZM27.2719 9.07222C29.09 10.9014 30 13.2871 30 15.67C30 18.0159 29.1176 20.3652 27.3562 22.1762L27.2736 22.2666C25.449 24.0881 23.0678 25 20.6895 25C18.3064 25 15.9234 24.0881 14.1064 22.2672C12.2889 20.4386 11.3795 18.0534 11.3795 15.67C11.3795 13.283 12.2889 10.8943 14.1059 9.07399C15.9311 7.25132 18.3117 6.33999 20.6895 6.33999C23.0303 6.33999 25.3746 7.22431 27.1816 8.98884L27.2719 9.07222ZM26.2359 10.1122C23.1727 7.04228 18.2057 7.04228 15.1436 10.1122C12.0797 13.1814 12.0797 18.1585 15.1436 21.2284C18.2057 24.2977 23.1727 24.2977 26.2359 21.2284C29.2992 18.1585 29.2992 13.1814 26.2359 10.1122ZM5.75801 7.56019C5.29453 7.56019 4.91895 7.18321 4.91895 6.71932C4.91895 6.25484 5.29453 5.87845 5.75801 5.87845H15.3346C14.499 6.33818 13.7257 6.90337 13.0336 7.56019H5.75801ZM5.75801 12.5355C5.29453 12.5355 4.91895 12.1591 4.91895 11.6947C4.91895 11.2308 5.29453 10.8538 5.75801 10.8538H10.6371C10.377 11.4005 10.1625 11.9618 9.99609 12.5355H5.75801Z" fill="black"/>
</g>
<defs>
<clipPath id="clip0_224_2082">
<rect width="30" height="25" fill="white"/>
</clipPath>
</defs>
</svg>
