<svg width="32" height="30" viewBox="0 0 32 30" fill="none" xmlns="http://www.w3.org/2000/svg">
<path d="M9.11239 8.88428L7.90231 7.93262C7.53013 8.33023 7.19051 8.75251 6.88623 9.19601L8.24133 9.97257C8.50151 9.5903 8.79268 9.22651 9.11239 8.88428Z" fill="#474747"/>
<path d="M11.3367 7.11693L10.4786 5.88379C9.99588 6.16483 9.53658 6.47833 9.10449 6.82171L10.1486 7.92191C10.5225 7.62714 10.9196 7.35808 11.3367 7.11693Z" fill="#474747"/>
<path d="M27.0186 10.081C25.6835 7.64639 23.3783 5.77567 20.5803 4.85612C17.7823 3.93657 14.7057 4.0386 11.9875 5.14111L12.6345 6.47693C14.418 5.7495 16.3952 5.51806 18.3208 5.8113C20.2465 6.10454 22.0358 6.90958 23.467 8.12654C24.8982 9.34351 25.9082 10.9189 26.3717 12.6572C26.8352 14.3956 26.7319 16.2204 26.0746 17.9055C25.4173 19.5905 24.2348 21.0615 22.6739 22.1361C21.1131 23.2108 19.2424 23.8417 17.294 23.9506C15.3456 24.0595 13.4052 23.6417 11.7134 22.7489C10.0217 21.8562 8.65299 20.5277 7.77718 18.9284L6.35107 19.5821C7.02179 20.8412 7.95819 21.9659 9.10608 22.891C10.254 23.8162 11.5906 24.5235 13.0386 24.972C14.4866 25.4206 16.0172 25.6014 17.5419 25.5042C19.0667 25.4069 20.5552 25.0334 21.9215 24.4053C23.2878 23.7772 24.5046 22.907 25.5017 21.845C26.4987 20.783 27.2561 19.5502 27.7302 18.2181C28.2042 16.886 28.3854 15.481 28.2632 14.0842C28.1411 12.6875 27.7181 11.3269 27.0186 10.081Z" fill="#474747"/>
<path d="M7.74332 12.8546L6.79225 13.7247C6.88361 13.0035 7.07102 12.2953 7.35029 11.616C7.41129 11.4665 7.4783 11.318 7.5503 11.1704L6.08819 10.5854C6.00819 10.7541 5.92918 10.9256 5.86218 11.097C5.49513 11.9805 5.26194 12.906 5.16913 13.8475L4.09005 12.8574L2.95996 13.8879L5.91518 16.5971L8.8704 13.8879L7.74332 12.8546Z" fill="#474747"/>
<path d="M15.4829 8.25488V15.5639H20.2713V14.1024H17.082V8.25488H15.4829Z" fill="#474747"/>
<path d="M23.4554 14.1021H21.8613V15.5635H23.4554V14.1021Z" fill="#474747"/>
<path d="M17.077 19.9487H15.4829V21.4102H17.077V19.9487Z" fill="#474747"/>
</svg>
