<svg width="79" height="80" viewBox="0 0 79 80" fill="none" xmlns="http://www.w3.org/2000/svg">
<path opacity="0.1" d="M39.5 68C53.5833 68 65 65.0899 65 61.5C65 57.9101 53.5833 55 39.5 55C25.4167 55 14 57.9101 14 61.5C14 65.0899 25.4167 68 39.5 68Z" fill="#263238"/>
<path opacity="0.4" d="M46.5665 41.6832C44.3711 44.846 41.287 47.2867 37.7044 48.6967C34.1217 50.1067 30.2014 50.4227 26.4392 49.6046C22.677 48.7865 19.2419 46.8711 16.5683 44.1006C13.8947 41.3302 12.1027 37.8291 11.4189 34.0402C10.7351 30.2513 11.1903 26.3447 12.7268 22.8144C14.2634 19.2842 16.8123 16.2889 20.0512 14.2073C23.2901 12.1257 27.0736 11.0514 30.9231 11.1202C34.7726 11.1889 38.5153 12.3977 41.6778 14.5936C43.7778 16.0511 45.5701 17.908 46.9523 20.0583C48.3345 22.2086 49.2796 24.6101 49.7336 27.1257C50.1876 29.6413 50.1415 32.2217 49.5981 34.7195C49.0547 37.2173 48.0246 39.5835 46.5665 41.6832Z" fill="white"/>
<path opacity="0.1" d="M24.4038 49.0406C29.2717 50.6667 34.5847 50.3058 39.188 48.0362C43.7912 45.7667 47.3126 41.772 48.9869 36.9205L24.4038 49.0406Z" fill="#263238"/>
<path opacity="0.1" d="M11.4688 34.2566L45.1398 17.6579C44.1121 16.5026 42.9511 15.4731 41.6811 14.5909C40.2276 13.5757 38.6396 12.7681 36.9631 12.1915L12.1053 24.4427C11.0573 27.6057 10.8382 30.9847 11.4688 34.2566Z" fill="#263238"/>
<path opacity="0.1" d="M17.9475 45.3811L50.013 29.565C49.9456 28.2905 49.7542 27.0257 49.4415 25.7884L15.2889 42.6224C16.0789 43.63 16.9698 44.5544 17.9475 45.3811Z" fill="#263238"/>
<path opacity="0.1" d="M12.1556 36.8305L46.7682 19.771C46.6369 19.5737 46.5028 19.379 46.3631 19.1894L11.9381 36.1626C12.0044 36.3841 12.0733 36.6084 12.1556 36.8305Z" fill="#263238"/>
<path opacity="0.1" d="M15.1719 18.6899L30.5337 11.1154C29.9515 11.1146 29.3784 11.1568 28.7814 11.1954L16.3074 17.35C15.9062 17.7769 15.5272 18.2241 15.1719 18.6899Z" fill="#263238"/>
<path d="M42.9214 12.8038C39.4056 10.3631 35.245 9.01982 30.9658 8.94372C26.6866 8.86763 22.4809 10.0622 18.8805 12.3763C15.2802 14.6904 12.4469 18.0202 10.739 21.9445C9.03102 25.8689 8.52512 30.2116 9.28525 34.4234C10.0454 38.6353 12.0374 42.5272 15.0094 45.6069C17.9814 48.6867 21.7999 50.816 25.982 51.7256C30.1641 52.6352 34.5221 52.2842 38.5048 50.7171C42.4874 49.1499 45.916 46.437 48.3568 42.9213C51.628 38.2061 52.893 32.3849 51.8738 26.7373C50.8545 21.0898 47.6345 16.078 42.9214 12.8038ZM46.5667 41.6832C44.3718 44.8466 41.2881 47.288 37.7056 48.6986C34.123 50.1093 30.2026 50.4259 26.4402 49.6083C22.6777 48.7907 19.2422 46.8758 16.5682 44.1056C13.8941 41.3354 12.1016 37.8345 11.4174 34.0455C10.7332 30.2565 11.1879 26.3498 12.7242 22.8193C14.2604 19.2888 16.8092 16.2931 20.048 14.2112C23.2869 12.1294 27.0704 11.0547 30.92 11.1232C34.7697 11.1918 38.5125 12.4004 41.6752 14.5962C43.7751 16.0535 45.5673 17.9101 46.9496 20.0601C48.3318 22.2101 49.2771 24.6113 49.7313 27.1266C50.1855 29.6419 50.1398 32.222 49.5969 34.7197C49.0539 37.2173 48.0242 39.5835 46.5667 41.6832Z" fill="#161716"/>
<path d="M70.2511 58.3356L72.8783 54.2536L49.705 39.5136L47.0751 43.5982L70.2511 58.3356Z" fill="#161716"/>
<path opacity="0.7" d="M37.8137 20.4012C37.7928 20.3904 37.7727 20.3781 37.7537 20.3642C37.4667 20.1877 38.0386 20.5273 37.8451 20.4184C37.6516 20.3096 37.377 20.1575 37.1411 20.0417C36.3039 19.6239 35.4326 19.2779 34.5368 19.0076C34.4128 18.9681 34.2832 18.9338 34.1592 18.8943C34.117 18.882 34.4606 18.9753 34.1772 18.9137L33.9418 18.854C33.6375 18.7809 33.3329 18.7132 33.0357 18.6645C32.3605 18.5372 31.6776 18.4549 30.9915 18.4182L30.5008 18.3995C30.2794 18.3937 30.7519 18.3984 30.4554 18.4004L30.1589 18.4024C29.7845 18.4148 29.4098 18.4379 29.0344 18.477C28.659 18.5161 28.2267 18.577 27.8286 18.6526C27.6457 18.6883 27.4653 18.7268 27.2847 18.7707C26.9695 18.8414 27.4117 18.7301 27.1876 18.7937L26.8663 18.8856C25.9035 19.1729 24.9712 19.5541 24.0829 20.0237L24.0469 20.0571L23.954 20.1123L23.5715 20.338C23.3254 20.4889 23.0872 20.6427 22.8486 20.8071C22.3506 21.1516 21.8703 21.521 21.4096 21.9139C21.2734 22.0141 21.1188 22.0864 20.9546 22.1269C20.7904 22.1673 20.6199 22.175 20.4527 22.1495C20.1152 22.0981 19.8118 21.9146 19.6095 21.6395C19.4072 21.3644 19.3224 21.0202 19.3739 20.6826C19.4253 20.345 19.6088 20.0417 19.8839 19.8394C22.7937 17.3063 26.5107 15.8927 30.3684 15.8521C32.9693 15.866 35.5352 16.4518 37.8845 17.5678C38.413 17.8133 38.9242 18.0942 39.4147 18.4087C39.6821 18.6206 39.8547 18.9298 39.8948 19.2686C39.9349 19.6074 39.8393 19.9483 39.6287 20.2168C39.4129 20.4784 39.1044 20.6467 38.7676 20.6866C38.4308 20.7264 38.0916 20.6348 37.8206 20.4309L37.8137 20.4012Z" fill="white"/>
<path d="M40.7789 22.8245C40.9757 22.9805 41.2143 23.0746 41.4646 23.0949C41.7148 23.1152 41.9655 23.0607 42.1848 22.9383C42.404 22.816 42.582 22.6313 42.6962 22.4076C42.8104 22.184 42.8556 21.9315 42.8262 21.6821C42.7967 21.4328 42.6938 21.1978 42.5307 21.0069C42.3675 20.8161 42.1513 20.678 41.9096 20.6101C41.6678 20.5423 41.4114 20.5477 41.1727 20.6258C40.934 20.7038 40.7239 20.851 40.569 21.0486C40.3623 21.3123 40.2683 21.6471 40.3076 21.9798C40.3469 22.3126 40.5164 22.6163 40.7789 22.8245Z" fill="white"/>
</svg>
