<svg width="16" height="16" viewBox="0 0 16 16" fill="none" xmlns="http://www.w3.org/2000/svg">
<path d="M6.21059 14C5.17504 13.6908 4.23719 13.1188 3.48832 12.3396C3.72927 12.0538 3.87947 11.7027 3.9197 11.331C3.95993 10.9594 3.88837 10.5842 3.71417 10.2535C3.53997 9.92281 3.27105 9.65159 2.94183 9.47457C2.61261 9.29755 2.23806 9.22279 1.86611 9.25985C1.78138 8.84478 1.73879 8.42221 1.73901 7.99858C1.73901 7.34431 1.83919 6.7132 2.02577 6.12029H2.05206C2.37129 6.12039 2.68529 6.03913 2.96439 5.88417C3.24349 5.72922 3.47849 5.50568 3.64721 5.23468C3.81592 4.96367 3.91278 4.65413 3.92863 4.33529C3.94449 4.01646 3.87882 3.69884 3.73782 3.41243C4.47179 2.72899 5.35943 2.23219 6.32579 1.96396C6.48306 2.27275 6.72268 2.53201 7.01816 2.71307C7.31363 2.89412 7.65343 2.9899 7.99997 2.98982C8.3465 2.9899 8.6863 2.89412 8.98177 2.71307C9.27725 2.53201 9.51688 2.27275 9.67414 1.96396C10.6405 2.23219 11.5281 2.72899 12.2621 3.41243C12.1201 3.70084 12.0545 4.02088 12.0715 4.34192C12.0886 4.66295 12.1878 4.97423 12.3596 5.24596C12.5314 5.51769 12.7701 5.74077 13.0528 5.89386C13.3355 6.04695 13.6527 6.12491 13.9742 6.12029C14.1648 6.72814 14.2615 7.36154 14.2609 7.99858C14.2609 8.43058 14.2171 8.85257 14.1338 9.26016C13.7619 9.2231 13.3873 9.29786 13.0581 9.47488C12.7289 9.6519 12.46 9.92312 12.2858 10.2538C12.1116 10.5846 12.04 10.9597 12.0802 11.3314C12.1205 11.703 12.2707 12.0541 12.5116 12.3399C11.7627 13.119 10.8249 13.6909 9.78935 14C9.66774 13.621 9.42894 13.2904 9.10735 13.0558C8.78576 12.8213 8.398 12.6949 7.99997 12.6949C7.60193 12.6949 7.21417 12.8213 6.89258 13.0558C6.57099 13.2904 6.33219 13.621 6.21059 14Z" stroke="#414141" stroke-linejoin="round"/>
<path d="M7.99993 10.1898C8.2877 10.1898 8.57265 10.1331 8.83851 10.023C9.10438 9.9129 9.34595 9.75148 9.54943 9.548C9.75292 9.34451 9.91433 9.10294 10.0245 8.83708C10.1346 8.57121 10.1913 8.28626 10.1913 7.99849C10.1913 7.71072 10.1346 7.42577 10.0245 7.15991C9.91433 6.89404 9.75292 6.65247 9.54943 6.44899C9.34595 6.2455 9.10438 6.08409 8.83851 5.97396C8.57265 5.86384 8.2877 5.80716 7.99993 5.80716C7.41875 5.80716 6.86138 6.03803 6.45042 6.44899C6.03947 6.85994 5.80859 7.41731 5.80859 7.99849C5.80859 8.57967 6.03947 9.13704 6.45042 9.548C6.86138 9.95895 7.41875 10.1898 7.99993 10.1898Z" stroke="#414141" stroke-linejoin="round"/>
</svg>
