<svg width="53" height="37" viewBox="0 0 53 37" fill="none" xmlns="http://www.w3.org/2000/svg">
<path fill-rule="evenodd" clip-rule="evenodd" d="M8.47459 36.4383C13.1559 36.4383 16.9497 32.7326 16.9497 28.162C16.9497 27.875 16.9348 27.5921 16.9052 27.3126L20.3201 26.7272C20.3201 26.7272 20.4357 26.5767 21.2774 27.4003C21.6374 27.7518 22.1272 27.7964 22.574 27.7394C23.3683 28.0016 25.1649 28.5061 27.2399 28.5061C28.8498 28.5061 30.623 28.2001 32.2082 27.2358C34.6251 25.7638 36.0546 23.0844 36.4874 19.2942C37.5518 18.148 38.6603 17.2536 39.7467 16.5573L40.68 19.2718C37.7491 20.5743 35.7074 23.4531 35.7074 26.8022C35.7074 31.373 39.5029 35.0779 44.1824 35.0779C48.862 35.0779 52.6575 31.3722 52.6575 26.8022C52.6575 22.2307 48.862 18.5263 44.1824 18.5263C43.5439 18.5263 42.9233 18.6008 42.3246 18.7319L41.2779 15.6861C44.5433 14.0611 47.2463 14.0855 47.2463 14.0855L48.2609 14.6277L51.6311 14.8895C49.6012 12.5897 41.5963 13.0001 41.5963 13.0001L43.3019 12.7198C43.3019 12.7198 43.2441 10.9244 42.1908 8.71757C41.1374 6.51089 39.9882 5.22029 39.9882 5.22029C39.8831 5.33608 39.8146 5.47263 39.7603 5.61397C39.7789 4.09483 39.7992 2.57569 39.9187 1.05895C39.9198 1.04662 39.9176 1.03653 39.9154 1.02642C39.9138 1.01923 39.9123 1.01203 39.9119 1.00401C39.95 0.848133 39.8993 0.680281 39.7043 0.587171C39.076 0.2874 38.4578 0.034423 37.7509 0.000405295C37.5585 -0.00869804 37.3824 0.136796 37.3334 0.311356C37.1098 1.10031 37.0506 1.92696 37.1469 2.73731L37.1167 2.67748L37.1166 2.67737L37.1166 2.67727C37.0575 2.56008 36.9986 2.44333 36.9335 2.3275C36.8158 2.12084 36.6117 2.08922 36.4355 2.1531C36.2373 2.11988 36.0121 2.19447 35.9241 2.42924C35.8709 2.57119 35.7942 2.69576 35.7183 2.8191L35.7182 2.81913C35.5914 3.02521 35.4666 3.22789 35.4566 3.50263C35.4314 4.19321 36.2527 4.64183 36.7726 4.91796C36.871 4.97051 36.9692 4.97306 37.0622 4.95597C37.3178 5.96692 37.4027 7.01109 37.3399 8.08321C35.758 9.08505 36.3678 9.9989 36.3678 9.9989L36.0806 10.4756C36.0806 10.4756 34.5861 8.39991 29.7033 11.4858C25.313 14.2604 21.7583 12.9527 18.7473 11.845L18.7472 11.8449C18.4095 11.7207 18.0786 11.5989 17.7541 11.4858C14.5372 10.3635 2.70216 10.0837 2.70216 10.0837C8.52415 10.9437 11.0901 15.619 11.0901 15.619L6.4943 12.8516C4.46413 13.0389 5.00004 15.1332 5.00004 15.1332L13.4645 20.1823C15.1112 19.5836 16.9878 21.379 16.9878 21.379L18.7496 24.4092L16.3358 25.0806C15.0824 22.0381 12.0391 19.8878 8.47476 19.8878C3.79378 19.8878 0 23.5937 0 28.1636C0 32.7334 3.7946 36.4383 8.47459 36.4383ZM44.1813 21.0655C47.4205 21.0655 50.054 23.6383 50.054 26.8014C50.054 29.964 47.4203 32.5365 44.1813 32.5365C40.9422 32.5365 38.3086 29.964 38.3086 26.8014C38.3086 24.5777 39.6128 22.6492 41.513 21.6981L43.359 27.0702C43.481 27.4243 43.8189 27.6484 44.1813 27.6484C44.2719 27.6484 44.3651 27.6334 44.4565 27.6046C44.9103 27.4548 45.1552 26.9754 45.0037 26.5311L43.1575 21.1582C43.4903 21.1012 43.8316 21.0655 44.1813 21.0655ZM38.9283 3.61107C38.6854 3.81837 38.4303 4.01513 38.1662 4.21652C38.0444 4.30803 37.9104 4.33678 37.7876 4.31889C38.1119 5.38414 38.2534 6.48948 38.2305 7.62069C38.422 7.53668 38.6303 7.45284 38.8606 7.37011C38.8722 6.83203 38.8801 6.29391 38.888 5.75586V5.75549L38.888 5.75493L38.888 5.75438C38.8985 5.03977 38.909 4.32526 38.9283 3.61107ZM28.9376 17.4509C32.9769 16.2679 34.347 18.0488 34.7773 19.0007C34.4207 22.3037 33.2581 24.596 31.2968 25.7943C28.7242 27.3647 25.3538 26.7511 23.7356 26.3119C23.9134 23.9923 24.7746 18.6705 28.9376 17.4509ZM13.8111 25.7811C12.8822 23.8055 10.843 22.4269 8.4745 22.4269C5.23659 22.4269 2.60132 24.9995 2.60034 28.162C2.60034 31.3252 5.23479 33.8979 8.47352 33.8979C11.7127 33.8979 14.3472 31.3252 14.3472 28.162C14.3472 28.0408 14.3384 27.922 14.3296 27.803C14.3284 27.7873 14.3272 27.7716 14.3261 27.7559L7.68068 28.8963L7.45075 27.55L13.8111 25.7811Z" fill="white"/>
<path d="M33.7256 20.4619H26.0839L24.8196 25.7364C32.5188 27.1381 33.7256 20.4619 33.7256 20.4619Z" fill="white"/>
</svg>
