<svg width="53" height="19" viewBox="0 0 53 19" fill="none" xmlns="http://www.w3.org/2000/svg">
<path d="M7.34135 12.0686C5.42612 12.0866 3.88899 13.6166 3.90689 15.4864C3.90847 15.6309 3.92216 15.7723 3.94165 15.9112C4.1723 17.5789 5.64045 18.8568 7.40717 18.8399C9.2234 18.8239 10.6963 17.4478 10.83 15.7106C10.8374 15.6155 10.8432 15.5193 10.8422 15.4216C10.8243 13.5523 9.25658 12.0511 7.34135 12.0686Z" fill="white"/>
<path d="M40.8985 12.0686C38.9832 12.0866 37.4456 13.6166 37.4645 15.4864C37.4656 15.6309 37.4793 15.7723 37.4988 15.9112C37.7294 17.5789 39.1976 18.8568 40.9643 18.8399C42.7805 18.8239 44.2534 17.4478 44.3872 15.7106C44.3945 15.6155 44.4003 15.5193 44.3993 15.4216C44.3808 13.5523 42.8137 12.0511 40.8985 12.0686Z" fill="white"/>
<path fill-rule="evenodd" clip-rule="evenodd" d="M50.5895 12.8225L51.7859 13.3352C52.0392 13.4437 52.2035 13.689 52.2041 13.9611V14.4748C52.2041 14.8508 51.8918 15.1562 51.5069 15.1562H49.6174V15.8098C49.6174 15.9492 49.5011 16.0629 49.3583 16.0629H48.7722C48.629 16.0629 48.5126 15.9492 48.5126 15.8098V15.1994L45.184 15.7363C45.184 15.7363 45.1977 15.5239 45.1961 15.4164C45.1751 13.1419 43.2625 11.2921 40.8917 11.2921C38.5405 11.3142 36.6463 13.2 36.6684 15.4956C36.669 15.5368 36.6779 15.6119 36.6779 15.6119L11.6241 15.7713C11.6241 15.7713 11.6393 15.5363 11.6383 15.4175C11.6167 13.1429 9.70411 11.2931 7.33337 11.2931C4.98265 11.3152 3.08848 13.201 3.1106 15.4967C3.11132 15.555 3.11713 15.6114 3.12293 15.6677C3.12568 15.6943 3.12842 15.7209 3.13061 15.7476C1.79516 15.7116 0.965777 15.6617 0.862564 15.5882C0.157979 15.0904 0 14.2918 0 14.2918V12.9182C0 12.7078 0.140601 12.5222 0.3465 12.4625L0.862037 12.3108C0.862037 12.3108 0.845713 9.84496 0.83992 9.02318C0.834128 8.09597 1.47026 7.40223 2.82255 7.15127C4.3739 6.86329 9.03849 6.05847 9.03849 6.05847C9.03849 6.05847 13.1238 2.5682 14.7078 1.31752C15.0833 1.02131 15.5325 0.823322 16.008 0.742069C21.5083 -0.192853 44.3541 -0.323474 48.2809 0.808409C48.5358 0.881948 48.7475 1.0568 48.8654 1.28975C51.6322 6.76404 50.5895 12.8225 50.5895 12.8225ZM19.5195 6.57478C19.6828 6.57478 19.8176 6.45084 19.8276 6.29193L20.1125 1.8868C20.1172 1.80246 20.0867 1.71966 20.0267 1.65898C19.9666 1.5983 19.8834 1.56435 19.7971 1.5659L16.4716 1.63378C16.1309 1.64047 15.8039 1.76903 15.5527 1.99428L13.4426 3.89086C13.4426 3.89086 13.6922 4.11456 13.7412 4.70339C13.7723 5.07828 13.766 6.57478 13.766 6.57478H19.5195Z" fill="white"/>
</svg>
