<svg width="430" height="493" viewBox="0 0 430 493" fill="none" xmlns="http://www.w3.org/2000/svg">
<path opacity="0.19" d="M-459.499 285.373C-367.453 374.081 -235.29 436.94 -96.9068 457.811C-15.7208 470.055 67.4191 468.899 154.949 454.174C152.5 452.937 150.091 451.589 147.722 450.132C107.718 455.099 69.9048 457.088 32.971 456.149C-5.24999 455.181 -43.9653 451.025 -82.1052 443.797C-123.76 435.888 -165.954 423.841 -207.492 407.988C-294.991 374.635 -373.897 326.66 -435.685 269.246L-433.662 267.566C-372.3 324.579 -293.908 372.237 -206.963 405.383C-165.646 421.144 -123.701 433.117 -82.2862 440.985C-44.3482 448.176 -5.83737 452.316 32.1918 453.27C68.1483 454.178 104.965 452.313 143.838 447.599C141.595 446.063 139.429 444.432 137.34 442.707C102.689 445.206 71.0137 445.341 39.7907 443.165C4.7154 440.724 -31.4242 435.211 -67.6398 426.773C-106.785 417.624 -146.946 404.622 -187.019 388.119C-271.521 353.348 -348.517 306.079 -409.675 251.398L-407.824 249.759C-347.037 304.109 -270.473 351.123 -186.411 385.702C-146.547 402.115 -106.598 415.058 -67.6527 424.161C-31.6263 432.564 4.32396 438.042 39.2201 440.47C69.7011 442.593 100.635 442.499 134.375 440.155C132.339 438.321 130.377 436.402 128.517 434.402C99.046 434.767 72.7553 433.392 46.6203 430.202C14.7122 426.323 -18.8642 419.452 -53.1644 409.771C-89.7779 399.406 -127.918 385.447 -166.51 368.275C-248.136 332.017 -323.22 285.445 -383.64 233.564L-381.977 231.974C-321.858 283.586 -247.121 329.946 -165.849 366.043C-127.427 383.13 -89.4604 397.035 -53.0207 407.347C-18.8945 416.973 14.5055 423.812 46.2358 427.668C71.7992 430.785 97.5218 432.16 126.262 431.858C124.431 429.725 122.689 427.509 121.047 425.212C100.16 423.986 77.5043 421.652 53.4172 417.194C24.6482 411.894 -6.35109 403.655 -38.7216 392.723C-72.7566 381.179 -108.863 366.266 -146.049 348.393C-224.964 310.534 -298.135 264.648 -357.654 215.703L-356.153 214.166C-296.867 262.913 -223.97 308.628 -145.335 346.357C-108.283 364.16 -72.3118 379.024 -38.4254 390.518C-6.21731 401.407 24.6209 409.594 53.226 414.863C76.7216 419.203 98.8753 421.525 119.334 422.769C117.71 420.338 116.202 417.806 114.806 415.205C97.7598 412.721 79.6485 409.283 60.1872 404.193C34.5903 397.518 6.16536 387.932 -24.2804 375.685C-55.6416 363.028 -89.7274 347.158 -125.574 328.514C-178.954 300.823 -258.043 255.676 -331.655 197.844L-330.317 196.369C-256.916 254.038 -178.044 299.064 -124.797 326.684C-89.0452 345.264 -55.0569 361.09 -23.8073 373.712C6.504 385.9 34.7918 395.447 60.2643 402.085C79.2256 407.048 96.9177 410.432 113.593 412.889C112.194 410.109 110.924 407.23 109.781 404.274C96.1041 400.787 82.1553 396.604 66.9967 391.186C44.6755 383.234 18.8391 372.292 -9.78819 358.654C-38.2504 345.038 -70.3028 328.213 -105.052 308.661C-157.363 279.284 -234.63 233.123 -305.62 179.999L-304.444 178.588C-233.597 231.609 -156.474 277.689 -104.234 307.015C-69.5454 326.538 -37.5525 343.324 -9.16389 356.91C19.3671 370.494 45.1046 381.402 67.3268 389.321C82.0655 394.59 95.6384 398.682 108.962 402.103C107.797 398.913 106.807 395.661 105.978 392.368C95.9696 388.366 85.4447 383.764 73.8076 378.17C54.7969 369.07 32.2031 357.108 4.70393 341.623C-20.1019 327.585 -49.2949 310.309 -84.5421 288.807C-163.324 240.868 -227.126 199.436 -279.608 162.141L-278.596 160.793C-226.173 198.048 -162.431 239.442 -83.7083 287.341C-48.4851 308.83 -19.3149 326.082 5.45417 340.105C32.8797 355.56 55.4268 367.483 74.3766 376.555C85.6003 381.949 95.793 386.425 105.479 390.322C104.639 386.712 103.996 383.075 103.561 379.423C96.4733 375.2 88.9788 370.525 80.597 365.118C63.8169 354.334 43.9205 341.073 20.8857 325.711L2.72238 313.532C-17.3888 300.034 -40.1863 284.734 -64.031 268.942C-86.9994 253.767 -110.74 238.272 -135.874 221.864C-175.101 196.264 -215.66 169.78 -253.596 144.284L-252.737 143.021C-214.814 168.516 -174.266 194.987 -135.052 220.585C-109.917 236.993 -86.1767 252.488 -63.1969 267.676C-39.3394 283.469 -16.5421 298.77 3.56776 312.278L21.7184 324.455C44.7406 339.816 64.6242 353.075 81.3929 363.847C89.3694 368.992 96.5523 373.48 103.326 377.537C102.92 373.564 102.746 369.589 102.812 365.655C100.806 363.888 98.7524 362.083 96.6409 360.228C93.6957 357.627 90.6213 354.926 87.3711 352.086C70.7665 337.623 52.6916 322.646 33.6615 307.568C8.9006 287.853 -17.0793 268.18 -43.5505 249.116C-91.5855 214.595 -151.799 174.472 -227.64 126.45L-226.92 125.274C-151.044 173.322 -90.7955 213.469 -42.7137 248.028C-16.207 267.118 9.79581 286.815 34.5921 306.555C53.6577 321.659 71.7554 336.66 88.3954 351.148C91.657 354 94.7186 356.7 97.6765 359.303C99.4388 360.86 101.156 362.371 102.85 363.857C102.997 359.693 103.422 355.585 104.119 351.564C101.079 347.588 97.8537 343.452 94.2267 339.023C82.1844 324.422 66.2644 307.646 48.1931 290.531C26.8871 270.254 2.92664 249.635 -23.0153 229.265C-72.739 190.301 -136.177 147.437 -201.627 108.582L-201.035 107.494C-135.501 146.402 -71.9802 189.319 -22.1729 228.335C3.82729 248.754 27.8333 269.421 49.186 289.736C67.3269 306.913 83.3038 323.748 95.4017 338.419C98.7068 342.44 101.657 346.205 104.443 349.845C105.209 345.791 106.185 341.817 107.307 337.904C105.474 334.083 103.465 330.124 101.144 325.978C92.3286 310.282 79.0505 292.137 62.7487 273.508C44.4879 252.542 21.9386 230.385 -2.46743 209.415C-50.3614 168.37 -113.477 125.107 -175.626 90.7123L-175.164 89.7233C-112.905 124.174 -49.672 167.526 -1.67294 208.658C22.804 229.678 45.4216 251.907 63.7379 272.943C80.1194 291.655 93.4618 309.903 102.342 325.702C104.379 329.339 106.177 332.831 107.822 336.209C108.971 332.393 110.254 328.637 111.622 324.923C110.645 321.065 109.503 317.091 108.096 312.968C102.28 296.033 91.6326 276.506 77.317 256.487C61.5988 234.421 41.1265 211.273 18.0805 189.566C-27.6388 146.567 -88.78 104.019 -149.638 72.8305L-149.28 71.9539C-88.289 103.212 -27.006 145.862 18.817 188.958C41.9312 210.737 62.4847 233.958 78.257 256.104C92.6496 276.228 103.36 295.868 109.214 312.913C110.416 316.422 111.412 319.821 112.291 323.132C113.618 319.633 115.018 316.175 116.464 312.754C116.209 308.611 115.786 304.363 115.096 299.986C112.168 281.776 104.154 260.847 91.9094 239.479C78.663 216.263 60.2396 192.141 38.6411 169.718C-4.48668 125.039 -63.6414 83.2076 -123.648 54.9385L-123.396 54.1845C-63.2425 82.5145 -3.93463 124.46 39.3069 169.259C60.9863 191.755 79.4754 215.969 92.7634 239.264C105.071 260.744 113.124 281.773 116.063 300.1C116.639 303.759 117.022 307.311 117.284 310.794C118.526 307.86 119.789 304.961 121.039 302.071C121.13 301.862 121.221 301.654 121.314 301.435C121.799 296.758 122.103 291.975 122.091 287.045C122.015 267.534 116.633 245.214 106.513 222.483C95.6904 198.09 79.3298 172.985 59.2017 149.871C18.8579 103.62 -38.3215 62.493 -97.6828 37.0432L-97.5117 36.4151C-38.0033 61.9258 19.3293 103.167 59.7741 149.535C79.9704 172.721 96.384 197.917 107.248 222.389C117.408 245.208 122.817 267.627 122.893 287.232C122.905 291.26 122.699 295.176 122.359 299.032C123.517 296.35 124.677 293.647 125.814 290.931C127.187 285.467 128.357 279.882 129.106 274.149C131.832 253.331 129.083 229.608 121.137 205.532C112.712 179.958 98.416 153.86 79.771 130.055C61.5236 106.774 38.0657 84.3533 11.9126 65.2247C-14.181 46.1352 -43.1076 30.2046 -71.7206 19.1685L-71.619 18.6783C-42.9324 29.7448 -13.9462 45.7146 12.2056 64.8534C38.4169 84.0314 61.9458 106.503 80.2233 129.851C98.9112 153.724 113.25 179.891 121.705 205.531C129.681 229.674 132.445 253.483 129.697 274.372C129.124 278.733 128.305 283 127.351 287.207C130.766 278.818 133.886 270.202 136.103 261.292C141.756 238.596 141.482 212.79 135.294 186.686C129.109 160.561 117.024 134.139 100.325 110.259C83.6276 86.3694 61.4441 63.7772 36.1843 44.9311C10.9131 26.0731 -17.4372 10.9819 -45.7826 1.28026L-45.7375 0.929572C-17.3299 10.6497 11.0671 25.7784 36.3864 44.6635C61.7058 63.5487 83.9235 86.1767 100.665 110.125C117.384 134.049 129.501 160.527 135.705 186.707C141.898 212.865 142.178 238.724 136.506 261.47C134.059 271.273 130.522 280.716 126.722 289.894C125.085 296.604 123.111 303.123 121.1 309.533C120.41 314.299 119.59 318.974 118.792 323.579C118.449 325.548 118.104 327.527 117.771 329.518C117.764 330.881 117.744 332.241 117.738 333.593C117.687 338.912 117.641 344.096 117.835 349.321C119.092 355.616 120.502 361.826 122.57 368.236C124.817 372.655 127.292 377.104 130.291 381.704C130.852 382.562 131.47 383.481 132.135 384.436C133.156 385.532 134.202 386.631 135.287 387.735C138.587 391.095 142.07 394.331 145.698 397.449C151.101 401.016 156.502 404.3 161.959 407.349C167.482 409.684 173.548 412.11 180.123 414.495C185.445 415.882 190.963 417.251 196.71 418.545C197.927 418.817 199.17 419.092 200.427 419.358C202.343 419.615 204.26 419.872 206.217 420.112C211.121 420.732 216.225 421.304 221.596 421.91C222.869 421.948 224.154 421.997 225.453 422.039C230.595 422.206 236.007 422.388 241.605 422.635C247.597 422.42 253.829 422.256 260.285 422.246C266.147 421.741 272.19 421.333 278.389 421.123C284.108 420.421 289.937 419.87 295.879 419.543C301.171 418.755 306.531 418.133 311.981 417.722C333.236 414.078 355.33 413.446 378.839 420.188C400.843 426.496 426.076 442.33 432.839 463.454C435.862 472.891 434.964 482.086 430.095 491.546C425.741 500.014 418.92 507.378 412.877 513.616C397.86 529.102 383.045 544.928 368.521 561.001C408.792 600.689 438.25 648.456 448.202 695.908C450.274 705.81 451.583 715.718 452.583 725.523C452.797 726.673 453.012 727.812 453.213 728.959C453.523 730.069 453.819 731.176 454.116 732.284C454.512 733.32 454.896 734.355 455.278 735.4C455.738 736.34 456.198 737.28 456.659 738.219C457.153 738.996 457.634 739.771 458.127 740.557C458.782 741.386 459.425 742.213 460.066 743.05C460.591 743.589 461.127 744.141 461.65 744.69C462.502 745.397 463.365 746.116 464.214 746.844C464.855 747.283 465.496 747.721 466.149 748.162C466.921 748.586 467.693 749.01 468.463 749.445C469.319 749.817 470.174 750.199 471.014 750.59C472.164 750.989 473.323 751.411 474.47 751.831C475.256 752.047 476.04 752.274 476.824 752.5C477.88 752.72 478.947 752.962 480.013 753.204C481.114 753.376 482.203 753.548 483.301 753.741C502.812 755.829 522.196 760.416 540.818 770.734C562.887 782.964 580.584 803.292 589.387 826.524C598.179 849.744 596.389 871.416 584.46 885.977L582.975 884.874C582.58 885.537 582.174 886.187 581.743 886.823L580.032 885.671C579.714 886.343 579.381 887.023 579.014 887.668L577.049 886.482C576.806 887.164 576.564 887.846 576.286 888.502L574.023 887.32C573.872 887.993 573.733 888.677 573.546 889.325L570.965 888.217C570.919 888.872 570.875 889.516 570.796 890.135L568.329 889.336C571.147 866.192 551.403 817.377 520.747 786.671C518.734 784.651 516.671 782.719 514.605 780.913C505.009 772.498 495.477 765.895 485.925 760.453C494.241 766.271 502.623 773.083 511.108 781.302C513.083 783.212 515.055 785.248 516.993 787.353C545.736 818.682 566.954 867.079 568.021 890.932L565.732 890.459C564.688 867.029 542.921 818.384 515.377 788.372C513.486 786.305 511.547 784.315 509.617 782.453C499.859 772.99 490.193 765.415 480.639 759.082C488.928 765.819 497.386 773.647 506.119 783.052C507.945 785.016 509.782 787.098 511.586 789.237C538.954 821.827 560.33 869.698 565.233 891.727L563.172 891.588C558.318 869.775 537.142 822.359 510.034 790.065C508.264 787.961 506.461 785.916 504.669 783.987C494.814 773.369 485.292 764.775 475.976 757.497C483.997 765.206 492.244 774.077 501.145 784.782C502.813 786.779 504.502 788.904 506.182 791.101C530.801 823.275 553.113 869.998 562.419 892.529L560.627 892.708C551.361 870.265 529.15 823.765 504.688 791.78C503.03 789.606 501.351 787.503 499.705 785.541C489.831 773.662 480.775 764.058 471.933 755.804C471.869 755.795 471.817 755.799 471.753 755.791C479.426 764.609 487.31 774.596 496.121 786.506C497.641 788.547 499.195 790.717 500.74 792.961C515.434 814.161 530.417 841.342 542.445 863.186C549.156 875.371 554.956 885.898 559.562 893.357L558.086 893.797C553.459 886.293 547.649 875.744 540.916 863.534C528.907 841.736 513.957 814.6 499.317 793.49C497.769 791.268 496.238 789.111 494.729 787.093C485.676 774.848 477.601 764.647 469.741 755.679C469.6 755.672 469.446 755.662 469.305 755.655C476.099 765.282 482.983 775.812 490.964 788.056L491.083 788.239C492.485 790.39 493.894 792.584 495.284 794.828C502.586 806.534 510.33 819.921 517.819 832.878C532.143 857.658 545.685 881.08 556.698 894.248L555.547 894.865C544.423 881.557 530.849 858.079 516.482 833.23C509.003 820.296 501.271 806.921 493.979 795.237C492.588 793.003 491.191 790.811 489.787 788.68L489.668 788.497C481.534 776.035 474.541 765.344 467.635 755.587C467.379 755.575 467.135 755.565 466.878 755.553C469.487 760.165 472.095 764.893 474.785 769.779C478.324 776.199 481.976 782.844 486.044 789.972C487.299 792.167 488.572 794.417 489.841 796.698L494.245 804.623C512.198 836.936 534.53 877.162 553.866 895.184L553.014 895.892C533.471 877.665 511.063 837.325 493.061 804.901L488.655 796.986C487.386 794.705 486.124 792.467 484.87 790.271C480.79 783.132 477.138 776.487 473.6 770.056C470.848 765.048 468.177 760.217 465.503 755.502C465.169 755.49 464.836 755.468 464.514 755.459C465.345 757.337 466.174 759.226 467.014 761.127C471.272 770.795 475.655 780.794 481.021 791.685L484.412 798.558C509.073 848.592 531.503 881.428 551.069 896.156L550.46 896.875C530.694 881.995 508.108 848.971 483.343 798.736L479.953 791.863C474.577 780.949 470.182 770.938 465.925 761.26C465.066 759.304 464.207 757.348 463.345 755.413C462.946 755.404 462.536 755.383 462.137 755.373C462.193 755.538 462.25 755.702 462.306 755.867C466.3 767.787 470.424 780.112 475.963 793.373C476.932 795.679 477.922 798.018 478.936 800.382C486.334 817.562 513.209 875.293 548.27 897.138L547.873 897.821C512.488 875.777 485.47 817.755 478.03 800.496C477.017 798.132 476.014 795.791 475.046 793.476C469.485 780.18 465.352 767.833 461.359 755.902C461.292 755.716 461.239 755.531 461.172 755.344C460.71 755.326 460.233 755.317 459.771 755.3C462.83 768.065 466.109 781.235 470.906 795.051C471.755 797.488 472.62 799.895 473.472 802.206C486.43 837.117 512.146 880.65 545.507 898.146L545.249 898.742C511.611 881.095 485.731 837.332 472.704 802.255C471.852 799.943 470.975 797.524 470.126 795.087C465.321 781.239 462.044 768.058 458.973 755.281C458.445 755.266 457.918 755.251 457.39 755.235C459.494 768.706 461.858 782.566 465.824 796.716C466.524 799.206 467.255 801.659 467.985 804.018C474.055 823.397 483.937 842.952 495.823 859.073C509.566 877.718 525.795 891.588 542.755 899.166L542.616 899.641C525.524 891.993 509.177 878.035 495.345 859.274C483.416 843.094 473.503 823.473 467.404 804.017C466.662 801.656 465.932 799.193 465.232 796.702C461.269 782.532 458.891 768.681 456.787 755.21C456.195 755.197 455.602 755.184 455.023 755.172C456.376 771.775 458.141 788.788 462.526 805.812C467.526 825.274 477.12 844.865 489.522 860.989C503.637 879.347 521.12 892.906 540.041 900.191L539.971 900.538C520.939 893.208 503.374 879.586 489.192 861.146C476.757 844.975 467.132 825.328 462.114 805.801C457.731 788.766 455.964 771.764 454.611 755.161C449.343 755.061 444.082 755.014 438.857 754.983C431.918 754.93 424.746 754.879 417.762 754.674C376.155 753.428 323.912 739.199 302.059 702.977C291.459 685.396 282.02 656.462 322.338 608.444C322.352 608.435 322.367 608.416 322.369 608.406C323.169 607.303 323.955 606.209 324.751 605.137C325.471 604.16 326.201 603.195 326.919 602.228C327.001 602.092 327.096 601.957 327.177 601.831C328.501 599.768 329.822 597.726 331.142 595.693C332.311 593.526 333.476 591.391 334.626 589.274C335.556 587.16 336.491 585.005 337.441 582.841L337.822 581.685C338.392 579.955 338.948 578.244 339.505 576.522C339.96 574.39 340.399 572.276 340.838 570.162C341.029 568.079 341.203 566.015 341.377 563.961C341.301 561.939 341.214 559.904 341.115 557.857C340.747 555.797 340.367 553.735 339.973 551.671C339.317 549.647 338.659 547.634 337.975 545.617C337.01 543.585 336.016 541.57 335.007 539.574C333.737 537.607 332.439 535.648 331.136 533.729C329.392 531.629 327.617 529.566 325.827 527.522C323.839 525.61 321.832 523.748 319.81 521.895C317.361 519.955 314.894 518.055 312.396 516.193C283.046 496.926 250.991 482.03 218.225 473.469C213.153 472.147 207.941 470.911 202.892 469.717C188.507 466.317 173.771 462.831 159.975 456.655C70.7632 472.013 -13.9131 473.37 -96.5925 460.892C-235.899 439.871 -368.985 376.557 -461.744 287.171L-459.499 285.373ZM155.54 454.093C159.486 453.426 163.448 452.739 167.402 452.01C164.978 450.881 162.65 449.701 160.419 448.481C156.343 449.048 152.286 449.575 148.258 450.075C150.654 451.526 153.079 452.854 155.54 454.093ZM131.717 385.777C130.444 384.429 129.197 383.084 128 381.745C128.839 383.457 129.744 385.157 130.725 386.866C132.031 387.851 133.352 388.828 134.711 389.81C133.614 388.401 132.624 387.057 131.717 385.777ZM116.782 330.377C116.806 328.084 116.808 325.757 116.786 323.416C115.949 326.213 115.135 329.033 114.381 331.882C114.818 333.91 115.221 335.901 115.612 337.88C115.975 335.358 116.373 332.862 116.782 330.377ZM109.857 356.946C110.177 357.375 110.509 357.806 110.828 358.235C111.954 359.721 113.056 361.194 114.172 362.659C114.023 359.39 114.038 356.162 114.175 352.982C114.006 352.593 113.823 352.203 113.655 351.804C112.856 349.982 112.048 348.138 111.215 346.28C110.609 349.788 110.141 353.334 109.857 356.946ZM168.392 444.305C166.22 443.125 164.12 441.88 162.065 440.588C158.168 440.979 154.299 441.342 150.486 441.68C152.568 443.164 154.722 444.583 156.963 445.93C160.749 445.41 164.549 444.871 168.392 444.305ZM186.581 419.299C187.353 419.618 188.138 419.939 188.924 420.26C190.319 420.356 191.74 420.444 193.162 420.532C192.679 420.376 192.194 420.23 191.723 420.075C189.987 419.82 188.278 419.559 186.581 419.299ZM144.629 401.244C142.413 400.204 140.247 399.171 138.109 398.131C139.453 399.929 140.865 401.704 142.32 403.442C144.578 404.152 146.837 404.862 149.122 405.564C147.589 404.13 146.145 402.707 144.763 401.303C144.714 401.286 144.666 401.259 144.629 401.244ZM121.135 373.681C121.815 376.222 122.636 378.781 123.573 381.334C125.259 382.683 126.973 384.014 128.725 385.351C127.554 383.208 126.487 381.058 125.524 378.911C124.018 377.166 122.55 375.425 121.135 373.681ZM115.197 366.135C115.489 369.287 115.982 372.485 116.644 375.673C118.498 377.222 120.356 378.74 122.228 380.249C121.243 377.459 120.387 374.676 119.723 371.906C118.188 369.99 116.679 368.066 115.197 366.135ZM142.301 423.79C145.696 423.891 149.044 423.965 152.315 424.028C150.481 422.419 148.706 420.765 147.001 419.058C143.762 418.746 140.487 418.41 137.176 418.057C138.795 420.027 140.512 421.935 142.301 423.79ZM181.763 442.228C185.218 441.665 188.676 441.082 192.135 440.488C190.191 439.641 188.275 438.776 186.39 437.874C182.835 438.308 179.293 438.744 175.742 439.148C175.717 439.145 175.703 439.153 175.677 439.15C177.392 440.073 179.135 440.978 180.923 441.837C181.203 441.967 181.483 442.098 181.763 442.228ZM357.351 556.294C357.181 556.115 357.01 555.936 356.839 555.757C356.289 556.724 355.726 557.69 355.174 558.667C355.275 558.785 355.375 558.913 355.464 559.029C356.11 558.117 356.731 557.2 357.351 556.294ZM298.533 423.711C297.841 423.873 297.148 424.036 296.456 424.199C307.707 425.56 317.713 427.569 327.378 430.426C356.174 438.937 372.999 454.194 379.146 465.636C388.263 482.607 381.287 496.305 375.691 507.308C368.81 520.966 362.118 535.068 355.736 548.968C356.06 549.261 356.397 549.556 356.72 549.849C365.619 534.448 374.149 520.31 382.416 507.218C389.031 496.829 398.09 482.591 389.986 465.477C381.639 447.839 357.883 435.477 340.078 430.264C327.909 426.698 315.075 424.588 300.83 423.817C300.049 423.769 299.29 423.745 298.533 423.711ZM240.65 426.853L239.668 426.958C239.932 427.013 240.198 427.057 240.449 427.11C241.664 426.9 242.89 426.701 244.091 426.498C244.053 426.494 244.015 426.489 243.977 426.484C242.875 426.615 241.763 426.734 240.65 426.853ZM173.907 417.251C175.243 418.01 176.619 418.753 178.009 419.498C180.144 419.657 182.319 419.81 184.533 419.969C183.32 419.456 182.135 418.937 180.962 418.42C178.584 418.03 176.232 417.644 173.907 417.251ZM162.465 415.267C164.021 416.421 165.632 417.551 167.283 418.665C169.787 418.871 172.356 419.075 174.991 419.267C173.436 418.407 171.908 417.539 170.408 416.655C167.717 416.194 165.064 415.738 162.465 415.267ZM149.841 407.607C148.04 407.05 146.253 406.495 144.465 405.941C145.908 407.573 147.393 409.179 148.935 410.74C148.982 410.778 149.015 410.824 149.061 410.861C150.99 411.225 152.946 411.581 154.901 411.937C155.532 412.049 156.189 412.165 156.818 412.288C155.182 410.956 153.61 409.622 152.115 408.297C151.358 408.063 150.575 407.827 149.841 407.607ZM145.911 416.789C148.946 417.085 151.957 417.367 154.932 417.623C153.177 416.108 151.491 414.56 149.861 412.977C146.886 412.417 143.938 411.849 141.004 411.273C142.569 413.162 144.204 415.008 145.911 416.789ZM193.852 440.185C197.114 439.618 200.378 439.031 203.644 438.434C201.861 437.743 200.091 437.044 198.35 436.328C194.948 436.782 191.548 437.215 188.149 437.649C189.708 438.373 191.282 439.089 192.897 439.779C193.214 439.925 193.534 440.05 193.852 440.185ZM336.623 537.349C336.851 537.588 337.065 537.825 337.293 538.064C337.154 537.438 337.013 536.823 336.874 536.197C336.538 535.902 336.215 535.598 335.879 535.303C336.127 535.985 336.375 536.667 336.623 537.349ZM286.262 426.768C296.716 428.405 305.869 430.42 314.524 432.999C332.817 438.442 355.871 450.033 365.724 466.197C375.225 481.792 370.531 494.504 366.391 505.725C361.679 518.488 357.029 531.971 352.349 545.985C352.733 546.317 353.128 546.662 353.511 546.994C359.818 533.273 366.433 519.371 373.213 505.889C378.619 495.271 385.338 482.064 376.795 466.152C367.929 449.642 344.545 437.8 327.218 432.68C315.812 429.307 303.929 427.13 289.948 425.816C288.707 426.128 287.479 426.442 286.262 426.768ZM253.547 427.766C252.187 428 250.84 428.236 249.48 428.47L248.358 428.661C248.875 428.759 249.377 428.866 249.894 428.963C251.197 428.669 252.499 428.386 253.79 428.08L254.549 427.905C254.219 427.862 253.877 427.808 253.547 427.766ZM233.63 427.629C231.548 427.854 229.466 428.079 227.36 428.291C228.149 428.487 228.937 428.682 229.738 428.88C231.636 428.578 233.521 428.275 235.408 427.962C234.815 427.854 234.21 427.735 233.63 427.629ZM164.819 424.178C167.942 424.191 170.976 424.193 173.945 424.197C172.17 423.14 170.449 422.06 168.757 420.962C165.831 420.722 162.982 420.492 160.236 420.255C159.994 420.234 159.751 420.213 159.508 420.193C161.231 421.557 162.997 422.885 164.819 424.178ZM176.114 424.192C178.968 424.192 181.745 424.182 184.458 424.163C182.853 423.391 181.276 422.601 179.726 421.805C176.771 421.593 173.895 421.37 171.083 421.145C172.72 422.173 174.396 423.196 176.114 424.192ZM180.304 426.555C181.993 427.474 183.709 428.387 185.469 429.263C188.453 429.049 191.412 428.831 194.332 428.609C192.691 427.916 191.066 427.204 189.491 426.498C186.504 426.534 183.442 426.549 180.304 426.555ZM205.746 438.054C208.774 437.499 211.791 436.922 214.811 436.335C213.227 435.796 211.657 435.259 210.113 434.715C206.943 435.167 203.775 435.609 200.596 436.029C202.008 436.598 203.405 437.176 204.846 437.718C205.141 437.84 205.45 437.942 205.746 438.054ZM276.255 429.488C284.209 430.992 292.82 432.906 301.658 435.561C324.619 442.453 343.545 454.122 352.29 466.757C362.189 481.05 359.525 493.048 357.183 503.641L357.07 504.119C354.36 516.363 351.687 529.335 348.885 543.003C349.315 543.373 349.76 543.734 350.19 544.104C354.798 530.342 359.364 517.111 363.999 504.548C367.999 493.718 372.532 481.446 363.595 466.794C354.245 451.439 332.018 440.342 314.335 435.072C304.375 432.104 293.699 429.884 281.088 428.148C279.482 428.592 277.862 429.044 276.255 429.488ZM242.739 433.706C240.162 434.266 237.586 434.826 235.012 435.366C236.196 435.696 237.406 436.019 238.605 436.341C241.007 435.727 243.427 435.084 245.834 434.439C245.821 434.437 245.808 434.436 245.783 434.432L242.739 433.706ZM235.915 432.053C234.851 431.791 233.787 431.528 232.748 431.279C230.15 431.701 227.541 432.11 224.92 432.517C226.139 432.873 227.359 433.229 228.605 433.578C231.045 433.074 233.486 432.569 235.915 432.053ZM253.054 431.403C250.819 431.913 248.585 432.423 246.339 432.921C247.265 433.144 248.179 433.367 249.106 433.591C251.205 433.032 253.305 432.463 255.394 431.882C254.614 431.719 253.833 431.566 253.054 431.403ZM255.741 435.208C262.335 436.842 269.067 438.608 275.924 440.706C297.876 447.416 315.916 457.334 325.428 467.919C336.091 479.784 337.247 490.385 338.267 499.732L338.399 500.913C339.807 513.675 340.93 525.636 341.781 537.1C342.307 537.524 342.82 537.956 343.346 538.381C344.004 528.736 344.574 519.478 345.111 510.677L345.704 501.034C346.343 490.935 347.002 480.483 337.243 468.105C328.519 457.024 310.352 446.481 288.641 439.907C279.805 437.231 271.158 435.197 262.487 433.349C260.225 433.971 257.976 434.594 255.741 435.208ZM268.754 431.596L266.157 432.321C273.64 433.964 281.137 435.808 288.793 438.123C311.062 444.874 329.776 455.781 338.855 467.317C349.135 480.359 348.42 491.653 347.8 501.607L347.206 511.25C346.654 520.374 346.063 529.996 345.369 540.024C345.847 540.421 346.325 540.818 346.815 541.227C349.549 527.886 352.159 515.21 354.822 503.222L354.922 502.742C357.191 492.518 359.765 480.928 350.419 467.45C342.067 455.378 323.778 444.18 301.489 437.479C291.122 434.365 281.049 432.274 271.985 430.669C270.911 430.992 269.826 431.293 268.754 431.596ZM345.92 545.579C345.979 545.324 346.025 545.068 346.083 544.813C345.762 544.499 345.43 544.174 345.108 543.86C345.05 544.712 344.993 545.564 344.922 546.415C345.147 546.674 345.372 546.934 345.597 547.194C345.705 546.652 345.813 546.11 345.92 545.579ZM346.197 544.23C346.373 543.362 346.55 542.483 346.725 541.625C346.258 541.239 345.793 540.844 345.338 540.461C345.273 541.375 345.207 542.289 345.154 543.205C345.498 543.543 345.84 543.891 346.197 544.23ZM348.811 543.381C348.613 544.32 348.427 545.261 348.226 546.221C348.548 546.535 348.857 546.837 349.179 547.15C349.474 546.255 349.784 545.352 350.08 544.456C349.661 544.099 349.229 543.739 348.811 543.381ZM348.114 546.794C347.937 547.672 347.744 548.57 347.565 549.459C347.767 549.695 347.971 549.92 348.173 550.156C348.448 549.321 348.722 548.497 349.009 547.663C348.711 547.373 348.411 547.094 348.114 546.794ZM347.396 550.276C347.226 551.093 347.056 551.91 346.887 552.727C346.985 552.866 347.085 552.994 347.184 553.132C347.434 552.389 347.673 551.633 347.924 550.889C347.756 550.69 347.576 550.478 347.396 550.276ZM346.668 553.831C346.523 554.557 346.379 555.273 346.222 555.997L346.233 556.009C346.443 555.375 346.655 554.732 346.866 554.098C346.799 554.016 346.733 553.924 346.668 553.831ZM346.955 671.588C366.594 703.834 405.733 720.668 429.115 730.718C436.506 733.89 443.956 737.101 451.489 740.669C444.458 736.411 437.463 732.566 430.444 728.813L427.049 727.003C403.099 714.238 370.304 696.762 352.163 667.025C336.293 641.019 336.544 616.151 338.444 595.132C338.247 595.358 338.064 595.576 337.867 595.802C333.521 616.664 329.874 643.549 346.955 671.588ZM343.863 588.825C344.063 609.683 344.891 635.193 360.938 661.432C376.984 687.681 403.482 704.726 424.781 718.429C427.666 720.288 430.457 722.083 433.112 723.829C439.683 728.154 445.931 732.48 452.064 737.105C446.347 731.652 440.46 726.524 434.121 721.401C430.4 718.406 426.344 715.306 422.052 712.029C403.83 698.102 381.15 680.783 366.454 656.783C351.044 631.622 347.962 607.972 345.409 587.042C344.895 587.626 344.379 588.231 343.863 588.825ZM432.264 725.104C429.621 723.36 426.842 721.577 423.957 719.717C402.431 705.87 375.648 688.631 359.291 661.891C343.65 636.313 342.246 611.567 341.97 591.003C341.591 591.437 341.225 591.872 340.847 592.306C338.721 613.778 337.544 639.618 353.935 666.498C371.682 695.587 404.066 712.842 427.714 725.442L431.11 727.252C438.141 731.007 445.147 734.864 452.193 739.114C445.745 734.228 439.179 729.662 432.264 725.104ZM346.895 585.325C346.932 585.644 346.969 585.953 347.006 586.272C349.56 607.296 352.465 631.113 367.918 656.342C382.402 679.979 404.881 697.157 422.952 710.96C427.254 714.249 431.322 717.361 435.067 720.369C441.104 725.233 446.725 730.118 452.171 735.263C447.202 729.319 441.929 723.536 435.993 717.678C431.515 713.244 426.351 708.618 420.9 703.713C404.868 689.313 386.709 672.984 373.598 651.63C359.355 628.433 354.17 606.284 349.605 586.742C349.322 585.532 349.048 584.343 348.76 583.174C348.149 583.903 347.517 584.608 346.895 585.325ZM347.977 559.116C348.284 558.432 348.592 557.748 348.9 557.054C348.846 556.974 348.792 556.893 348.738 556.813C348.485 557.577 348.231 558.342 347.977 559.116ZM349.95 581.848C350.334 583.481 350.727 585.146 351.128 586.844C355.669 606.268 360.818 628.296 374.923 651.266C387.885 672.37 405.93 688.59 421.856 702.903C427.331 707.821 432.505 712.47 437.031 716.941C442.416 722.257 447.268 727.504 451.834 732.861C447.615 726.51 443.085 720.267 437.924 714.005C432.854 707.849 426.676 701.362 420.148 694.495C407.066 680.747 392.233 665.159 380.772 646.534C368.159 626.031 361.317 606.123 355.273 588.55C354.19 585.423 353.147 582.385 352.107 579.431C351.37 580.238 350.661 581.038 349.95 581.848ZM428.613 732.519C404.877 722.309 365.149 705.232 344.997 672.154C329.079 646.016 330.696 621.071 334.417 600.853C327.575 623.753 323.578 649.744 339.949 676.674C358.889 707.835 396.464 723.776 427.082 734.179L431.387 735.644C437.858 737.838 444.255 740.002 450.606 742.317C443.209 738.798 435.88 735.644 428.613 732.519ZM344.775 551.177C344.708 551.095 344.655 551.004 344.588 550.922C344.548 551.536 344.495 552.148 344.443 552.759C344.561 552.24 344.668 551.708 344.775 551.177ZM344.994 550.073C345.135 549.378 345.276 548.683 345.416 547.999C345.225 547.775 345.034 547.551 344.842 547.338C344.784 548.096 344.724 548.864 344.676 549.634C344.788 549.774 344.897 549.924 344.994 550.073ZM342.87 545.103C342.678 544.889 342.486 544.676 342.294 544.463C342.345 545.172 342.382 545.889 342.433 546.598C342.531 546.737 342.642 546.877 342.74 547.015C342.772 546.369 342.827 545.737 342.87 545.103ZM342.936 544.189C342.993 543.441 343.039 542.682 343.096 541.934C342.751 541.607 342.406 541.279 342.059 540.962C342.11 541.776 342.173 542.591 342.223 543.405C342.461 543.666 342.698 543.927 342.936 544.189ZM343.139 541.3C343.196 540.458 343.251 539.626 343.307 538.784C342.805 538.374 342.316 537.955 341.813 537.554C341.878 538.454 341.944 539.343 342.011 540.233C342.378 540.594 342.758 540.947 343.139 541.3ZM339.798 535.954C339.271 535.529 338.745 535.105 338.205 534.68C338.393 535.532 338.592 536.396 338.779 537.249C339.171 537.614 339.577 537.97 339.969 538.335C339.916 537.541 339.851 536.747 339.798 535.954ZM339.767 535.488C338.929 524.424 337.842 512.888 336.489 500.605L336.357 499.424C335.32 489.907 334.247 480.071 324.057 468.739C314.862 458.51 297.275 448.88 275.783 442.312C267.882 439.893 260.131 437.922 252.569 436.08C250.029 436.76 247.491 437.42 244.964 438.091C250.877 439.7 256.922 441.389 263.07 443.279C275.625 447.157 298.673 455.581 312.002 468.511C323.092 479.267 325.909 488.793 328.649 498.014L329.038 499.312C332.465 510.824 335.476 522.461 338.104 534.163C338.642 534.599 339.204 535.049 339.767 535.488ZM231.946 436.01C229.081 436.606 226.217 437.192 223.341 437.767C224.782 438.214 226.222 438.661 227.689 439.101C230.369 438.439 233.065 437.758 235.76 437.076C234.477 436.712 233.218 436.362 231.946 436.01ZM225.595 434.198C224.251 433.805 222.92 433.414 221.601 433.024C218.678 433.466 215.742 433.907 212.809 434.327C214.12 434.779 215.443 435.232 216.78 435.676C216.965 435.742 217.152 435.797 217.326 435.851C220.093 435.315 222.85 434.757 225.595 434.198ZM215.329 431.097C213.976 430.671 212.636 430.247 211.323 429.817C208.411 430.071 205.486 430.325 202.536 430.575C204.037 431.156 205.553 431.717 207.105 432.294C209.841 431.901 212.579 431.498 215.329 431.097ZM204.464 432.657C202.837 432.05 201.238 431.436 199.667 430.804C196.536 431.052 193.38 431.296 190.2 431.527C191.906 432.323 193.664 433.105 195.424 433.876C198.445 433.478 201.453 433.078 204.464 432.657ZM197.07 428.405C199.756 428.194 202.419 427.97 205.056 427.743C203.696 427.275 202.362 426.809 201.04 426.346C198.257 426.398 195.411 426.441 192.503 426.466C194.007 427.12 195.525 427.766 197.07 428.405ZM208.595 427.432C210.828 427.237 213.035 427.038 215.244 426.829C214.308 426.583 213.384 426.338 212.461 426.083C210.051 426.151 207.604 426.204 205.13 426.264C206.267 426.661 207.43 427.052 208.595 427.432ZM214.955 429.486C216.146 429.86 217.363 430.236 218.593 430.614C220.962 430.258 223.333 429.892 225.706 429.515C224.68 429.257 223.68 429.003 222.68 428.749C220.116 429.007 217.541 429.252 214.955 429.486ZM236.809 430.617C237.698 430.835 238.599 431.056 239.502 431.266C241.547 430.827 243.593 430.377 245.639 429.927C244.896 429.779 244.177 429.644 243.435 429.497C241.216 429.883 239.025 430.251 236.809 430.617ZM259.45 429.95L257.255 430.454C257.897 430.589 258.525 430.722 259.167 430.847C260.547 430.458 261.924 430.09 263.317 429.702L264.376 429.398C263.871 429.312 263.364 429.237 262.857 429.161C261.726 429.425 260.582 429.686 259.45 429.95ZM267.95 428.012C268.24 428.06 268.518 428.106 268.809 428.154C270.068 427.802 271.314 427.448 272.573 427.096C272.459 427.081 272.357 427.068 272.243 427.054C270.795 427.371 269.372 427.691 267.95 428.012ZM352.215 546.324C351.898 547.29 351.567 548.254 351.248 549.23C351.523 549.507 351.796 549.793 352.083 550.071C352.498 549.15 352.926 548.23 353.354 547.309C352.971 546.977 352.599 546.657 352.215 546.324ZM351.076 549.764C350.764 550.688 350.467 551.594 350.154 552.518C350.334 552.73 350.501 552.94 350.68 553.152C351.075 552.29 351.469 551.429 351.851 550.566C351.602 550.293 351.339 550.028 351.076 549.764ZM349.905 553.251C349.629 554.097 349.337 554.961 349.059 555.816C349.135 555.931 349.223 556.047 349.298 556.172C349.656 555.39 350.015 554.608 350.362 553.813C350.219 553.627 350.062 553.439 349.905 553.251ZM351.191 558.921C351.245 559.001 351.311 559.094 351.365 559.174C351.833 558.343 352.3 557.522 352.767 556.702C352.645 556.55 352.522 556.397 352.398 556.256C352.001 557.138 351.59 558.029 351.191 558.921ZM350.794 559.803C350.524 560.397 350.254 560.992 349.996 561.588C350.298 561.05 350.613 560.503 350.915 559.965C350.869 559.918 350.825 559.859 350.794 559.803ZM352.423 563.504C352.565 563.302 352.694 563.098 352.835 562.907C352.825 562.884 352.814 562.872 352.804 562.85C352.673 563.064 352.554 563.29 352.423 563.504ZM353.018 578.363C354.185 581.648 355.354 585.006 356.546 588.494C362.561 605.989 369.386 625.822 381.914 646.188C393.291 664.666 408.043 680.18 421.069 693.859C427.633 700.751 433.833 707.262 438.935 713.474C443.625 719.172 447.804 724.836 451.689 730.577C448.169 723.803 444.322 717.07 439.856 710.321C434.275 701.909 426.988 693.005 419.278 683.574C409.079 671.108 397.52 656.968 387.914 641.392C377.314 624.209 369.994 607.93 362.914 592.184C360.343 586.476 357.871 580.989 355.349 575.696C354.563 576.591 353.791 577.477 353.018 578.363ZM431.112 737.684L426.795 736.218C395.62 725.628 357.338 709.355 337.832 677.273C323.263 653.3 324.327 630.245 329.383 609.38C321.044 632.287 317.689 656.589 332.958 681.752C348.398 707.19 378.521 725.465 425.05 737.639C428.048 738.423 431.048 739.186 434.035 739.958C438.972 741.221 443.859 742.478 448.714 743.783C442.916 741.675 437.052 739.685 431.112 737.684ZM342.632 548.26C342.588 548.201 342.555 548.155 342.511 548.097C342.534 548.425 342.545 548.741 342.567 549.069C342.601 548.801 342.61 548.529 342.632 548.26ZM340.36 543.837C340.327 543.287 340.282 542.736 340.249 542.187C340.069 541.986 339.888 541.784 339.706 541.593C339.844 542.229 339.969 542.864 340.094 543.498C340.182 543.615 340.272 543.721 340.36 543.837ZM340.164 541.138C340.111 540.45 340.07 539.763 340.018 539.064C339.66 538.735 339.315 538.408 338.955 538.089C339.115 538.854 339.276 539.609 339.436 540.374C339.688 540.626 339.94 540.879 340.164 541.138ZM336.686 535.355C336.524 534.6 336.35 533.844 336.176 533.087C335.649 532.674 335.119 532.27 334.592 531.856C334.901 532.661 335.21 533.477 335.507 534.28C335.899 534.645 336.292 535 336.686 535.355ZM336.061 532.58C333.519 521.412 330.635 510.295 327.347 499.305L326.96 497.997C324.305 489.016 321.548 479.729 310.871 469.372C297.922 456.805 275.267 448.537 262.924 444.718C255.87 442.543 248.923 440.644 242.173 438.812C239.382 439.534 236.608 440.226 233.832 440.928C234.566 441.148 235.288 441.356 236.034 441.578C240.649 442.936 245.413 444.345 250.205 445.841C265.213 450.516 285.781 458.349 298.574 469.114C310.191 478.889 314.704 487.877 319.06 496.583L319.636 497.727C324.973 508.341 329.904 519.606 334.37 531.272C334.922 531.7 335.485 532.139 336.061 532.58ZM318.236 497.966L317.66 496.823C313.385 488.295 308.966 479.476 297.675 469.984C285.16 459.464 264.874 451.752 250.064 447.134C245.284 445.65 240.533 444.242 235.93 442.886C234.4 442.437 232.895 441.992 231.403 441.549C228.389 442.294 225.391 443.02 222.394 443.736C225.11 444.599 227.865 445.467 230.672 446.331C232.883 447.013 235.104 447.707 237.338 448.414C259.202 455.301 274.845 462.27 285.157 469.739C297.538 478.689 303.79 487.303 309.846 495.641L310.23 496.172C317.448 506.116 324.267 516.952 330.557 528.392C331.123 528.811 331.687 529.24 332.252 529.669C327.974 518.645 323.285 508.009 318.236 497.966ZM225.239 439.677C223.724 439.21 222.234 438.746 220.732 438.281C217.619 438.898 214.494 439.503 211.372 440.087C213.04 440.668 214.724 441.231 216.42 441.795C219.361 441.113 222.293 440.4 225.239 439.677ZM209.24 440.505C205.892 441.134 202.535 441.741 199.179 442.337C201.049 443.059 202.92 443.772 204.809 444.444C207.985 443.741 211.163 443.017 214.357 442.274C212.637 441.696 210.931 441.11 209.24 440.505ZM193.322 434.162C191.514 433.363 189.748 432.539 188.009 431.697C184.66 431.937 181.261 432.172 177.837 432.392C179.679 433.426 181.565 434.423 183.493 435.394C186.772 434.998 190.041 434.579 193.322 434.162ZM183.396 429.416C181.593 428.482 179.803 427.539 178.068 426.572C174.903 426.584 171.638 426.574 168.281 426.573C170.077 427.768 171.917 428.927 173.798 430.06C177.028 429.845 180.232 429.628 183.396 429.416ZM166.605 426.556C166.205 426.557 165.818 426.55 165.418 426.551C162.49 426.531 159.487 426.491 156.445 426.446C158.27 427.918 160.142 429.333 162.081 430.714C164.577 430.584 167.098 430.457 169.649 430.302C170.494 430.254 171.328 430.193 172.174 430.144C170.269 428.988 168.41 427.784 166.605 426.556ZM163.194 424.168C161.351 422.83 159.565 421.458 157.822 420.05C154.668 419.781 151.489 419.498 148.275 419.19C149.971 420.865 151.739 422.476 153.564 424.053C156.824 424.104 160.034 424.139 163.194 424.168ZM147.423 410.546C145.793 408.869 144.207 407.145 142.691 405.377C139.998 404.528 137.332 403.672 134.658 402.783C136.068 404.872 137.547 406.929 139.11 408.933C141.866 409.486 144.638 410.02 147.423 410.546ZM155.044 413.937C153.871 413.723 152.71 413.511 151.551 413.289C153.162 414.817 154.83 416.31 156.553 417.769C157.638 417.866 158.723 417.963 159.797 418.049C161.533 418.199 163.309 418.343 165.123 418.492C163.405 417.296 161.74 416.086 160.117 414.85C158.413 414.548 156.723 414.236 155.044 413.937ZM182.938 422.028C184.371 422.737 185.829 423.448 187.316 424.132C189.849 424.112 192.331 424.085 194.763 424.051C193.445 423.557 192.141 423.054 190.875 422.555C188.185 422.388 185.535 422.215 182.938 422.028ZM198.682 423.999C200.623 423.965 202.551 423.93 204.454 423.891C203.669 423.664 202.884 423.448 202.112 423.223C199.906 423.108 197.727 422.985 195.575 422.855C196.597 423.238 197.634 423.612 198.682 423.999ZM209.945 423.758C210.671 423.736 211.383 423.722 212.109 423.7C211.158 423.662 210.222 423.615 209.284 423.578C209.496 423.637 209.72 423.697 209.945 423.758ZM218.072 425.924C218.671 426.084 219.297 426.238 219.896 426.399C221.478 426.246 223.047 426.091 224.617 425.926C224.277 425.861 223.937 425.796 223.597 425.732C221.767 425.801 219.925 425.868 218.072 425.924ZM259.816 426.705C259.869 426.691 259.923 426.677 259.976 426.663C259.91 426.675 259.844 426.687 259.778 426.7C259.79 426.702 259.803 426.703 259.816 426.705ZM355.578 549.294C355.128 550.284 354.665 551.273 354.217 552.254C354.444 552.493 354.686 552.723 354.913 552.962C355.46 552.025 355.995 551.077 356.527 550.149C356.214 549.868 355.903 549.577 355.578 549.294ZM353.999 552.739C353.567 553.69 353.137 554.631 352.705 555.582C352.838 555.746 352.985 555.912 353.117 556.086C353.632 555.198 354.133 554.308 354.648 553.42C354.432 553.193 354.215 552.966 353.999 552.739ZM354.824 559.283C354.306 560.202 353.776 561.109 353.257 562.038C353.289 562.084 353.311 562.118 353.344 562.165C353.919 561.305 354.505 560.458 355.079 559.609C355.004 559.495 354.914 559.389 354.824 559.283ZM356.088 574.868C358.725 580.375 361.308 586.096 363.989 592.06C371.047 607.771 378.347 624.006 388.906 641.11C398.458 656.607 409.984 670.7 420.162 683.132C427.906 692.598 435.215 701.526 440.827 710.006C444.85 716.069 448.361 722.108 451.584 728.173C448.758 721.027 445.607 713.901 441.821 706.684C435.67 694.969 426.857 682.566 417.533 669.426C410.045 658.871 402.292 647.967 395.065 636.282C387.304 623.731 380.659 611.543 374.243 599.773C368.956 590.077 363.898 580.809 358.607 572.046C357.763 572.986 356.92 573.926 356.088 574.868ZM434.001 742.228C431.001 741.465 428.002 740.692 424.991 739.907C377.474 727.48 346.632 708.672 330.68 682.393C317.097 659.993 317.737 638.425 323.61 617.938C314.884 639.128 311.319 662.659 325.967 686.82C346.132 720.099 389.883 734.705 423.031 741.092C427.252 741.906 431.477 742.68 435.692 743.442C439.212 744.082 442.744 744.725 446.273 745.399C442.226 744.333 438.127 743.283 434.001 742.228ZM337.812 540.553C337.724 540.133 337.649 539.714 337.56 539.304C337.435 539.173 337.309 539.041 337.184 538.91C337.376 539.427 337.554 539.953 337.746 540.471C337.768 540.495 337.79 540.529 337.812 540.553ZM334.219 534.859C334.028 534.332 333.824 533.813 333.632 533.295C333.365 533.062 333.097 532.839 332.83 532.605C333.141 533.201 333.463 533.808 333.774 534.404C333.923 534.549 334.071 534.704 334.219 534.859ZM333.266 532.326C333.007 531.632 332.746 530.948 332.486 530.254C331.969 529.863 331.462 529.483 330.943 529.102C331.361 529.869 331.78 530.625 332.186 531.39C332.546 531.698 332.907 532.007 333.266 532.326ZM328.669 527.405C328.21 527.063 327.748 526.741 327.288 526.399C327.781 527.081 328.275 527.763 328.767 528.455C329.058 528.703 329.349 528.95 329.64 529.197C329.316 528.599 328.994 527.992 328.669 527.405ZM328.27 526.693C322.319 516.031 315.909 505.929 309.141 496.609L308.757 496.077C302.79 487.856 296.626 479.358 284.493 470.586C274.346 463.244 258.885 456.361 237.219 449.541C234.985 448.835 232.762 448.151 230.553 447.458C227.052 446.369 223.651 445.303 220.292 444.221C217.055 444.99 213.836 445.73 210.605 446.458C215.232 448.027 219.884 449.505 224.461 450.964C241.429 456.362 258.904 462.444 271.741 470.353C285.358 478.729 293.569 487.175 300.821 494.638C309.888 503.96 318.546 514.351 326.653 525.51C327.195 525.915 327.74 526.3 328.27 526.693ZM300.026 495.197C292.842 487.805 284.7 479.43 271.262 471.172C258.579 463.367 241.216 457.32 224.346 451.955C219.211 450.321 214.002 448.655 208.808 446.877C205.378 447.652 201.951 448.397 198.538 449.132C202.932 450.714 207.314 452.179 211.591 453.556L214.691 454.552C229.979 459.462 245.776 464.532 258.357 471.024C272.597 478.368 282.512 486.006 291.453 493.194C302.299 501.926 312.786 511.85 322.69 522.695C323.151 523.026 323.626 523.35 324.087 523.681C316.498 513.407 308.43 503.846 300.026 495.197ZM203.081 444.83C201.157 444.122 199.248 443.405 197.357 442.648C193.804 443.272 190.266 443.876 186.717 444.468C188.773 445.351 190.832 446.203 192.91 447.015C196.293 446.307 199.679 445.578 203.081 444.83ZM174.578 436.451C176.989 436.173 179.402 435.886 181.815 435.598C179.878 434.594 177.97 433.563 176.118 432.507C174.269 432.626 172.446 432.748 170.573 432.854C168.882 432.951 167.219 433.031 165.554 433.131C167.47 434.395 169.43 435.621 171.447 436.803C172.496 436.676 173.53 436.568 174.578 436.451ZM164.255 433.195C160.575 433.393 156.925 433.564 153.356 433.714C155.292 435.221 157.276 436.66 159.343 438.058C162.913 437.709 166.524 437.334 170.165 436.932C168.138 435.728 166.181 434.481 164.255 433.195ZM160.819 430.793C158.882 429.391 156.99 427.932 155.168 426.44C151.753 426.389 148.264 426.318 144.726 426.22C146.516 427.96 148.38 429.635 150.314 431.257C153.766 431.124 157.258 430.975 160.819 430.793ZM144.687 416.674C142.972 414.849 141.329 412.961 139.757 411.029C136.698 410.416 133.666 409.796 130.651 409.146C132.106 411.388 133.647 413.568 135.287 415.676C138.442 416.039 141.576 416.369 144.687 416.674ZM137.889 408.682C136.295 406.621 134.785 404.508 133.357 402.354C130.596 401.433 127.851 400.493 125.083 399.53C126.338 402.018 127.714 404.47 129.188 406.872C132.077 407.495 134.969 408.097 137.889 408.682ZM131.872 400.045C130.415 397.719 129.066 395.355 127.81 392.971C125.377 391.714 122.96 390.429 120.534 389.111C121.559 391.885 122.718 394.623 124.01 397.326C126.627 398.26 129.248 399.163 131.872 400.045ZM126.617 390.605C125.348 388.02 124.186 385.407 123.179 382.793C121.14 381.178 119.129 379.547 117.146 377.897C117.856 380.914 118.732 383.941 119.767 386.936C122.047 388.183 124.33 389.41 126.617 390.605ZM124.562 383.883C125.561 386.36 126.689 388.832 127.923 391.287C130.066 392.401 132.21 393.494 134.37 394.568C132.979 392.534 131.669 390.468 130.451 388.393C128.436 386.897 126.486 385.388 124.562 383.883ZM129.155 393.657C130.384 395.954 131.719 398.222 133.136 400.459C135.624 401.293 138.102 402.104 140.595 402.896C139.066 401.032 137.618 399.137 136.226 397.208C133.845 396.042 131.493 394.859 129.155 393.657ZM151.532 406.304C153.371 406.865 155.26 407.433 157.199 408.017C155.97 407.136 154.753 406.256 153.565 405.349C151.502 404.423 149.538 403.531 147.687 402.664C148.901 403.869 150.178 405.081 151.532 406.304ZM154.676 409.066C155.932 410.14 157.214 411.217 158.548 412.29C158.711 412.426 158.901 412.555 159.066 412.681C161.338 413.089 163.622 413.497 165.946 413.901C164.524 413.005 163.131 412.092 161.74 411.159C159.325 410.461 156.963 409.759 154.676 409.066ZM168.136 413.836C168.483 414.049 168.832 414.251 169.166 414.461C170.897 414.757 172.653 415.056 174.422 415.357C173.474 414.899 172.538 414.444 171.591 413.976C169.621 413.429 167.69 412.888 165.798 412.341C166.572 412.849 167.345 413.357 168.136 413.836ZM179.439 416.2C179.793 416.256 180.148 416.312 180.489 416.367C179.965 416.226 179.427 416.094 178.903 415.953C179.087 416.029 179.257 416.114 179.439 416.2ZM308.269 421.89C319.624 422.95 330.153 424.911 340.244 427.864C358.845 433.315 383.705 446.333 392.567 465.085C401.218 483.37 391.834 498.122 384.977 508.889C376.617 522.105 368.016 536.392 359.019 551.958C359.284 552.202 359.549 552.456 359.814 552.7C370.518 537.216 381.063 522.572 391.603 508.566C401.715 495.176 410.206 481.746 403.149 464.819C398.266 453.089 382.182 436.376 352.898 427.854C340.303 424.191 327.201 422.256 312.847 421.933C311.329 421.895 309.793 421.886 308.269 421.89ZM358.863 552.263C358.282 553.269 357.7 554.284 357.118 555.3C357.3 555.491 357.482 555.682 357.651 555.872C358.317 554.909 358.971 553.934 359.636 552.981C359.37 552.737 359.118 552.495 358.863 552.263ZM357.61 561.717C357.677 561.799 357.743 561.891 357.797 561.971C358.538 561.029 359.29 560.098 360.029 559.165C359.906 559.024 359.769 558.88 359.645 558.738C358.964 559.72 358.281 560.713 357.61 561.717ZM357.213 562.295C356.576 563.23 355.926 564.174 355.288 565.119C355.287 565.13 355.299 565.131 355.298 565.142C355.992 564.266 356.686 563.38 357.366 562.514C357.324 562.435 357.269 562.365 357.213 562.295ZM358.543 566.617C358.891 566.222 359.237 565.836 359.597 565.442C359.575 565.418 359.553 565.384 359.531 565.36C359.206 565.78 358.88 566.2 358.543 566.617ZM359.182 571.386C364.584 580.29 369.727 589.705 375.096 599.568C381.511 611.338 388.147 623.504 395.885 636.031C403.09 647.682 410.832 658.574 418.308 669.117C427.655 682.291 436.489 694.728 442.684 706.501C446.035 712.877 448.881 719.166 451.442 725.461C449.299 718.024 446.857 710.602 443.786 703.047C436.686 685.559 424.99 667.155 412.619 647.679C409.204 642.302 405.669 636.753 402.204 631.16C399.381 626.603 396.616 622.096 393.884 617.635C383.189 600.189 373.005 583.584 361.837 568.414C360.961 569.402 360.072 570.389 359.182 571.386ZM435.886 745.951C431.647 745.176 427.422 744.403 423.188 743.586C389.259 737.046 344.428 722.008 323.527 687.524C310.468 665.967 311.318 645.076 317.48 625.853C308.279 646.122 304.821 668.513 318.974 691.908C341.391 728.968 392.519 740.82 421.009 744.575C426.239 745.268 431.581 745.891 436.757 746.504C438.767 746.741 440.776 746.978 442.798 747.217C440.504 746.786 438.196 746.363 435.886 745.951ZM330.875 531.442C330.686 531.103 330.51 530.766 330.321 530.427C330.182 530.304 330.03 530.18 329.891 530.057C330.196 530.495 330.5 530.943 330.805 531.38C330.828 531.404 330.852 531.418 330.875 531.442ZM325.757 525.951C325.417 525.488 325.09 525.016 324.749 524.553C324.406 524.31 324.063 524.066 323.733 523.825C324.263 524.417 324.808 525.001 325.337 525.603C325.478 525.716 325.617 525.839 325.757 525.951ZM319.589 520.503C310.452 510.722 300.827 501.727 290.903 493.752C282.022 486.604 272.163 479.025 258.045 471.739C245.574 465.303 229.828 460.24 214.587 455.357L211.488 454.361C206.764 452.842 201.898 451.221 197.039 449.443C193.403 450.213 189.769 450.962 186.151 451.693C189.965 453.158 194.116 454.614 198.713 456.117C203.137 457.555 207.694 458.969 212.089 460.33C223.326 463.818 234.935 467.417 244.962 471.673C257.34 476.932 268.797 483.122 282.085 491.739C294.699 499.881 306.986 509.364 318.696 519.917C319.006 520.114 319.291 520.308 319.589 520.503ZM320.595 521.618C320.676 521.691 320.757 521.765 320.837 521.838C320.792 521.79 320.746 521.742 320.714 521.696C320.665 521.669 320.63 521.644 320.595 521.618ZM191.49 447.315C189.402 446.48 187.331 445.617 185.266 444.712C183.802 444.954 182.35 445.197 180.886 445.439C178.592 445.805 176.327 446.153 174.049 446.5C176.176 447.528 178.385 448.525 180.712 449.505C184.303 448.792 187.894 448.069 191.49 447.315ZM179.522 442.59C179.812 442.543 180.089 442.495 180.379 442.449C178.301 441.437 176.267 440.39 174.277 439.295C170.505 439.712 166.788 440.105 163.086 440.478C164.988 441.656 166.934 442.787 168.938 443.872C169.107 443.967 169.276 444.052 169.446 444.137C172.788 443.654 176.147 443.131 179.522 442.59ZM158.35 438.151C156.285 436.742 154.292 435.27 152.356 433.753C148.541 433.902 144.807 434.031 141.114 434.133C143.031 435.889 145.036 437.572 147.114 439.181C150.821 438.871 154.572 438.514 158.35 438.151ZM149.355 431.291C147.422 429.649 145.549 427.951 143.748 426.189C140.236 426.094 136.675 425.972 133.041 425.82C134.77 427.835 136.588 429.767 138.491 431.636C142.053 431.548 145.669 431.437 149.355 431.291ZM141.361 423.764C139.575 421.889 137.876 419.94 136.234 417.947C132.924 417.585 129.58 417.186 126.174 416.759C127.702 419.042 129.303 421.25 131.005 423.377C134.522 423.535 137.966 423.663 141.361 423.764ZM134.357 415.578C132.708 413.437 131.159 411.225 129.695 408.95C126.593 408.279 123.492 407.587 120.382 406.873C121.702 409.464 123.134 411.986 124.654 414.425C127.932 414.836 131.162 415.22 134.357 415.578ZM128.271 406.67C126.79 404.226 125.407 401.731 124.131 399.198C121.34 398.21 118.528 397.188 115.681 396.13C116.744 399.014 117.954 401.853 119.287 404.646C122.283 405.345 125.269 406.022 128.271 406.67ZM123.059 396.994C121.762 394.228 120.587 391.414 119.557 388.576C117.107 387.245 114.65 385.87 112.147 384.448C112.909 387.659 113.828 390.86 114.908 394.008C117.654 395.042 120.367 396.04 123.059 396.994ZM118.814 386.415C117.766 383.324 116.888 380.202 116.178 377.092C114.137 375.393 112.111 373.675 110.063 371.924C110.402 375.416 110.958 378.927 111.71 382.42C114.103 383.797 116.462 385.128 118.814 386.415ZM115.711 374.893C115.041 371.567 114.588 368.259 114.325 364.985C112.8 362.986 111.277 360.966 109.744 358.934C109.564 362.549 109.608 366.224 109.893 369.931C111.833 371.616 113.777 373.271 115.711 374.893ZM114.311 350.316C114.505 347.3 114.798 344.318 115.164 341.367C114.715 339.034 114.254 336.689 113.761 334.298C112.942 337.558 112.196 340.849 111.574 344.187C112.509 346.257 113.422 348.293 114.311 350.316ZM115.041 351.972C115.821 353.739 116.592 355.473 117.362 357.218C117.147 354.874 116.981 352.546 116.891 350.238C116.48 348.204 116.073 346.149 115.681 344.075C115.398 346.681 115.177 349.305 115.041 351.972ZM114.933 354.726C114.854 357.546 114.837 360.396 114.98 363.297C114.986 363.455 115.003 363.625 115.021 363.785C116.369 365.552 117.717 367.319 119.094 369.068C118.541 366.334 118.109 363.668 117.776 361.035C116.818 358.941 115.875 356.839 114.933 354.726ZM120.115 369.461C120.203 369.882 120.305 370.293 120.393 370.713C121.527 372.138 122.673 373.564 123.859 374.985C123.109 373.086 122.445 371.218 121.818 369.366C120.888 367.558 119.997 365.756 119.132 363.946C119.415 365.765 119.734 367.599 120.115 369.461ZM126.077 377.619C126.449 378.044 126.819 378.48 127.19 378.905C126.519 377.801 125.871 376.712 125.249 375.625C125.514 376.278 125.788 376.953 126.077 377.619ZM132.562 389.954C133.705 391.809 134.914 393.653 136.191 395.473C138.037 396.381 139.895 397.291 141.793 398.196C140.423 396.698 139.138 395.244 137.952 393.823C136.105 392.527 134.308 391.237 132.562 389.954ZM144.532 399.491C144.727 399.579 144.921 399.677 145.116 399.765C146.176 400.258 147.284 400.778 148.418 401.301C147.506 400.555 146.594 399.819 145.697 399.064C144.339 398.177 142.984 397.269 141.63 396.35C142.556 397.381 143.519 398.428 144.532 399.491ZM158.796 407.646C159.507 408.146 160.22 408.625 160.931 409.115C161.926 409.411 162.948 409.699 163.968 409.998C163.522 409.752 163.075 409.516 162.629 409.27C161.329 408.736 160.044 408.183 158.796 407.646ZM353.111 425.291C383.814 434.227 400.793 452.009 406.002 464.525C414.173 484.133 402.209 499.979 394.291 510.453C383.673 524.564 373.051 539.313 362.264 554.934C362.483 555.14 362.702 555.346 362.908 555.551C375.52 539.788 388.183 524.535 400.83 509.909C412.306 496.652 422.968 482.201 416.367 464.138C409.566 445.524 386.064 431.286 365.784 425.431C353.049 421.75 339.926 419.991 325.717 420.042C335.237 421.014 344.287 422.722 353.111 425.291ZM362.06 555.222C361.348 556.242 360.647 557.274 359.934 558.304C360.069 558.457 360.204 558.611 360.34 558.754C361.125 557.775 361.898 556.784 362.681 555.815C362.473 555.621 362.266 555.426 362.06 555.222ZM362.704 561.365C362.793 561.47 362.884 561.566 362.974 561.672C363.876 560.677 364.768 559.669 365.657 558.672C365.508 558.527 365.346 558.38 365.198 558.225C364.368 559.261 363.535 560.318 362.704 561.365ZM362.394 561.765C361.579 562.782 360.777 563.801 359.96 564.828C359.994 564.864 360.015 564.909 360.049 564.945C360.909 563.975 361.768 563.016 362.641 562.049C362.55 561.953 362.473 561.849 362.394 561.765ZM362.303 567.897C373.563 583.162 383.811 599.87 394.569 617.43C397.301 621.891 400.066 626.398 402.891 630.944C406.355 636.537 409.89 642.086 413.292 647.462C425.698 666.974 437.402 685.41 444.531 702.975C447.278 709.734 449.524 716.376 451.497 723.025C449.972 715.196 448.144 707.318 445.773 699.444C438.122 674.074 423.061 648.098 409.358 626.029C393.971 601.28 379.753 581.609 365.076 564.804C364.143 565.838 363.222 566.873 362.303 567.897ZM438.331 749.327C437.95 749.278 437.568 749.239 437.2 749.192C432.009 748.588 426.656 747.953 421.399 747.267C392.186 743.409 339.699 731.183 316.388 692.645C307.027 677.173 304.343 661.081 308.172 643.435C308.83 640.426 309.647 637.48 310.612 634.595C301.803 653.52 298.667 674.915 311.995 696.988C318.352 707.503 344.834 742.264 418.999 748.059C425.121 748.542 431.413 748.91 437.499 749.272C437.78 749.298 438.049 749.312 438.331 749.327ZM314.599 517.136C304.022 507.914 293.012 499.548 281.746 492.272C268.518 483.684 257.122 477.523 244.804 472.302C234.826 468.064 223.241 464.479 212.03 460.994C207.622 459.631 203.065 458.217 198.642 456.768C193.611 455.126 189.104 453.53 184.985 451.921C181.156 452.687 177.33 453.422 173.507 454.136C177.322 455.696 181.403 457.195 185.848 458.668C193.219 461.093 200.856 463.249 208.234 465.318C216.408 467.616 224.133 469.794 231.617 472.338C245.336 477.005 258.795 482.886 272.765 490.321C287.076 497.916 301.088 506.929 314.539 517.097C314.563 517.111 314.587 517.124 314.599 517.136ZM179.587 449.717C177.276 448.718 175.068 447.711 172.944 446.662C169.032 447.26 165.137 447.829 161.272 448.371C163.505 449.58 165.835 450.739 168.273 451.86C172.029 451.168 175.8 450.457 179.587 449.717ZM144.361 447.551C148.283 447.069 152.233 446.57 156.189 446.03C153.974 444.676 151.834 443.248 149.755 441.743C145.747 442.088 141.781 442.407 137.859 442.689C139.949 444.405 142.117 446.025 144.361 447.551ZM134.857 440.123C138.688 439.85 142.533 439.568 146.435 439.241C144.371 437.623 142.382 435.921 140.466 434.154C136.591 434.265 132.759 434.349 128.996 434.39C130.857 436.39 132.819 438.299 134.857 440.123ZM126.726 431.865C130.385 431.821 134.099 431.753 137.855 431.659C135.966 429.781 134.153 427.818 132.425 425.793C128.843 425.637 125.198 425.462 121.507 425.25C123.149 427.547 124.894 429.742 126.726 431.865ZM119.832 422.812C123.419 423.032 126.935 423.2 130.414 423.354C128.689 421.203 127.078 418.972 125.552 416.68C122.185 416.257 118.759 415.786 115.313 415.28C116.696 417.88 118.207 420.391 119.832 422.812ZM114.06 412.97C117.418 413.464 120.729 413.921 124.006 414.342C122.452 411.867 121.023 409.325 119.693 406.711C116.547 405.971 113.404 405.211 110.241 404.406C111.4 407.344 112.66 410.2 114.06 412.97ZM109.411 402.224C112.487 403.007 115.552 403.768 118.61 404.485C117.269 401.661 116.063 398.79 114.991 395.874C112.171 394.809 109.317 393.709 106.418 392.56C107.264 395.825 108.257 399.045 109.411 402.224ZM105.932 390.516C108.731 391.641 111.51 392.722 114.244 393.755C113.157 390.553 112.231 387.31 111.474 384.057C109.021 382.651 106.535 381.2 104.003 379.7C104.454 383.323 105.1 386.939 105.932 390.516ZM103.797 377.787C106.255 379.256 108.656 380.665 111.025 382.028C110.281 378.473 109.745 374.902 109.413 371.358C107.39 369.619 105.347 367.837 103.271 366.008C103.208 369.911 103.386 373.854 103.797 377.787ZM103.298 364.187C105.317 365.956 107.278 367.676 109.23 369.363C108.967 365.586 108.944 361.84 109.159 358.157C107.637 356.137 106.105 354.095 104.513 352.013C103.847 355.996 103.439 360.074 103.298 364.187ZM104.812 350.29C106.348 352.302 107.839 354.265 109.294 356.203C109.604 352.489 110.098 348.841 110.728 345.242C109.735 343.028 108.694 340.777 107.607 338.487C106.515 342.363 105.559 346.287 104.812 350.29ZM108.11 336.78C109.161 338.949 110.165 341.081 111.122 343.185C111.788 339.706 112.59 336.276 113.465 332.887C112.967 330.527 112.423 328.129 111.82 325.693C110.475 329.326 109.225 333.023 108.11 336.78ZM112.493 323.871C113.081 326.127 113.609 328.344 114.091 330.524C114.932 327.392 115.846 324.302 116.782 321.235C116.748 318.787 116.655 316.291 116.514 313.777C115.13 317.112 113.769 320.47 112.493 323.871ZM117.353 311.767C117.509 313.968 117.617 316.142 117.677 318.288C118.251 316.433 118.837 314.589 119.408 312.754C119.651 311.968 119.908 311.173 120.151 310.386C120.516 307.948 120.834 305.473 121.115 302.982C119.863 305.893 118.609 308.825 117.353 311.767ZM122.227 300.462C122.057 302.181 121.878 303.877 121.661 305.569C122.839 301.725 123.998 297.827 125.061 293.875C124.118 296.092 123.165 298.286 122.227 300.462ZM118.021 323.25C118.512 320.429 119.02 317.58 119.493 314.705C118.905 316.569 118.316 318.443 117.739 320.32C117.763 321.738 117.788 323.157 117.788 324.562C117.869 324.132 117.939 323.69 118.021 323.25ZM116.74 336.033C116.527 337.495 116.312 338.966 116.122 340.441C116.293 341.323 116.462 342.215 116.633 343.097C116.663 343.268 116.692 343.44 116.736 343.602C116.71 341.093 116.712 338.567 116.74 336.033ZM118.278 356.623C118.369 357.725 118.472 358.829 118.601 359.936C118.964 360.727 119.328 361.518 119.692 362.299C119.175 360.397 118.707 358.513 118.278 356.623ZM138.069 392.213C138.093 392.226 138.104 392.238 138.128 392.252C138.094 392.216 138.059 392.19 138.024 392.155C138.047 392.178 138.059 392.19 138.069 392.213ZM410.041 511.27C423.286 497.612 435.715 482.675 429.557 463.473C423.264 443.824 399.449 429.001 378.643 423.025C366.079 419.419 353.88 417.999 341.971 418.041C350.198 418.92 358.148 420.455 365.965 422.718C387.315 428.889 412.121 444.028 419.41 463.973C426.47 483.28 415.452 498.294 403.566 512.022C390.844 526.733 378.092 542.079 365.415 557.949C365.575 558.106 365.737 558.252 365.898 558.409C380.345 542.431 395.1 526.671 410.041 511.27ZM447.772 695.842C437.845 648.498 408.45 600.834 368.274 561.22C367.311 562.282 366.36 563.355 365.41 564.417C380.156 581.284 394.43 601.025 409.87 625.864C423.609 647.959 438.688 673.99 446.369 699.426C448.544 706.615 450.241 713.805 451.684 720.963C450.753 712.634 449.534 704.236 447.772 695.842ZM586.15 826.695C577.694 804.378 560.745 784.859 539.628 773.161C533.819 769.94 527.909 767.304 521.926 765.131C526.613 767.242 531.259 769.664 535.872 772.448C538.593 774.087 541.29 775.901 543.897 777.819C576.865 802.09 595.054 844.216 587.757 873.18C593.113 860.228 592.664 843.93 586.15 826.695ZM542.27 779.833C539.769 777.991 537.189 776.265 534.59 774.694C527.809 770.594 520.912 767.296 513.922 764.626C519.629 767.331 525.304 770.492 530.922 774.202C533.492 775.906 536.056 777.755 538.516 779.707C570.309 804.886 589.339 848.703 582.908 877.16C593.966 849.371 576.205 804.815 542.27 779.833ZM536.876 781.52C534.509 779.643 532.053 777.86 529.576 776.231C521.949 771.183 514.185 767.197 506.349 763.979C512.93 767.319 519.485 771.265 525.97 775.967C528.39 777.725 530.807 779.618 533.132 781.615C564.15 808.1 583.963 852.761 578.542 880.792C588.441 853.683 569.605 807.448 536.876 781.52ZM531.481 783.217C529.236 781.293 526.902 779.462 524.576 777.769C516.355 771.817 508.012 767.107 499.607 763.291C506.748 767.301 513.875 772.022 521.031 777.723C523.316 779.536 525.583 781.484 527.777 783.507C557.311 810.786 578.386 857.182 574.497 884.54C583.149 858.297 562.987 810.121 531.481 783.217ZM516.067 779.486C518.191 781.342 520.311 783.334 522.382 785.403C552.683 815.759 572.501 863.598 570.97 887.977C578.014 862.188 556.673 813.137 526.112 784.907C523.988 782.946 521.79 781.06 519.589 779.299C510.478 772.037 501.378 766.391 492.232 761.808C500.137 766.703 508.072 772.472 516.067 779.486ZM305.002 702.076C318.701 724.784 355.303 749.711 416.975 751.553C422.184 751.708 427.507 751.774 432.769 751.821C428.388 751.551 423.945 751.264 419.586 750.924C404.069 749.706 380.806 746.267 358.141 736.771C335.623 727.335 319.157 714.201 309.224 697.754C297.684 678.647 297.886 660.188 303.433 643.34C295.25 661.108 292.517 681.38 305.002 702.076ZM202.936 469.272C207.986 470.466 213.21 471.703 218.282 473.026C249.273 481.128 279.641 494.885 307.699 512.654C296.305 504.469 284.531 497.127 272.577 490.779C258.644 483.359 245.22 477.504 231.551 472.854C224.092 470.312 216.379 468.147 208.204 465.849C200.815 463.768 193.177 461.623 185.795 459.186C181.025 457.619 176.688 456.003 172.631 454.318C168.624 455.061 164.619 455.784 160.618 456.475C174.229 462.481 188.751 465.919 202.936 469.272Z" fill="black"/>
</svg>
