<svg width="284" height="386" viewBox="0 0 284 386" fill="none" xmlns="http://www.w3.org/2000/svg">
<path opacity="0.7" d="M152.69 -362.238C167.177 -350.496 177.112 -333.165 181.414 -312.135C184.336 -297.847 184.558 -282.12 182.15 -266.641C182.874 -278.618 182.141 -290.804 179.958 -302.682C175.491 -327.093 165.113 -348.571 150.735 -363.157L150.049 -362.483C164.291 -348.029 174.577 -326.733 179.011 -302.51C181.752 -287.607 182.178 -272.214 180.313 -257.361C180.769 -270.866 179.479 -284.988 176.459 -299.016C171.222 -323.524 160.898 -346.954 148.135 -363.291L147.414 -362.724C160.094 -346.49 170.356 -323.194 175.565 -298.816C178.949 -283.084 180.145 -267.239 179.135 -252.294C179.09 -252.125 179.05 -251.961 179.005 -251.792C178.944 -251.56 178.867 -251.331 178.806 -251.1C178.688 -265.048 176.737 -279.857 172.964 -295.33C167.079 -319.639 157.081 -344.457 145.527 -363.414L144.781 -362.955C156.285 -344.07 166.245 -319.342 172.109 -295.121C176.137 -278.586 178.081 -262.824 177.922 -248.055C177.715 -247.35 177.514 -246.641 177.301 -245.941C176.54 -259.961 173.94 -275.066 169.456 -291.652C161.382 -321.759 149.355 -349.619 142.906 -363.545L142.152 -363.192C148.591 -349.291 160.594 -321.476 168.653 -291.425C173.353 -274.023 175.969 -258.259 176.567 -243.677C176.29 -242.82 176.02 -241.958 175.737 -241.105C174.347 -255.07 171.141 -270.377 165.961 -287.966C160.699 -305.949 154.079 -324.556 148.238 -340.97C145.357 -349.063 142.637 -356.707 140.292 -363.671L139.552 -363.418C141.9 -356.443 144.626 -348.795 147.507 -340.702C153.345 -324.298 159.96 -305.696 165.217 -287.734C170.596 -269.487 173.851 -253.699 175.134 -239.344C174.803 -238.396 174.467 -237.453 174.12 -236.508C171.723 -253.479 167.064 -269.812 162.47 -284.285C159.678 -293.137 156.633 -302.239 153.679 -311.04C147.248 -330.235 141.18 -348.367 137.668 -363.823L136.945 -363.659C140.463 -348.172 146.545 -330.021 152.979 -310.805C155.927 -302.008 158.972 -292.907 161.762 -284.065C166.476 -269.226 171.25 -252.43 173.572 -235.009C173.201 -234.016 172.804 -233.024 172.417 -232.034C169.311 -249.177 164.003 -265.742 158.966 -280.614C157.744 -284.254 156.495 -287.921 155.238 -291.603C146.661 -316.804 137.794 -342.872 135.027 -363.977L134.362 -363.909C137.132 -342.73 146.008 -316.637 154.597 -291.4C155.854 -287.718 157.098 -284.045 158.325 -280.411C163.466 -265.23 168.873 -248.296 171.946 -230.792C171.527 -229.742 171.101 -228.696 170.669 -227.654C167.152 -243.706 161.65 -259.795 155.492 -276.958C145.227 -305.757 133.588 -338.41 132.418 -364.164L131.768 -364.131C132.94 -338.276 144.597 -305.583 154.876 -276.738C161.135 -259.276 166.728 -242.924 170.227 -226.611C169.757 -225.487 169.284 -224.374 168.801 -223.258C164.534 -240.013 158.322 -256.521 152.229 -272.663L151.995 -273.282C130.666 -330.148 129.343 -350.096 129.78 -364.334L129.174 -364.353C128.794 -352.019 130.93 -337.491 135.702 -319.93C139.969 -304.224 145.785 -288.128 151.43 -273.072L151.665 -272.453C157.836 -256.083 164.133 -239.343 168.408 -222.364C167.908 -221.224 167.412 -220.09 166.894 -218.963C162.447 -234.382 156.447 -249.557 150.569 -264.41L148.514 -269.604C126.874 -324.724 125.568 -348.511 127.152 -364.507L126.595 -364.556C125.297 -351.463 126.931 -336.225 131.598 -317.989C136.055 -300.564 142.696 -282.864 147.987 -269.395L150.042 -264.201C155.995 -249.168 162.076 -233.809 166.536 -218.198C165.998 -217.03 165.454 -215.866 164.898 -214.71C160.315 -229.029 154.486 -243.1 148.761 -256.889C147.512 -259.9 146.262 -262.911 145.023 -265.924C132.863 -295.636 119.552 -333.719 124.522 -364.69L124.014 -364.769C121.789 -350.932 122.935 -335.002 127.497 -316.064C130.964 -301.67 136.385 -285.675 144.542 -265.728C145.781 -262.716 147.03 -259.705 148.286 -256.689C154.078 -242.735 159.979 -228.505 164.581 -214.017C164.018 -212.839 163.432 -211.667 162.847 -210.496C158.17 -223.867 152.467 -236.993 146.866 -249.884C145.108 -253.932 143.286 -258.125 141.532 -262.243C116.675 -320.764 118.417 -348.839 121.882 -364.871L121.424 -364.97C118.253 -350.385 118.895 -333.756 123.363 -314.106C126.832 -298.863 132.461 -282.314 141.075 -262.031C142.836 -257.908 144.651 -253.72 146.415 -249.668C152.077 -236.653 157.837 -223.387 162.538 -209.88C161.937 -208.673 161.325 -207.464 160.712 -206.266C155.967 -218.819 150.388 -231.138 144.891 -243.236C142.616 -248.245 140.263 -253.427 138.019 -258.532C125.406 -287.237 109.735 -329.512 119.225 -365.027L118.812 -365.14C109.283 -329.489 124.984 -287.128 137.626 -258.358C139.875 -253.249 142.229 -248.066 144.503 -243.058C150.048 -230.845 155.679 -218.416 160.445 -205.749C159.814 -204.527 159.184 -203.304 158.541 -202.089C153.761 -213.909 148.277 -225.515 142.883 -236.921C140.105 -242.79 137.242 -248.864 134.518 -254.85C125.092 -275.641 118.877 -293.784 115.516 -310.311C111.293 -331.049 111.659 -349.524 116.583 -365.218L116.218 -365.335C111.268 -349.576 110.909 -331.033 115.143 -310.232C118.509 -293.674 124.734 -275.506 134.17 -254.69C136.89 -248.697 139.763 -242.626 142.535 -236.761C147.967 -225.264 153.499 -213.571 158.302 -201.653C157.644 -200.404 156.981 -199.159 156.31 -197.918C151.513 -209.083 146.139 -220.047 140.838 -230.841C137.575 -237.493 134.197 -244.372 131.023 -251.164C108.979 -298.427 103.388 -335.796 113.947 -365.406L113.626 -365.519C103.034 -335.823 108.63 -298.368 130.721 -251.017C133.895 -244.225 137.276 -237.337 140.538 -230.685C145.873 -219.821 151.283 -208.778 156.106 -197.531C155.423 -196.271 154.734 -195.016 154.045 -193.761C149.248 -204.324 143.978 -214.705 138.78 -224.926C135.028 -232.301 131.148 -239.938 127.533 -247.473C117.129 -269.189 110.474 -288.467 107.21 -306.405C103.164 -328.59 104.54 -348.507 111.311 -365.593L111.039 -365.699C104.25 -348.562 102.863 -328.589 106.925 -306.348C110.199 -288.385 116.857 -269.086 127.278 -247.34C130.894 -239.795 134.772 -232.168 138.526 -224.783C143.756 -214.503 149.064 -204.06 153.878 -193.43C153.172 -192.15 152.454 -190.879 151.735 -189.607C146.973 -199.618 141.806 -209.452 136.694 -219.167C132.465 -227.219 128.086 -235.54 124.046 -243.772C113.141 -265.972 106.282 -285.821 103.056 -304.444C99.0988 -327.36 100.981 -347.994 108.675 -365.78L108.441 -365.888C100.727 -348.061 98.8377 -327.377 102.804 -304.409C106.029 -285.759 112.897 -265.895 123.811 -243.67C127.858 -235.434 132.233 -227.107 136.461 -219.055C141.6 -209.285 146.786 -199.401 151.568 -189.34C147.545 -182.207 143.41 -175.16 139.301 -168.177C134.653 -160.273 129.848 -152.104 125.333 -143.999C116.987 -129.009 107.423 -110.076 101.142 -89.2656C99.2049 -84.206 97.529 -79.2478 96.0937 -74.3871C94.6057 -70.4206 93.2805 -66.5053 92.1078 -62.6392C90.1692 -57.617 88.4749 -52.6716 87.0433 -47.7901C85.5515 -43.8444 84.2141 -39.9376 83.031 -36.0697C81.2796 -31.5926 79.7303 -27.1577 78.3789 -22.7588C76.5672 -18.1685 74.9741 -13.6181 73.5851 -9.09939C71.898 -4.83307 70.3899 -0.58857 69.065 3.62798C67.1988 8.2443 65.5365 12.8288 64.0949 17.384C62.262 21.8867 60.6247 26.3699 59.187 30.8275C57.3229 35.3359 55.6562 39.8352 54.1892 44.3089C52.2786 48.858 50.5654 53.3981 49.0581 57.9168C47.0858 62.5416 45.3048 67.1532 43.7376 71.7581C41.7432 76.3494 39.9296 80.9292 38.3299 85.5024C36.3157 90.0434 34.4885 94.5773 32.8482 99.1041C30.6893 103.828 28.7443 108.544 26.9924 113.258C24.8119 117.921 22.8097 122.589 21.0196 127.24C15.9487 137.824 11.8046 148.45 8.63914 159.015C2.6148 179.128 0.0133839 200.339 1.12142 220.348C2.31041 241.918 7.60278 261.783 16.8413 279.397C25.4808 295.829 37.8809 310.893 53.7055 324.155C68.0035 336.131 84.8288 346.457 103.731 354.84C139.613 370.755 178.714 378.441 216.516 385.874L216.569 385.628C178.773 378.199 139.688 370.516 103.835 354.611C84.9557 346.235 68.1446 335.927 53.8711 323.969C38.0667 310.73 25.687 295.689 17.0702 279.264C7.84766 261.679 2.56704 241.849 1.37935 220.317C0.276929 200.34 2.87352 179.162 8.89118 159.072C11.7834 149.411 15.5004 139.703 19.9867 130.026C19.5852 131.116 19.1734 132.207 18.7885 133.3C16.9729 138.498 15.3714 143.782 14.0162 148.999C3.18915 190.821 8.08718 234.131 27.4621 267.829C36.6082 283.727 49.3143 298.219 65.2359 310.883C79.7479 322.432 96.6307 332.269 115.427 340.123C150.043 354.585 186.798 361.391 227.801 368.198L227.85 367.904C186.87 361.103 150.132 354.3 115.544 339.848C96.777 332.006 79.9127 322.182 65.4253 310.65C49.5386 298.001 36.8504 283.549 27.7307 267.678C8.39396 234.043 3.50049 190.818 14.3136 149.069C15.6603 143.864 17.2575 138.587 19.0749 133.398C19.8472 131.197 20.6672 128.993 21.5246 126.787C22.3643 125.053 23.2291 123.309 24.1166 121.571C23.9483 122.102 23.7573 122.626 23.5933 123.151C21.9593 128.403 20.548 133.727 19.3994 138.987C10.3721 180.26 17.1844 223.002 38.1038 256.257C47.7527 271.602 60.763 285.511 76.7792 297.593C91.5094 308.709 108.456 318.061 127.152 325.39C163.09 339.483 202.165 345.527 239.108 350.502L239.15 350.166C202.228 345.187 163.171 339.156 127.273 325.072C108.609 317.748 91.6876 308.413 76.9881 297.318C61.0087 285.262 48.0267 271.39 38.3937 256.075C17.5248 222.891 10.7232 180.24 19.7342 139.056C20.8785 133.801 22.2856 128.483 23.9215 123.242C24.2981 122.044 24.7079 120.85 25.1053 119.648C26.0826 117.781 27.0868 115.914 28.118 114.048C26.7889 118.992 25.6617 124.012 24.774 128.988C17.484 169.724 26.2124 211.907 48.7325 244.704C58.8844 259.494 72.1988 272.821 88.3035 284.317C103.254 294.984 120.264 303.851 138.859 310.671C176.151 324.345 215.99 329.277 250.402 332.824L250.441 332.44C216.056 328.894 176.25 323.966 138.993 310.308C120.433 303.503 103.458 294.651 88.5319 284.001C72.464 272.531 59.1821 259.236 49.0543 244.489C26.5907 211.768 17.8767 169.696 25.1567 129.053C26.1029 123.743 27.318 118.374 28.7656 113.102C28.8038 112.955 28.8543 112.817 28.8925 112.67C30.0024 110.704 31.1332 108.733 32.3094 106.776C31.4357 110.841 30.7068 114.933 30.1487 118.988C24.5267 159.222 35.1798 200.834 59.3675 233.155C70.016 247.387 83.6347 260.131 99.8279 271.04C114.999 281.259 132.073 289.641 150.57 295.946C187.444 308.518 227.435 312.707 261.695 315.136L261.726 314.71C227.497 312.276 187.542 308.102 150.713 295.543C132.255 289.247 115.212 280.887 100.07 270.679C83.9133 259.795 70.3375 247.081 59.713 232.893C35.5899 200.662 24.9739 159.167 30.5772 119.039C31.1954 114.569 32.0219 110.062 33.0134 105.605C33.5155 104.776 34.0114 103.944 34.5258 103.124C35.2549 101.942 36.0048 100.757 36.7609 99.5753C36.2585 102.711 35.8389 105.859 35.5234 108.989C33.501 129.05 35.5451 149.152 41.6089 168.732C47.5849 188.032 57.1334 205.815 70.0006 221.596C91.5943 248.085 124.365 269.258 162.281 281.221C200.595 293.305 241.571 296.244 272.983 297.454L273.001 296.982C241.611 295.779 200.679 292.843 162.421 280.77C124.595 268.834 91.8985 247.712 70.3614 221.299C57.5348 205.565 48.0122 187.836 42.0578 168.596C36.0156 149.077 33.9723 129.04 35.9893 109.038C36.3345 105.565 36.815 102.067 37.3949 98.583C38.7075 96.5474 40.0533 94.5164 41.4407 92.4779C41.2126 94.6551 41.0176 96.8369 40.8895 99.0012C39.6459 119.029 42.5969 139.03 49.677 158.43C56.5582 177.291 66.9678 194.659 80.6251 210.049C103.259 235.563 136.42 255.611 173.983 266.508C191.758 271.664 220.858 278.422 272.187 279.605C276.085 279.691 280.118 279.753 284.272 279.772L284.276 279.255C256.09 279.098 213.994 277.562 174.124 266.004C136.647 255.139 103.577 235.145 81.0035 209.7C67.3929 194.361 57.0092 177.047 50.16 158.245C43.1016 138.906 40.1594 118.984 41.4037 99.0206C41.5568 96.5451 41.7766 94.0521 42.0522 91.5705C43.4629 89.5116 44.9066 87.4574 46.3981 85.4C46.3389 86.5996 46.2921 87.8077 46.2641 89.0016C45.7805 109.009 49.6425 128.904 57.7492 148.122C65.5228 166.562 76.7979 183.51 91.2643 198.494C114.929 223.008 148.469 241.932 185.698 251.777C209.591 258.095 235.622 261.5 266.067 262.203C275.462 262.419 285.272 262.376 295.57 262.088L295.555 261.52C251.912 262.752 217.05 259.486 185.842 251.229C148.703 241.411 115.26 222.544 91.6665 198.098C77.2511 183.158 66.0142 166.274 58.2683 147.899C50.1955 128.749 46.3423 108.934 46.8243 89.0072C46.86 87.5268 46.9166 86.0425 47.0001 84.5588C48.5044 82.4828 50.0566 80.4036 51.6418 78.329C51.6394 78.5554 51.6369 78.7818 51.6449 79.0063C52.1747 118.254 70.0254 156.587 101.899 186.945C126.57 210.442 160.493 228.237 197.415 237.056C218.11 242.003 240.575 244.74 265.383 245.307C278.529 245.609 292.331 245.308 306.88 244.402L306.846 243.795C264.909 246.41 229.16 244.016 197.562 236.465C160.741 227.67 126.923 209.921 102.325 186.501C70.5632 156.258 52.7821 118.074 52.2553 78.992C52.2441 78.5099 52.2538 78.024 52.2531 77.5399C53.8573 75.4512 55.4989 73.361 57.1675 71.2713C59.7848 109.478 79.3783 146.374 112.545 175.394C138.57 198.171 171.977 214.403 209.132 222.336C227.162 226.181 246.19 228.338 266.571 228.808C282.854 229.179 300 228.489 318.185 226.722L318.123 226.077C277.246 230.049 241.642 228.612 209.272 221.702C172.217 213.795 138.922 197.612 112.974 174.907C79.7359 145.82 60.1862 108.808 57.7715 70.532C59.4695 68.4262 61.2005 66.3251 62.9751 64.2269C67.7818 101.179 88.9965 136.382 123.181 163.855C150.185 185.551 183.954 200.684 220.851 207.625C236.175 210.505 252.341 212.146 269.25 212.532C288.433 212.972 308.564 211.808 329.489 209.043L329.404 208.354C290.112 213.554 253.632 213.078 220.987 206.944C184.202 200.026 150.538 184.938 123.628 163.317C89.3816 135.801 68.2102 100.51 63.589 63.5126C65.3825 61.4002 67.2135 59.2863 69.0817 57.171C75.9799 92.8929 98.7117 126.421 133.839 152.313C161.776 172.913 195.917 186.946 232.585 192.907C245.533 195.014 258.923 196.224 272.723 196.541C294.519 197.044 317.291 195.314 340.811 191.365L340.691 190.634C302.365 197.079 266.041 197.597 232.707 192.18C196.161 186.24 162.129 172.247 134.287 151.72C99.1328 125.801 76.4352 92.2236 69.7056 56.4818C70.4803 55.6146 71.2592 54.7412 72.0444 53.872C73.1753 52.6225 74.3394 51.3778 75.4869 50.1307C84.387 84.6328 108.534 116.488 144.493 140.777C173.325 160.257 207.845 173.193 244.314 178.195C254.937 179.655 265.773 180.507 276.798 180.759C301.12 181.318 326.339 178.959 352.126 173.684L351.967 172.917C314.582 180.562 278.394 182.077 244.423 177.422C208.07 172.436 173.669 159.538 144.935 140.126C108.964 115.829 84.8717 83.9475 76.1273 49.4439C78.1315 47.277 80.1584 45.1167 82.2037 42.9691C93.0769 76.0308 118.999 106.901 155.144 129.23C184.837 147.574 219.726 159.416 256.037 163.478C264.355 164.406 272.752 164.97 281.223 165.165C308.072 165.781 335.623 162.723 363.442 156.002L363.248 155.193C326.755 164.004 290.719 166.519 256.137 162.653C219.941 158.607 185.172 146.803 155.588 128.525C119.449 106.201 93.5891 75.3189 82.8649 42.2785C84.9652 40.078 87.0632 37.894 89.1672 35.7142C101.849 67.6774 128.968 96.9154 165.795 117.683C196.294 134.881 231.555 145.622 267.765 148.756C273.543 149.253 279.374 149.569 285.254 149.708C314.766 150.393 345.369 146.516 374.751 138.316L374.519 137.471C339.381 147.278 302.496 150.873 267.84 147.887C231.751 144.763 196.616 134.064 166.224 116.922C129.427 96.1756 102.374 66.947 89.8284 35.0236C92.0065 32.7766 94.1864 30.5401 96.343 28.3238C110.729 59.2345 138.981 86.9053 176.447 106.137C207.695 122.175 243.325 131.822 279.486 134.029C282.966 134.245 286.46 134.389 289.969 134.471C322.018 135.21 355.021 130.472 386.058 120.62L385.783 119.745C351.458 130.636 314.723 135.274 279.542 133.109C243.505 130.907 207.995 121.298 176.864 105.313C139.451 86.1096 111.279 58.4671 97.0275 27.6129C99.2477 25.3313 101.478 23.0478 103.701 20.7497C119.698 50.6622 149.018 76.8477 187.097 94.5799C219.04 109.459 255.042 118.005 291.212 119.296C292.381 119.341 293.549 119.376 294.715 119.4C329.387 120.2 364.807 114.521 397.37 102.918L397.051 102.013C363.499 113.968 326.932 119.609 291.249 118.337C255.209 117.044 219.331 108.529 187.504 93.7042C149.501 76.0066 120.27 49.8642 104.404 20.0245C106.686 17.6672 108.96 15.2951 111.226 12.9084C128.673 41.8201 158.847 66.6557 197.748 83.0333C229.977 96.5963 264.587 103.793 299.363 104.6C336.525 105.457 373.878 99.0125 408.685 85.2363L408.318 84.2972C341.178 110.867 264.574 110.078 198.142 82.1116C159.33 65.7771 129.26 40.9869 111.947 12.1586C133.613 -10.7371 153.939 -35.1103 164.647 -64.6073C170.347 -80.3199 173.081 -97.1061 172.737 -113.811C172.867 -116.686 172.905 -119.56 172.842 -122.432C172.969 -125.263 173.005 -128.094 172.955 -130.919C173.097 -133.786 173.153 -136.657 173.102 -139.521C173.25 -142.383 173.303 -145.238 173.264 -148.093C173.426 -151 173.496 -153.907 173.467 -156.801C173.644 -159.679 173.716 -162.549 173.698 -165.407C173.895 -168.326 173.991 -171.243 173.982 -174.141C173.981 -174.179 173.978 -174.226 173.976 -174.264C174.133 -176.482 174.241 -178.696 174.283 -180.893C174.296 -181.541 174.29 -182.202 174.291 -182.858C174.414 -184.451 174.52 -186.047 174.589 -187.641C174.647 -188.996 174.671 -190.367 174.688 -191.742C174.765 -192.627 174.839 -193.507 174.896 -194.389C175.033 -196.501 175.118 -198.641 175.165 -200.807C175.177 -200.917 175.194 -201.033 175.207 -201.143C175.48 -204.027 175.651 -206.974 175.741 -209.949C176.072 -212.995 176.312 -216.094 176.451 -219.218C176.774 -221.767 177.032 -224.342 177.221 -226.921C177.256 -227.444 177.285 -227.971 177.314 -228.498C177.536 -230.023 177.74 -231.551 177.922 -233.085C178.106 -234.673 178.252 -236.286 178.382 -237.902C178.457 -238.351 178.555 -238.794 178.626 -239.238C179.04 -241.787 179.374 -244.393 179.646 -247.014C180.257 -250.056 180.777 -253.126 181.185 -256.218C185.568 -275.015 186.034 -294.762 182.442 -312.344C178.092 -333.607 168.036 -351.131 153.371 -363.024L152.69 -362.238ZM173.863 -232.964C173.99 -231.955 174.086 -230.939 174.193 -229.926C173.896 -228.973 173.588 -228.019 173.266 -227.057C173.11 -228.077 172.933 -229.094 172.76 -230.117C173.145 -231.064 173.502 -232.011 173.863 -232.964ZM172.267 -228.881C172.446 -227.79 172.614 -226.706 172.777 -225.617C172.431 -224.608 172.074 -223.596 171.714 -222.578C171.497 -223.695 171.281 -224.812 171.042 -225.936C171.458 -226.916 171.868 -227.899 172.267 -228.881ZM40.2847 84.9798C41.2865 83.1298 42.3153 81.2803 43.3815 79.4294C43.1779 80.4831 42.9847 81.535 42.8019 82.585C42.656 83.4507 42.5224 84.325 42.393 85.1931C41.1867 87.1018 40.0134 89.0152 38.8733 90.9334C39.3029 88.9509 39.7699 86.967 40.2847 84.9798ZM38.1095 92.1914C37.042 94.0049 36.0058 95.8127 34.9922 97.6272C35.5177 95.7294 36.0701 93.8322 36.6642 91.9273C37.5352 90.1872 38.4269 88.4434 39.3518 86.7042C38.9065 88.539 38.4923 90.368 38.1095 92.1914ZM169.202 -207.828C168.783 -206.713 168.344 -205.595 167.898 -204.481C167.574 -205.692 167.234 -206.894 166.889 -208.101C167.38 -209.202 167.861 -210.3 168.326 -211.391C168.635 -210.21 168.929 -209.021 169.202 -207.828ZM168.697 -212.265C169.15 -213.338 169.592 -214.408 170.02 -215.47C170.269 -214.321 170.491 -213.173 170.713 -212.025C170.341 -210.951 169.946 -209.884 169.557 -208.812C169.282 -209.962 168.989 -211.114 168.697 -212.265ZM53.0015 62.3684C53.1795 60.7222 53.3931 59.0642 53.6232 57.4085C54.7964 55.495 56.0028 53.5863 57.2361 51.678C57.2224 51.8419 57.2088 52.0057 57.1952 52.1696C57.0684 53.9517 56.9808 55.7429 56.9202 57.5345C55.5449 59.4901 54.2069 61.4443 52.902 63.4032C52.9439 63.0675 52.9675 62.7189 53.0015 62.3684ZM52.2087 64.4547C50.9441 66.3687 49.7084 68.2935 48.5082 70.2065C48.8171 68.2406 49.1635 66.2732 49.5453 64.294C50.6138 62.4265 51.7094 60.5595 52.838 58.6972C52.6771 59.8992 52.5327 61.1035 52.3988 62.306C52.3224 63.0192 52.2686 63.7391 52.2087 64.4547ZM165.648 -173.092C165.26 -174.328 164.857 -175.557 164.448 -176.79C164.471 -176.837 164.493 -176.895 164.517 -176.942C165.004 -178.037 165.451 -179.14 165.911 -180.235C166.279 -179.022 166.626 -177.805 166.969 -176.582C166.537 -175.422 166.111 -174.258 165.648 -173.092ZM167.326 -175.312C167.644 -174.133 167.947 -172.956 168.245 -171.773C167.875 -170.625 167.479 -169.477 167.077 -168.333C166.733 -169.529 166.369 -170.722 166.004 -171.914C166.465 -173.036 166.9 -174.175 167.326 -175.312ZM164.052 -177.976C163.621 -179.243 163.179 -180.507 162.727 -181.77C163.279 -182.919 163.814 -184.071 164.344 -185.227C164.751 -183.978 165.147 -182.727 165.537 -181.48C165.055 -180.3 164.559 -179.139 164.052 -177.976ZM166.144 -180.794C166.608 -181.922 167.046 -183.051 167.483 -184.179C167.8 -183.011 168.111 -181.846 168.397 -180.672C168.013 -179.515 167.612 -178.361 167.195 -177.209C166.858 -178.401 166.508 -179.602 166.144 -180.794ZM165.766 -182.032C165.382 -183.275 164.983 -184.51 164.574 -185.742C165.084 -186.884 165.583 -188.035 166.066 -189.177C166.424 -187.962 166.775 -186.751 167.112 -185.532C166.682 -184.362 166.235 -183.194 165.766 -182.032ZM166.338 -189.791C166.806 -190.899 167.245 -192.017 167.691 -193.131C168.004 -191.956 168.3 -190.783 168.586 -189.609C168.194 -188.467 167.795 -187.329 167.374 -186.198C167.037 -187.39 166.698 -188.593 166.338 -189.791ZM165.932 -191.095C165.554 -192.333 165.166 -193.569 164.761 -194.808C165.279 -195.936 165.787 -197.061 166.283 -198.195C166.641 -196.979 166.984 -195.756 167.316 -194.531C166.872 -193.38 166.405 -192.235 165.932 -191.095ZM165.679 -190.468C165.189 -189.302 164.682 -188.14 164.165 -186.975C163.74 -188.237 163.304 -189.497 162.854 -190.749C163.416 -191.901 163.967 -193.061 164.5 -194.223C164.911 -192.98 165.293 -191.721 165.679 -190.468ZM163.937 -186.449C163.865 -186.28 163.793 -186.111 163.715 -185.946C163.257 -184.932 162.782 -183.921 162.312 -182.915C161.844 -184.207 161.365 -185.497 160.866 -186.783C161.464 -187.946 162.045 -189.112 162.62 -190.282C163.07 -189.003 163.503 -187.726 163.937 -186.449ZM162.106 -182.474C161.53 -181.277 160.948 -180.085 160.354 -178.901C159.84 -180.206 159.322 -181.505 158.784 -182.8C159.415 -183.986 160.041 -185.175 160.656 -186.363C161.149 -185.081 161.63 -183.781 162.106 -182.474ZM162.519 -181.339C162.973 -180.066 163.423 -178.787 163.862 -177.506C163.827 -177.43 163.803 -177.355 163.768 -177.279C163.275 -176.162 162.765 -175.047 162.243 -173.941C161.769 -175.237 161.278 -176.535 160.778 -177.822C161.364 -178.993 161.946 -180.159 162.519 -181.339ZM164.239 -176.332C164.65 -175.089 165.061 -173.846 165.447 -172.593C164.973 -171.398 164.487 -170.212 163.984 -169.029C163.551 -170.306 163.103 -171.574 162.644 -172.841C163.189 -174.005 163.722 -175.167 164.239 -176.332ZM165.799 -171.409C166.167 -170.196 166.529 -168.987 166.876 -167.769C166.45 -166.578 166.022 -165.398 165.563 -164.211C165.172 -165.458 164.774 -166.693 164.358 -167.93C164.411 -168.058 164.475 -168.177 164.528 -168.305C164.972 -169.338 165.382 -170.375 165.799 -171.409ZM72.4477 23.3084C73.8813 21.3476 75.3418 19.3872 76.8397 17.4254C77.0309 19.3917 77.2638 21.3504 77.5548 23.304C75.9277 25.2947 74.3336 27.2901 72.7708 29.2799C72.6133 27.2913 72.5035 25.2994 72.4477 23.3084ZM72.0532 30.1959C70.524 32.1634 69.0237 34.1418 67.565 36.1126C67.5348 34.7141 67.5254 33.3118 67.5491 31.9142C67.5566 31.3265 67.5746 30.7369 67.5925 30.1473C68.9281 28.2096 70.295 26.2663 71.6991 24.3216C71.772 26.2879 71.8804 28.2424 72.0532 30.1959ZM81.4539 4.14298C81.6413 6.08844 81.8704 8.02636 82.1596 9.96943C80.5704 11.9317 79.0185 13.8926 77.504 15.8521C77.3848 14.4375 77.2969 13.0172 77.2317 11.6035C77.2075 11.0485 77.198 10.4854 77.1737 9.93035C78.5755 8.00218 79.9982 6.0702 81.4539 4.14298ZM77.1538 9.15936C77.1068 7.24747 77.11 5.3157 77.1548 3.37636C78.4036 1.52447 79.6879 -0.339287 80.9949 -2.1964C81.0511 -0.953234 81.1115 0.283777 81.2032 1.51507C81.2485 2.15775 81.327 2.80511 81.3827 3.44587C79.9502 5.35273 78.5385 7.25581 77.1538 9.15936ZM76.4112 11.6453C76.4932 13.3626 76.6248 15.0868 76.7773 16.8074C75.2904 18.7403 73.8427 20.6822 72.42 22.6142C72.4113 22.3253 72.3982 22.0425 72.3895 21.7537C72.3646 20.0852 72.3795 18.3988 72.4214 16.7128C73.7105 14.8159 75.0266 12.9194 76.3904 11.0197C76.3966 11.2338 76.3965 11.4436 76.4112 11.6453ZM77.5683 16.4805C79.0956 14.5026 80.6498 12.5252 82.2476 10.5505C82.5509 12.5126 82.9229 14.4675 83.3242 16.4063C82.6443 17.2025 81.954 18.0006 81.2802 18.801C80.2558 20.015 79.2645 21.2337 78.2566 22.45C77.987 20.4657 77.7485 18.4757 77.5683 16.4805ZM83.0007 9.62267C83.5962 8.89564 84.1648 8.16814 84.7646 7.43494C85.8213 6.16131 86.8927 4.87963 87.9722 3.61262C88.3671 5.45579 88.7994 7.29749 89.2819 9.11934C89.3147 9.24246 89.3519 9.35944 89.3847 9.48258C87.5848 11.4994 85.8032 13.5289 84.0444 15.5651C83.6479 13.5932 83.2931 11.6136 83.0007 9.62267ZM84.436 7.16124C83.9192 7.78786 83.4337 8.40883 82.9274 9.03355C82.6491 7.06156 82.4187 5.08624 82.2422 3.11189C83.7273 1.16855 85.2437 -0.780481 86.8035 -2.72667C87.1031 -0.785472 87.4609 1.1505 87.8708 3.077C86.7064 4.44016 85.5629 5.79953 84.436 7.16124ZM82.1729 2.4252C82.142 2.10268 82.1049 1.77588 82.0844 1.4515C81.969 -0.152069 81.891 -1.75706 81.8319 -3.37624C83.1811 -5.26793 84.5634 -7.15491 85.9769 -9.04756C85.9927 -8.89979 86.0023 -8.75628 86.018 -8.60852C86.1969 -6.86054 86.4317 -5.1012 86.6976 -3.34753C85.1548 -1.42596 83.6452 0.500338 82.1729 2.4252ZM81.7989 -4.22016C81.7532 -6.09461 81.7431 -7.98093 81.785 -9.87672C83.0002 -11.7064 84.2465 -13.5417 85.5303 -15.3784C85.6115 -13.5158 85.7386 -11.6669 85.9073 -9.82563C84.5066 -7.95146 83.1414 -6.08914 81.7989 -4.22016ZM86.9248 -8.70908C86.8762 -9.18975 86.8443 -9.66806 86.7957 -10.1488C88.2111 -12.031 89.6554 -13.9023 91.1351 -15.7855C91.1693 -15.8348 91.2054 -15.8736 91.2457 -15.9186C91.5458 -14.0044 91.8791 -12.0855 92.2852 -10.1798C90.6952 -8.2819 89.1217 -6.38165 87.5813 -4.47668C87.541 -4.43168 87.5025 -4.37628 87.4622 -4.33127C87.2565 -5.77854 87.0741 -7.24618 86.9248 -8.70908ZM90.7347 -16.0999C89.3722 -14.3726 88.0427 -12.6405 86.7342 -10.9122C86.5788 -12.7989 86.4674 -14.7098 86.4039 -16.6241C87.7108 -18.4812 89.0552 -20.3397 90.4266 -22.1978C90.5426 -21.0409 90.669 -19.8858 90.8162 -18.7345C90.9058 -18.0246 91.0328 -17.3161 91.139 -16.6039C91.0071 -16.44 90.8647 -16.2742 90.7347 -16.0999ZM86.3767 -17.5552C86.3305 -19.4026 86.3303 -21.2638 86.3716 -23.1326C87.5464 -24.9172 88.7421 -26.7057 89.9751 -28.4955C90.055 -26.6703 90.1869 -24.8546 90.3543 -23.0507C88.9958 -21.2111 87.6624 -19.3815 86.3767 -17.5552ZM91.7713 -18.8653C91.579 -20.3581 91.4222 -21.8627 91.2924 -23.3668C92.2882 -24.71 93.3006 -26.0508 94.3296 -27.3893C94.7473 -27.9388 95.1773 -28.4797 95.6011 -29.0248C95.6104 -28.9728 95.6155 -28.9145 95.6248 -28.8624C95.9143 -27.0377 96.2619 -25.2182 96.6451 -23.4106C95.0588 -21.4918 93.4995 -19.5727 91.9647 -17.6364C91.8962 -18.0489 91.8233 -18.4552 91.7713 -18.8653ZM93.8757 -27.7317C92.9725 -26.5613 92.0817 -25.3825 91.2116 -24.2074C91.0556 -26.0671 90.9518 -27.9364 90.8834 -29.8174C92.161 -31.6585 93.476 -33.5009 94.8161 -35.3533C94.991 -33.5077 95.2156 -31.6551 95.488 -29.8058C94.9554 -29.1171 94.4125 -28.4265 93.8757 -27.7317ZM90.8536 -30.8233C90.8087 -32.6334 90.8055 -34.451 90.8439 -36.2762C91.9979 -38.0571 93.1832 -39.8437 94.3935 -41.6401C94.4616 -39.8504 94.5794 -38.0537 94.7345 -36.2583C93.4078 -34.4514 92.1203 -32.6355 90.8536 -30.8233ZM95.6819 -36.5222C96.2919 -37.3487 96.8914 -38.1733 97.5118 -39.0017C104.227 -47.9705 111.583 -56.8139 118.697 -65.3603C136.18 -86.3701 154.256 -108.09 164.551 -133.741C165.955 -137.246 167.213 -140.816 168.323 -144.434C168.605 -143.28 168.87 -142.129 169.127 -140.965C167.747 -135.647 166.053 -130.4 164.032 -125.298C153.434 -98.4892 134.274 -76.0067 115.735 -54.2613C109.258 -46.6593 102.58 -38.8324 96.3332 -30.8795C96.0886 -32.6639 95.8646 -34.5436 95.6819 -36.5222ZM163.989 -133.967C153.726 -108.403 135.682 -86.7153 118.23 -65.7486C111.112 -57.196 103.751 -48.3465 97.0272 -39.3654C96.5412 -38.7174 96.0698 -38.0776 95.5942 -37.4315C95.4465 -39.1852 95.3378 -41.0213 95.2743 -42.9355C97.0267 -45.487 98.8313 -48.0479 100.7 -50.6098C107.186 -59.5099 114.298 -68.2765 121.18 -76.7646C137.6 -97.0161 154.579 -117.956 164.549 -142.391C165.465 -144.629 166.313 -146.887 167.101 -149.149C167.432 -147.962 167.743 -146.77 168.043 -145.577C166.871 -141.646 165.517 -137.769 163.989 -133.967ZM167.242 -149.562C167.639 -150.71 168.029 -151.863 168.396 -153.022C168.419 -152.924 168.447 -152.832 168.47 -152.734C168.723 -151.682 168.947 -150.642 169.177 -149.597C168.863 -148.41 168.532 -147.226 168.183 -146.054C167.882 -147.221 167.57 -148.396 167.242 -149.562ZM166.938 -150.658C166.589 -151.886 166.231 -153.101 165.857 -154.318C166.306 -155.476 166.738 -156.636 167.151 -157.809C167.478 -156.615 167.784 -155.417 168.086 -154.213C167.718 -153.027 167.339 -151.839 166.938 -150.658ZM167.325 -158.281C167.72 -159.402 168.106 -160.521 168.475 -161.643C168.697 -160.731 168.924 -159.826 169.132 -158.906C169.182 -158.689 169.217 -158.464 169.272 -158.243C168.954 -157.077 168.614 -155.918 168.263 -154.756C167.954 -155.937 167.648 -157.108 167.325 -158.281ZM166.995 -159.432C166.646 -160.659 166.292 -161.88 165.912 -163.102C166.364 -164.239 166.794 -165.382 167.213 -166.524C167.538 -165.34 167.859 -164.15 168.158 -162.957C167.778 -161.78 167.398 -160.602 166.995 -159.432ZM165.388 -163.776C164.92 -162.577 164.446 -161.383 163.945 -160.189C163.505 -161.47 163.051 -162.743 162.591 -164.02C163.135 -165.184 163.667 -166.357 164.182 -167.532C164.599 -166.284 164.996 -165.033 165.388 -163.776ZM165.737 -162.667C166.115 -161.429 166.472 -160.186 166.823 -158.948C166.407 -157.759 165.969 -156.577 165.515 -155.386C165.123 -156.643 164.717 -157.892 164.299 -159.14C164.376 -159.315 164.458 -159.486 164.528 -159.666C164.956 -160.663 165.342 -161.664 165.737 -162.667ZM165.373 -155.01C164.896 -153.772 164.409 -152.532 163.894 -151.293C154.284 -128.15 138.412 -108.02 123.063 -88.5492C116.435 -80.1397 109.574 -71.4456 103.316 -62.6246C100.495 -58.6523 97.8199 -54.6794 95.2716 -50.7189C95.3295 -52.3756 95.4154 -54.0857 95.5545 -55.8593C99.07 -61.8033 102.9 -67.7938 107.069 -73.8407C113.065 -82.5333 119.638 -91.1264 125.992 -99.4431C140.156 -117.966 154.794 -137.119 164.139 -158.804C164.57 -157.538 164.979 -156.278 165.373 -155.01ZM103.888 -62.2179C110.134 -71.0204 116.985 -79.7126 123.614 -88.1117C138.996 -107.615 154.897 -127.788 164.544 -151.024C164.946 -151.995 165.336 -152.965 165.715 -153.943C166.091 -152.715 166.446 -151.483 166.797 -150.245C165.927 -147.693 164.973 -145.153 163.952 -142.632C154.019 -118.29 137.076 -97.3888 120.682 -77.1742C113.8 -68.6861 106.679 -59.9072 100.185 -50.9948C98.493 -48.6749 96.849 -46.3584 95.2528 -44.0451C95.2143 -45.7595 95.2081 -47.5336 95.2532 -49.3815C97.9589 -53.6342 100.835 -57.9234 103.888 -62.2179ZM94.3616 -42.7479C93.1689 -41.003 92.0032 -39.2576 90.8687 -37.518C90.9239 -39.2495 91.0147 -40.9928 91.1409 -42.7479C92.1713 -44.4686 93.2329 -46.1949 94.3215 -47.9208C94.2913 -46.1994 94.3108 -44.4708 94.3616 -42.7479ZM89.8709 -35.9754C88.8152 -34.3362 87.7803 -32.7007 86.7767 -31.071C86.9203 -32.7593 87.0994 -34.4595 87.3098 -36.1654C88.1983 -37.7473 89.1034 -39.3269 90.0398 -40.9121C89.9549 -39.256 89.9056 -37.6116 89.8709 -35.9754ZM89.8505 -34.7398C89.8364 -32.9889 89.8743 -31.2476 89.9373 -29.5161C88.7195 -27.7613 87.5452 -26.0036 86.3857 -24.2541C86.442 -26.0395 86.54 -27.8325 86.6734 -29.6374C87.7075 -31.3373 88.7686 -33.0366 89.8505 -34.7398ZM85.4421 -22.8289C84.3247 -21.1139 83.2386 -19.4046 82.1794 -17.6948C82.3217 -19.4205 82.5037 -21.1643 82.7128 -22.9076C83.6611 -24.5757 84.6303 -26.2476 85.6369 -27.921C85.5344 -26.2132 85.4736 -24.513 85.4421 -22.8289ZM85.4232 -21.6743C85.4019 -19.8737 85.4369 -18.0887 85.4989 -16.3033C84.2408 -14.5035 83.0035 -12.7075 81.8097 -10.9087C81.8604 -12.7254 81.9571 -14.5558 82.0892 -16.3981C83.166 -18.1595 84.2821 -19.9119 85.4232 -21.6743ZM80.9094 -9.57208C79.767 -7.84712 78.6618 -6.12356 77.5732 -4.39765C77.7252 -6.18974 77.9187 -7.9894 78.1435 -9.79475C79.1042 -11.4543 80.0918 -13.1135 81.1003 -14.7764C81.0034 -13.0373 80.9439 -11.2997 80.9094 -9.57208ZM80.8927 -8.52544C80.877 -6.6936 80.9029 -4.86934 80.9705 -3.05267C79.6745 -1.22444 78.4096 0.598122 77.1779 2.42539C77.2377 0.569382 77.3435 -1.30037 77.4847 -3.18196C78.5952 -4.96562 79.7222 -6.74696 80.8927 -8.52544ZM76.3204 3.70039C75.1333 5.47652 73.9732 7.25311 72.84 9.03017C72.9967 7.20493 73.1908 5.37826 73.4247 3.5336C74.4409 1.79399 75.4737 0.0567347 76.5481 -1.68812C76.4312 0.119134 76.3602 1.9126 76.3204 3.70039ZM76.3035 4.65562C76.2805 6.5372 76.2973 8.40077 76.3662 10.2549C75.0237 12.1238 73.7186 13.9914 72.4447 15.8532C72.5075 13.9536 72.6119 12.0465 72.7579 10.1318C73.9044 8.30923 75.0883 6.48527 76.3035 4.65562ZM71.6305 17.0397C70.3926 18.8627 69.194 20.6947 68.0205 22.5167C68.1802 20.6479 68.3876 18.7758 68.6306 16.8918C69.6829 15.1134 70.7602 13.325 71.8707 11.5413C71.7447 13.3878 71.675 15.2187 71.6305 17.0397ZM71.6108 17.9201C71.5893 19.2097 71.5886 20.4954 71.6087 21.7774C71.6172 22.3945 71.6545 23.0225 71.6733 23.6377C70.2843 25.5474 68.9285 27.4618 67.61 29.3748C67.6757 27.4317 67.7873 25.4748 67.9406 23.5103C69.1336 21.6471 70.3535 19.7843 71.6108 17.9201ZM66.839 30.4727C65.5566 32.3469 64.3158 34.2135 63.0977 36.0867C63.2707 34.1724 63.4897 32.2444 63.7399 30.3107C64.8324 28.4872 65.952 26.6642 67.0985 24.8417C66.9738 26.7257 66.8908 28.602 66.839 30.4727ZM66.8215 31.2452C66.8172 31.4611 66.8087 31.6832 66.8001 31.9053C66.7804 33.6249 66.8042 35.3474 66.8549 37.0703C65.4238 39.0146 64.03 40.9574 62.6693 42.905C62.679 42.6289 62.6763 42.3443 62.6902 42.062C62.7634 40.3704 62.8824 38.6649 63.0223 36.9557C64.2636 35.0621 65.5239 33.1544 66.8215 31.2452ZM62.0038 42.0417C61.9786 42.6811 61.97 43.3228 61.9509 43.9664C60.622 45.8813 59.3305 47.7948 58.0659 49.7087C58.2462 47.7447 58.4785 45.7712 58.7481 43.7963C59.8768 41.934 61.0428 40.0703 62.2358 38.2071C62.1376 39.4891 62.0603 40.7673 62.0038 42.0417ZM57.3166 50.8672C56.1028 52.7343 54.9202 54.5956 53.7603 56.4636C54.0497 54.5389 54.3808 52.6066 54.7431 50.6686C55.7671 48.8523 56.8242 47.0407 57.9082 45.2295C57.6652 47.1135 57.4701 48.9942 57.3166 50.8672ZM57.8499 52.2226C57.8943 51.6604 57.9472 51.0859 57.9977 50.528C59.2775 48.5791 60.5885 46.6244 61.9327 44.6744C61.891 46.6616 61.8763 48.6493 61.9217 50.6421C60.4441 52.6271 59.0038 54.6107 57.6009 56.5929C57.6612 55.1295 57.7442 53.6727 57.8499 52.2226ZM62.6572 43.6173C64.035 41.645 65.4397 39.6733 66.8818 37.7002C66.9499 39.6996 67.0658 41.6958 67.2233 43.6844C65.6477 45.6926 64.1094 47.6994 62.6043 49.7109C62.5723 47.6726 62.5961 45.6456 62.6572 43.6173ZM67.5839 36.7278C69.0554 34.7385 70.5581 32.7435 72.1001 30.7576C72.2865 32.757 72.5311 34.7513 72.813 36.7441C71.1375 38.7651 69.5013 40.7952 67.9024 42.8238C67.7521 40.7855 67.6349 38.7519 67.5839 36.7278ZM72.8092 29.8539C74.3787 27.8414 75.9813 25.8336 77.6212 23.8244C77.8891 25.5885 78.182 27.3427 78.5209 29.0831C78.57 29.3269 78.6295 29.5689 78.6786 29.8128C78.5002 30.0174 78.3113 30.224 78.133 30.4286C76.5525 32.2602 75.0034 34.086 73.4873 35.9167C73.2121 33.9011 72.9846 31.8822 72.8092 29.8539ZM79.3417 28.9229C78.9556 26.949 78.6301 24.9533 78.342 22.9563C79.4139 21.6476 80.4816 20.3451 81.5806 19.0369C82.1926 18.3122 82.8109 17.5918 83.4291 16.8714C83.5886 17.6116 83.7335 18.3598 83.9035 19.0981C84.1981 20.3517 84.5136 21.6014 84.8455 22.8536C82.993 24.9068 81.1693 26.9709 79.3622 29.0375C79.3505 29.0019 79.343 28.9603 79.3417 28.9229ZM84.7561 18.9052C84.5322 17.9562 84.3439 16.9953 84.1469 16.0468C85.9143 13.9982 87.7043 11.9563 89.5128 9.92726C90.0545 11.8997 90.6465 13.8522 91.3028 15.8038C89.375 17.8869 87.4551 19.9847 85.5519 22.0848C85.2658 21.0288 85.0006 19.9689 84.7561 18.9052ZM90.2325 9.11307C92.1002 7.02477 93.9802 4.94498 95.8683 2.87989C96.5251 4.80446 97.2445 6.71765 98.0097 8.61712C96.0146 10.7447 94.0152 12.8785 92.0196 15.0332C91.3718 13.0693 90.77 11.0917 90.2325 9.11307ZM90.1148 8.6665C89.5957 6.7007 89.1434 4.71735 88.7223 2.72834C90.4499 0.697825 92.1959 -1.31989 93.9646 -3.33099C94.193 -2.5065 94.411 -1.68013 94.6603 -0.859442C94.9993 0.25157 95.359 1.35876 95.7292 2.46409C93.8497 4.51687 91.974 6.59051 90.1148 8.6665ZM88.6167 2.19889C88.2178 0.243476 87.8605 -1.7195 87.5676 -3.68341C87.6952 -3.84114 87.821 -4.00929 87.9487 -4.16703C89.4041 -5.97584 90.9031 -7.78184 92.4039 -9.57742C92.82 -7.64666 93.3088 -5.72915 93.829 -3.81735C92.0731 -1.82473 90.3357 0.180683 88.6167 2.19889ZM93.1968 -10.5233C94.8907 -12.5315 96.5969 -14.5313 98.3258 -16.5244C98.8606 -14.6206 99.4475 -12.7263 100.091 -10.8477C98.2529 -8.80246 96.417 -6.74686 94.5933 -4.68269C94.0736 -6.6215 93.6061 -8.5698 93.1968 -10.5233ZM93.0781 -11.1257C92.6829 -13.0602 92.3459 -15 92.0629 -16.9388C93.6166 -18.8893 95.1869 -20.8373 96.7817 -22.7684C97.1983 -20.8646 97.6565 -18.9685 98.1729 -17.0775C96.4611 -15.109 94.7634 -13.1216 93.0781 -11.1257ZM97.6002 -23.7512C102.844 -30.0743 108.274 -36.3132 113.577 -42.3943C133.249 -64.9592 153.589 -88.2914 164.568 -116.461C166.928 -122.522 168.849 -128.779 170.304 -135.122C170.493 -134.07 170.669 -133.026 170.837 -131.97C169.354 -123.803 167.116 -115.741 164.135 -107.985C152.842 -78.6017 131.359 -54.4751 110.578 -31.1381C106.738 -26.8241 102.835 -22.4448 98.9799 -18.0044C98.4659 -19.9119 97.9997 -21.8228 97.6002 -23.7512ZM164.084 -116.641C153.138 -88.559 132.829 -65.2594 113.183 -42.7314C107.961 -36.7403 102.624 -30.6099 97.4489 -24.3853C97.1351 -25.9258 96.8526 -27.4721 96.6074 -29.0198C96.5482 -29.3801 96.4975 -29.7529 96.4426 -30.1194C102.784 -38.2077 109.57 -46.1782 116.159 -53.9029C134.72 -75.6791 153.922 -98.1961 164.553 -125.092C166.443 -129.874 168.054 -134.777 169.383 -139.748C169.619 -138.645 169.844 -137.54 170.052 -136.437C168.586 -129.71 166.588 -123.068 164.084 -116.641ZM169.539 -140.287C169.829 -141.399 170.107 -142.521 170.374 -143.64C170.563 -142.587 170.728 -141.542 170.894 -140.496C170.681 -139.349 170.45 -138.204 170.208 -137.068C169.988 -138.142 169.769 -139.215 169.539 -140.287ZM169.269 -141.524C169.018 -142.656 168.752 -143.78 168.474 -144.913C168.814 -146.045 169.147 -147.182 169.459 -148.325C169.694 -147.222 169.902 -146.12 170.105 -145.022C169.843 -143.844 169.562 -142.68 169.269 -141.524ZM169.624 -148.931C169.916 -150.006 170.194 -151.09 170.457 -152.176C170.64 -151.155 170.817 -150.138 170.977 -149.123C170.755 -147.991 170.519 -146.851 170.27 -145.719C170.072 -146.796 169.854 -147.859 169.624 -148.931ZM169.341 -150.213C169.148 -151.077 168.966 -151.942 168.759 -152.797C168.698 -153.05 168.628 -153.29 168.567 -153.542C168.912 -154.643 169.235 -155.751 169.552 -156.863C169.776 -155.796 169.997 -154.739 170.198 -153.678C169.922 -152.519 169.64 -151.365 169.341 -150.213ZM169.747 -157.576C170.046 -158.637 170.327 -159.71 170.599 -160.771C170.774 -159.764 170.926 -158.765 171.083 -157.771C170.864 -156.682 170.635 -155.592 170.389 -154.503C170.189 -155.527 169.973 -156.552 169.747 -157.576ZM169.461 -158.961C169.459 -158.971 169.459 -158.971 169.457 -158.981C169.211 -160.083 168.941 -161.174 168.668 -162.275C169.02 -163.372 169.355 -164.471 169.68 -165.569C169.714 -165.408 169.752 -165.254 169.786 -165.093C169.975 -164.159 170.143 -163.222 170.316 -162.29C170.047 -161.181 169.757 -160.069 169.461 -158.961ZM168.352 -163.589C168.051 -164.756 167.73 -165.918 167.408 -167.081C167.812 -168.187 168.21 -169.298 168.581 -170.409C168.855 -169.27 169.108 -168.127 169.357 -166.978C169.044 -165.846 168.704 -164.713 168.352 -163.589ZM168.811 -171.107C169.162 -172.177 169.503 -173.245 169.827 -174.315C170.035 -173.304 170.249 -172.289 170.437 -171.274C170.446 -171.222 170.455 -171.17 170.465 -171.118C170.187 -169.997 169.893 -168.878 169.587 -167.768C169.339 -168.879 169.081 -169.989 168.811 -171.107ZM168.47 -172.465C168.178 -173.617 167.879 -174.773 167.56 -175.925C167.965 -177.021 168.365 -178.121 168.744 -179.218C169.01 -178.094 169.28 -176.975 169.525 -175.847C169.19 -174.721 168.827 -173.595 168.47 -172.465ZM169.002 -179.996C169.353 -181.039 169.714 -182.084 170.042 -183.134C170.26 -182.07 170.456 -181.003 170.653 -179.937C170.372 -178.863 170.064 -177.791 169.763 -176.714C169.517 -177.815 169.263 -178.903 169.002 -179.996ZM168.646 -181.411C168.354 -182.563 168.057 -183.708 167.744 -184.856C168.158 -185.937 168.553 -187.032 168.944 -188.119C169.21 -186.995 169.455 -185.867 169.701 -184.739C169.361 -183.634 169.011 -182.526 168.646 -181.411ZM169.236 -188.947C169.598 -189.992 169.959 -191.037 170.303 -192.084C170.515 -191.025 170.716 -189.964 170.906 -188.902C170.615 -187.826 170.301 -186.758 169.987 -185.69C169.743 -186.78 169.495 -187.865 169.236 -188.947ZM168.88 -190.426C168.594 -191.574 168.297 -192.719 167.99 -193.863C168.418 -194.952 168.82 -196.042 169.221 -197.132C169.481 -196.012 169.726 -194.884 169.961 -193.754C169.611 -192.647 169.257 -191.533 168.88 -190.426ZM167.605 -195.288C167.272 -196.487 166.929 -197.683 166.575 -198.877C167.058 -199.992 167.52 -201.104 167.982 -202.216C168.29 -201.035 168.574 -199.843 168.861 -198.659C168.455 -197.536 168.038 -196.411 167.605 -195.288ZM168.303 -203.006C168.735 -204.074 169.15 -205.145 169.566 -206.216C169.822 -205.09 170.067 -203.962 170.291 -202.83C169.929 -201.731 169.561 -200.636 169.171 -199.538C168.894 -200.698 168.612 -201.852 168.303 -203.006ZM167.585 -203.677C167.127 -202.544 166.654 -201.404 166.164 -200.266C165.787 -201.504 165.398 -202.74 165.006 -203.971C165.539 -205.106 166.061 -206.24 166.569 -207.365C166.923 -206.143 167.257 -204.908 167.585 -203.677ZM165.875 -199.573C165.378 -198.412 164.855 -197.252 164.328 -196.085C163.901 -197.358 163.474 -198.63 163.026 -199.899C163.51 -200.885 164.011 -201.869 164.483 -202.864C164.557 -203.023 164.627 -203.176 164.7 -203.334C165.107 -202.085 165.499 -200.828 165.875 -199.573ZM164.076 -195.512C163.941 -195.213 163.812 -194.91 163.672 -194.615C163.26 -193.734 162.842 -192.856 162.424 -191.978C161.962 -193.266 161.485 -194.545 160.998 -195.823C161.605 -196.999 162.188 -198.181 162.772 -199.363C163.218 -198.078 163.647 -196.795 164.076 -195.512ZM162.186 -191.478C161.61 -190.281 161.016 -189.097 160.417 -187.907C159.916 -189.203 159.4 -190.492 158.878 -191.785C159.509 -192.97 160.133 -194.17 160.748 -195.358C161.241 -194.076 161.722 -192.776 162.186 -191.478ZM160.214 -187.509C159.597 -186.305 158.973 -185.105 158.333 -183.907C157.794 -185.202 157.247 -186.485 156.694 -187.772C157.359 -188.98 158.026 -190.177 158.673 -191.398C159.201 -190.101 159.707 -188.81 160.214 -187.509ZM158.152 -183.567C157.499 -182.351 156.84 -181.139 156.174 -179.931C155.606 -181.21 155.038 -182.489 154.455 -183.76C155.15 -184.984 155.828 -186.21 156.511 -187.443C157.07 -186.151 157.613 -184.862 158.152 -183.567ZM158.601 -182.471C159.135 -181.17 159.659 -179.866 160.168 -178.555C159.561 -177.353 158.938 -176.152 158.306 -174.967C157.759 -176.277 157.204 -177.574 156.639 -178.87C157.306 -180.067 157.956 -181.267 158.601 -182.471ZM160.593 -177.476C161.094 -176.179 161.587 -174.87 162.063 -173.564C161.498 -172.369 160.922 -171.172 160.328 -169.988C159.806 -171.308 159.28 -172.621 158.74 -173.927C159.367 -175.106 159.989 -176.29 160.593 -177.476ZM162.461 -172.485C162.927 -171.203 163.373 -169.918 163.814 -168.627L163.81 -168.621C163.292 -167.429 162.762 -166.246 162.216 -165.065C161.735 -166.366 161.243 -167.674 160.737 -168.965C161.323 -170.137 161.898 -171.307 162.461 -172.485ZM162.066 -164.731C153.112 -145.484 140.223 -128.064 127.726 -111.185C121.64 -102.965 115.355 -94.4728 109.61 -85.8796C104.797 -78.6828 100.439 -71.5632 96.5324 -64.5313C96.735 -65.9507 96.9798 -67.4047 97.2355 -68.8875C101.854 -78.0985 107.256 -87.4952 113.445 -97.0569C118.916 -105.503 124.897 -113.886 130.681 -121.997C141.286 -136.86 152.189 -152.164 160.569 -168.671C161.089 -167.361 161.577 -166.046 162.066 -164.731ZM110.263 -85.4445C115.996 -94.0192 122.276 -102.505 128.358 -110.719C140.718 -127.428 153.463 -144.666 162.438 -163.707C162.904 -162.425 163.362 -161.132 163.803 -159.84C154.516 -137.923 139.723 -118.586 125.413 -99.8811C119.049 -91.5626 112.472 -82.9632 106.469 -74.2479C102.603 -68.6382 99.0205 -63.0692 95.7104 -57.5392C95.8495 -59.103 96.0246 -60.7056 96.2443 -62.3594C100.388 -69.9564 105.057 -77.6542 110.263 -85.4445ZM94.671 -55.7791C93.7645 -54.237 92.8789 -52.6987 92.0099 -51.158C92.2116 -52.6418 92.449 -54.1374 92.7009 -55.6411C93.472 -57.1586 94.2596 -58.6737 95.0724 -60.1987C94.9146 -58.7391 94.7815 -57.2625 94.671 -55.7791ZM94.5549 -54.1173C94.454 -52.4905 94.3758 -50.8571 94.3307 -49.219C93.2787 -47.5589 92.2537 -45.8984 91.2496 -44.2416C91.3902 -45.8864 91.5707 -47.5492 91.772 -49.2158C92.6677 -50.8474 93.6009 -52.4805 94.5549 -54.1173ZM90.1508 -42.4224C89.262 -40.9319 88.3898 -39.439 87.5445 -37.9457C87.7607 -39.5289 88.0082 -41.1178 88.2826 -42.7063C89.0123 -44.1248 89.7689 -45.5428 90.5402 -46.9689C90.3833 -45.4449 90.2576 -43.9265 90.1508 -42.4224ZM86.3547 -35.8248C85.5649 -34.4115 84.796 -33.002 84.0479 -31.5963C84.313 -33.027 84.6032 -34.4677 84.9123 -35.9226C85.56 -37.2885 86.2304 -38.6478 86.9154 -40.0152C86.7048 -38.6105 86.5193 -37.2157 86.3547 -35.8248ZM86.1408 -34.0483C85.9724 -32.4684 85.8395 -30.9004 85.7317 -29.3422C84.7787 -27.7594 83.8363 -26.1784 82.925 -24.6031C83.1394 -26.1968 83.3831 -27.8065 83.6581 -29.422C84.4689 -30.9575 85.2945 -32.501 86.1408 -34.0483ZM81.8022 -22.6181C81.0277 -21.2399 80.2679 -19.8697 79.5246 -18.4971C79.8097 -19.9961 80.1095 -21.5031 80.4405 -23.0158C81.0682 -24.3135 81.7124 -25.6088 82.3713 -26.9123C82.1559 -25.4744 81.9717 -24.0422 81.8022 -22.6181ZM81.6114 -20.9535C81.44 -19.33 81.306 -17.7079 81.1971 -16.0958C80.2234 -14.5092 79.2809 -12.9282 78.3611 -11.3406C78.5936 -13.0129 78.8512 -14.6951 79.1444 -16.3892C79.9424 -17.9062 80.7612 -19.427 81.6114 -20.9535ZM77.2784 -9.49201C76.4227 -7.99677 75.5878 -6.50533 74.7799 -5.01343C75.0703 -6.57252 75.3877 -8.13112 75.7303 -9.69969C76.4378 -11.1518 77.1618 -12.6016 77.9129 -14.0509C77.675 -12.5283 77.4642 -11.0052 77.2784 -9.49201ZM77.0939 -7.94146C76.9025 -6.24977 76.7528 -4.56568 76.6281 -2.89153C75.5988 -1.22482 74.5946 0.431936 73.6132 2.0953C73.8529 0.373303 74.1177 -1.35866 74.42 -3.09201C75.2821 -4.7014 76.1797 -6.32261 77.0939 -7.94146ZM72.6012 3.82876C71.7028 5.38558 70.8252 6.93861 69.9641 8.49398C70.2661 6.87901 70.5993 5.25833 70.9575 3.62774C71.7035 2.1202 72.4703 0.608876 73.264 -0.901977C73.0166 0.686954 72.7985 2.25975 72.6012 3.82876ZM72.4317 5.2529C72.2331 6.9943 72.0761 8.72815 71.9443 10.452C70.8685 12.1594 69.8197 13.8673 68.8041 15.58C69.0468 13.8144 69.3207 12.0431 69.6406 10.2581C70.5411 8.59334 71.473 6.92288 72.4317 5.2529ZM67.8421 17.2021C66.8991 18.8101 65.9726 20.4205 65.0835 22.0294C65.4055 20.3462 65.7501 18.6696 66.1346 16.975C66.9147 15.4183 67.7261 13.8558 68.5541 12.2957C68.289 13.9362 68.0551 15.5711 67.8421 17.2021ZM67.69 18.4832C67.4842 20.2743 67.3095 22.0598 67.1766 23.8377C66.0563 25.5963 64.9629 27.3553 63.9069 29.113C64.163 27.3019 64.4502 25.4852 64.7792 23.6609C65.7225 21.9345 66.6928 20.2086 67.69 18.4832ZM63.0138 30.6096C62.0176 32.2811 61.0442 33.9591 60.1019 35.6315C60.4415 33.8967 60.802 32.1581 61.1998 30.4181C62.0269 28.7935 62.8792 27.1591 63.7541 25.5312C63.4775 27.2277 63.2322 28.9184 63.0138 30.6096ZM62.8553 31.7951C62.6318 33.6378 62.4524 35.4564 62.3061 37.2797C61.1369 39.0956 60.0008 40.9163 58.8917 42.7374C59.1592 40.8704 59.4684 38.9959 59.8131 37.1096C60.8029 35.3425 61.8135 33.5716 62.8553 31.7951ZM58.048 44.1497C57.0115 45.8662 55.9873 47.5911 55.0109 49.3127C55.3662 47.5159 55.7547 45.7238 56.1744 43.926C57.0443 42.2399 57.9308 40.5562 58.8546 38.871C58.5457 40.6271 58.2803 42.3861 58.048 44.1497ZM54.0681 51.0121C53.1795 52.594 52.3014 54.174 51.4606 55.7526C51.8843 54.067 52.3393 52.3758 52.8212 50.685C53.5383 49.1666 54.2867 47.6425 55.0516 46.1207C54.6995 47.7556 54.3682 49.3867 54.0681 51.0121ZM53.826 52.3311C53.5056 54.1431 53.2226 55.9536 52.9751 57.7524C51.8769 59.5446 50.8118 61.3415 49.7737 63.1389C50.151 61.2843 50.5699 59.4221 51.0158 57.5604C51.918 55.8146 52.8533 54.0736 53.826 52.3311ZM48.9058 64.6257C47.9488 66.3061 47.0232 67.9808 46.1202 69.6622C46.5634 67.9354 47.0378 66.2029 47.5496 64.4691C48.3333 62.8417 49.1377 61.2106 49.9649 59.586C49.5828 61.264 49.2339 62.9467 48.9058 64.6257ZM48.6859 65.7684C48.3393 67.6444 48.0301 69.5189 47.7583 71.392C46.6155 73.2353 45.4954 75.0853 44.417 76.9277C44.8204 75.0092 45.2674 73.0934 45.7456 71.172C46.6924 69.3751 47.6704 67.5725 48.6859 65.7684ZM43.5936 78.3633C42.5836 80.1072 41.5943 81.8473 40.6424 83.5859C41.1294 81.7436 41.6581 79.8937 42.2137 78.0443C43.0291 76.3842 43.8819 74.7228 44.7451 73.0594C44.326 74.8302 43.9442 76.5996 43.5936 78.3633ZM43.3065 82.6706C43.5761 81.1153 43.877 79.5543 44.1944 77.9957C45.3095 76.0874 46.4514 74.1797 47.6247 72.2662C47.6193 72.3264 47.6036 72.3884 47.5982 72.4486C47.3382 74.3572 47.1235 76.279 46.9358 78.2013C45.6162 80.1683 44.3383 82.1277 43.0831 84.0938C43.159 83.6173 43.2245 83.1428 43.3065 82.6706ZM48.1549 72.5247C48.2271 72.0275 48.2992 71.5302 48.3818 71.031C49.6015 69.0768 50.8567 67.1108 52.1469 65.1599C51.976 67.176 51.8425 69.1906 51.7586 71.2124C50.3368 73.2088 48.9542 75.2141 47.5968 77.2095C47.7567 75.6419 47.9392 74.081 48.1549 72.5247ZM52.8464 64.1127C54.1622 62.1248 55.5215 60.1399 56.9121 58.1492C56.8552 60.1714 56.8315 62.1984 56.8659 64.2201C55.3461 66.2397 53.8532 68.2598 52.3996 70.2888C52.4987 68.232 52.656 66.17 52.8464 64.1127ZM57.5867 57.2033C59.0005 55.1923 60.4579 53.1841 61.9422 51.1763C61.995 53.2108 62.1104 55.234 62.2631 57.2557C60.6453 59.2985 59.0544 61.3418 57.5071 63.3879C57.486 61.3207 57.5146 59.2606 57.5867 57.2033ZM62.6138 50.2741C64.1318 48.244 65.6767 46.2145 67.2652 44.1878C67.407 45.8188 67.5678 47.4356 67.7721 49.0553C67.8241 49.4654 67.8865 49.8736 67.9447 50.288C66.227 52.3436 64.5467 54.3978 62.9056 56.461C62.762 54.3999 62.6557 52.3375 62.6138 50.2741ZM68.5024 48.96C68.2637 47.0884 68.0874 45.2054 67.9424 43.3168C69.5541 41.2697 71.1946 39.2335 72.8768 37.1897C72.968 37.8187 73.0427 38.4452 73.1486 39.0661C73.3756 40.4826 73.6339 41.8933 73.913 43.3003C72.0955 45.3688 70.3214 47.44 68.5805 49.5159C68.5531 49.3327 68.5256 49.1494 68.5024 48.96ZM73.9168 38.9424C73.7802 38.0904 73.6687 37.2285 73.5468 36.3685C75.1307 34.4663 76.7458 32.5585 78.3879 30.6511C78.5132 30.51 78.6385 30.3688 78.7637 30.2277C79.1861 32.2541 79.6501 34.273 80.1847 36.2951C78.4323 38.2172 76.6903 40.1373 74.9876 42.0665C74.8453 42.2323 74.7029 42.398 74.5606 42.5638C74.3274 41.3529 74.1169 40.1486 73.9168 38.9424ZM79.4473 29.4523C81.263 27.3735 83.091 25.3032 84.952 23.2376C85.4975 25.2309 86.0951 27.2147 86.7509 29.1932C84.7686 31.3024 82.7986 33.4201 80.8512 35.5444C80.3333 33.5246 79.8612 31.4911 79.4473 29.4523ZM85.6498 22.4812C87.5616 20.3687 89.4857 18.2648 91.4221 16.1694C92.0846 18.1252 92.8138 20.0635 93.5846 21.9942C91.5393 24.1418 89.4897 26.2954 87.4439 28.47C86.7862 26.481 86.1868 24.4868 85.6498 22.4812ZM92.1346 15.4049C94.1407 13.2484 96.1424 11.098 98.148 8.96849C98.9194 10.8722 99.7428 12.7665 100.623 14.6451C100.192 15.0946 99.7622 15.5441 99.332 15.9935C97.6558 17.7404 95.9667 19.5057 94.2776 21.271C93.5091 19.3237 92.7928 17.3669 92.1346 15.4049ZM98.8751 8.19596C100.09 6.90432 101.309 5.60654 102.52 4.32104C103.382 3.40548 104.245 2.48992 105.108 1.57435C105.976 3.41743 106.901 5.24488 107.871 7.05859C105.696 9.35342 103.513 11.6336 101.335 13.9076C100.457 12.0124 99.6423 10.1058 98.8751 8.19596ZM102.273 4.08617C101.103 5.32666 99.9157 6.59176 98.7369 7.84457C97.974 5.92852 97.2632 4.00303 96.6088 2.06189C98.5732 -0.087066 100.55 -2.22747 102.503 -4.34753C103.269 -2.47506 104.077 -0.610159 104.947 1.24334C104.058 2.19583 103.163 3.14408 102.273 4.08617ZM96.474 1.63993C96.1687 0.716484 95.8615 -0.217396 95.577 -1.14466C95.2714 -2.1595 94.997 -3.18003 94.7184 -4.19444C96.5507 -6.2709 98.3952 -8.33885 100.237 -10.3902C100.889 -8.49692 101.592 -6.61303 102.347 -4.73868C100.398 -2.62478 98.4403 -0.498585 96.474 1.63993ZM101.01 -11.2409C103.418 -13.9118 105.82 -16.5599 108.2 -19.1773C130.173 -43.366 152.896 -68.3746 164.576 -99.1675C167.852 -107.795 170.219 -116.79 171.645 -125.899C171.748 -124.997 171.844 -124.101 171.926 -123.196C170.731 -112.101 168.151 -101.12 164.226 -90.6527C152.201 -58.5759 128.263 -32.7223 105.119 -7.72313C104.453 -6.9994 103.781 -6.27992 103.11 -5.55005C102.357 -7.44099 101.652 -9.33524 101.01 -11.2409ZM164.183 -99.3218C152.531 -68.6094 129.836 -43.6274 107.885 -19.4695C105.559 -16.9052 103.206 -14.3143 100.847 -11.7007C100.214 -13.6082 99.6444 -15.5272 99.1163 -17.4536C103.043 -21.9717 107.017 -26.4392 110.925 -30.8247C131.733 -54.1882 153.246 -78.3579 164.57 -107.811C167.397 -115.163 169.568 -122.788 171.048 -130.518C171.193 -129.533 171.327 -128.547 171.45 -127.558C170.067 -117.935 167.633 -108.422 164.183 -99.3218ZM171.19 -131.287C171.381 -132.295 171.554 -133.306 171.718 -134.314C171.742 -134.061 171.788 -133.8 171.812 -133.546C171.875 -132.928 171.927 -132.308 171.979 -131.688C171.858 -130.623 171.727 -129.555 171.579 -128.49C171.465 -129.427 171.336 -130.356 171.19 -131.287ZM170.974 -132.732C170.814 -133.746 170.633 -134.757 170.452 -135.768C170.691 -136.833 170.918 -137.907 171.134 -138.98C171.278 -137.995 171.394 -137.02 171.52 -136.048C171.346 -134.946 171.169 -133.838 170.974 -132.732ZM171.286 -139.841C171.473 -140.806 171.648 -141.779 171.813 -142.75C171.905 -141.939 172.009 -141.119 172.078 -140.313C172.08 -140.303 172.075 -140.297 172.077 -140.286C171.955 -139.231 171.82 -138.185 171.67 -137.13C171.557 -138.029 171.428 -138.931 171.286 -139.841ZM171.053 -141.353C170.89 -142.351 170.721 -143.353 170.536 -144.358C170.774 -145.396 171.002 -146.433 171.218 -147.478C171.355 -146.535 171.496 -145.598 171.615 -144.667C171.437 -143.559 171.253 -142.455 171.053 -141.353ZM171.423 -148.468C171.608 -149.416 171.788 -150.358 171.956 -151.308C172.048 -150.47 172.116 -149.637 172.189 -148.811C172.068 -147.837 171.936 -146.861 171.794 -145.883C171.673 -146.743 171.551 -147.603 171.423 -148.468ZM171.169 -150.121C171.014 -151.077 170.84 -152.046 170.662 -153.009C170.905 -154.027 171.135 -155.053 171.354 -156.078C171.487 -155.128 171.601 -154.191 171.715 -153.255C171.543 -152.207 171.358 -151.167 171.169 -150.121ZM171.576 -157.119C171.756 -158.007 171.929 -158.899 172.092 -159.789C172.17 -159.024 172.255 -158.253 172.32 -157.496C172.196 -156.543 172.067 -155.583 171.921 -154.626C171.815 -155.457 171.703 -156.292 171.576 -157.119ZM171.298 -158.881C171.148 -159.806 170.994 -160.724 170.822 -161.656C171.061 -162.63 171.29 -163.603 171.509 -164.573C171.627 -163.707 171.755 -162.842 171.856 -161.979C171.686 -160.947 171.495 -159.912 171.298 -158.881ZM170.531 -163.217C170.41 -163.867 170.298 -164.519 170.16 -165.172C170.078 -165.566 169.982 -165.952 169.903 -166.335C170.197 -167.363 170.485 -168.394 170.757 -169.428C170.924 -168.436 171.101 -167.447 171.252 -166.457C171.021 -165.377 170.783 -164.301 170.531 -163.217ZM171.02 -170.45C171.267 -171.409 171.498 -172.371 171.719 -173.331C171.846 -172.413 171.946 -171.495 172.05 -170.583C171.877 -169.6 171.693 -168.614 171.497 -167.637C171.346 -168.572 171.188 -169.512 171.02 -170.45ZM170.713 -172.104C170.519 -173.123 170.309 -174.145 170.093 -175.171C170.398 -176.2 170.67 -177.234 170.952 -178.27C171 -177.999 171.053 -177.734 171.097 -177.457C171.219 -176.715 171.321 -175.97 171.433 -175.226C171.206 -174.179 170.968 -173.141 170.713 -172.104ZM171.568 -177.532C171.472 -178.127 171.349 -178.724 171.242 -179.318C171.493 -180.256 171.722 -181.202 171.946 -182.141C172.061 -181.258 172.183 -180.371 172.281 -179.491C172.102 -178.511 171.906 -177.534 171.71 -176.557C171.663 -176.882 171.615 -177.207 171.568 -177.532ZM170.932 -181.047C170.745 -182.062 170.537 -183.073 170.323 -184.088C170.627 -185.091 170.927 -186.087 171.21 -187.085C171.374 -186.114 171.531 -185.148 171.671 -184.183C171.435 -183.134 171.192 -182.09 170.932 -181.047ZM171.547 -188.265C171.798 -189.177 172.026 -190.095 172.253 -191.013C172.304 -190.614 172.368 -190.222 172.419 -189.822C172.47 -189.358 172.514 -188.898 172.565 -188.434C172.38 -187.459 172.205 -186.486 171.992 -185.511C171.838 -186.43 171.705 -187.353 171.547 -188.265ZM171.21 -190.087C171.023 -191.101 170.835 -192.116 170.627 -193.127C170.933 -194.092 171.244 -195.053 171.533 -196.02C171.688 -195.037 171.837 -194.058 171.981 -193.073C171.735 -192.076 171.466 -191.085 171.21 -190.087ZM170.271 -194.752C170.038 -195.844 169.804 -196.937 169.546 -198.019C169.915 -199.049 170.278 -200.084 170.626 -201.11C170.832 -200.056 171.026 -198.999 171.206 -197.934C170.907 -196.874 170.598 -195.812 170.271 -194.752ZM170.988 -202.182C171.313 -203.161 171.627 -204.138 171.93 -205.113C172.079 -204.134 172.211 -203.158 172.349 -202.177C172.097 -201.184 171.839 -200.196 171.57 -199.206C171.391 -200.206 171.192 -201.192 170.988 -202.182ZM170.651 -203.912C170.424 -205 170.177 -206.074 169.929 -207.159C170.319 -208.193 170.693 -209.229 171.066 -210.265C171.263 -209.198 171.445 -208.123 171.625 -207.059C171.303 -206.005 170.985 -204.957 170.651 -203.912ZM171.464 -211.376C171.801 -212.346 172.121 -213.319 172.443 -214.281C172.584 -213.317 172.724 -212.353 172.85 -211.381C172.575 -210.368 172.305 -209.35 172.009 -208.334C171.836 -209.356 171.655 -210.367 171.464 -211.376ZM171.103 -213.177C170.884 -214.277 170.655 -215.376 170.416 -216.473C170.824 -217.494 171.226 -218.519 171.608 -219.541C171.794 -218.472 171.98 -217.403 172.146 -216.331C171.818 -215.281 171.458 -214.226 171.103 -213.177ZM172.066 -220.765C172.406 -221.687 172.75 -222.616 173.075 -223.531C173.209 -222.544 173.322 -221.553 173.446 -220.564C173.17 -219.615 172.883 -218.665 172.586 -217.713C172.409 -218.729 172.249 -219.744 172.066 -220.765ZM170.598 -224.876C170.832 -223.719 171.056 -222.56 171.273 -221.406C170.872 -220.316 170.46 -219.224 170.038 -218.131C169.767 -219.313 169.491 -220.49 169.199 -221.668C169.669 -222.738 170.145 -223.804 170.598 -224.876ZM168.795 -220.772C169.089 -219.556 169.365 -218.342 169.642 -217.128C169.205 -216.027 168.758 -214.923 168.3 -213.818C167.98 -215.034 167.637 -216.258 167.3 -217.476C167.809 -218.564 168.305 -219.671 168.795 -220.772ZM166.931 -216.683C167.278 -215.439 167.619 -214.199 167.944 -212.951C167.465 -211.815 166.978 -210.667 166.478 -209.527C166.108 -210.777 165.722 -212.03 165.332 -213.277C165.876 -214.415 166.398 -215.548 166.931 -216.683ZM165.001 -212.604C165.395 -211.336 165.774 -210.06 166.147 -208.789C165.639 -207.637 165.11 -206.48 164.57 -205.322C164.153 -206.597 163.722 -207.863 163.284 -209.134C163.868 -210.289 164.434 -211.446 165.001 -212.604ZM162.994 -208.532C163.434 -207.251 163.867 -205.974 164.279 -204.694C164.058 -204.218 163.845 -203.754 163.624 -203.278C163.289 -202.572 162.93 -201.872 162.584 -201.163C162.128 -202.446 161.664 -203.718 161.187 -204.997C161.794 -206.173 162.4 -207.348 162.994 -208.532ZM160.919 -204.48C161.396 -203.201 161.858 -201.913 162.32 -200.626C161.734 -199.427 161.154 -198.224 160.541 -197.026C160.047 -198.307 159.544 -199.587 159.03 -200.866C159.664 -202.068 160.298 -203.27 160.919 -204.48ZM158.792 -200.419C159.302 -199.135 159.806 -197.855 160.305 -196.568C159.683 -195.358 159.045 -194.15 158.407 -192.941C157.884 -194.207 157.362 -195.473 156.824 -196.731C157.486 -197.96 158.141 -199.192 158.792 -200.419ZM156.611 -196.359C157.151 -195.09 157.673 -193.825 158.198 -192.548C157.547 -191.322 156.883 -190.104 156.214 -188.89C155.668 -190.135 155.118 -191.374 154.561 -192.618C155.252 -193.863 155.933 -195.105 156.611 -196.359ZM154.383 -192.295C154.939 -191.051 155.489 -189.812 156.035 -188.567C155.354 -187.324 154.67 -186.075 153.966 -184.839C153.408 -186.066 152.839 -187.291 152.259 -188.514C152.971 -189.762 153.679 -191.032 154.383 -192.295ZM126.22 -143.52C130.731 -151.619 135.532 -159.782 140.182 -167.676C144.17 -174.459 148.191 -181.302 152.11 -188.234C152.684 -187.015 153.253 -185.79 153.816 -184.569C148.396 -175.002 142.573 -165.642 136.867 -156.475C131.968 -148.617 126.909 -140.488 122.205 -132.385C116.534 -122.628 111.635 -113.274 107.484 -104.25C112.022 -115.943 118.117 -128.973 126.22 -143.52ZM102.454 -89.9885C107.574 -103.175 114.411 -117.077 123.028 -131.906C127.727 -140.002 132.788 -148.121 137.678 -155.967C143.273 -164.947 148.974 -174.118 154.305 -183.491C154.883 -182.214 155.457 -180.93 156.025 -179.651C149.411 -167.748 141.899 -156.267 134.553 -145.053C129.37 -137.138 124.008 -128.954 119.053 -120.752C112.427 -109.787 106.802 -99.2042 102.149 -88.9593C102.247 -89.3107 102.349 -89.6413 102.454 -89.9885ZM100.237 -82.3497C105.342 -94.479 111.869 -107.109 119.835 -120.292C124.777 -128.475 130.134 -136.653 135.314 -144.562C142.541 -155.593 149.932 -166.885 156.478 -178.599C157.039 -177.297 157.6 -175.995 158.147 -174.685C150.537 -160.416 141.291 -146.909 132.282 -133.757C126.794 -125.743 121.121 -117.465 115.904 -109.135C109.609 -99.0805 104.175 -89.3228 99.5952 -79.8391C99.8068 -80.6684 100.008 -81.4958 100.237 -82.3497ZM97.6754 -75.9715C97.6482 -75.8536 97.6271 -75.7314 97.5998 -75.6135C97.461 -75.3085 97.3263 -75.0096 97.1917 -74.7107C97.3474 -75.1318 97.5093 -75.5485 97.6754 -75.9715ZM98.6212 -75.7349C103.539 -86.3614 109.543 -97.3201 116.648 -108.673C121.853 -116.985 127.521 -125.257 133.011 -133.261C141.9 -146.24 151.029 -159.564 158.591 -173.647C159.134 -172.331 159.659 -171.017 160.181 -169.698C151.792 -152.995 140.749 -137.515 130.024 -122.48C124.237 -114.363 118.251 -105.974 112.772 -97.5152C107.124 -88.7999 102.135 -80.2207 97.7913 -71.7859C98.0347 -73.0675 98.3185 -74.3941 98.6212 -75.7349ZM95.5405 -68.8049C95.9564 -69.7843 96.3765 -70.7699 96.8132 -71.7531C96.6235 -70.7718 96.4442 -69.7924 96.2711 -68.8088C95.7652 -67.7914 95.2698 -66.776 94.7847 -65.7624C95.0246 -66.7636 95.2774 -67.7833 95.5405 -68.8049ZM93.1222 -62.8293C93.0423 -62.4651 92.9582 -62.0947 92.8844 -61.7263C92.7869 -61.5202 92.6895 -61.3142 92.5981 -61.1039C92.7632 -61.6827 92.9448 -62.2591 93.1222 -62.8293ZM93.9298 -62.0134C94.5457 -63.3466 95.1824 -64.6836 95.8339 -66.0287C95.6473 -64.7898 95.4773 -63.5485 95.3239 -62.3048C94.5873 -60.955 93.8715 -59.6089 93.1723 -58.2606C93.4048 -59.5132 93.6599 -60.7593 93.9298 -62.0134ZM91.0666 -55.5802C91.4258 -56.4256 91.7912 -57.2668 92.1609 -58.1141C91.9869 -57.1948 91.8338 -56.2794 91.6807 -55.3639C91.2248 -54.4579 90.7731 -53.558 90.3338 -52.6496C90.5689 -53.6176 90.8126 -54.598 91.0666 -55.5802ZM88.0433 -48.0905C88.2885 -48.7322 88.5337 -49.374 88.785 -50.0114C88.7009 -49.6411 88.6228 -49.2665 88.5491 -48.898C88.3042 -48.3747 88.055 -47.8452 87.8144 -47.328C87.8817 -47.5823 87.9656 -47.8343 88.0433 -48.0905ZM89.5448 -49.1923C90.1145 -50.3934 90.6842 -51.5945 91.2852 -52.8012C91.0933 -51.5022 90.9222 -50.2069 90.7658 -48.9196C90.0682 -47.6522 89.3915 -46.3886 88.7208 -45.1207C88.9739 -46.4686 89.2459 -47.8307 89.5448 -49.1923ZM86.4226 -42.2547C86.8927 -43.3516 87.375 -44.44 87.8659 -45.5407C87.6666 -44.4931 87.4777 -43.4474 87.3034 -42.4097C86.7335 -41.3 86.174 -40.1922 85.631 -39.082C85.8824 -40.1391 86.1442 -41.1981 86.4226 -42.2547ZM83.9917 -36.379C84.0793 -36.6101 84.1731 -36.837 84.2668 -37.0639C84.1597 -36.5818 84.0587 -36.0954 83.962 -35.6151C83.7713 -35.2092 83.5848 -34.8095 83.3984 -34.4098C83.5921 -35.069 83.7876 -35.7179 83.9917 -36.379ZM82.0633 -29.6803C82.4786 -30.6328 82.9001 -31.581 83.3362 -32.5372C83.1139 -31.3778 82.9081 -30.2161 82.7171 -29.0624C82.1752 -28.0062 81.6333 -26.95 81.1079 -25.8915C81.4151 -27.147 81.7266 -28.4087 82.0633 -29.6803ZM79.2652 -22.974C79.5098 -23.5887 79.7606 -24.1992 80.0096 -24.8201C79.8394 -24.0898 79.6735 -23.3656 79.5241 -22.6391C79.1908 -21.9491 78.8636 -21.2548 78.5407 -20.5666C78.7787 -21.3684 79.0125 -22.1641 79.2652 -22.974ZM77.3439 -16.325C77.861 -17.4896 78.3885 -18.6561 78.9307 -19.8307C78.6859 -18.5865 78.462 -17.3462 78.2485 -16.1077C77.6078 -14.8829 76.9756 -13.6704 76.3661 -12.4514C76.6739 -13.7339 76.9964 -15.0245 77.3439 -16.325ZM74.5255 -9.64177C74.8225 -10.3844 75.1238 -11.1332 75.4313 -11.8777C75.2344 -11.0565 75.0479 -10.2371 74.8675 -9.41353C74.4909 -8.63492 74.1143 -7.85628 73.7439 -7.0734C73.9996 -7.92684 74.2595 -8.78643 74.5255 -9.64177ZM72.592 -3.00132C73.1438 -4.24219 73.7122 -5.48073 74.3014 -6.72303C74.0428 -5.40642 73.7988 -4.09784 73.5775 -2.78263C72.8855 -1.48396 72.2101 -0.18293 71.5493 1.11005C71.8838 -0.2634 72.2244 -1.6326 72.592 -3.00132ZM69.7448 3.671C70.0851 2.8398 70.4296 2.00244 70.7803 1.16935C70.5586 2.09193 70.3472 3.01263 70.1402 3.92716C69.7032 4.81897 69.2706 5.70464 68.8544 6.59269C69.1416 5.61515 69.4411 4.64617 69.7448 3.671ZM69.6267 6.37141C69.3394 7.76852 69.0834 9.15997 68.8379 10.5495C68.0965 11.9325 67.3802 13.3055 66.67 14.6828C67.0184 13.2369 67.3876 11.7872 67.788 10.3318C68.385 9.01276 68.9923 7.69186 69.6267 6.37141ZM64.8925 17.0344C65.2979 16.0569 65.7034 15.0793 66.1297 14.098C65.8745 15.1343 65.6341 16.1624 65.404 17.1887C64.8854 18.2245 64.3875 19.2566 63.8897 20.2886C64.2121 19.2078 64.5449 18.1252 64.8925 17.0344ZM64.8999 19.4753C64.5902 20.9572 64.3056 22.4292 64.048 23.9016C63.2511 25.3646 62.4707 26.83 61.7111 28.2916C62.0881 26.7651 62.4816 25.2411 62.9002 23.7071C63.5508 22.2976 64.218 20.8905 64.8999 19.4753ZM59.9563 30.44C60.3813 29.4213 60.8166 28.4006 61.2624 27.3781C60.983 28.4887 60.7201 29.6017 60.4676 30.7128C59.9081 31.8206 59.3608 32.9369 58.8221 34.0409C59.1883 32.8446 59.565 31.6463 59.9563 30.44ZM60.0131 32.7966C59.6877 34.3405 59.3788 35.8868 59.1055 37.4213C58.2701 38.9397 57.445 40.4563 56.6513 41.9672C57.0464 40.3621 57.4685 38.7575 57.9218 37.1473C58.5981 35.7008 59.2952 34.2506 60.0131 32.7966ZM57.253 37.2852C57.2348 37.3638 57.2105 37.4381 57.1819 37.5187C57.1429 37.6011 57.1082 37.6773 57.0692 37.7597C57.1325 37.603 57.1958 37.4462 57.253 37.2852ZM54.9125 43.9352C55.3936 42.8094 55.8746 41.6836 56.3765 40.554C56.0636 41.7783 55.7612 43.0006 55.4796 44.2192C54.8597 45.4402 54.2503 46.6593 53.6469 47.8827C54.0508 46.5665 54.4713 45.2527 54.9125 43.9352ZM52.3847 50.1996C52.3064 50.4829 52.2178 50.768 52.1352 51.0573C51.9945 51.3519 51.8598 51.6508 51.7252 51.9497C51.9381 51.3676 52.1614 50.7836 52.3847 50.1996ZM49.7427 57.507C50.2737 56.2699 50.8213 55.0352 51.3792 53.7986C51.0159 55.1612 50.6795 56.5242 50.3536 57.8853C49.6739 59.1925 48.9942 60.4997 48.3476 61.8117C48.7953 60.3799 49.2638 58.9444 49.7427 57.507ZM47.3771 63.2363C47.2235 63.7592 47.0637 64.2778 46.9144 64.7945C46.6847 65.2828 46.4427 65.7626 46.2173 66.2447C46.5963 65.2397 46.9815 64.239 47.3771 63.2363ZM44.363 71.4076C44.9763 69.9995 45.5895 68.5915 46.2463 67.1862C45.8482 68.625 45.4814 70.0582 45.1312 71.4937C44.3593 72.9467 43.6353 74.3965 42.9008 75.8481C43.3619 74.371 43.8542 72.8881 44.363 71.4076ZM42.1523 76.6515C41.9682 77.2444 41.7841 77.8374 41.6105 78.4284C41.2729 79.1246 40.9519 79.8232 40.6247 80.5176C41.1133 79.2236 41.6306 77.9406 42.1523 76.6515ZM38.9013 85.1509C39.5487 83.6936 40.2293 82.241 40.9202 80.7865C40.4936 82.3058 40.0878 83.8214 39.7029 85.3331C38.8968 86.8355 38.0969 88.3421 37.3283 89.843C37.8387 88.2815 38.3492 86.72 38.9013 85.1509ZM36.9879 89.5338C36.6938 90.4426 36.404 91.3453 36.1264 92.2566C35.6985 93.1091 35.2707 93.9616 34.8594 94.8165C35.544 93.0565 36.2451 91.2989 36.9879 89.5338ZM33.3927 98.7522C34.1042 97.2025 34.8219 95.6571 35.5812 94.1041C35.0937 95.7636 34.6227 97.4255 34.1872 99.0755C33.2957 100.701 32.4312 102.327 31.5833 103.955C32.149 102.222 32.7583 100.492 33.3927 98.7522ZM31.4461 103.13C31.1021 104.15 30.758 105.171 30.4306 106.193C29.9143 107.212 29.398 108.232 28.9026 109.247C29.7151 107.211 30.5588 105.169 31.4461 103.13ZM24.6204 120.032C23.9882 121.245 23.3726 122.46 22.7674 123.672C23.7364 121.28 24.749 118.89 25.8198 116.495C25.402 117.674 25.0112 118.853 24.6204 120.032ZM28.3939 113.008C28.3872 113.031 28.3806 113.054 28.3739 113.077C27.4122 114.79 26.4835 116.508 25.5757 118.223C26.1818 116.445 26.8296 114.66 27.5 112.881C28.2714 111.245 29.0635 109.605 29.8827 107.966C29.3615 109.648 28.8612 111.326 28.3939 113.008ZM32.4868 105.996C31.36 107.869 30.2706 109.74 29.204 111.618C29.7617 109.661 30.3526 107.708 30.9809 105.754C31.9135 103.938 32.8732 102.123 33.8536 100.304C33.6353 101.156 33.3962 102.011 33.1884 102.862C32.9455 103.906 32.7131 104.949 32.4868 105.996ZM36.8603 98.9601C35.9993 100.306 35.1383 101.651 34.3103 103.002C33.9308 103.614 33.5636 104.235 33.1841 104.847C33.3295 104.218 33.4644 103.591 33.6097 102.962C33.949 101.556 34.3257 100.148 34.7066 98.7335C35.7506 96.849 36.8197 94.9545 37.9281 93.069C37.5364 95.023 37.1797 96.9923 36.8603 98.9601ZM41.503 91.9556C40.1308 93.959 38.8021 95.9653 37.5047 97.966C37.7984 96.2449 38.1086 94.5262 38.4643 92.8208C38.5289 92.4916 38.6101 92.1648 38.6748 91.8356C39.8387 89.8701 41.04 87.9031 42.2725 85.9305C41.9753 87.9319 41.7174 89.9423 41.503 91.9556ZM46.4153 84.9557C44.9408 86.9886 43.5099 89.0243 42.1102 91.0542C42.3447 88.9728 42.6392 86.8965 42.9668 84.825C44.2373 82.8239 45.539 80.8171 46.8738 78.8151C46.6876 80.8662 46.5223 82.9136 46.4153 84.9557ZM51.6456 77.9303C50.0732 79.9863 48.5339 82.0471 47.0381 84.1108C47.1585 82.0232 47.3248 79.9218 47.5366 77.8337C48.905 75.8094 50.3047 73.7794 51.7418 71.748C51.6611 73.8176 51.6264 75.8735 51.6456 77.9303ZM57.1413 70.9157C55.4752 72.9888 53.8421 75.0667 52.2465 77.1431C52.2425 75.0513 52.274 72.9476 52.3699 70.8429C53.832 68.8016 55.3255 66.7545 56.8624 64.7103C56.8897 66.1524 56.9439 67.5949 57.0129 69.0294C57.0502 69.6574 57.104 70.2877 57.1413 70.9157ZM62.9318 63.8958C61.1658 65.9818 59.4391 68.0767 57.7497 70.1701C57.7284 69.7813 57.6948 69.384 57.6735 68.9952C57.5829 67.2903 57.5402 65.5821 57.5182 63.8701C59.0741 61.8116 60.6778 59.7499 62.3042 57.6948C62.3367 58.1461 62.3588 58.5993 62.4017 59.0487C62.5355 60.6651 62.7233 62.2823 62.9318 63.8958ZM69.0049 56.8622C67.1451 58.9652 65.3228 61.0668 63.5335 63.1731C63.3642 61.7784 63.2095 60.3756 63.0879 58.9776C63.0229 58.2847 62.9891 57.5862 62.9344 56.8914C64.584 54.816 66.2729 52.7495 67.9991 50.6815C68.2837 52.7492 68.61 54.8092 69.0049 56.8622ZM75.3868 49.8423C74.2033 51.1283 73.0031 52.4118 71.8361 53.7001C71.0913 54.5243 70.3569 55.3465 69.6183 56.1749C69.2301 54.0993 68.9086 52.0061 68.6307 49.9157C70.3801 47.8274 72.1627 45.7438 73.9845 43.6692C74.4021 45.7288 74.8632 47.7913 75.3868 49.8423ZM82.0889 42.6888C80.0479 44.8301 78.0314 46.9886 76.0253 49.1451C75.5041 47.0775 75.0412 45.0046 74.6302 42.9223C74.8215 42.6992 75.0084 42.4823 75.2057 42.2635C76.8681 40.3793 78.5698 38.5041 80.2776 36.6332C80.8287 38.6577 81.4318 40.6728 82.0889 42.6888ZM89.0292 35.4542C86.9233 37.6236 84.8254 39.8076 82.7397 42.0001C82.0912 39.9718 81.48 37.9421 80.9417 35.8991C82.8976 33.7625 84.8719 31.6386 86.8584 29.5233C87.5265 31.5104 88.257 33.4861 89.0292 35.4542ZM96.1965 28.0762C94.0441 30.2862 91.8727 32.5105 89.6947 34.7575C88.9206 32.779 88.1986 30.7909 87.5391 28.7915C89.585 26.617 91.6431 24.451 93.6988 22.3016C94.4759 24.2366 95.3111 26.1663 96.1965 28.0762ZM103.543 20.5309C101.325 22.8229 99.0987 25.1002 96.8785 27.3818C95.9955 25.4554 95.1707 23.5237 94.3961 21.5721C96.117 19.7742 97.8378 17.9762 99.5459 16.1967C99.9486 15.7737 100.357 15.355 100.76 14.932C101.64 16.8107 102.555 18.6774 103.543 20.5309ZM111.054 12.6977C108.792 15.0782 106.523 17.4441 104.245 19.7953C103.267 17.9399 102.34 16.0646 101.464 14.1799C103.647 11.8997 105.834 9.61341 108.015 7.32284C108.99 9.13041 109.989 10.928 111.054 12.6977ZM164.371 -64.6807C153.693 -35.2537 133.413 -10.9213 111.779 11.9417C110.718 10.1659 109.719 8.36832 108.75 6.56502C131.363 -17.2885 153.309 -42.4352 164.601 -73.2328C168.92 -85.0144 171.562 -97.4213 172.471 -109.927C172.347 -94.5411 169.621 -79.1547 164.371 -64.6807ZM172.436 -114.439C171.885 -100.444 169.153 -86.5039 164.319 -73.3374C153.055 -42.6204 131.171 -17.5224 108.598 6.28609C107.632 4.4662 106.708 2.63876 105.844 0.789513C129.19 -24.015 152.724 -49.8653 164.593 -81.8867C168.689 -92.9285 171.292 -104.532 172.37 -116.246C172.398 -115.643 172.419 -115.044 172.436 -114.439ZM164.272 -82.0003C152.442 -50.0883 128.979 -24.2887 105.688 0.462772C104.823 -1.39691 104.024 -3.27411 103.271 -5.16506C103.988 -5.93567 104.694 -6.70439 105.406 -7.46886C128.578 -32.4945 152.537 -58.3789 164.593 -90.5259C168.297 -100.399 170.808 -110.743 172.095 -121.198C172.153 -120.429 172.214 -119.665 172.266 -118.9C171.347 -106.328 168.666 -93.8387 164.272 -82.0003ZM172.486 -123.071C172.453 -122.291 172.415 -121.515 172.371 -120.743C172.324 -121.332 172.288 -121.922 172.242 -122.511C172.313 -123.164 172.38 -123.811 172.441 -124.462C172.46 -123.992 172.478 -123.533 172.486 -123.071ZM172.309 -127.354C172.232 -126.377 172.148 -125.404 172.054 -124.429C171.976 -125.222 171.903 -126.021 171.809 -126.816C171.809 -126.843 171.8 -126.868 171.8 -126.895C171.932 -127.78 172.062 -128.675 172.177 -129.562C172.227 -128.834 172.268 -128.094 172.309 -127.354ZM172.565 -131.564C172.538 -130.908 172.506 -130.246 172.468 -129.588C172.43 -130.071 172.381 -130.551 172.343 -131.034C172.413 -131.606 172.48 -132.189 172.54 -132.759C172.552 -132.358 172.559 -131.961 172.565 -131.564ZM172.397 -135.896C172.324 -134.979 172.248 -134.056 172.155 -133.135C172.139 -133.283 172.129 -133.426 172.114 -133.574C172.049 -134.176 171.961 -134.784 171.89 -135.389C172.024 -136.237 172.151 -137.088 172.257 -137.936C172.308 -137.262 172.36 -136.578 172.397 -135.896ZM172.674 -140.137C172.644 -139.556 172.603 -138.973 172.573 -138.392C172.537 -138.799 172.512 -139.209 172.477 -139.617C172.532 -140.089 172.591 -140.568 172.646 -141.041C172.653 -140.735 172.663 -140.436 172.674 -140.137ZM172.501 -144.463C172.43 -143.6 172.342 -142.739 172.254 -141.879C172.181 -142.586 172.108 -143.294 172.025 -143.999C172.155 -144.803 172.275 -145.605 172.388 -146.411C172.425 -145.756 172.466 -145.107 172.501 -144.463ZM172.785 -148.726C172.761 -148.232 172.742 -147.734 172.708 -147.238C172.685 -147.546 172.645 -147.856 172.622 -148.164C172.674 -148.593 172.716 -149.02 172.768 -149.449C172.784 -149.21 172.779 -148.967 172.785 -148.726ZM172.6 -153.835C172.616 -153.596 172.622 -153.355 172.634 -153.11C172.559 -152.295 172.481 -151.474 172.396 -150.657C172.328 -151.306 172.254 -151.959 172.18 -152.613C172.304 -153.357 172.413 -154.102 172.527 -154.844C172.549 -154.509 172.584 -154.166 172.6 -153.835ZM172.954 -157.412C172.928 -156.956 172.896 -156.504 172.86 -156.045C172.839 -156.316 172.819 -156.576 172.803 -156.842C172.848 -157.194 172.898 -157.542 172.938 -157.888C172.946 -157.728 172.953 -157.568 172.954 -157.412ZM172.8 -161.688C172.729 -160.943 172.646 -160.208 172.559 -159.465C172.496 -160.083 172.428 -160.706 172.359 -161.328C172.479 -162.011 172.594 -162.689 172.703 -163.37C172.74 -162.807 172.776 -162.243 172.8 -161.688ZM173.141 -166.059C173.119 -165.7 173.103 -165.337 173.075 -164.982C173.058 -165.167 173.04 -165.363 173.029 -165.544C173.067 -165.809 173.104 -166.084 173.142 -166.35C173.138 -166.252 173.138 -166.161 173.141 -166.059ZM172.499 -166.13C172.379 -165.237 172.239 -164.34 172.103 -163.449C172 -164.232 171.887 -165.013 171.778 -165.8C171.963 -166.657 172.138 -167.512 172.301 -168.375C172.371 -167.624 172.435 -166.877 172.499 -166.13ZM173.004 -170.45C172.936 -169.749 172.858 -169.047 172.773 -168.348C172.72 -168.887 172.66 -169.43 172.594 -169.978C172.709 -170.628 172.819 -171.272 172.923 -171.92C172.957 -171.432 172.98 -170.941 173.004 -170.45ZM173.376 -174.735C173.356 -174.457 173.329 -174.184 173.309 -173.906C173.301 -174.012 173.293 -174.118 173.284 -174.224C173.313 -174.423 173.342 -174.622 173.371 -174.821C173.375 -174.8 173.376 -174.762 173.376 -174.735ZM172.727 -174.876C172.604 -174.003 172.47 -173.129 172.33 -172.259C172.234 -173.037 172.121 -173.818 172.012 -174.606C172.192 -175.429 172.368 -176.247 172.528 -177.066C172.594 -176.336 172.667 -175.602 172.727 -174.876ZM173.261 -179.093C173.192 -178.457 173.107 -177.823 173.032 -177.19C172.977 -177.74 172.927 -178.285 172.866 -178.839C172.977 -179.418 173.088 -179.998 173.189 -180.576C173.219 -180.081 173.238 -179.584 173.261 -179.093ZM173.609 -182.912C173.604 -182.97 173.601 -183.018 173.596 -183.076C173.606 -183.169 173.626 -183.264 173.643 -183.353C173.636 -183.212 173.625 -183.065 173.609 -182.912ZM172.993 -183.676C172.867 -182.852 172.736 -182.021 172.589 -181.193C172.491 -181.982 172.396 -182.777 172.286 -183.574C172.463 -184.354 172.651 -185.136 172.818 -185.914C172.888 -185.163 172.94 -184.425 172.993 -183.676ZM173.577 -188.07C173.504 -187.454 173.432 -186.838 173.353 -186.227C173.308 -186.751 173.246 -187.278 173.194 -187.806C173.305 -188.359 173.415 -188.912 173.521 -189.458C173.535 -188.993 173.559 -188.529 173.577 -188.07ZM173.984 -192.066C173.985 -192.093 173.979 -192.124 173.98 -192.151C173.987 -192.201 173.994 -192.25 174.001 -192.3C174 -192.219 173.992 -192.142 173.984 -192.066ZM173.328 -192.758C173.191 -191.932 173.071 -191.103 172.917 -190.279C172.83 -191.005 172.726 -191.734 172.623 -192.463C172.815 -193.251 172.98 -194.04 173.162 -194.826C173.22 -194.137 173.275 -193.443 173.328 -192.758ZM172.324 -194.668C172.194 -195.543 172.037 -196.418 171.887 -197.289C172.141 -198.18 172.397 -199.06 172.635 -199.953C172.736 -199.09 172.831 -198.23 172.915 -197.369C172.733 -196.464 172.529 -195.566 172.324 -194.668ZM173.955 -197.058C173.879 -196.49 173.81 -195.918 173.734 -195.35C173.714 -195.583 173.698 -195.822 173.682 -196.061C173.66 -196.305 173.627 -196.546 173.601 -196.783C173.707 -197.303 173.825 -197.814 173.925 -198.338C173.937 -197.91 173.943 -197.486 173.955 -197.058ZM173.727 -202.197C173.737 -202.053 173.741 -201.914 173.75 -201.77C173.614 -200.971 173.467 -200.17 173.314 -199.372C173.231 -200.105 173.148 -200.838 173.055 -201.568C173.244 -202.313 173.429 -203.051 173.604 -203.788C173.639 -203.262 173.697 -202.729 173.727 -202.197ZM174.429 -206.171C174.356 -205.619 174.272 -205.066 174.193 -204.519C174.156 -204.964 174.124 -205.416 174.087 -205.861C174.201 -206.366 174.298 -206.873 174.412 -207.378C174.418 -206.981 174.427 -206.574 174.429 -206.171ZM173.382 -206.523C173.177 -205.598 172.966 -204.678 172.744 -203.755C172.616 -204.646 172.489 -205.538 172.345 -206.431C172.607 -207.307 172.865 -208.177 173.113 -209.046C173.204 -208.207 173.306 -207.37 173.382 -206.523ZM174.258 -210.814C174.117 -210.073 173.965 -209.33 173.813 -208.587C173.738 -209.305 173.657 -210.027 173.576 -210.749C173.771 -211.462 173.97 -212.182 174.152 -212.903C174.203 -212.203 174.224 -211.513 174.258 -210.814ZM175.031 -215.258C175.007 -215.093 174.983 -214.927 174.959 -214.761C174.905 -214.434 174.84 -214.105 174.786 -213.777C174.753 -214.202 174.716 -214.62 174.683 -215.044C174.789 -215.499 174.912 -215.952 175.015 -216.401C175.018 -216.025 175.027 -215.645 175.031 -215.258ZM173.927 -215.66C173.715 -214.776 173.508 -213.889 173.281 -212.998C173.164 -213.891 173.036 -214.782 172.909 -215.673C173.185 -216.531 173.445 -217.39 173.705 -218.25C173.789 -217.388 173.857 -216.529 173.927 -215.66ZM174.918 -220.09C174.766 -219.347 174.608 -218.608 174.446 -217.863C174.377 -218.55 174.291 -219.239 174.211 -219.923C174.421 -220.645 174.614 -221.368 174.819 -222.084C174.851 -221.422 174.89 -220.757 174.918 -220.09ZM175.778 -224.711C175.689 -224.189 175.601 -223.657 175.506 -223.139C175.479 -223.532 175.457 -223.921 175.43 -224.314C175.547 -224.771 175.653 -225.226 175.77 -225.684C175.768 -225.366 175.778 -225.039 175.778 -224.711ZM174.641 -224.935C174.414 -224.07 174.177 -223.204 173.94 -222.338C173.831 -223.216 173.701 -224.091 173.575 -224.972C173.864 -225.821 174.163 -226.671 174.437 -227.512C174.509 -226.659 174.573 -225.794 174.641 -224.935ZM175.718 -229.396C175.636 -229.043 175.571 -228.686 175.489 -228.333C175.396 -227.95 175.293 -227.565 175.201 -227.183C175.138 -227.892 175.075 -228.602 175.006 -229.315C175.226 -230.012 175.451 -230.704 175.66 -231.398C175.69 -230.72 175.702 -230.055 175.718 -229.396ZM176.688 -233.85C176.603 -233.398 176.49 -232.947 176.398 -232.5C176.383 -232.885 176.355 -233.278 176.33 -233.661C176.441 -234.058 176.57 -234.452 176.681 -234.849C176.692 -234.878 176.697 -234.911 176.708 -234.94C176.697 -234.583 176.698 -234.217 176.688 -233.85ZM175.514 -234.282C175.271 -233.42 175.017 -232.556 174.753 -231.69C174.65 -232.591 174.542 -233.497 174.425 -234.39C174.742 -235.228 175.037 -236.072 175.343 -236.918C175.404 -236.037 175.459 -235.159 175.514 -234.282ZM176.713 -238.749C176.525 -238.032 176.336 -237.314 176.148 -236.597C176.095 -237.308 176.039 -238.013 175.98 -238.729C176.216 -239.396 176.461 -240.065 176.685 -240.74C176.702 -240.071 176.708 -239.41 176.713 -238.749ZM177.803 -243.23C177.701 -242.781 177.594 -242.326 177.492 -241.877C177.479 -242.278 177.46 -242.683 177.447 -243.084C177.586 -243.508 177.721 -243.925 177.86 -244.348C177.836 -243.973 177.817 -243.603 177.803 -243.23Z" fill="#161716" fill-opacity="0.5"/>
</svg>
