<svg width="212" height="277" viewBox="0 0 212 277" fill="none" xmlns="http://www.w3.org/2000/svg">
<path opacity="0.7" d="M151.861 -471.708C166.349 -459.966 176.284 -442.635 180.586 -421.605C183.508 -407.317 183.73 -391.59 181.321 -376.111C182.045 -388.088 181.313 -400.273 179.13 -412.152C174.663 -436.562 164.285 -458.041 149.906 -472.627L149.22 -471.953C163.463 -457.499 173.749 -436.202 178.182 -411.979C180.923 -397.077 181.349 -381.684 179.485 -366.831C179.94 -380.335 178.651 -394.458 175.631 -408.486C170.393 -432.993 160.069 -456.424 147.307 -472.761L146.586 -472.194C159.265 -455.96 169.528 -432.663 174.736 -408.286C178.121 -392.554 179.316 -376.709 178.307 -361.764C178.262 -361.595 178.221 -361.431 178.176 -361.262C178.116 -361.03 178.039 -360.801 177.978 -360.569C177.859 -374.518 175.909 -389.327 172.135 -404.8C166.251 -429.108 156.253 -453.927 144.698 -472.883L143.953 -472.425C155.457 -453.54 165.417 -428.811 171.28 -404.59C175.309 -388.056 177.253 -372.293 177.093 -357.525C176.886 -356.82 176.685 -356.111 176.472 -355.411C175.712 -369.431 173.112 -384.536 168.628 -401.122C160.553 -431.229 148.526 -459.088 142.078 -473.014L141.324 -472.662C147.762 -458.761 159.765 -430.945 167.824 -400.895C172.524 -383.493 175.141 -367.729 175.738 -353.147C175.462 -352.29 175.191 -351.428 174.909 -350.575C173.519 -364.54 170.312 -379.847 165.132 -397.435C159.871 -415.418 153.25 -434.025 147.41 -450.44C144.529 -458.533 141.809 -466.177 139.464 -473.141L138.724 -472.888C141.071 -465.913 143.797 -458.265 146.678 -450.172C152.517 -433.768 159.131 -415.165 164.389 -397.203C169.767 -378.957 173.022 -363.169 174.305 -348.814C173.975 -347.866 173.639 -346.923 173.292 -345.977C170.895 -362.949 166.236 -379.282 161.641 -393.755C158.85 -402.607 155.804 -411.709 152.85 -420.509C146.42 -439.705 140.352 -457.837 136.84 -473.292L136.116 -473.129C139.634 -457.642 145.716 -439.491 152.15 -420.274C155.098 -411.478 158.144 -402.376 160.933 -393.535C165.647 -378.696 170.422 -361.9 172.743 -344.479C172.373 -343.486 171.975 -342.494 171.588 -341.504C168.483 -358.647 163.175 -375.212 158.138 -390.083C156.915 -393.723 155.667 -397.391 154.41 -401.073C145.833 -426.273 136.966 -452.341 134.199 -473.447L133.533 -473.379C136.303 -452.199 145.18 -426.106 153.769 -400.87C155.025 -397.188 156.27 -393.514 157.497 -389.881C162.637 -374.7 168.044 -357.766 171.118 -340.261C170.698 -339.211 170.273 -338.166 169.841 -337.124C166.324 -353.176 160.821 -369.264 154.664 -386.428C144.399 -415.227 132.76 -447.88 131.59 -473.633L130.94 -473.601C132.112 -447.746 143.769 -415.053 154.047 -386.208C160.307 -368.746 165.899 -352.394 169.399 -336.081C168.928 -334.957 168.456 -333.843 167.973 -332.728C163.706 -349.482 157.494 -365.991 151.401 -382.133L151.166 -382.752C129.838 -439.618 128.515 -459.566 128.952 -473.804L128.346 -473.823C127.966 -461.489 130.102 -446.961 134.874 -429.4C139.141 -413.694 144.957 -397.598 150.602 -382.542L150.837 -381.923C157.008 -365.552 163.305 -348.812 167.58 -331.833C167.08 -330.693 166.584 -329.559 166.065 -328.432C161.618 -343.852 155.618 -359.027 149.741 -373.88L147.686 -379.073C126.046 -434.194 124.739 -457.98 126.324 -473.976L125.767 -474.026C124.468 -460.932 126.103 -445.695 130.77 -427.458C135.227 -410.034 141.868 -392.334 147.159 -378.865L149.213 -373.671C155.167 -358.638 161.248 -343.279 165.708 -327.668C165.17 -326.499 164.626 -325.335 164.069 -324.18C159.486 -338.499 153.657 -352.57 147.933 -366.359C146.683 -369.369 145.434 -372.38 144.195 -375.393C132.035 -405.106 118.723 -443.189 123.694 -474.159L123.185 -474.239C120.961 -460.402 122.107 -444.472 126.668 -425.533C130.136 -411.14 135.557 -395.144 143.714 -375.198C144.953 -372.185 146.202 -369.174 147.458 -366.159C153.25 -352.205 159.15 -337.975 163.753 -323.487C163.19 -322.309 162.604 -321.137 162.018 -319.965C157.342 -333.337 151.639 -346.463 146.038 -359.354C144.28 -363.402 142.458 -367.594 140.704 -371.713C115.847 -430.234 117.589 -458.308 121.054 -474.34L120.595 -474.44C117.424 -459.855 118.066 -443.226 122.535 -423.576C126.004 -408.333 131.632 -391.783 140.247 -371.501C142.008 -367.378 143.823 -363.19 145.587 -359.137C151.248 -346.123 157.008 -332.857 161.709 -319.35C161.108 -318.143 160.497 -316.934 159.884 -315.736C155.139 -328.288 149.559 -340.608 144.062 -352.706C141.788 -357.714 139.434 -362.897 137.191 -368.002C124.577 -396.707 108.907 -438.981 118.397 -474.497L117.984 -474.61C108.454 -438.958 124.156 -396.598 136.798 -367.828C139.047 -362.718 141.401 -357.536 143.675 -352.528C149.219 -340.315 154.851 -327.886 159.616 -315.219C158.986 -313.996 158.356 -312.773 157.713 -311.559C152.933 -323.379 147.449 -334.984 142.054 -346.391C139.276 -352.26 136.413 -358.334 133.69 -364.32C124.263 -385.111 118.048 -403.254 114.688 -419.781C110.465 -440.519 110.831 -458.993 115.755 -474.688L115.39 -474.805C110.44 -459.046 110.081 -440.502 114.315 -419.702C117.681 -403.144 123.906 -384.976 133.342 -364.16C136.061 -358.167 138.935 -352.095 141.707 -346.231C147.139 -334.734 152.671 -323.041 157.474 -311.123C156.816 -309.873 156.152 -308.628 155.482 -307.387C150.685 -318.553 145.31 -329.517 140.01 -340.311C136.747 -346.963 133.369 -353.842 130.194 -360.633C108.151 -407.896 102.56 -445.266 113.119 -474.875L112.797 -474.989C102.205 -445.293 107.801 -407.838 129.892 -360.487C133.067 -353.695 136.447 -346.806 139.71 -340.154C145.044 -329.291 150.454 -318.248 155.277 -307C154.594 -305.741 153.905 -304.486 153.216 -303.231C148.419 -313.794 143.15 -324.174 137.952 -334.396C134.199 -341.771 130.319 -349.408 126.705 -356.943C116.301 -378.659 109.646 -397.937 106.382 -415.875C102.335 -438.059 103.712 -457.977 110.483 -475.063L110.211 -475.169C103.422 -458.032 102.034 -438.059 106.097 -415.817C109.37 -397.855 116.029 -378.555 126.449 -356.81C130.065 -349.265 133.943 -341.638 137.698 -334.253C142.928 -323.973 148.235 -313.529 153.05 -302.899C152.344 -301.62 151.625 -300.348 150.907 -299.077C146.144 -309.087 140.978 -318.922 135.865 -328.637C131.637 -336.689 127.258 -345.01 123.218 -353.242C112.313 -375.442 105.453 -395.291 102.228 -413.914C98.2705 -436.83 100.153 -457.463 107.847 -475.25L107.613 -475.358C99.8989 -457.53 98.0094 -436.847 101.976 -413.878C105.201 -395.229 112.068 -375.365 122.983 -353.14C127.03 -344.904 131.404 -336.577 135.633 -328.524C140.771 -318.755 145.958 -308.87 150.74 -298.81C146.717 -291.676 142.582 -284.63 138.473 -277.647C133.825 -269.743 129.02 -261.574 124.505 -253.468C116.159 -238.479 106.595 -219.546 100.314 -198.735C98.3766 -193.676 96.7007 -188.717 95.2653 -183.857C93.7773 -179.89 92.4521 -175.975 91.2795 -172.109C89.3408 -167.087 87.6465 -162.141 86.2149 -157.26C84.7232 -153.314 83.3857 -149.407 82.2026 -145.539C80.4512 -141.062 78.9019 -136.627 77.5505 -132.229C75.7388 -127.638 74.1457 -123.088 72.7567 -118.569C71.0697 -114.303 69.5616 -110.058 68.2366 -105.842C66.3704 -101.225 64.7082 -96.6409 63.2665 -92.0857C61.4337 -87.583 59.7963 -83.0998 58.3586 -78.6422C56.4946 -74.1339 54.8278 -69.6345 53.3608 -65.1608C51.4502 -60.6117 49.737 -56.0717 48.2297 -51.553C46.2575 -46.9281 44.4764 -42.3165 42.9092 -37.7116C40.9149 -33.1204 39.1013 -28.5405 37.5015 -23.9673C35.4874 -19.4263 33.6602 -14.8924 32.0198 -10.3656C29.861 -5.64219 27.9159 -0.925473 26.164 3.78839C23.9835 8.45118 21.9814 13.1192 20.1912 17.77C15.1204 28.3545 10.9763 38.98 7.81077 49.5457C1.78643 69.6584 -0.814985 90.8694 0.29305 110.878C1.48204 132.448 6.77441 152.313 16.013 169.927C24.6525 186.359 37.0525 201.423 52.8771 214.686C67.1752 226.661 84.0004 236.987 102.902 245.37C138.785 261.286 177.885 268.971 215.688 276.404L215.741 276.158C177.944 268.729 138.86 261.046 103.006 245.141C84.1273 236.765 67.3162 226.458 53.0427 214.5C37.2383 201.26 24.8586 186.219 16.2418 169.794C7.01929 152.209 1.73867 132.38 0.550986 110.847C-0.55144 90.8699 2.04515 69.692 8.06282 49.6021C10.955 39.9414 14.672 30.2328 19.1583 20.5563C18.7569 21.6461 18.345 22.7378 17.9601 23.8299C16.1445 29.0287 14.5431 34.3123 13.1878 39.5295C2.36078 81.3508 7.25881 124.661 26.6338 158.359C35.7799 174.258 48.4859 188.75 64.4076 201.414C78.9196 212.963 95.8023 222.8 114.598 230.653C149.215 245.115 185.97 251.921 226.972 258.728L227.022 258.434C186.042 251.634 149.303 244.83 114.716 230.379C95.9486 222.536 79.0844 212.712 64.5969 201.18C48.7103 188.531 36.0221 174.079 26.9024 158.208C7.56559 124.573 2.67212 81.3479 13.4853 39.5991C14.832 34.3942 16.4291 29.1168 18.2466 23.9284C19.0188 21.7275 19.8388 19.5233 20.6962 17.3177C21.5359 15.5833 22.4007 13.8389 23.2883 12.1012C23.12 12.6321 22.929 13.1564 22.765 13.6812C21.131 18.933 19.7196 24.2573 18.571 29.5176C9.5437 70.7907 16.356 113.532 37.2754 146.788C46.9243 162.132 59.9346 176.041 75.9509 188.123C90.6811 199.24 107.627 208.592 126.324 215.92C162.261 230.013 201.337 236.057 238.279 241.032L238.321 240.696C201.4 235.718 162.343 229.686 126.444 215.602C107.781 208.279 90.8592 198.944 76.1597 187.849C60.1803 175.792 47.1983 161.921 37.5654 146.606C16.6964 113.422 9.89483 70.7698 18.9059 29.5858C20.0502 24.3316 21.4572 19.0135 23.0931 13.7721C23.4698 12.5738 23.8795 11.3803 24.277 10.1783C25.2542 8.3113 26.2584 6.44475 27.2896 4.57867C25.9605 9.52218 24.8334 14.5419 23.9457 19.518C16.6556 60.2543 25.384 102.437 47.9042 135.234C58.056 150.025 71.3705 163.351 87.4752 174.847C102.426 185.514 119.436 194.382 138.031 201.201C175.323 214.875 215.161 219.807 249.574 223.354L249.613 222.971C215.227 219.424 175.422 214.497 138.164 200.838C119.605 194.033 102.63 185.182 87.7035 174.531C71.6357 163.061 58.3537 149.766 48.226 135.02C25.7624 102.298 17.0484 60.2258 24.3283 19.5828C25.2745 14.2733 26.4896 8.90407 27.9372 3.63236C27.9754 3.48555 28.0259 3.34724 28.0641 3.20042C29.1741 1.23393 30.3049 -0.736351 31.481 -2.69338C30.6074 1.37107 29.8784 5.46296 29.3203 9.51838C23.6983 49.7519 34.3514 91.3638 58.5391 123.685C69.1877 137.917 82.8064 150.661 98.9995 161.571C114.171 171.789 131.245 180.171 149.742 186.476C186.616 199.048 226.606 203.237 260.867 205.666L260.898 205.241C226.669 202.806 186.713 198.632 149.884 186.073C131.427 179.778 114.384 171.417 99.2412 161.209C83.0849 150.326 69.5092 137.611 58.8847 123.423C34.7616 91.1923 24.1456 49.6974 29.7489 9.56948C30.3671 5.09967 31.1935 0.591939 32.185 -3.86514C32.6871 -4.69351 33.1831 -5.52615 33.6974 -6.346C34.4265 -7.52769 35.1765 -8.71319 35.9325 -9.89443C35.4301 -6.75826 35.0105 -3.61026 34.695 -0.481226C32.6726 19.5808 34.7168 39.6824 40.7805 59.2621C46.7565 78.562 56.3051 96.3454 69.1722 112.126C90.7659 138.615 123.537 159.788 161.452 171.751C199.766 183.835 240.742 186.774 272.155 187.984L272.173 187.513C240.783 186.309 199.85 183.373 161.592 171.301C123.767 159.364 91.0701 138.242 69.533 111.829C56.7064 96.0948 47.1838 78.3659 41.2294 59.1267C35.1873 39.6076 33.1439 19.5703 35.1609 -0.431548C35.5061 -3.9049 35.9867 -7.40289 36.5665 -10.8867C37.8792 -12.9223 39.2249 -14.9533 40.6123 -16.9918C40.3842 -14.8147 40.1893 -12.6328 40.0611 -10.4685C38.8176 9.55924 41.7685 29.5604 48.8486 48.9605C55.7298 67.8212 66.1395 85.1896 79.7968 100.579C102.431 126.093 135.591 146.141 173.155 157.038C190.93 162.194 220.03 168.952 271.359 170.135C275.256 170.222 279.289 170.284 283.443 170.302L283.447 169.785C255.261 169.628 213.166 168.093 173.296 156.534C135.819 145.669 102.748 125.675 80.1752 100.23C66.5646 84.8916 56.1808 67.5777 49.3316 48.7757C42.2732 29.4363 39.3311 9.51421 40.5754 -10.4492C40.7284 -12.9246 40.9483 -15.4176 41.2239 -17.8993C42.6345 -19.9582 44.0782 -22.0123 45.5697 -24.0698C45.5106 -22.8702 45.4637 -21.662 45.4358 -20.4681C44.9522 -0.460336 48.8141 19.4341 56.9209 38.6527C64.6945 57.0927 75.9696 74.04 90.436 89.0238C114.101 113.538 147.64 132.463 184.87 142.307C208.762 148.625 234.794 152.03 265.239 152.733C274.633 152.949 284.444 152.906 294.742 152.618L294.726 152.051C251.084 153.282 216.222 150.016 185.014 141.759C147.875 131.941 114.432 113.075 90.8381 88.6278C76.4227 73.6885 65.1858 56.8042 57.44 38.4291C49.3671 19.2797 45.514 -0.53572 45.996 -20.4625C46.0317 -21.943 46.0882 -23.4272 46.1717 -24.911C47.676 -26.9869 49.2282 -29.0662 50.8134 -31.1407C50.811 -30.9143 50.8086 -30.6879 50.8165 -30.4635C51.3463 8.78467 69.1971 47.1174 101.071 77.4748C125.742 100.972 159.665 118.767 196.587 127.587C217.282 132.534 239.747 135.27 264.555 135.838C277.701 136.139 291.503 135.838 306.051 134.932L306.018 134.325C264.08 136.941 228.331 134.546 196.734 126.995C159.913 118.2 126.094 100.451 101.497 77.0315C69.7349 46.7882 51.9538 8.60414 51.4269 -30.4777C51.4158 -30.9599 51.4255 -31.4458 51.4247 -31.9298C53.0289 -34.0185 54.6705 -36.1087 56.3391 -38.1984C58.9565 0.00804195 78.5499 36.9046 111.716 65.924C137.742 88.7015 171.148 104.933 208.304 112.866C226.333 116.711 245.361 118.869 265.742 119.338C282.025 119.709 299.172 119.019 317.356 117.253L317.294 116.608C276.417 120.579 240.813 119.143 208.443 112.233C171.389 104.325 138.093 88.1426 112.145 65.4371C78.9075 36.3499 59.3579 -0.662145 56.9432 -38.9377C58.6411 -41.0435 60.3721 -43.1446 62.1467 -45.2429C66.9534 -8.29032 88.1682 26.9124 122.353 54.3854C149.357 76.0812 183.126 91.2144 220.023 98.1555C235.347 101.036 251.513 102.676 268.422 103.062C287.604 103.502 307.736 102.339 328.661 99.5729L328.575 98.8839C289.284 104.084 252.804 103.608 220.159 97.4745C183.373 90.5561 149.709 75.4683 122.8 53.8469C88.5533 26.3313 67.3818 -8.96003 62.7606 -45.9571C64.5542 -48.0696 66.3851 -50.1834 68.2534 -52.2987C75.1515 -16.5769 97.8833 16.9511 133.011 42.8431C160.947 63.4438 195.089 77.4763 231.757 83.4371C244.705 85.5448 258.095 86.7544 271.895 87.0717C293.691 87.5741 316.463 85.8438 339.983 81.8956L339.862 81.1644C301.536 87.609 265.212 88.1269 231.879 82.7102C195.333 76.7702 161.301 62.7769 133.458 42.2506C98.3045 16.3311 75.6068 -17.2461 68.8772 -52.9879C69.6519 -53.8551 70.4309 -54.7286 71.216 -55.5977C72.347 -56.8472 73.511 -58.0919 74.6585 -59.3391C83.5586 -24.8369 107.706 7.0186 143.664 31.3069C172.497 50.7869 207.017 63.7231 243.486 68.7249C254.109 70.1855 264.945 71.0369 275.969 71.2893C300.292 71.8481 325.51 69.4895 351.298 64.2141L351.139 63.4469C313.754 71.0919 277.566 72.6071 243.595 67.952C207.241 62.9667 172.841 50.068 144.107 30.6562C108.136 6.35932 84.0433 -25.5223 75.2989 -60.0258C77.3031 -62.1928 79.33 -64.3531 81.3753 -66.5006C92.2485 -33.4389 118.171 -2.56825 154.316 19.7604C184.009 38.1046 218.898 49.9462 255.209 54.0085C263.527 54.9365 271.924 55.5004 280.395 55.6958C307.244 56.3111 334.794 53.2537 362.613 46.5325L362.42 45.7232C325.927 54.5345 289.891 57.0494 255.308 53.1835C219.113 49.1378 184.344 37.3335 154.759 19.0556C118.621 -3.26876 92.7607 -34.1508 82.0365 -67.1912C84.1369 -69.3918 86.2348 -71.5758 88.3389 -73.7555C101.021 -41.7923 128.14 -12.5543 164.967 8.21375C195.466 25.4108 230.727 36.1518 266.936 39.2858C272.714 39.7833 278.545 40.0988 284.426 40.2387C313.938 40.9233 344.541 37.0466 373.922 28.8467L373.69 28.0014C338.553 37.8085 301.668 41.4033 267.012 38.4168C230.923 35.2932 195.787 24.5939 165.395 7.45265C128.599 -13.2941 101.546 -42.5227 89.0001 -74.4461C91.1781 -76.6931 93.358 -78.9297 95.5147 -81.1459C109.9 -50.2353 138.153 -22.5645 175.619 -3.33283C206.867 12.7058 242.496 22.3522 278.658 24.559C282.138 24.7754 285.631 24.9194 289.141 25.0013C321.19 25.7405 354.192 21.002 385.23 11.1505L384.955 10.2753C350.63 21.1664 313.894 25.8045 278.713 23.6397C242.676 21.4372 207.166 11.8282 176.036 -4.15646C138.623 -23.3602 110.451 -51.0026 96.1991 -81.8569C98.4193 -84.1384 100.65 -86.4219 102.873 -88.7201C118.87 -58.8075 148.189 -32.622 186.268 -14.8898C218.212 -0.0107107 254.214 8.53508 290.383 9.82591C291.553 9.87122 292.72 9.90609 293.886 9.93054C328.559 10.73 363.979 5.05119 396.541 -6.55189L396.223 -7.4569C362.67 4.49867 326.103 10.1388 290.421 8.86689C254.38 7.57414 218.502 -0.940399 186.676 -15.7656C148.673 -33.4632 119.442 -59.6056 103.576 -89.4452C105.858 -91.8026 108.132 -94.1746 110.398 -96.5613C127.845 -67.6497 158.019 -42.814 196.92 -26.4364C229.149 -12.8734 263.758 -5.67718 298.535 -4.86969C335.696 -4.01233 373.049 -10.4573 407.857 -24.2335L407.489 -25.1725C340.349 1.39683 263.745 0.60827 197.314 -27.3581C158.501 -43.6926 128.432 -68.4828 111.118 -97.3111C132.785 -120.207 153.111 -144.58 163.819 -174.077C169.519 -189.79 172.252 -206.576 171.909 -223.281C172.038 -226.155 172.077 -229.03 172.014 -231.901C172.141 -234.733 172.176 -237.563 172.127 -240.389C172.269 -243.255 172.324 -246.127 172.273 -248.99C172.422 -251.852 172.474 -254.708 172.436 -257.562C172.597 -260.47 172.668 -263.377 172.638 -266.271C172.816 -269.149 172.888 -272.018 172.87 -274.877C173.067 -277.796 173.162 -280.713 173.154 -283.611C173.152 -283.648 173.149 -283.696 173.148 -283.734C173.304 -285.951 173.413 -288.166 173.454 -290.363C173.467 -291.011 173.462 -291.671 173.462 -292.328C173.585 -293.921 173.692 -295.517 173.761 -297.111C173.819 -298.466 173.842 -299.837 173.859 -301.211C173.937 -302.097 174.011 -302.977 174.068 -303.858C174.205 -305.971 174.289 -308.111 174.337 -310.276C174.349 -310.386 174.366 -310.502 174.379 -310.612C174.652 -313.497 174.823 -316.444 174.913 -319.419C175.243 -322.464 175.484 -325.564 175.623 -328.687C175.945 -331.237 176.204 -333.812 176.392 -336.391C176.428 -336.914 176.457 -337.441 176.486 -337.968C176.707 -339.493 176.912 -341.02 177.094 -342.554C177.277 -344.142 177.423 -345.756 177.553 -347.372C177.629 -347.821 177.727 -348.264 177.798 -348.707C178.212 -351.257 178.546 -353.862 178.818 -356.483C179.428 -359.526 179.948 -362.596 180.356 -365.688C184.74 -384.485 185.206 -404.231 181.613 -421.813C177.264 -443.077 167.208 -460.601 152.543 -472.493L151.861 -471.708ZM173.035 -342.434C173.162 -341.424 173.258 -340.409 173.364 -339.395C173.067 -338.443 172.76 -337.489 172.438 -336.526C172.282 -337.547 172.105 -338.564 171.932 -339.587C172.316 -340.533 172.673 -341.481 173.035 -342.434ZM171.439 -338.351C171.618 -337.259 171.785 -336.176 171.948 -335.087C171.602 -334.077 171.246 -333.066 170.885 -332.048C170.669 -333.165 170.453 -334.282 170.214 -335.406C170.629 -336.385 171.039 -337.369 171.439 -338.351ZM39.4564 -24.49C40.4582 -26.34 41.4869 -28.1894 42.5531 -30.0404C42.3495 -28.9866 42.1563 -27.9347 41.9735 -26.8848C41.8276 -26.019 41.694 -25.1448 41.5646 -24.2767C40.3583 -22.3679 39.1851 -20.4545 38.0449 -18.5363C38.4746 -20.5188 38.9416 -22.5027 39.4564 -24.49ZM37.2811 -17.2783C36.2136 -15.4648 35.1774 -13.657 34.1639 -11.8425C34.6893 -13.7403 35.2418 -15.6375 35.8358 -17.5424C36.7068 -19.2825 37.5986 -21.0264 38.5235 -22.7655C38.0781 -20.9308 37.664 -19.1017 37.2811 -17.2783ZM168.373 -317.298C167.955 -316.183 167.515 -315.065 167.07 -313.951C166.745 -315.161 166.406 -316.364 166.061 -317.571C166.552 -318.671 167.032 -319.77 167.498 -320.861C167.807 -319.68 168.1 -318.491 168.373 -317.298ZM167.868 -321.735C168.321 -322.807 168.764 -323.878 169.192 -324.94C169.441 -323.791 169.663 -322.643 169.885 -321.494C169.513 -320.421 169.118 -319.354 168.729 -318.282C168.453 -319.432 168.161 -320.583 167.868 -321.735ZM52.1731 -47.1013C52.3512 -48.7475 52.5647 -50.4056 52.7948 -52.0613C53.9681 -53.9747 55.1744 -55.8835 56.4077 -57.7917C56.3941 -57.6279 56.3804 -57.464 56.3668 -57.3001C56.24 -55.518 56.1524 -53.7269 56.0919 -51.9353C54.7165 -49.9796 53.3785 -48.0254 52.0736 -46.0665C52.1156 -46.4023 52.1391 -46.7508 52.1731 -47.1013ZM51.3803 -45.015C50.1158 -43.1011 48.88 -41.1763 47.6798 -39.2633C47.9888 -41.2292 48.3351 -43.1965 48.7169 -45.1757C49.7855 -47.0432 50.881 -48.9102 52.0096 -50.7725C51.8487 -49.5705 51.7044 -48.3662 51.5704 -47.1637C51.494 -46.4505 51.4402 -45.7306 51.3803 -45.015ZM164.82 -282.562C164.431 -283.798 164.028 -285.027 163.619 -286.259C163.643 -286.307 163.665 -286.364 163.689 -286.412C164.175 -287.506 164.623 -288.61 165.082 -289.705C165.45 -288.492 165.798 -287.275 166.141 -286.051C165.709 -284.891 165.283 -283.727 164.82 -282.562ZM166.497 -284.782C166.816 -283.603 167.118 -282.426 167.417 -281.243C167.047 -280.095 166.651 -278.947 166.248 -277.803C165.905 -278.999 165.54 -280.191 165.176 -281.384C165.636 -282.506 166.072 -283.645 166.497 -284.782ZM163.224 -287.446C162.792 -288.712 162.351 -289.977 161.899 -291.239C162.451 -292.389 162.986 -293.541 163.515 -294.697C163.922 -293.447 164.319 -292.196 164.709 -290.949C164.227 -289.77 163.73 -288.609 163.224 -287.446ZM165.316 -290.264C165.78 -291.392 166.218 -292.52 166.655 -293.649C166.972 -292.48 167.283 -291.316 167.569 -290.141C167.185 -288.985 166.784 -287.831 166.367 -286.679C166.029 -287.871 165.68 -289.071 165.316 -290.264ZM164.938 -291.502C164.554 -292.745 164.155 -293.979 163.746 -295.212C164.256 -296.354 164.754 -297.504 165.238 -298.647C165.595 -297.432 165.947 -296.221 166.284 -295.002C165.854 -293.831 165.407 -292.663 164.938 -291.502ZM165.509 -299.261C165.978 -300.368 166.417 -301.487 166.862 -302.6C167.175 -301.426 167.471 -300.253 167.757 -299.079C167.365 -297.937 166.967 -296.799 166.546 -295.668C166.209 -296.86 165.869 -298.062 165.509 -299.261ZM165.104 -300.564C164.726 -301.803 164.337 -303.039 163.932 -304.278C164.451 -305.405 164.959 -306.531 165.455 -307.664C165.812 -306.449 166.155 -305.226 166.488 -304.001C166.044 -302.849 165.577 -301.705 165.104 -300.564ZM164.85 -299.937C164.36 -298.772 163.854 -297.609 163.337 -296.445C162.911 -297.707 162.476 -298.967 162.025 -300.219C162.588 -301.37 163.138 -302.53 163.672 -303.693C164.083 -302.449 164.465 -301.19 164.85 -299.937ZM163.108 -295.919C163.036 -295.75 162.964 -295.581 162.886 -295.416C162.428 -294.402 161.954 -293.39 161.483 -292.385C161.015 -293.677 160.537 -294.967 160.037 -296.253C160.635 -297.416 161.217 -298.582 161.792 -299.752C162.242 -298.473 162.675 -297.196 163.108 -295.919ZM161.278 -291.944C160.702 -290.747 160.12 -289.555 159.525 -288.371C159.012 -289.676 158.494 -290.975 157.955 -292.27C158.587 -293.455 159.213 -294.645 159.828 -295.833C160.321 -294.551 160.801 -293.251 161.278 -291.944ZM161.691 -290.809C162.145 -289.536 162.594 -288.257 163.034 -286.976C162.999 -286.9 162.975 -286.825 162.94 -286.749C162.447 -285.632 161.937 -284.517 161.415 -283.41C160.94 -284.707 160.45 -286.005 159.95 -287.291C160.536 -288.463 161.117 -289.629 161.691 -290.809ZM163.411 -285.802C163.822 -284.559 164.233 -283.316 164.619 -282.063C164.145 -280.868 163.658 -279.682 163.155 -278.499C162.722 -279.775 162.274 -281.044 161.816 -282.311C162.36 -283.475 162.894 -284.637 163.411 -285.802ZM164.971 -280.879C165.339 -279.665 165.701 -278.456 166.048 -277.239C165.622 -276.048 165.194 -274.867 164.734 -273.681C164.344 -274.928 163.945 -276.162 163.53 -277.399C163.582 -277.527 163.647 -277.647 163.699 -277.775C164.143 -278.807 164.554 -279.845 164.971 -280.879ZM71.6194 -86.1613C73.0529 -88.1221 74.5135 -90.0825 76.0114 -92.0443C76.2026 -90.078 76.4354 -88.1193 76.7265 -86.1658C75.0993 -84.1751 73.5052 -82.1796 71.9424 -80.1898C71.7849 -82.1784 71.6751 -84.1703 71.6194 -86.1613ZM71.2248 -79.2738C69.6957 -77.3063 68.1953 -75.3279 66.7367 -73.3571C66.7064 -74.7556 66.697 -76.1579 66.7207 -77.5555C66.7282 -78.1432 66.7462 -78.7328 66.7642 -79.3225C68.0998 -81.2601 69.4666 -83.2034 70.8708 -85.1482C70.9437 -83.1818 71.0521 -81.2273 71.2248 -79.2738ZM80.6255 -105.327C80.813 -103.381 81.042 -101.443 81.3312 -99.5003C79.742 -97.538 78.1901 -95.5771 76.6756 -93.6177C76.5565 -95.0323 76.4686 -96.4525 76.4033 -97.8662C76.3791 -98.4213 76.3696 -98.9843 76.3454 -99.5394C77.7472 -101.468 79.1698 -103.4 80.6255 -105.327ZM76.3254 -100.31C76.2784 -102.222 76.2816 -104.154 76.3265 -106.093C77.5753 -107.945 78.8596 -109.809 80.1666 -111.666C80.2227 -110.423 80.2832 -109.186 80.3749 -107.955C80.4202 -107.312 80.4986 -106.665 80.5543 -106.024C79.1218 -104.117 77.7101 -102.214 76.3254 -100.31ZM75.5828 -97.8244C75.6648 -96.1072 75.7965 -94.3829 75.949 -92.6623C74.462 -90.7294 73.0143 -88.7875 71.5917 -86.8556C71.5829 -87.1444 71.5699 -87.4272 71.5611 -87.7161C71.5362 -89.3845 71.5511 -91.071 71.593 -92.7569C72.8821 -94.6538 74.1982 -96.5503 75.5621 -98.45C75.5682 -98.236 75.5681 -98.0261 75.5828 -97.8244ZM76.7399 -92.9892C78.2672 -94.9671 79.8215 -96.9446 81.4193 -98.9192C81.7226 -96.9571 82.0945 -95.0022 82.4958 -93.0634C81.8159 -92.2672 81.1256 -91.4691 80.4518 -90.6687C79.4274 -89.4547 78.4361 -88.236 77.4283 -87.0197C77.1586 -89.004 76.9202 -90.994 76.7399 -92.9892ZM82.1723 -99.8471C82.7679 -100.574 83.3364 -101.302 83.9362 -102.035C84.993 -103.308 86.0644 -104.59 87.1438 -105.857C87.5387 -104.014 87.971 -102.172 88.4535 -100.35C88.4864 -100.227 88.5235 -100.11 88.5563 -99.9871C86.7564 -97.9704 84.9749 -95.9408 83.2161 -93.9046C82.8196 -95.8766 82.4647 -97.8561 82.1723 -99.8471ZM83.6076 -102.308C83.0909 -101.682 82.6053 -101.061 82.099 -100.436C81.8208 -102.408 81.5903 -104.383 81.4138 -106.358C82.8989 -108.301 84.4153 -110.25 85.9752 -112.196C86.2748 -110.255 86.6326 -108.319 87.0424 -106.393C85.8781 -105.03 84.7346 -103.67 83.6076 -102.308ZM81.3445 -107.045C81.3136 -107.367 81.2765 -107.694 81.256 -108.018C81.1406 -109.622 81.0626 -111.227 81.0036 -112.846C82.3527 -114.738 83.735 -116.625 85.1486 -118.517C85.1643 -118.37 85.1739 -118.226 85.1896 -118.078C85.3686 -116.33 85.6033 -114.571 85.8692 -112.817C84.3265 -110.896 82.8168 -108.969 81.3445 -107.045ZM80.9705 -113.69C80.9249 -115.564 80.9147 -117.451 80.9566 -119.346C82.1718 -121.176 83.4182 -123.011 84.7019 -124.848C84.7831 -122.986 84.9102 -121.137 85.079 -119.295C83.6783 -117.421 82.3131 -115.559 80.9705 -113.69ZM86.0964 -118.179C86.0479 -118.659 86.0159 -119.138 85.9674 -119.618C87.3828 -121.501 88.827 -123.372 90.3068 -125.255C90.341 -125.305 90.377 -125.343 90.4173 -125.388C90.7174 -123.474 91.0507 -121.555 91.4568 -119.65C89.8668 -117.752 88.2933 -115.851 86.7529 -113.946C86.7126 -113.901 86.6742 -113.846 86.6338 -113.801C86.4282 -115.248 86.2458 -116.716 86.0964 -118.179ZM89.9063 -125.57C88.5438 -123.842 87.2144 -122.11 85.9058 -120.382C85.7504 -122.269 85.639 -124.18 85.5755 -126.094C86.8825 -127.951 88.2269 -129.809 89.5982 -131.668C89.7142 -130.511 89.8406 -129.356 89.9878 -128.204C90.0774 -127.494 90.2044 -126.786 90.3106 -126.074C90.1787 -125.91 90.0364 -125.744 89.9063 -125.57ZM85.5484 -127.025C85.5022 -128.872 85.5019 -130.734 85.5432 -132.602C86.7181 -134.387 87.9137 -136.175 89.1467 -137.965C89.2266 -136.14 89.3585 -134.324 89.526 -132.52C88.1674 -130.681 86.834 -128.851 85.5484 -127.025ZM90.9429 -128.335C90.7506 -129.828 90.5938 -131.332 90.464 -132.836C91.4599 -134.18 92.4723 -135.521 93.5012 -136.859C93.9189 -137.408 94.3489 -137.949 94.7727 -138.495C94.782 -138.442 94.7871 -138.384 94.7964 -138.332C95.0859 -136.507 95.4336 -134.688 95.8167 -132.88C94.2304 -130.962 92.6711 -129.042 91.1364 -127.106C91.0678 -127.519 90.9949 -127.925 90.9429 -128.335ZM93.0474 -137.201C92.1442 -136.031 91.2533 -134.852 90.3832 -133.677C90.2273 -135.537 90.1234 -137.406 90.055 -139.287C91.3326 -141.128 92.6476 -142.971 93.9878 -144.823C94.1627 -142.977 94.3872 -141.125 94.6596 -139.275C94.1271 -138.587 93.5841 -137.896 93.0474 -137.201ZM90.0252 -140.293C89.9804 -142.103 89.9771 -143.921 90.0156 -145.746C91.1696 -147.527 92.3548 -149.313 93.5651 -151.11C93.6333 -149.32 93.751 -147.523 93.9062 -145.728C92.5794 -143.921 91.2919 -142.105 90.0252 -140.293ZM94.8536 -145.992C95.4635 -146.818 96.0631 -147.643 96.6834 -148.471C103.399 -157.44 110.755 -166.284 117.869 -174.83C135.351 -195.84 153.427 -217.56 163.723 -243.211C165.127 -246.716 166.385 -250.285 167.494 -253.903C167.777 -252.75 168.042 -251.598 168.299 -250.435C166.919 -245.116 165.225 -239.87 163.204 -234.768C152.605 -207.959 133.446 -185.476 114.907 -163.731C108.43 -156.129 101.752 -148.302 95.5048 -140.349C95.2602 -142.134 95.0362 -144.013 94.8536 -145.992ZM163.161 -243.437C152.898 -217.873 134.854 -196.185 117.401 -175.218C110.283 -166.666 102.923 -157.816 96.1989 -148.835C95.7128 -148.187 95.2415 -147.547 94.7658 -146.901C94.6181 -148.655 94.5095 -150.491 94.4459 -152.405C96.1984 -154.957 98.0029 -157.518 99.8718 -160.08C106.358 -168.98 113.469 -177.746 120.352 -186.234C136.771 -206.486 153.75 -227.426 163.721 -251.861C164.637 -254.099 165.485 -256.356 166.273 -258.619C166.604 -257.431 166.914 -256.24 167.214 -255.046C166.042 -251.116 164.689 -247.239 163.161 -243.437ZM166.414 -259.032C166.81 -260.18 167.2 -261.333 167.568 -262.491C167.591 -262.393 167.618 -262.301 167.641 -262.203C167.894 -261.152 168.118 -260.112 168.349 -259.067C168.034 -257.88 167.704 -256.696 167.355 -255.524C167.054 -256.69 166.741 -257.865 166.414 -259.032ZM166.11 -260.128C165.761 -261.355 165.403 -262.571 165.029 -263.788C165.477 -264.946 165.909 -266.106 166.323 -267.278C166.65 -266.084 166.956 -264.887 167.258 -263.683C166.89 -262.497 166.511 -261.309 166.11 -260.128ZM166.496 -267.751C166.892 -268.872 167.277 -269.991 167.646 -271.113C167.869 -270.201 168.096 -269.296 168.304 -268.376C168.353 -268.159 168.388 -267.934 168.444 -267.713C168.126 -266.547 167.786 -265.387 167.434 -264.226C167.126 -265.407 166.819 -266.578 166.496 -267.751ZM166.166 -268.901C165.817 -270.129 165.464 -271.35 165.084 -272.572C165.536 -273.709 165.965 -274.852 166.384 -275.993C166.709 -274.81 167.03 -273.62 167.33 -272.427C166.95 -271.249 166.569 -270.072 166.166 -268.901ZM164.559 -273.246C164.092 -272.047 163.617 -270.853 163.116 -269.659C162.677 -270.94 162.223 -272.212 161.763 -273.49C162.307 -274.654 162.839 -275.827 163.354 -277.002C163.771 -275.754 164.167 -274.503 164.559 -273.246ZM164.909 -272.137C165.287 -270.898 165.644 -269.656 165.995 -268.418C165.579 -267.229 165.14 -266.046 164.687 -264.856C164.295 -266.113 163.888 -267.362 163.471 -268.61C163.547 -268.785 163.629 -268.956 163.699 -269.135C164.128 -270.133 164.513 -271.134 164.909 -272.137ZM164.545 -264.48C164.068 -263.242 163.58 -262.002 163.066 -260.763C153.455 -237.619 137.584 -217.489 122.234 -198.019C115.607 -189.609 108.745 -180.915 102.487 -172.094C99.6667 -168.122 96.9916 -164.149 94.4432 -160.189C94.5011 -161.845 94.5871 -163.555 94.7261 -165.329C98.2416 -171.273 102.071 -177.264 106.24 -183.31C112.236 -192.003 118.81 -200.596 125.163 -208.913C139.328 -227.436 153.966 -246.588 163.311 -268.274C163.742 -267.008 164.151 -265.748 164.545 -264.48ZM103.06 -171.688C109.305 -180.49 116.156 -189.182 122.786 -197.581C138.167 -217.084 154.069 -237.258 163.716 -260.494C164.117 -261.465 164.508 -262.435 164.887 -263.413C165.263 -262.185 165.618 -260.953 165.969 -259.715C165.098 -257.163 164.145 -254.622 163.124 -252.102C153.19 -227.759 136.247 -206.858 119.854 -186.644C112.971 -178.156 105.851 -169.377 99.3565 -160.464C97.6647 -158.145 96.0207 -155.828 94.4244 -153.515C94.3859 -155.229 94.3798 -157.003 94.4249 -158.851C97.1305 -163.104 100.007 -167.393 103.06 -171.688ZM93.5333 -152.218C92.3406 -150.473 91.1748 -148.727 90.0403 -146.988C90.0956 -148.719 90.1863 -150.462 90.3126 -152.218C91.3429 -153.938 92.4045 -155.665 93.4931 -157.391C93.463 -155.669 93.4825 -153.94 93.5333 -152.218ZM89.0426 -145.445C87.9868 -143.806 86.952 -142.17 85.9483 -140.541C86.0919 -142.229 86.271 -143.929 86.4814 -145.635C87.37 -147.217 88.2751 -148.797 89.2114 -150.382C89.1266 -148.726 89.0772 -147.081 89.0426 -145.445ZM89.0221 -144.21C89.008 -142.459 89.0459 -140.717 89.109 -138.986C87.8912 -137.231 86.7169 -135.473 85.5573 -133.724C85.6136 -135.509 85.7116 -137.302 85.8451 -139.107C86.8792 -140.807 87.9402 -142.506 89.0221 -144.21ZM84.6137 -132.299C83.4964 -130.584 82.4102 -128.874 81.351 -127.164C81.4933 -128.89 81.6753 -130.634 81.8844 -132.377C82.8328 -134.045 83.802 -135.717 84.8086 -137.391C84.7061 -135.683 84.6452 -133.983 84.6137 -132.299ZM84.5949 -131.144C84.5736 -129.343 84.6086 -127.558 84.6705 -125.773C83.4124 -123.973 82.1751 -122.177 80.9813 -120.378C81.0321 -122.195 81.1287 -124.026 81.2608 -125.868C82.3377 -127.629 83.4537 -129.382 84.5949 -131.144ZM80.0811 -119.042C78.9386 -117.317 77.8334 -115.593 76.7449 -113.867C76.8968 -115.659 77.0903 -117.459 77.3152 -119.264C78.2758 -120.924 79.2634 -122.583 80.2719 -124.246C80.175 -122.507 80.1155 -120.769 80.0811 -119.042ZM80.0644 -117.995C80.0486 -116.163 80.0746 -114.339 80.1421 -112.522C78.8461 -110.694 77.5813 -108.872 76.3496 -107.044C76.4094 -108.9 76.5151 -110.77 76.6563 -112.652C77.7668 -114.435 78.8938 -116.217 80.0644 -117.995ZM75.4921 -105.769C74.305 -103.993 73.1448 -102.217 72.0117 -100.44C72.1684 -102.265 72.3625 -104.091 72.5964 -105.936C73.6126 -107.676 74.6453 -109.413 75.7197 -111.158C75.6028 -109.351 75.5318 -107.557 75.4921 -105.769ZM75.4751 -104.814C75.4521 -102.933 75.469 -101.069 75.5379 -99.2149C74.1954 -97.3459 72.8902 -95.4784 71.6164 -93.6165C71.6791 -95.5161 71.7835 -97.4232 71.9295 -99.338C73.076 -101.16 74.26 -102.984 75.4751 -104.814ZM70.8021 -92.4301C69.5643 -90.607 68.3657 -88.775 67.1922 -86.953C67.3518 -88.8218 67.5593 -90.6939 67.8022 -92.5779C68.8545 -94.3564 69.9319 -96.1448 71.0423 -97.9284C70.9163 -96.0819 70.8467 -94.251 70.8021 -92.4301ZM70.7824 -91.5496C70.7609 -90.2601 70.7602 -88.9743 70.7804 -87.6923C70.7888 -87.0752 70.8261 -86.4472 70.845 -85.832C69.456 -83.9223 68.1001 -82.0079 66.7817 -80.0949C66.8473 -82.038 66.9589 -83.9949 67.1122 -85.9594C68.3052 -87.8227 69.5251 -89.6854 70.7824 -91.5496ZM66.0106 -78.997C64.7282 -77.1228 63.4874 -75.2563 62.2693 -73.383C62.4424 -75.2973 62.6613 -77.2253 62.9115 -79.159C64.0041 -80.9825 65.1236 -82.8055 66.2701 -84.628C66.1455 -82.7441 66.0624 -80.8677 66.0106 -78.997ZM65.9932 -78.2246C65.9889 -78.0086 65.9803 -77.7865 65.9717 -77.5644C65.952 -75.8448 65.9758 -74.1223 66.0266 -72.3994C64.5954 -70.4552 63.2016 -68.5123 61.8409 -66.5647C61.8506 -66.8408 61.848 -67.1254 61.8619 -67.4077C61.935 -69.0994 62.054 -70.8048 62.1939 -72.514C63.4352 -74.4076 64.6955 -76.3154 65.9932 -78.2246ZM61.1754 -67.428C61.1502 -66.7886 61.1416 -66.1469 61.1225 -65.5033C59.7936 -63.5884 58.5021 -61.6749 57.2376 -59.761C57.4178 -61.725 57.6501 -63.6985 57.9198 -65.6734C59.0484 -67.5357 60.2144 -69.3994 61.4074 -71.2627C61.3092 -69.9806 61.2319 -68.7024 61.1754 -67.428ZM56.4882 -58.6025C55.2744 -56.7355 54.0918 -54.8741 52.9319 -53.0061C53.2214 -54.9308 53.5525 -56.8631 53.9148 -58.8011C54.9387 -60.6174 55.9958 -62.429 57.0798 -64.2402C56.8369 -62.3562 56.6417 -60.4756 56.4882 -58.6025ZM57.0215 -57.2472C57.0659 -57.8093 57.1188 -58.3838 57.1694 -58.9417C58.4492 -60.8907 59.7601 -62.8454 61.1043 -64.7953C61.0626 -62.8081 61.0479 -60.8205 61.0933 -58.8276C59.6157 -56.8426 58.1754 -54.859 56.7726 -52.8769C56.8328 -54.3403 56.9158 -55.797 57.0215 -57.2472ZM61.8288 -65.8525C63.2066 -67.8247 64.6113 -69.7964 66.0535 -71.7696C66.1215 -69.7701 66.2374 -67.7739 66.3949 -65.7854C64.8193 -63.7771 63.2811 -61.7703 61.7759 -59.7588C61.7439 -61.7971 61.7677 -63.8241 61.8288 -65.8525ZM66.7556 -72.7419C68.227 -74.7312 69.7298 -76.7262 71.2717 -78.7122C71.4581 -76.7127 71.7027 -74.7184 71.9847 -72.7256C70.3092 -70.7046 68.6729 -68.6745 67.0741 -66.6459C66.9237 -68.6843 66.8065 -70.7178 66.7556 -72.7419ZM71.9808 -79.6158C73.5503 -81.6283 75.1529 -83.6361 76.7929 -85.6453C77.0607 -83.8812 77.3536 -82.1271 77.6925 -80.3867C77.7416 -80.1428 77.8011 -79.9008 77.8502 -79.6569C77.6718 -79.4523 77.483 -79.2458 77.3046 -79.0411C75.7242 -77.2096 74.175 -75.3837 72.659 -73.5531C72.3837 -75.5686 72.1562 -77.5875 71.9808 -79.6158ZM78.5133 -80.5469C78.1272 -82.5207 77.8017 -84.5164 77.5136 -86.5135C78.5856 -87.8222 79.6533 -89.1247 80.7522 -90.4329C81.3643 -91.1575 81.9825 -91.8779 82.6007 -92.5984C82.7603 -91.8582 82.9052 -91.1099 83.0752 -90.3716C83.3698 -89.1181 83.6852 -87.8683 84.0172 -86.6162C82.1647 -84.5629 80.341 -82.4988 78.5338 -80.4323C78.5221 -80.4678 78.5146 -80.5094 78.5133 -80.5469ZM83.9277 -90.5645C83.7039 -91.5135 83.5155 -92.4744 83.3186 -93.423C85.0859 -95.4715 86.8759 -97.5134 88.6844 -99.5425C89.2262 -97.5701 89.8181 -95.6175 90.4744 -93.666C88.5466 -91.5828 86.6268 -89.485 84.7235 -87.3849C84.4374 -88.441 84.1722 -89.5008 83.9277 -90.5645ZM89.4041 -100.357C91.2718 -102.445 93.1519 -104.525 95.0399 -106.59C95.6967 -104.665 96.4161 -102.752 97.1813 -100.853C95.1862 -98.725 93.1868 -96.5912 91.1912 -94.4366C90.5434 -96.4004 89.9416 -98.3781 89.4041 -100.357ZM89.2864 -100.803C88.7673 -102.769 88.315 -104.752 87.894 -106.741C89.6215 -108.772 91.3675 -110.79 93.1362 -112.801C93.3646 -111.976 93.5827 -111.15 93.832 -110.329C94.1709 -109.218 94.5307 -108.111 94.9008 -107.006C93.0214 -104.953 91.1456 -102.879 89.2864 -100.803ZM87.7883 -107.271C87.3894 -109.226 87.0321 -111.189 86.7392 -113.153C86.8669 -113.311 86.9927 -113.479 87.1203 -113.637C88.5757 -115.446 90.0747 -117.252 91.5756 -119.047C91.9916 -117.116 92.4805 -115.199 93.0006 -113.287C91.2447 -111.294 89.5073 -109.289 87.7883 -107.271ZM92.3684 -119.993C94.0623 -122.001 95.7685 -124.001 97.4974 -125.994C98.0322 -124.09 98.6192 -122.196 99.2624 -120.317C97.4246 -118.272 95.5886 -116.217 93.7649 -114.152C93.2453 -116.091 92.7778 -118.04 92.3684 -119.993ZM92.2497 -120.595C91.8545 -122.53 91.5175 -124.47 91.2345 -126.409C92.7882 -128.359 94.3585 -130.307 95.9533 -132.238C96.3699 -130.334 96.8281 -128.438 97.3445 -126.547C95.6327 -124.579 93.9351 -122.591 92.2497 -120.595ZM96.7719 -133.221C102.015 -139.544 107.446 -145.783 112.749 -151.864C132.42 -174.429 152.761 -197.761 163.739 -225.93C166.099 -231.992 168.021 -238.248 169.476 -244.592C169.664 -243.54 169.84 -242.496 170.008 -241.44C168.526 -233.273 166.288 -225.211 163.307 -217.454C152.014 -188.071 130.531 -163.945 109.75 -140.608C105.91 -136.294 102.006 -131.915 98.1515 -127.474C97.6375 -129.382 97.1713 -131.293 96.7719 -133.221ZM163.255 -226.111C152.31 -198.029 132.001 -174.729 112.355 -152.201C107.133 -146.21 101.796 -140.08 96.6206 -133.855C96.3068 -135.396 96.0242 -136.942 95.7791 -138.489C95.7198 -138.85 95.6691 -139.223 95.6142 -139.589C101.955 -147.677 108.742 -155.648 115.331 -163.373C133.891 -185.149 153.093 -207.666 163.725 -234.561C165.615 -239.344 167.225 -244.247 168.555 -249.217C168.79 -248.114 169.015 -247.009 169.224 -245.907C167.757 -239.179 165.76 -232.538 163.255 -226.111ZM168.711 -249.757C169.001 -250.869 169.278 -251.99 169.546 -253.109C169.734 -252.057 169.9 -251.011 170.066 -249.966C169.852 -248.819 169.622 -247.674 169.379 -246.538C169.16 -247.611 168.941 -248.685 168.711 -249.757ZM168.441 -250.993C168.19 -252.126 167.924 -253.25 167.645 -254.383C167.985 -255.515 168.319 -256.652 168.63 -257.795C168.866 -256.692 169.074 -255.589 169.276 -254.491C169.014 -253.314 168.734 -252.149 168.441 -250.993ZM168.796 -258.401C169.087 -259.476 169.366 -260.559 169.628 -261.645C169.811 -260.624 169.988 -259.608 170.149 -258.593C169.927 -257.461 169.69 -256.32 169.442 -255.188C169.243 -256.266 169.026 -257.329 168.796 -258.401ZM168.512 -259.683C168.32 -260.546 168.138 -261.412 167.931 -262.267C167.869 -262.519 167.8 -262.759 167.738 -263.012C168.084 -264.113 168.407 -265.221 168.724 -266.333C168.947 -265.265 169.169 -264.208 169.37 -263.148C169.094 -261.989 168.811 -260.835 168.512 -259.683ZM168.918 -267.046C169.218 -268.106 169.498 -269.18 169.771 -270.241C169.946 -269.234 170.098 -268.234 170.255 -267.241C170.036 -266.152 169.806 -265.061 169.561 -263.973C169.361 -264.996 169.145 -266.022 168.918 -267.046ZM168.633 -268.43C168.631 -268.441 168.631 -268.441 168.629 -268.451C168.383 -269.552 168.112 -270.643 167.839 -271.745C168.191 -272.842 168.527 -273.941 168.851 -275.038C168.886 -274.878 168.924 -274.723 168.958 -274.563C169.147 -273.629 169.315 -272.691 169.487 -271.76C169.218 -270.651 168.929 -269.539 168.633 -268.43ZM167.523 -273.059C167.223 -274.225 166.901 -275.388 166.58 -276.551C166.984 -277.657 167.382 -278.768 167.752 -279.879C168.027 -278.74 168.28 -277.597 168.529 -276.448C168.216 -275.315 167.876 -274.183 167.523 -273.059ZM167.982 -280.577C168.333 -281.647 168.674 -282.715 168.999 -283.785C169.207 -282.774 169.421 -281.759 169.608 -280.744C169.618 -280.692 169.627 -280.64 169.636 -280.587C169.359 -279.466 169.065 -278.348 168.758 -277.238C168.511 -278.349 168.253 -279.459 167.982 -280.577ZM167.642 -281.935C167.349 -283.087 167.051 -284.243 166.731 -285.395C167.137 -286.491 167.537 -287.591 167.916 -288.688C168.182 -287.563 168.452 -286.445 168.697 -285.317C168.361 -284.191 167.999 -283.065 167.642 -281.935ZM168.174 -289.466C168.525 -290.509 168.886 -291.554 169.214 -292.603C169.431 -291.54 169.628 -290.473 169.824 -289.406C169.544 -288.333 169.236 -287.26 168.934 -286.183C168.689 -287.284 168.434 -288.373 168.174 -289.466ZM167.818 -290.881C167.526 -292.032 167.229 -293.178 166.916 -294.326C167.329 -295.407 167.725 -296.501 168.116 -297.589C168.382 -296.465 168.627 -295.337 168.872 -294.209C168.533 -293.103 168.183 -291.996 167.818 -290.881ZM168.408 -298.417C168.769 -299.462 169.13 -300.507 169.475 -301.554C169.686 -300.495 169.887 -299.434 170.078 -298.371C169.787 -297.296 169.473 -296.228 169.159 -295.159C168.915 -296.25 168.667 -297.334 168.408 -298.417ZM168.052 -299.896C167.765 -301.043 167.468 -302.189 167.161 -303.333C167.59 -304.422 167.991 -305.512 168.393 -306.602C168.653 -305.482 168.898 -304.354 169.133 -303.224C168.783 -302.116 168.428 -301.003 168.052 -299.896ZM166.777 -304.758C166.444 -305.956 166.1 -307.152 165.746 -308.347C166.229 -309.462 166.691 -310.574 167.153 -311.685C167.462 -310.504 167.745 -309.313 168.033 -308.128C167.627 -307.005 167.21 -305.881 166.777 -304.758ZM167.474 -312.475C167.906 -313.544 168.322 -314.615 168.738 -315.686C168.993 -314.559 169.238 -313.431 169.463 -312.299C169.101 -311.201 168.732 -310.106 168.343 -309.008C168.065 -310.168 167.783 -311.321 167.474 -312.475ZM166.757 -313.146C166.299 -312.014 165.826 -310.873 165.336 -309.735C164.958 -310.974 164.57 -312.21 164.177 -313.441C164.71 -314.576 165.233 -315.709 165.741 -316.835C166.094 -315.613 166.429 -314.378 166.757 -313.146ZM165.046 -309.042C164.55 -307.882 164.027 -306.721 163.499 -305.555C163.072 -306.827 162.645 -308.1 162.197 -309.368C162.682 -310.355 163.183 -311.339 163.655 -312.334C163.729 -312.493 163.798 -312.645 163.872 -312.804C164.279 -311.555 164.671 -310.297 165.046 -309.042ZM163.247 -304.982C163.113 -304.683 162.984 -304.38 162.843 -304.085C162.431 -303.203 162.014 -302.326 161.596 -301.448C161.134 -302.736 160.657 -304.015 160.17 -305.293C160.776 -306.468 161.36 -307.651 161.944 -308.833C162.389 -307.547 162.818 -306.265 163.247 -304.982ZM161.357 -300.947C160.781 -299.751 160.187 -298.566 159.589 -297.376C159.087 -298.673 158.571 -299.961 158.049 -301.254C158.681 -302.44 159.305 -303.64 159.92 -304.828C160.413 -303.546 160.893 -302.245 161.357 -300.947ZM159.386 -296.979C158.768 -295.774 158.145 -294.574 157.504 -293.377C156.966 -294.672 156.419 -295.955 155.865 -297.242C156.531 -298.45 157.198 -299.647 157.844 -300.867C158.373 -299.57 158.878 -298.28 159.386 -296.979ZM157.323 -293.037C156.67 -291.821 156.011 -290.609 155.346 -289.401C154.778 -290.68 154.21 -291.959 153.627 -293.23C154.322 -294.454 155 -295.68 155.682 -296.913C156.242 -295.621 156.785 -294.332 157.323 -293.037ZM157.773 -291.941C158.307 -290.639 158.831 -289.336 159.34 -288.025C158.733 -286.822 158.109 -285.622 157.478 -284.437C156.931 -285.746 156.376 -287.044 155.81 -288.34C156.477 -289.537 157.128 -290.737 157.773 -291.941ZM159.765 -286.946C160.266 -285.649 160.759 -284.34 161.235 -283.033C160.67 -281.838 160.094 -280.642 159.499 -279.458C158.978 -280.777 158.452 -282.091 157.912 -283.397C158.539 -284.576 159.16 -285.76 159.765 -286.946ZM161.633 -281.955C162.099 -280.673 162.544 -279.388 162.986 -278.096L162.981 -278.09C162.464 -276.899 161.934 -275.716 161.387 -274.535C160.907 -275.835 160.414 -277.144 159.909 -278.435C160.494 -279.606 161.07 -280.776 161.633 -281.955ZM161.237 -274.201C152.284 -254.954 139.394 -237.534 126.898 -220.654C120.811 -212.435 114.527 -203.942 108.782 -195.349C103.969 -188.153 99.6106 -181.033 95.704 -174.001C95.9066 -175.42 96.1514 -176.874 96.4071 -178.357C101.025 -187.568 106.427 -196.965 112.617 -206.527C118.087 -214.973 124.069 -223.356 129.852 -231.467C140.458 -246.329 151.36 -261.633 159.741 -278.141C160.261 -276.831 160.749 -275.516 161.237 -274.201ZM109.435 -194.914C115.167 -203.489 121.448 -211.975 127.53 -220.188C139.89 -236.898 152.635 -254.135 161.609 -273.177C162.076 -271.895 162.533 -270.601 162.975 -269.31C153.687 -247.393 138.894 -228.056 124.585 -209.351C118.221 -201.032 111.643 -192.433 105.641 -183.718C101.775 -178.108 98.1921 -172.539 94.882 -167.009C95.0211 -168.573 95.1962 -170.175 95.4159 -171.829C99.5599 -179.426 104.229 -187.124 109.435 -194.914ZM93.8426 -165.249C92.9362 -163.707 92.0505 -162.168 91.1815 -160.628C91.3833 -162.112 91.6206 -163.607 91.8726 -165.111C92.6437 -166.628 93.4313 -168.143 94.244 -169.668C94.0862 -168.209 93.9531 -166.732 93.8426 -165.249ZM93.7265 -163.587C93.6256 -161.96 93.5474 -160.327 93.5023 -158.689C92.4503 -157.029 91.4254 -155.368 90.4212 -153.711C90.5619 -155.356 90.7423 -157.019 90.9436 -158.686C91.8394 -160.317 92.7725 -161.95 93.7265 -163.587ZM89.3225 -151.892C88.4337 -150.402 87.5614 -148.909 86.7161 -147.415C86.9323 -148.999 87.1798 -150.588 87.4542 -152.176C88.1839 -153.595 88.9405 -155.013 89.7118 -156.439C89.5549 -154.915 89.4292 -153.396 89.3225 -151.892ZM85.5263 -145.295C84.7365 -143.881 83.9676 -142.472 83.2196 -141.066C83.4846 -142.497 83.7748 -143.937 84.0839 -145.392C84.7316 -146.758 85.402 -148.118 86.0871 -149.485C85.8765 -148.08 85.691 -146.685 85.5263 -145.295ZM85.3124 -143.518C85.144 -141.938 85.0111 -140.37 84.9033 -138.812C83.9504 -137.229 83.0079 -135.648 82.0966 -134.073C82.311 -135.666 82.5547 -137.276 82.8297 -138.892C83.6405 -140.427 84.4661 -141.971 85.3124 -143.518ZM80.9738 -132.088C80.1993 -130.71 79.4395 -129.339 78.6962 -127.967C78.9813 -129.466 79.2811 -130.973 79.6122 -132.486C80.2398 -133.783 80.884 -135.079 81.5429 -136.382C81.3275 -134.944 81.1433 -133.512 80.9738 -132.088ZM80.783 -130.423C80.6116 -128.8 80.4776 -127.178 80.3687 -125.566C79.395 -123.979 78.4525 -122.398 77.5327 -120.81C77.7652 -122.483 78.0229 -124.165 78.316 -125.859C79.114 -127.376 79.9329 -128.897 80.783 -130.423ZM76.45 -118.962C75.5943 -117.467 74.7594 -115.975 73.9515 -114.483C74.242 -116.042 74.5594 -117.601 74.9019 -119.169C75.6094 -120.622 76.3335 -122.071 77.0845 -123.521C76.8467 -121.998 76.6358 -120.475 76.45 -118.962ZM76.2655 -117.411C76.0741 -115.719 75.9244 -114.035 75.7997 -112.361C74.7705 -110.695 73.7663 -109.038 72.7848 -107.374C73.0245 -109.096 73.2894 -110.828 73.5916 -112.562C74.4537 -114.171 75.3514 -115.792 76.2655 -117.411ZM71.7729 -105.641C70.8744 -104.084 69.9968 -102.531 69.1358 -100.976C69.4377 -102.591 69.7709 -104.211 70.1292 -105.842C70.8751 -107.35 71.6419 -108.861 72.4357 -110.372C72.1882 -108.783 71.9701 -107.21 71.7729 -105.641ZM71.6034 -104.217C71.4047 -102.475 71.2478 -100.742 71.1159 -99.0177C70.0402 -97.3103 68.9914 -95.6024 67.9757 -93.8898C68.2184 -95.6553 68.4923 -97.4266 68.8122 -99.2116C69.7128 -100.876 70.6446 -102.547 71.6034 -104.217ZM67.0137 -92.2676C66.0707 -90.6596 65.1442 -89.0493 64.2551 -87.4404C64.5771 -89.1236 64.9218 -90.8001 65.3062 -92.4947C66.0864 -94.0515 66.8978 -95.614 67.7257 -97.1741C67.4606 -95.5335 67.2267 -93.8986 67.0137 -92.2676ZM66.8616 -90.9865C66.6558 -89.1954 66.4812 -87.4099 66.3482 -85.632C65.2279 -83.8735 64.1345 -82.1144 63.0785 -80.3568C63.3346 -82.1678 63.6219 -83.9845 63.9508 -85.8088C64.8941 -87.5352 65.8644 -89.2611 66.8616 -90.9865ZM62.1854 -78.8601C61.1893 -77.1887 60.2158 -75.5106 59.2736 -73.8382C59.6132 -75.5731 59.9736 -77.3116 60.3714 -79.0517C61.1986 -80.6762 62.0508 -82.3107 62.9258 -83.9385C62.6492 -82.2421 62.4038 -80.5513 62.1854 -78.8601ZM62.0269 -77.6747C61.8035 -75.8319 61.6241 -74.0133 61.4778 -72.19C60.3086 -70.3741 59.1725 -68.5534 58.0633 -66.7324C58.3308 -68.5993 58.64 -70.4738 58.9847 -72.3601C59.9745 -74.1272 60.9851 -75.8981 62.0269 -77.6747ZM57.2196 -65.32C56.1831 -63.6036 55.1589 -61.8786 54.1825 -60.157C54.5379 -61.9538 54.9263 -63.7459 55.346 -65.5437C56.2159 -67.2298 57.1024 -68.9136 58.0262 -70.5987C57.7173 -68.8426 57.4519 -67.0837 57.2196 -65.32ZM53.2397 -58.4576C52.3512 -56.8757 51.473 -55.2957 50.6323 -53.7171C51.056 -55.4027 51.5109 -57.0939 51.9928 -58.7847C52.71 -60.3031 53.4583 -61.8273 54.2233 -63.349C53.8711 -61.7141 53.5398 -60.083 53.2397 -58.4576ZM52.9976 -57.1386C52.6772 -55.3266 52.3942 -53.5161 52.1467 -51.7174C51.0485 -49.9252 49.9835 -48.1282 48.9454 -46.3308C49.3226 -48.1854 49.7415 -50.0476 50.1875 -51.9094C51.0896 -53.6551 52.025 -55.3962 52.9976 -57.1386ZM48.0774 -44.8441C47.1205 -43.1636 46.1948 -41.4889 45.2918 -39.8076C45.735 -41.5343 46.2094 -43.2668 46.7213 -45.0007C47.5049 -46.628 48.3093 -48.2592 49.1365 -49.8837C48.7544 -48.2057 48.4055 -46.523 48.0774 -44.8441ZM47.8575 -43.7013C47.5109 -41.8254 47.2017 -39.9509 46.9299 -38.0778C45.7871 -36.2344 44.667 -34.3844 43.5886 -32.542C43.9921 -34.4606 44.439 -36.3763 44.9172 -38.2977C45.864 -40.0946 46.8421 -41.8973 47.8575 -43.7013ZM42.7652 -31.1065C41.7552 -29.3626 40.7659 -27.6225 39.8141 -25.8838C40.3011 -27.7261 40.8297 -29.576 41.3854 -31.4255C42.2008 -33.0855 43.0536 -34.747 43.9168 -36.4103C43.4976 -34.6395 43.1158 -32.8701 42.7652 -31.1065ZM42.4782 -26.7991C42.7478 -28.3544 43.0486 -29.9154 43.3661 -31.474C44.4811 -33.3823 45.6231 -35.29 46.7963 -37.2035C46.791 -37.1434 46.7752 -37.0813 46.7699 -37.0212C46.5098 -35.1126 46.2951 -33.1907 46.1074 -31.2684C44.7879 -29.3014 43.5099 -27.342 42.2547 -25.376C42.3306 -25.8524 42.3961 -26.3269 42.4782 -26.7991ZM47.3265 -36.945C47.3987 -37.4423 47.4709 -37.9395 47.5534 -38.4387C48.7732 -40.3929 50.0284 -42.3589 51.3185 -44.3098C51.1477 -42.2938 51.0141 -40.2791 50.9303 -38.2573C49.5085 -36.261 48.1259 -34.2556 46.7684 -32.2602C46.9283 -33.8278 47.1109 -35.3888 47.3265 -36.945ZM52.018 -45.3571C53.3338 -47.3449 54.6932 -49.3299 56.0837 -51.3206C56.0269 -49.2983 56.0031 -47.2714 56.0375 -45.2496C54.5177 -43.23 53.0248 -41.21 51.5712 -39.1809C51.6703 -41.2377 51.8276 -43.2998 52.018 -45.3571ZM56.7583 -52.2664C58.1722 -54.2775 59.6295 -56.2857 61.1138 -58.2934C61.1667 -56.2589 61.282 -54.2357 61.4347 -52.214C59.8169 -50.1712 58.2261 -48.1279 56.6787 -46.0818C56.6577 -48.149 56.6862 -50.2091 56.7583 -52.2664ZM61.7855 -59.1957C63.3034 -61.2257 64.8483 -63.2552 66.4368 -65.2819C66.5786 -63.6509 66.7394 -62.0341 66.9437 -60.4145C66.9957 -60.0043 67.0582 -59.5961 67.1163 -59.1817C65.3986 -57.1261 63.7183 -55.0719 62.0772 -53.0088C61.9336 -55.0698 61.8274 -57.1323 61.7855 -59.1957ZM67.674 -60.5097C67.4353 -62.3813 67.2591 -64.2643 67.114 -66.153C68.7257 -68.2 70.3662 -70.2362 72.0484 -72.28C72.1396 -71.6511 72.2143 -71.0245 72.3202 -70.4036C72.5473 -68.9872 72.8056 -67.5764 73.0847 -66.1694C71.2671 -64.101 69.4931 -62.0298 67.7522 -59.9538C67.7247 -60.1371 67.6972 -60.3203 67.674 -60.5097ZM73.0885 -70.5274C72.9519 -71.3793 72.8403 -72.2412 72.7184 -73.1013C74.3023 -75.0034 75.9175 -76.9112 77.5596 -78.8186C77.6848 -78.9598 77.8101 -79.1009 77.9353 -79.2421C78.3577 -77.2156 78.8218 -75.1968 79.3563 -73.1746C77.6039 -71.2526 75.862 -69.3324 74.1593 -67.4032C74.0169 -67.2375 73.8746 -67.0717 73.7322 -66.9059C73.499 -68.1168 73.2886 -69.3212 73.0885 -70.5274ZM78.619 -80.0174C80.4346 -82.0962 82.2626 -84.1665 84.1237 -86.2321C84.6692 -84.2388 85.2667 -82.2551 85.9225 -80.2765C83.9402 -78.1673 81.9702 -76.0497 80.0229 -73.9253C79.5049 -75.9451 79.0328 -77.9786 78.619 -80.0174ZM84.8215 -86.9885C86.7333 -89.101 88.6574 -91.2049 90.5937 -93.3004C91.2562 -91.3445 91.9854 -89.4062 92.7563 -87.4755C90.711 -85.328 88.6614 -83.1743 86.6155 -80.9998C85.9579 -82.9887 85.3584 -84.983 84.8215 -86.9885ZM91.3062 -94.0648C93.3123 -96.2213 95.3141 -98.3717 97.3196 -100.501C98.091 -98.5975 98.9145 -96.7033 99.7943 -94.8247C99.3641 -94.3752 98.9338 -93.9257 98.5036 -93.4762C96.8274 -91.7294 95.1383 -89.9641 93.4492 -88.1987C92.6808 -90.146 91.9644 -92.1028 91.3062 -94.0648ZM98.0468 -101.274C99.2616 -102.565 100.481 -103.863 101.691 -105.149C102.554 -106.064 103.417 -106.98 104.28 -107.895C105.148 -106.052 106.072 -104.225 107.042 -102.411C104.868 -100.116 102.685 -97.8361 100.506 -95.5621C99.6288 -97.4573 98.8139 -99.3639 98.0468 -101.274ZM101.445 -105.384C100.275 -104.143 99.0873 -102.878 97.9085 -101.625C97.1457 -103.541 96.4349 -105.467 95.7804 -107.408C97.7449 -109.557 99.7216 -111.697 101.675 -113.817C102.441 -111.945 103.248 -110.08 104.118 -108.226C103.23 -107.274 102.335 -106.326 101.445 -105.384ZM95.6457 -107.83C95.3403 -108.753 95.0331 -109.687 94.7486 -110.614C94.443 -111.629 94.1687 -112.65 93.89 -113.664C95.7223 -115.741 97.5668 -117.809 99.4089 -119.86C100.06 -117.967 100.763 -116.083 101.519 -114.208C99.5697 -112.095 97.6119 -109.968 95.6457 -107.83ZM100.181 -120.711C102.59 -123.382 104.992 -126.03 107.372 -128.647C129.344 -152.836 152.068 -177.844 163.748 -208.637C167.024 -217.265 169.391 -226.26 170.817 -235.368C170.919 -234.467 171.016 -233.57 171.097 -232.665C169.903 -221.571 167.323 -210.59 163.398 -200.122C151.372 -168.046 127.435 -142.192 104.291 -117.193C103.625 -116.469 102.952 -115.75 102.282 -115.02C101.529 -116.911 100.824 -118.805 100.181 -120.711ZM163.355 -208.792C151.703 -178.079 129.007 -153.097 107.056 -128.939C104.731 -126.375 102.378 -123.784 100.018 -121.17C99.3859 -123.078 98.8161 -124.997 98.2879 -126.923C102.215 -131.441 106.189 -135.909 110.096 -140.294C130.905 -163.658 152.418 -187.828 163.741 -217.281C166.569 -224.633 168.74 -232.258 170.22 -239.988C170.364 -239.003 170.498 -238.016 170.622 -237.027C169.239 -227.405 166.804 -217.892 163.355 -208.792ZM170.362 -240.756C170.552 -241.765 170.726 -242.775 170.889 -243.784C170.913 -243.53 170.96 -243.27 170.984 -243.016C171.046 -242.398 171.098 -241.778 171.15 -241.158C171.029 -240.093 170.898 -239.025 170.75 -237.96C170.636 -238.897 170.507 -239.825 170.362 -240.756ZM170.146 -242.202C169.986 -243.216 169.804 -244.227 169.623 -245.237C169.862 -246.303 170.089 -247.377 170.306 -248.449C170.45 -247.464 170.565 -246.49 170.691 -245.518C170.518 -244.416 170.34 -243.308 170.146 -242.202ZM170.458 -249.311C170.645 -250.276 170.82 -251.249 170.985 -252.22C171.076 -251.408 171.18 -250.588 171.249 -249.783C171.251 -249.773 171.247 -249.767 171.249 -249.756C171.126 -248.701 170.991 -247.654 170.842 -246.6C170.729 -247.499 170.599 -248.401 170.458 -249.311ZM170.224 -250.823C170.062 -251.821 169.893 -252.823 169.707 -253.827C169.946 -254.866 170.174 -255.903 170.39 -256.948C170.527 -256.005 170.668 -255.067 170.786 -254.137C170.609 -253.029 170.425 -251.925 170.224 -250.823ZM170.594 -257.937C170.779 -258.885 170.96 -259.827 171.128 -260.778C171.219 -259.939 171.288 -259.107 171.361 -258.281C171.239 -257.307 171.108 -256.331 170.966 -255.353C170.844 -256.213 170.722 -257.073 170.594 -257.937ZM170.341 -259.591C170.186 -260.547 170.012 -261.516 169.834 -262.479C170.076 -263.497 170.306 -264.523 170.526 -265.547C170.658 -264.598 170.773 -263.661 170.887 -262.724C170.714 -261.676 170.53 -260.637 170.341 -259.591ZM170.748 -266.588C170.927 -267.476 171.101 -268.369 171.264 -269.259C171.342 -268.493 171.426 -267.723 171.492 -266.966C171.367 -266.013 171.238 -265.053 171.093 -264.096C170.987 -264.927 170.875 -265.762 170.748 -266.588ZM170.47 -268.351C170.32 -269.275 170.166 -270.194 169.994 -271.126C170.233 -272.1 170.462 -273.072 170.681 -274.043C170.798 -273.176 170.926 -272.312 171.027 -271.448C170.857 -270.417 170.667 -269.382 170.47 -268.351ZM169.703 -272.687C169.581 -273.337 169.47 -273.989 169.331 -274.642C169.25 -275.036 169.154 -275.422 169.074 -275.805C169.369 -276.832 169.657 -277.864 169.928 -278.898C170.096 -277.906 170.273 -276.916 170.423 -275.927C170.192 -274.847 169.955 -273.771 169.703 -272.687ZM170.192 -279.919C170.439 -280.879 170.67 -281.841 170.89 -282.801C171.017 -281.882 171.117 -280.965 171.221 -280.053C171.048 -279.069 170.865 -278.084 170.669 -277.107C170.517 -278.042 170.36 -278.982 170.192 -279.919ZM169.884 -281.574C169.691 -282.593 169.481 -283.615 169.265 -284.64C169.569 -285.67 169.841 -286.703 170.123 -287.739C170.172 -287.468 170.225 -287.204 170.269 -286.927C170.391 -286.185 170.492 -285.44 170.604 -284.696C170.378 -283.649 170.139 -282.61 169.884 -281.574ZM170.739 -287.001C170.643 -287.597 170.52 -288.193 170.414 -288.787C170.665 -289.726 170.893 -290.671 171.118 -291.611C171.233 -290.728 171.354 -289.841 171.453 -288.96C171.274 -287.981 171.078 -287.004 170.882 -286.027C170.834 -286.352 170.787 -286.677 170.739 -287.001ZM170.104 -290.517C169.917 -291.532 169.708 -292.543 169.494 -293.558C169.798 -294.56 170.098 -295.556 170.382 -296.555C170.545 -295.584 170.702 -294.617 170.843 -293.653C170.606 -292.604 170.363 -291.559 170.104 -290.517ZM170.719 -297.735C170.969 -298.647 171.197 -299.565 171.425 -300.483C171.475 -300.084 171.54 -299.692 171.59 -299.292C171.641 -298.828 171.686 -298.368 171.737 -297.904C171.551 -296.929 171.376 -295.956 171.164 -294.981C171.01 -295.9 170.877 -296.822 170.719 -297.735ZM170.381 -299.556C170.194 -300.571 170.007 -301.586 169.799 -302.597C170.104 -303.562 170.416 -304.522 170.705 -305.489C170.86 -304.506 171.008 -303.527 171.153 -302.542C170.907 -301.545 170.638 -300.555 170.381 -299.556ZM169.443 -304.221C169.21 -305.314 168.976 -306.407 168.717 -307.489C169.087 -308.519 169.45 -309.554 169.798 -310.58C170.003 -309.525 170.198 -308.469 170.378 -307.404C170.079 -306.344 169.769 -305.281 169.443 -304.221ZM170.16 -311.652C170.484 -312.631 170.798 -313.608 171.102 -314.583C171.251 -313.604 171.383 -312.627 171.521 -311.647C171.269 -310.654 171.01 -309.666 170.742 -308.675C170.562 -309.675 170.364 -310.661 170.16 -311.652ZM169.823 -313.382C169.595 -314.47 169.349 -315.544 169.101 -316.628C169.491 -317.662 169.864 -318.699 170.238 -319.735C170.434 -318.668 170.616 -317.593 170.796 -316.528C170.474 -315.475 170.157 -314.427 169.823 -313.382ZM170.635 -320.846C170.972 -321.816 171.292 -322.789 171.615 -323.751C171.755 -322.787 171.896 -321.823 172.022 -320.85C171.746 -319.837 171.477 -318.82 171.181 -317.803C171.008 -318.826 170.827 -319.837 170.635 -320.846ZM170.275 -322.647C170.056 -323.747 169.827 -324.846 169.587 -325.943C169.996 -326.964 170.398 -327.989 170.779 -329.011C170.966 -327.942 171.152 -326.873 171.317 -325.8C170.989 -324.751 170.63 -323.696 170.275 -322.647ZM171.237 -330.234C171.577 -331.157 171.922 -332.086 172.247 -333C172.381 -332.013 172.494 -331.023 172.618 -330.034C172.341 -329.085 172.055 -328.135 171.758 -327.182C171.581 -328.199 171.42 -329.213 171.237 -330.234ZM169.769 -334.346C170.003 -333.189 170.227 -332.03 170.445 -330.876C170.044 -329.786 169.632 -328.694 169.209 -327.601C168.938 -328.783 168.663 -329.959 168.371 -331.138C168.84 -332.208 169.316 -333.274 169.769 -334.346ZM167.967 -330.242C168.26 -329.025 168.537 -327.812 168.814 -326.598C168.377 -325.496 167.929 -324.393 167.472 -323.287C167.151 -324.504 166.808 -325.727 166.472 -326.946C166.981 -328.034 167.476 -329.141 167.967 -330.242ZM166.103 -326.153C166.45 -324.909 166.79 -323.669 167.116 -322.421C166.637 -321.285 166.149 -320.136 165.649 -318.996C165.28 -320.247 164.894 -321.5 164.504 -322.747C165.047 -323.884 165.57 -325.018 166.103 -326.153ZM164.173 -322.074C164.567 -320.806 164.946 -319.53 165.319 -318.259C164.811 -317.106 164.281 -315.95 163.741 -314.792C163.325 -316.067 162.893 -317.333 162.456 -318.603C163.039 -319.759 163.606 -320.916 164.173 -322.074ZM162.166 -318.002C162.605 -316.721 163.038 -315.444 163.451 -314.164C163.23 -313.688 163.017 -313.224 162.796 -312.748C162.46 -312.041 162.102 -311.341 161.756 -310.633C161.3 -311.916 160.835 -313.187 160.359 -314.467C160.965 -315.642 161.572 -316.818 162.166 -318.002ZM160.091 -313.95C160.568 -312.67 161.03 -311.383 161.492 -310.095C160.906 -308.897 160.325 -307.693 159.712 -306.495C159.219 -307.777 158.715 -309.057 158.201 -310.335C158.835 -311.537 159.469 -312.739 160.091 -313.95ZM157.964 -309.889C158.474 -308.604 158.977 -307.324 159.477 -306.038C158.855 -304.828 158.217 -303.619 157.578 -302.411C157.056 -303.677 156.533 -304.943 155.996 -306.201C156.657 -307.429 157.313 -308.662 157.964 -309.889ZM155.783 -305.828C156.322 -304.56 156.845 -303.294 157.369 -302.018C156.718 -300.791 156.055 -299.573 155.385 -298.359C154.839 -299.605 154.289 -300.844 153.733 -302.088C154.424 -303.332 155.104 -304.575 155.783 -305.828ZM153.554 -301.765C154.111 -300.521 154.661 -299.282 155.207 -298.036C154.526 -296.794 153.841 -295.545 153.138 -294.308C152.579 -295.535 152.01 -296.761 151.431 -297.984C152.143 -299.232 152.851 -300.502 153.554 -301.765ZM125.392 -252.99C129.903 -261.089 134.703 -269.252 139.353 -277.146C143.342 -283.929 147.363 -290.772 151.282 -297.704C151.855 -296.485 152.425 -295.26 152.987 -294.039C147.567 -284.472 141.745 -275.112 136.038 -265.945C131.14 -258.087 126.081 -249.957 121.377 -241.855C115.706 -232.097 110.807 -222.744 106.655 -213.72C111.194 -225.413 117.289 -238.443 125.392 -252.99ZM101.625 -199.458C106.746 -212.645 113.582 -226.547 122.199 -241.375C126.899 -249.472 131.96 -257.591 136.85 -265.436C142.445 -274.416 148.145 -283.588 153.476 -292.961C154.055 -291.683 154.629 -290.4 155.197 -289.121C148.583 -277.217 141.07 -265.737 133.725 -254.523C128.541 -246.608 123.18 -238.423 118.225 -230.221C111.599 -219.257 105.974 -208.674 101.32 -198.429C101.419 -198.78 101.521 -199.111 101.625 -199.458ZM99.4083 -191.819C104.514 -203.949 111.041 -216.579 119.007 -229.761C123.949 -237.945 129.306 -246.123 134.485 -254.032C141.713 -265.063 149.103 -276.355 155.649 -288.068C156.211 -286.766 156.772 -285.465 157.319 -284.155C149.709 -269.886 140.463 -256.379 131.454 -243.227C125.965 -235.213 120.293 -226.935 115.076 -218.604C108.781 -208.55 103.347 -198.793 98.7669 -189.309C98.9784 -190.138 99.1796 -190.965 99.4083 -191.819ZM96.8471 -185.441C96.8198 -185.323 96.7987 -185.201 96.7715 -185.083C96.6326 -184.778 96.498 -184.479 96.3633 -184.18C96.5191 -184.602 96.6809 -185.018 96.8471 -185.441ZM97.7928 -185.205C102.711 -195.831 108.715 -206.79 115.82 -218.143C121.024 -226.454 126.692 -234.727 132.183 -242.73C141.072 -255.71 150.2 -269.034 157.763 -283.117C158.305 -281.801 158.831 -280.487 159.353 -279.167C150.964 -262.465 139.921 -246.985 129.196 -231.95C123.408 -223.833 117.422 -215.443 111.944 -206.985C106.296 -198.27 101.306 -189.69 96.9629 -181.256C97.2063 -182.537 97.4901 -183.864 97.7928 -185.205ZM94.7122 -178.275C95.128 -179.254 95.5482 -180.24 95.9848 -181.223C95.7951 -180.242 95.6159 -179.262 95.4427 -178.278C94.9368 -177.261 94.4414 -176.246 93.9564 -175.232C94.1963 -176.233 94.449 -177.253 94.7122 -178.275ZM92.2938 -172.299C92.214 -171.935 92.1298 -171.564 92.0561 -171.196C91.9586 -170.99 91.8611 -170.784 91.7698 -170.574C91.9348 -171.152 92.1165 -171.729 92.2938 -172.299ZM93.1014 -171.483C93.7173 -172.816 94.3541 -174.153 95.0055 -175.498C94.8189 -174.26 94.649 -173.018 94.4955 -171.775C93.7589 -170.425 93.0431 -169.079 92.3439 -167.73C92.5764 -168.983 92.8316 -170.229 93.1014 -171.483ZM90.2382 -165.05C90.5975 -165.895 90.9628 -166.737 91.3325 -167.584C91.1586 -166.665 91.0054 -165.749 90.8523 -164.834C90.3964 -163.928 89.9448 -163.028 89.5054 -162.119C89.7405 -163.087 89.9842 -164.068 90.2382 -165.05ZM87.2149 -157.56C87.4601 -158.202 87.7053 -158.844 87.9567 -159.481C87.8725 -159.111 87.7945 -158.736 87.7207 -158.368C87.4758 -157.844 87.2266 -157.315 86.986 -156.798C87.0533 -157.052 87.1372 -157.304 87.2149 -157.56ZM88.7165 -158.662C89.2862 -159.863 89.8559 -161.064 90.4568 -162.271C90.2649 -160.972 90.0939 -159.677 89.9375 -158.389C89.2399 -157.122 88.5631 -155.858 87.8925 -154.59C88.1455 -155.938 88.4175 -157.3 88.7165 -158.662ZM85.5942 -151.724C86.0643 -152.821 86.5466 -153.91 87.0376 -155.01C86.8382 -153.963 86.6493 -152.917 86.4751 -151.879C85.9051 -150.77 85.3456 -149.662 84.8026 -148.552C85.054 -149.609 85.3158 -150.668 85.5942 -151.724ZM83.1633 -145.849C83.2509 -146.08 83.3447 -146.307 83.4385 -146.534C83.3313 -146.051 83.2303 -145.565 83.1336 -145.085C82.9429 -144.679 82.7565 -144.279 82.57 -143.879C82.7637 -144.539 82.9592 -145.188 83.1633 -145.849ZM81.2349 -139.15C81.6502 -140.102 82.0717 -141.051 82.5078 -142.007C82.2855 -140.848 82.0797 -139.686 81.8887 -138.532C81.3468 -137.476 80.8049 -136.42 80.2795 -135.361C80.5868 -136.617 80.8983 -137.878 81.2349 -139.15ZM78.4368 -132.444C78.6815 -133.058 78.9322 -133.669 79.1812 -134.29C79.011 -133.56 78.8451 -132.835 78.6957 -132.109C78.3624 -131.419 78.0352 -130.724 77.7123 -130.036C77.9503 -130.838 78.1841 -131.634 78.4368 -132.444ZM76.5156 -125.795C77.0327 -126.959 77.5601 -128.126 78.1023 -129.3C77.8576 -128.056 77.6336 -126.816 77.4201 -125.577C76.7794 -124.353 76.1472 -123.14 75.5377 -121.921C75.8455 -123.204 76.168 -124.494 76.5156 -125.795ZM73.6971 -119.111C73.9942 -119.854 74.2955 -120.603 74.6029 -121.347C74.406 -120.526 74.2195 -119.707 74.0391 -118.883C73.6626 -118.105 73.286 -117.326 72.9155 -116.543C73.1712 -117.397 73.4311 -118.256 73.6971 -119.111ZM71.7636 -112.471C72.3154 -113.712 72.8838 -114.95 73.473 -116.193C73.2144 -114.876 72.9704 -113.568 72.7491 -112.252C72.0571 -110.954 71.3817 -109.653 70.7209 -108.36C71.0554 -109.733 71.396 -111.102 71.7636 -112.471ZM68.9164 -105.799C69.2567 -106.63 69.6012 -107.467 69.9519 -108.3C69.7302 -107.378 69.5189 -106.457 69.3118 -105.543C68.8749 -104.651 68.4422 -103.765 68.0261 -102.877C68.3132 -103.855 68.6127 -104.824 68.9164 -105.799ZM68.7983 -103.098C68.5111 -101.701 68.2551 -100.31 68.0095 -98.9202C67.2681 -97.5372 66.5518 -96.1642 65.8416 -94.7869C66.19 -96.2328 66.5592 -97.6825 66.9597 -99.1379C67.5566 -100.457 68.164 -101.778 68.7983 -103.098ZM64.0641 -92.4353C64.4696 -93.4128 64.875 -94.3904 65.3013 -95.3717C65.0462 -94.3355 64.8057 -93.3073 64.5757 -92.281C64.057 -91.2452 63.5592 -90.2132 63.0613 -89.1811C63.3837 -90.2619 63.7166 -91.3446 64.0641 -92.4353ZM64.0715 -89.9944C63.7618 -88.5125 63.4773 -87.0406 63.2197 -85.5681C62.4227 -84.1051 61.6423 -82.6397 60.8828 -81.1781C61.2597 -82.7046 61.6532 -84.2286 62.0718 -85.7626C62.7225 -87.1721 63.3896 -88.5793 64.0715 -89.9944ZM59.1279 -79.0297C59.5529 -80.0484 59.9883 -81.0691 60.434 -82.0916C60.1546 -80.981 59.8917 -79.868 59.6392 -78.757C59.0797 -77.6492 58.5324 -76.5329 57.9937 -75.4288C58.36 -76.6252 58.7366 -77.8234 59.1279 -79.0297ZM59.1848 -76.6731C58.8593 -75.1292 58.5505 -73.5829 58.2771 -72.0484C57.4417 -70.53 56.6167 -69.0134 55.8229 -67.5026C56.2181 -69.1076 56.6401 -70.7122 57.0935 -72.3225C57.7697 -73.7689 58.4669 -75.2191 59.1848 -76.6731ZM56.4246 -72.1846C56.4065 -72.1059 56.3821 -72.0316 56.3536 -71.9511C56.3146 -71.8687 56.2798 -71.7924 56.2408 -71.71C56.3041 -71.8668 56.3674 -72.0235 56.4246 -72.1846ZM54.0842 -65.5346C54.5652 -66.6604 55.0462 -67.7861 55.5481 -68.9157C55.2353 -67.6914 54.9329 -66.4691 54.6512 -65.2505C54.0314 -64.0295 53.4219 -62.8104 52.8185 -61.587C53.2224 -62.9032 53.6429 -64.217 54.0842 -65.5346ZM51.5563 -59.2701C51.4781 -58.9869 51.3894 -58.7018 51.3068 -58.4124C51.1661 -58.1178 51.0315 -57.8189 50.8968 -57.5201C51.1097 -58.1021 51.3331 -58.6861 51.5563 -59.2701ZM48.9144 -51.9627C49.4454 -53.1998 49.9929 -54.4345 50.5508 -55.6711C50.1875 -54.3086 49.8512 -52.9456 49.5252 -51.5844C48.8455 -50.2772 48.1658 -48.97 47.5192 -47.6581C47.9669 -49.0898 48.4354 -50.5253 48.9144 -51.9627ZM46.5487 -46.2334C46.3951 -45.7105 46.2353 -45.1919 46.086 -44.6752C45.8563 -44.1869 45.6144 -43.7071 45.3889 -43.225C45.768 -44.23 46.1531 -45.2308 46.5487 -46.2334ZM43.5346 -38.0622C44.1479 -39.4702 44.7611 -40.8783 45.4179 -42.2835C45.0199 -40.8447 44.6531 -39.4115 44.3028 -37.9761C43.531 -36.523 42.8069 -35.0732 42.0724 -33.6216C42.5335 -35.0988 43.0258 -36.5817 43.5346 -38.0622ZM41.3239 -32.8183C41.1398 -32.2253 40.9558 -31.6324 40.7821 -31.0413C40.4446 -30.3451 40.1235 -29.6465 39.7963 -28.9522C40.2849 -30.2461 40.8023 -31.5291 41.3239 -32.8183ZM38.0729 -24.3188C38.7204 -25.7761 39.4009 -27.2287 40.0919 -28.6832C39.6653 -27.1639 39.2595 -25.6483 38.8745 -24.1366C38.0685 -22.6343 37.2686 -21.1277 36.4999 -19.6268C37.0104 -21.1883 37.5208 -22.7497 38.0729 -24.3188ZM36.1595 -19.936C35.8654 -19.0271 35.5756 -18.1244 35.298 -17.2132C34.8702 -16.3607 34.4423 -15.5082 34.031 -14.6533C34.7156 -16.4132 35.4167 -18.1708 36.1595 -19.936ZM32.5643 -10.7176C33.2758 -12.2672 33.9935 -13.8126 34.7528 -15.3656C34.2653 -13.7061 33.7943 -12.0442 33.3589 -10.3942C32.4674 -8.76872 31.6029 -7.14277 30.7549 -5.51446C31.3207 -7.2474 31.9299 -8.9775 32.5643 -10.7176ZM30.6177 -6.33941C30.2737 -5.31926 29.9297 -4.29911 29.6022 -3.27658C29.0859 -2.25735 28.5696 -1.23811 28.0742 -0.222682C28.8867 -2.25875 29.7305 -4.3005 30.6177 -6.33941ZM23.792 10.5625C23.1598 11.7749 22.5442 12.9898 21.939 14.2027C22.9081 11.81 23.9206 9.42015 24.9914 7.02506C24.5736 8.2039 24.1828 9.38317 23.792 10.5625ZM27.5656 3.53864C27.5589 3.56137 27.5522 3.5841 27.5455 3.60683C26.5838 5.32041 25.6552 7.03872 24.7474 8.75323C25.3535 6.9753 26.0012 5.18978 26.6716 3.41088C27.443 1.77502 28.2352 0.13533 29.0543 -1.50387C28.5331 0.17791 28.0328 1.85591 27.5656 3.53864ZM31.6584 -3.47341C30.5317 -1.60068 29.4423 0.270619 28.3756 2.14854C28.9334 0.191127 29.5243 -1.76156 30.1525 -3.71568C31.0852 -5.53155 32.0448 -7.34696 33.0252 -9.16613C32.807 -8.31412 32.5679 -7.45831 32.36 -6.60819C32.1172 -5.56342 31.8847 -4.52054 31.6584 -3.47341ZM36.0319 -10.5096C35.1709 -9.16406 34.3099 -7.81848 33.482 -6.46817C33.1025 -5.85576 32.7353 -5.23483 32.3557 -4.62242C32.5011 -5.25137 32.636 -5.87842 32.7814 -6.50737C33.1206 -7.91396 33.4973 -9.32202 33.8783 -10.7362C34.9222 -12.6207 35.9914 -14.5153 37.0997 -16.4007C36.708 -14.4467 36.3513 -12.4774 36.0319 -10.5096ZM40.6746 -17.5142C39.3024 -15.5107 37.9738 -13.5044 36.6764 -11.5038C36.97 -13.2248 37.2803 -14.9435 37.6359 -16.649C37.7006 -16.9781 37.7818 -17.3049 37.8464 -17.6341C39.0103 -19.5996 40.2116 -21.5666 41.4441 -23.5393C41.1469 -21.5378 40.889 -19.5274 40.6746 -17.5142ZM45.5869 -24.514C44.1125 -22.4812 42.6816 -20.4455 41.2819 -18.4155C41.5163 -20.4969 41.8108 -22.5732 42.1385 -24.6447C43.4089 -26.6458 44.7106 -28.6526 46.0454 -30.6546C45.8593 -28.6035 45.694 -26.5561 45.5869 -24.514ZM50.8172 -31.5395C49.2448 -29.4834 47.7055 -27.4226 46.2097 -25.359C46.3301 -27.4466 46.4965 -29.5479 46.7082 -31.636C48.0767 -33.6603 49.4763 -35.6903 50.9134 -37.7217C50.8327 -35.6521 50.798 -33.5962 50.8172 -31.5395ZM56.313 -38.5541C54.6468 -36.4809 53.0138 -34.4031 51.4181 -32.3266C51.4141 -34.4185 51.4456 -36.5222 51.5415 -38.6268C53.0037 -40.6682 54.4971 -42.7152 56.034 -44.7595C56.0613 -43.3174 56.1156 -41.8748 56.1845 -40.4403C56.2218 -39.8124 56.2757 -39.182 56.313 -38.5541ZM62.1035 -45.5739C60.3375 -43.488 58.6107 -41.3931 56.9213 -39.2996C56.9 -39.6884 56.8664 -40.0857 56.8451 -40.4745C56.7546 -42.1794 56.7118 -43.8877 56.6899 -45.5997C58.2458 -47.6581 59.8494 -49.7198 61.4758 -51.775C61.5083 -51.3236 61.5304 -50.8704 61.5733 -50.421C61.7071 -48.8047 61.8949 -47.1874 62.1035 -45.5739ZM68.1765 -52.6075C66.3168 -50.5045 64.4944 -48.403 62.7052 -46.2967C62.5358 -47.6913 62.3811 -49.0941 62.2596 -50.4921C62.1945 -51.185 62.1607 -51.8835 62.106 -52.5783C63.7556 -54.6538 65.4445 -56.7203 67.1707 -58.7882C67.4553 -56.7205 67.7816 -54.6605 68.1765 -52.6075ZM74.5585 -59.6274C73.3749 -58.3415 72.1748 -57.0579 71.0078 -55.7696C70.263 -54.9454 69.5286 -54.1232 68.7899 -53.2948C68.4017 -55.3705 68.0802 -57.4637 67.8023 -59.554C69.5518 -61.6423 71.3343 -63.7259 73.1562 -65.8005C73.5738 -63.7409 74.0349 -61.6785 74.5585 -59.6274ZM81.2605 -66.781C79.2195 -64.6396 77.203 -62.4812 75.197 -60.3246C74.6758 -62.3922 74.2128 -64.4651 73.8019 -66.5474C73.9931 -66.7705 74.18 -66.9874 74.3774 -67.2063C76.0398 -69.0904 77.7414 -70.9656 79.4492 -72.8365C80.0003 -70.812 80.6034 -68.7969 81.2605 -66.781ZM88.2008 -74.0155C86.0949 -71.8462 83.997 -69.6622 81.9113 -67.4696C81.2628 -69.4979 80.6516 -71.5277 80.1133 -73.5706C82.0692 -75.7073 84.0435 -77.8311 86.0301 -79.9464C86.6981 -77.9593 87.4286 -75.9836 88.2008 -74.0155ZM95.3681 -81.3936C93.2157 -79.1835 91.0444 -76.9592 88.8663 -74.7122C88.0923 -76.6908 87.3703 -78.6788 86.7108 -80.6782C88.7566 -82.8527 90.8147 -85.0187 92.8705 -87.1681C93.6475 -85.2332 94.4827 -83.3034 95.3681 -81.3936ZM102.715 -88.9388C100.497 -86.6468 98.2704 -84.3695 96.0502 -82.0879C95.1671 -84.0144 94.3424 -85.9461 93.5678 -87.8976C95.2886 -89.6956 97.0095 -91.4935 98.7175 -93.273C99.1202 -93.696 99.529 -94.1147 99.9318 -94.5377C100.812 -92.6591 101.727 -90.7923 102.715 -88.9388ZM110.226 -96.7721C107.964 -94.3915 105.694 -92.0256 103.417 -89.6744C102.439 -91.5298 101.511 -93.4051 100.636 -95.2899C102.819 -97.57 105.006 -99.8563 107.187 -102.147C108.161 -100.339 109.161 -98.5417 110.226 -96.7721ZM163.542 -174.15C152.865 -144.723 132.585 -120.391 110.95 -97.528C109.89 -99.3038 108.89 -101.101 107.922 -102.905C130.535 -126.758 152.481 -151.905 163.773 -182.703C168.091 -194.484 170.733 -206.891 171.642 -219.397C171.518 -204.011 168.792 -188.624 163.542 -174.15ZM171.608 -223.909C171.057 -209.914 168.325 -195.974 163.491 -182.807C152.227 -152.09 130.342 -126.992 107.77 -103.184C106.804 -105.004 105.879 -106.831 105.015 -108.68C128.361 -133.485 151.896 -159.335 163.765 -191.356C167.861 -202.398 170.464 -214.002 171.542 -225.715C171.569 -225.112 171.591 -224.514 171.608 -223.909ZM163.443 -191.47C151.614 -159.558 128.151 -133.758 104.86 -109.007C103.994 -110.867 103.195 -112.744 102.443 -114.635C103.159 -115.405 103.866 -116.174 104.578 -116.939C127.75 -141.964 151.709 -167.849 163.765 -199.996C167.468 -209.869 169.98 -220.213 171.267 -230.668C171.324 -229.899 171.386 -229.135 171.437 -228.37C170.519 -215.798 167.838 -203.308 163.443 -191.47ZM171.657 -232.541C171.625 -231.761 171.587 -230.985 171.542 -230.213C171.496 -230.801 171.46 -231.392 171.414 -231.98C171.485 -232.634 171.552 -233.28 171.612 -233.932C171.632 -233.462 171.65 -233.002 171.657 -232.541ZM171.481 -236.823C171.403 -235.846 171.32 -234.874 171.226 -233.899C171.148 -234.692 171.075 -235.491 170.981 -236.286C170.981 -236.313 170.971 -236.338 170.972 -236.365C171.104 -237.25 171.233 -238.145 171.349 -239.032C171.398 -238.304 171.44 -237.564 171.481 -236.823ZM171.737 -241.034C171.71 -240.378 171.678 -239.716 171.64 -239.058C171.602 -239.54 171.553 -240.021 171.515 -240.504C171.584 -241.076 171.652 -241.658 171.711 -242.229C171.724 -241.827 171.73 -241.43 171.737 -241.034ZM171.568 -245.366C171.496 -244.449 171.419 -243.526 171.326 -242.605C171.311 -242.753 171.301 -242.896 171.285 -243.044C171.221 -243.645 171.133 -244.254 171.062 -244.859C171.195 -245.706 171.322 -246.558 171.428 -247.406C171.479 -246.732 171.532 -246.047 171.568 -245.366ZM171.846 -249.607C171.815 -249.025 171.775 -248.442 171.744 -247.861C171.709 -248.269 171.684 -248.679 171.649 -249.087C171.704 -249.559 171.763 -250.038 171.818 -250.511C171.824 -250.205 171.835 -249.906 171.846 -249.607ZM171.672 -253.932C171.601 -253.069 171.514 -252.209 171.426 -251.348C171.353 -252.056 171.28 -252.763 171.196 -253.469C171.326 -254.273 171.446 -255.075 171.56 -255.881C171.596 -255.226 171.638 -254.577 171.672 -253.932ZM171.957 -258.196C171.932 -257.702 171.914 -257.204 171.879 -256.708C171.856 -257.016 171.817 -257.326 171.794 -257.634C171.846 -258.063 171.888 -258.49 171.94 -258.919C171.956 -258.68 171.951 -258.437 171.957 -258.196ZM171.772 -263.305C171.788 -263.066 171.793 -262.825 171.805 -262.58C171.731 -261.765 171.652 -260.943 171.568 -260.126C171.5 -260.776 171.425 -261.429 171.351 -262.083C171.476 -262.826 171.584 -263.572 171.699 -264.314C171.721 -263.979 171.756 -263.636 171.772 -263.305ZM172.125 -266.882C172.1 -266.426 172.068 -265.973 172.032 -265.515C172.01 -265.785 171.99 -266.045 171.975 -266.311C172.019 -266.664 172.07 -267.012 172.11 -267.358C172.117 -267.198 172.124 -267.038 172.125 -266.882ZM171.972 -271.158C171.901 -270.413 171.818 -269.677 171.731 -268.935C171.668 -269.553 171.6 -270.175 171.531 -270.798C171.65 -271.481 171.766 -272.158 171.875 -272.84C171.911 -272.276 171.948 -271.713 171.972 -271.158ZM172.312 -275.529C172.29 -275.17 172.275 -274.806 172.247 -274.452C172.23 -274.637 172.211 -274.832 172.2 -275.013C172.239 -275.278 172.275 -275.554 172.314 -275.819C172.31 -275.722 172.31 -275.63 172.312 -275.529ZM171.67 -275.6C171.551 -274.707 171.41 -273.81 171.274 -272.919C171.172 -273.702 171.059 -274.483 170.95 -275.27C171.135 -276.126 171.31 -276.981 171.472 -277.845C171.542 -277.094 171.606 -276.347 171.67 -275.6ZM172.176 -279.92C172.108 -279.219 172.029 -278.516 171.945 -277.818C171.891 -278.357 171.831 -278.9 171.766 -279.447C171.88 -280.098 171.991 -280.742 172.095 -281.39C172.129 -280.901 172.152 -280.411 172.176 -279.92ZM172.547 -284.205C172.527 -283.927 172.501 -283.653 172.481 -283.375C172.473 -283.481 172.464 -283.588 172.456 -283.694C172.485 -283.893 172.514 -284.092 172.543 -284.29C172.546 -284.27 172.548 -284.232 172.547 -284.205ZM171.898 -284.345C171.775 -283.473 171.642 -282.599 171.502 -281.729C171.405 -282.507 171.292 -283.288 171.183 -284.075C171.364 -284.899 171.54 -285.716 171.699 -286.536C171.766 -285.806 171.838 -285.071 171.898 -284.345ZM172.433 -288.563C172.364 -287.927 172.279 -287.292 172.204 -286.66C172.148 -287.21 172.099 -287.755 172.038 -288.308C172.149 -288.888 172.26 -289.468 172.361 -290.045C172.39 -289.551 172.409 -289.054 172.433 -288.563ZM172.781 -292.381C172.776 -292.44 172.772 -292.487 172.767 -292.546C172.777 -292.639 172.798 -292.734 172.814 -292.823C172.807 -292.682 172.796 -292.535 172.781 -292.381ZM172.165 -293.146C172.039 -292.321 171.908 -291.491 171.761 -290.662C171.662 -291.451 171.568 -292.247 171.457 -293.044C171.635 -293.824 171.823 -294.606 171.99 -295.384C172.06 -294.633 172.111 -293.895 172.165 -293.146ZM172.749 -297.54C172.676 -296.924 172.604 -296.308 172.525 -295.697C172.479 -296.221 172.417 -296.748 172.366 -297.276C172.476 -297.829 172.587 -298.382 172.693 -298.928C172.707 -298.463 172.731 -297.999 172.749 -297.54ZM173.156 -301.535C173.157 -301.562 173.151 -301.594 173.151 -301.621C173.159 -301.67 173.166 -301.72 173.173 -301.77C173.171 -301.689 173.164 -301.612 173.156 -301.535ZM172.5 -302.228C172.363 -301.402 172.242 -300.573 172.089 -299.749C172.002 -300.475 171.898 -301.204 171.794 -301.933C171.986 -302.721 172.151 -303.51 172.333 -304.296C172.392 -303.607 172.447 -302.912 172.5 -302.228ZM171.496 -304.138C171.366 -305.013 171.209 -305.888 171.058 -306.759C171.313 -307.65 171.569 -308.53 171.807 -309.423C171.908 -308.559 172.003 -307.7 172.087 -306.838C171.905 -305.934 171.7 -305.036 171.496 -304.138ZM173.127 -306.527C173.051 -305.96 172.982 -305.387 172.906 -304.82C172.886 -305.053 172.87 -305.292 172.854 -305.531C172.832 -305.774 172.799 -306.016 172.773 -306.253C172.878 -306.773 172.997 -307.284 173.096 -307.807C173.108 -307.379 173.115 -306.956 173.127 -306.527ZM172.899 -311.666C172.909 -311.523 172.912 -311.384 172.922 -311.24C172.785 -310.441 172.639 -309.639 172.486 -308.842C172.403 -309.575 172.32 -310.307 172.227 -311.038C172.416 -311.783 172.601 -312.521 172.775 -313.258C172.81 -312.731 172.868 -312.199 172.899 -311.666ZM173.601 -315.64C173.528 -315.089 173.444 -314.536 173.365 -313.989C173.328 -314.434 173.295 -314.885 173.259 -315.33C173.372 -315.835 173.47 -316.343 173.583 -316.847C173.59 -316.451 173.598 -316.043 173.601 -315.64ZM172.554 -315.993C172.349 -315.068 172.137 -314.147 171.915 -313.225C171.788 -314.116 171.66 -315.007 171.516 -315.901C171.779 -316.777 172.037 -317.647 172.284 -318.515C172.376 -317.677 172.477 -316.84 172.554 -315.993ZM173.43 -320.284C173.288 -319.543 173.137 -318.8 172.985 -318.056C172.91 -318.774 172.829 -319.497 172.748 -320.219C172.943 -320.932 173.142 -321.651 173.324 -322.373C173.374 -321.672 173.396 -320.982 173.43 -320.284ZM174.203 -324.728C174.179 -324.562 174.155 -324.397 174.131 -324.231C174.077 -323.903 174.012 -323.574 173.958 -323.247C173.925 -323.671 173.887 -324.09 173.854 -324.514C173.961 -324.969 174.084 -325.422 174.186 -325.871C174.189 -325.495 174.198 -325.114 174.203 -324.728ZM173.099 -325.129C172.886 -324.246 172.68 -323.359 172.452 -322.467C172.335 -323.361 172.208 -324.252 172.08 -325.143C172.357 -326 172.617 -326.86 172.876 -327.719C172.961 -326.858 173.029 -325.999 173.099 -325.129ZM174.09 -329.56C173.938 -328.816 173.78 -328.078 173.618 -327.333C173.549 -328.019 173.463 -328.708 173.383 -329.393C173.592 -330.115 173.785 -330.838 173.99 -331.553C174.023 -330.892 174.062 -330.227 174.09 -329.56ZM174.95 -334.181C174.86 -333.659 174.773 -333.127 174.678 -332.609C174.65 -333.002 174.629 -333.391 174.601 -333.784C174.718 -334.241 174.825 -334.696 174.942 -335.153C174.94 -334.835 174.95 -334.509 174.95 -334.181ZM173.813 -334.404C173.586 -333.54 173.349 -332.674 173.111 -331.808C173.002 -332.686 172.872 -333.561 172.747 -334.442C173.036 -335.29 173.335 -336.141 173.609 -336.982C173.681 -336.129 173.745 -335.263 173.813 -334.404ZM174.889 -338.866C174.808 -338.512 174.742 -338.156 174.661 -337.802C174.568 -337.42 174.465 -337.035 174.372 -336.653C174.309 -337.362 174.247 -338.071 174.178 -338.785C174.397 -339.481 174.623 -340.173 174.832 -340.868C174.862 -340.19 174.873 -339.525 174.889 -338.866ZM175.86 -343.319C175.774 -342.868 175.662 -342.417 175.57 -341.97C175.554 -342.355 175.527 -342.748 175.501 -343.13C175.613 -343.527 175.741 -343.922 175.853 -344.319C175.864 -344.348 175.869 -344.381 175.88 -344.41C175.868 -344.053 175.869 -343.687 175.86 -343.319ZM174.686 -343.751C174.442 -342.889 174.189 -342.025 173.924 -341.16C173.822 -342.061 173.713 -342.966 173.596 -343.86C173.914 -344.697 174.209 -345.542 174.514 -346.388C174.575 -345.506 174.631 -344.629 174.686 -343.751ZM175.885 -348.219C175.696 -347.502 175.508 -346.784 175.319 -346.067C175.267 -346.778 175.21 -347.483 175.152 -348.199C175.387 -348.866 175.633 -349.534 175.856 -350.21C175.874 -349.54 175.879 -348.88 175.885 -348.219ZM176.974 -352.7C176.872 -352.25 176.766 -351.795 176.663 -351.346C176.65 -351.748 176.632 -352.153 176.619 -352.554C176.758 -352.977 176.893 -353.395 177.032 -353.818C177.008 -353.443 176.988 -353.073 176.974 -352.7Z" fill="black" fill-opacity="0.5"/>
</svg>
