<svg width="24" height="26" viewBox="0 0 24 26" fill="none" xmlns="http://www.w3.org/2000/svg">
<path fill-rule="evenodd" clip-rule="evenodd" d="M22.0606 14.2955H18.1212C17.6863 14.2955 17.3333 14.6485 17.3333 15.0834V18.2349C17.3333 18.6706 17.6863 19.0228 18.1212 19.0228H22.0606V22.9622C22.0606 23.3979 21.7076 23.7501 21.2727 23.7501H2.36364C1.92873 23.7501 1.57576 23.3979 1.57576 22.9622V7.99251H21.2727C21.7076 7.99251 22.0606 8.3447 22.0606 8.78039V14.2955ZM22.0606 16.6592V17.4471H18.9091V16.6592V15.8713H22.0606V16.6592ZM20.4848 1.68948V6.41676H5.12121L20.4848 1.68948ZM22.0606 6.41676V0.901605C22.0606 0.465908 21.8747 0.224808 21.4697 0.0648682C21.1577 -0.0588288 20.8544 0.015241 20.4848 0.113726L0 6.41676V23.7501C0 24.6199 0.705939 25.3258 1.57576 25.3258H22.0606C22.9304 25.3258 23.6364 24.6199 23.6364 23.7501V7.99251C23.6364 7.1227 22.9304 6.41676 22.0606 6.41676Z" fill="#BDBDBD"/>
</svg>
