<svg width="52" height="52" viewBox="0 0 52 52" fill="none" xmlns="http://www.w3.org/2000/svg">
<rect width="52" height="52" rx="26" fill="#161716"/>
<path fill-rule="evenodd" clip-rule="evenodd" d="M30.228 26.3931C30.228 25.6927 30.7958 25.1249 31.4962 25.1249H31.5114C32.2118 25.1249 32.7796 25.6927 32.7796 26.3931C32.7796 27.0935 32.2118 27.6613 31.5114 27.6613H31.4962C30.7958 27.6613 30.228 27.0935 30.228 26.3931Z" fill="white"/>
<path fill-rule="evenodd" clip-rule="evenodd" d="M25.0518 26.3931C25.0518 25.6927 25.6195 25.1249 26.3199 25.1249H26.3351C27.0355 25.1249 27.6033 25.6927 27.6033 26.3931C27.6033 27.0935 27.0355 27.6613 26.3351 27.6613H26.3199C25.6195 27.6613 25.0518 27.0935 25.0518 26.3931Z" fill="white"/>
<path fill-rule="evenodd" clip-rule="evenodd" d="M19.875 26.3931C19.875 25.6927 20.4428 25.1249 21.1432 25.1249H21.1584C21.8588 25.1249 22.4266 25.6927 22.4266 26.3931C22.4266 27.0935 21.8588 27.6613 21.1584 27.6613H21.1432C20.4428 27.6613 19.875 27.0935 19.875 26.3931Z" fill="white"/>
<path fill-rule="evenodd" clip-rule="evenodd" d="M34.2497 34.2481C30.6854 37.8141 25.4047 38.5845 21.0842 36.5863C20.4464 36.3295 16.3182 37.4728 15.4224 36.5781C14.5266 35.6822 15.671 31.5535 15.4142 30.9156C13.4151 26.5956 14.1866 21.313 17.7521 17.7483C22.3035 13.195 29.6982 13.195 34.2497 17.7483C38.8106 22.3086 38.8012 29.696 34.2497 34.2481Z" stroke="white" stroke-width="2" stroke-linecap="round" stroke-linejoin="round"/>
</svg>
