<svg width="32" height="29" viewBox="0 0 32 29" fill="none" xmlns="http://www.w3.org/2000/svg">
<path d="M20.1836 2.4185L31.3547 21.7674C31.7783 22.5001 32.0008 23.3315 31.9999 24.1778C31.9999 26.8447 29.8379 29.0068 27.1709 29.0068H15.9999L12.1367 14.5034L15.9999 0C17.7887 0 19.3491 0.973312 20.1836 2.4185Z" fill="white"/>
<path d="M11.8163 2.4185L0.64519 21.7674C0.221639 22.5001 -0.000926535 23.3316 2.89908e-06 24.1778C2.89908e-06 26.8447 2.162 29.0068 4.829 29.0068H16V0C14.2113 0 12.6508 0.973312 11.8163 2.4185Z" fill="white"/>
<path d="M29.682 22.7336L18.511 3.38484C18.0075 2.51241 17.0829 1.96191 16.083 1.93359L25.6373 27.0758H27.171C28.7684 27.0758 30.0684 25.7759 30.0684 24.1784C30.0683 23.6713 29.9351 23.1731 29.682 22.7336Z" fill="#FCFCFC"/>
<path d="M27.8033 22.7336C28.0216 23.1714 28.1368 23.671 28.1368 24.1784C28.1368 25.7758 27.0159 27.0758 25.6373 27.0758H4.82902C3.23158 27.0758 1.93164 25.7758 1.93164 24.1784C1.93174 23.6713 2.06495 23.1731 2.31795 22.7336L13.489 3.38483C14.0066 2.48858 14.9686 1.93164 16 1.93164C16.0277 1.93164 16.0554 1.93227 16.0831 1.93358C16.9413 1.96708 17.734 2.51627 18.166 3.38483L27.8033 22.7336Z" fill="white"/>
<path d="M16 20.6367V23.856C16.8892 23.856 17.6097 23.1355 17.6097 22.2463C17.6097 21.3572 16.8892 20.6367 16 20.6367Z" fill="#E98724"/>
<path d="M16.0001 20.6367C16.1778 20.6367 16.322 21.3572 16.322 22.2464C16.322 23.1356 16.1778 23.8561 16.0001 23.8561C15.1109 23.8561 14.3904 23.1356 14.3904 22.2464C14.3904 21.3572 15.1109 20.6367 16.0001 20.6367Z" fill="#E98724"/>
<path d="M16 6.79395V18.7054C16.8892 18.7054 17.6097 17.9843 17.6097 17.0958V8.40363C17.6097 7.51445 16.8892 6.79395 16 6.79395Z" fill="#E98724"/>
<path d="M16.0001 6.79395C16.1778 6.79395 16.322 7.51445 16.322 8.40363V17.0958C16.322 17.9843 16.1778 18.7054 16.0001 18.7054C15.1109 18.7054 14.3904 17.9843 14.3904 17.0958V8.40363C14.3904 7.51445 15.1109 6.79395 16.0001 6.79395Z" fill="#E98724"/>
</svg>
